<?xml version="1.0" encoding="UTF-8"?>
<svg xmlns="http://www.w3.org/2000/svg" width="65" height="59" viewBox="0 0 65 59">
  <g id="Hintergrund">
    <rect id="Hintergrund-2" data-name="Hintergrund" x="3" width="59" height="59" rx="3.54" ry="3.54" fill="#555556"/>
  </g>
  <g id="Platzhalter">
    <g id="Dorfbewohner">
      <path d="M32.24,8.43c-3.98,0-7.21,3.94-7.21,8.81h0c0,.41.03.81.08,1.21v.15s0,0,0,0v.09c0,.16,0,.31.01.46.06.8.38,2.34,1.72,3.9.19.26.39.51.6.75-.07.03-.11.06-.12.1-.09.33-.51.84-.9,1.27-.22-.07-.45-.1-.67-.09-1.38.14-2.83,1.86-2.83,1.86,0,0-6.96-.21-7.37,5.51l.16.84-.11.05c.17,1.21.34,2.41.52,3.62.05.31.08.58.14.89.13.87.26,1.7.39,2.44l.03.19c.06.35.13.71.2,1.06.02.1.04.2.06.28v.05c.04.1.06.18.08.23.02.05.06.09.12.14.07.04.15.08.23.11.11.03.22.06.33.08.13.02.27.04.42.05.36.03.73.04,1.1.04.42,0,.88-.02,1.38-.04,1.09-.06,2.18-.15,3.27-.25.42.65,1.95,8.36,1.95,8.36h13.37s1.55-7.83,1.96-8.38c0,0,.02-.02.03-.02.06,0,.16,0,.3,0,.19,0,.45.02.74.04.3.02.63.04.99.06.9.05,1.93.08,2.76.04.17,0,.33-.02.47-.03.2-.02.39-.05.58-.09.05-.01.1-.03.16-.05.12-.03.23-.09.31-.17.02-.02.04-.05.05-.07.03-.07.05-.14.07-.21l.03-.09.05-.17.08-.33c.06-.25.13-.55.2-.89l.03-.15c.24-1.13.47-2.26.69-3.39l.41-2.13.35-1.86h-.04s.04-.23.04-.23c-.22-3.04-2.29-4.41-4.18-5.02-1.67-.54-3.2-.5-3.2-.5,0,0-1.45-1.72-2.83-1.86-.15-.01-.29,0-.43.03l-.15.03c-.07.02-.14.04-.2.06h0c-.06.02-.11.03-.17.05-.06-.03-.12-.05-.18-.08-1.23-.59-1.06-1.29-.99-1.45.2-.22.39-.46.57-.71,1.31-1.54,1.62-3.07,1.68-3.86,0-.15.01-.31.02-.46v-.09h-.02v-.16c.05-.39.08-.79.08-1.19,0-4.87-3.23-8.81-7.21-8.81h0s0,0,0,0Z" fill="#f8c47b" stroke="#e8eaed" stroke-linejoin="round" stroke-width="3.54"/>
      <path d="M32.24,8.42c-3.98,0-7.21,3.95-7.21,8.81,0,.43.03.86.08,1.29,0,.02,0,.05,0,.07h-.01v.09c0,.16,0,.31.01.46.06.79.37,2.3,1.66,3.83.2.29.42.56.66.82-.06.03-.11.06-.11.1-.09.33-.51.84-.9,1.27-.22-.07-.45-.1-.67-.08h0c-1.38.13-2.83,1.86-2.83,1.86,0,0-6.96-.21-7.38,5.51l.16.84-.11.06s1.08,7.92,1.43,8.76c.25.6,3.25.45,6.84.11.42.65,1.95,8.36,1.95,8.36h13.37s1.62-8.19,1.99-8.4c.71-.02,6.04.54,6.38-.27.35-.84,1.9-9.22,1.9-9.22h-.04s.04-.23.04-.23c-.41-5.72-7.37-5.51-7.37-5.51,0,0-1.45-1.72-2.83-1.86-.26-.03-.59.05-.97.18-.06-.03-.12-.06-.18-.08-1.21-.58-1.06-1.26-1-1.44.21-.24.41-.49.6-.75,1.29-1.53,1.6-3.04,1.66-3.83,0-.15.01-.31.02-.46,0-.03,0-.06,0-.09h-.01s0-.04,0-.06c.05-.43.08-.86.08-1.29,0-4.87-3.23-8.81-7.21-8.81Z" fill="#555556"/>
      <path d="M30.85,35.73v-.7c0-.53.11-.98.33-1.34.22-.37.6-.73,1.15-1.07.44-.28.76-.52.94-.75.19-.22.29-.48.29-.76,0-.23-.1-.41-.31-.54-.21-.14-.47-.2-.81-.2-.82,0-1.77.29-2.87.87l-1.13-2.21c1.35-.77,2.76-1.15,4.23-1.15,1.21,0,2.16.27,2.84.8.69.53,1.03,1.25,1.03,2.17,0,.66-.15,1.22-.46,1.71-.31.48-.79.93-1.46,1.36-.57.37-.93.64-1.07.81-.14.17-.21.37-.21.6v.42h-2.49ZM30.5,38.58c0-.5.14-.88.43-1.15.29-.27.72-.41,1.29-.41s.95.14,1.24.42c.29.27.44.65.44,1.15s-.15.87-.46,1.15c-.3.27-.71.41-1.23.41s-.96-.13-1.26-.4c-.3-.27-.46-.65-.46-1.15Z" fill="#e8eaed"/>
    </g>
  </g>
</svg>
