<?xml version="1.0" encoding="UTF-8"?>
<svg xmlns="http://www.w3.org/2000/svg" width="48" height="48" viewBox="0 0 48 48">
  <g id="Hintergrund">
    <rect id="Hintergrund-2" data-name="Hintergrund" width="48" height="48" rx="2.88" ry="2.88" fill="#555556"/>
  </g>
  <g id="Platzhalter">
    <g id="Dorfbewohner">
      <path d="M23.79,6.85c-3.24,0-5.86,3.21-5.87,7.17h0c0,.33.02.66.06.98v.12s0,0,0,0v.07c0,.13,0,.25,0,.38.05.65.31,1.91,1.4,3.17.15.21.32.42.49.61-.05.02-.09.05-.1.08-.07.27-.41.68-.73,1.03-.18-.06-.36-.08-.55-.07-1.12.11-2.3,1.51-2.3,1.51,0,0-5.66-.17-6,4.49l.13.68-.09.04c.14.98.28,1.96.42,2.94.04.25.07.47.11.73.11.71.21,1.39.32,1.98l.03.16c.05.29.11.58.17.86.02.08.04.16.05.22v.04c.03.08.05.14.07.18.02.04.05.08.1.11.06.04.12.06.19.09.09.03.18.05.27.06.1.02.22.03.34.04.3.03.59.04.89.03.34,0,.71-.01,1.12-.04.89-.05,1.77-.12,2.66-.2.34.53,1.59,6.8,1.59,6.8h10.88s1.26-6.37,1.6-6.82c0,0,.01-.01.02-.02.05,0,.13,0,.24,0,.16,0,.36.02.6.03.24.01.52.03.81.05.73.04,1.57.07,2.25.03.14,0,.26-.02.39-.03.16-.01.32-.04.48-.08.04-.01.09-.02.13-.04.1-.03.18-.07.26-.14.02-.02.03-.04.04-.06.02-.06.04-.11.06-.17l.02-.08.04-.14.06-.27c.05-.21.1-.45.16-.72l.03-.12c.19-.92.38-1.84.56-2.76l.33-1.73.29-1.51h-.03s.03-.18.03-.18c-.18-2.47-1.86-3.58-3.4-4.08-1.36-.44-2.6-.4-2.6-.4,0,0-1.18-1.4-2.3-1.51-.12,0-.24,0-.35.02l-.13.03c-.05.01-.11.03-.17.05h0s-.09.03-.14.04c-.05-.02-.1-.04-.15-.07-1-.48-.86-1.05-.81-1.18.16-.18.32-.38.46-.58,1.07-1.25,1.32-2.5,1.37-3.14,0-.12.01-.25.01-.38v-.07h-.01v-.13c.04-.32.06-.64.07-.97,0-3.96-2.63-7.17-5.86-7.17h0s0,0,0,0Z" fill="#f8c47b" stroke="#e8eaed" stroke-linejoin="round" stroke-width="2.88"/>
      <path d="M23.79,6.85c-3.24,0-5.87,3.21-5.87,7.17,0,.35.02.7.06,1.05,0,.02,0,.04,0,.06h0v.07c0,.13,0,.25,0,.38.05.64.3,1.87,1.35,3.12.17.23.34.46.53.66-.05.02-.09.05-.09.08-.07.27-.41.68-.73,1.03-.18-.06-.36-.08-.55-.07h0c-1.12.11-2.3,1.51-2.3,1.51,0,0-5.66-.17-6,4.49l.13.68-.09.05s.88,6.44,1.16,7.13c.2.49,2.65.36,5.57.09.34.53,1.59,6.8,1.59,6.8h10.88s1.32-6.66,1.62-6.84c.57-.02,4.92.44,5.19-.22.29-.69,1.55-7.5,1.55-7.5h-.03s.03-.19.03-.19c-.34-4.65-6-4.49-6-4.49,0,0-1.18-1.4-2.3-1.51-.21-.02-.48.04-.79.14-.05-.02-.1-.05-.15-.07-.98-.48-.86-1.03-.81-1.17.17-.19.33-.39.49-.61,1.05-1.25,1.3-2.47,1.35-3.11,0-.13.01-.25.01-.38,0-.02,0-.05,0-.07h0s0-.03,0-.05c.04-.35.06-.7.06-1.05,0-3.96-2.63-7.17-5.86-7.17Z" fill="#555556"/>
      <path d="M22.66,29.07v-.57c0-.43.09-.8.26-1.09.18-.3.49-.59.94-.87.36-.22.61-.43.77-.61.16-.18.24-.39.24-.62,0-.19-.08-.33-.25-.44-.17-.11-.39-.17-.65-.17-.67,0-1.44.24-2.33.71l-.92-1.8c1.1-.63,2.24-.94,3.44-.94.98,0,1.75.22,2.31.65.56.43.84,1.02.84,1.76,0,.53-.13,1-.38,1.39-.25.39-.65.76-1.19,1.1-.46.3-.75.52-.87.66-.11.14-.17.3-.17.49v.34h-2.03ZM22.37,31.39c0-.41.12-.72.35-.94.24-.22.59-.33,1.05-.33s.78.11,1.01.34c.24.22.36.53.36.93s-.12.71-.37.93c-.24.22-.57.33-1,.33s-.78-.11-1.03-.33c-.25-.22-.37-.53-.37-.94Z" fill="#e8eaed"/>
    </g>
  </g>
</svg>
