<?xml version="1.0" encoding="UTF-8"?>
<svg xmlns="http://www.w3.org/2000/svg" width="48" height="48" viewBox="0 0 48 48">
  <g id="Hintergrund">
    <rect id="Hintergrund-2" data-name="Hintergrund" width="48" height="48" rx="2.88" ry="2.88" fill="#555556"/>
  </g>
  <g id="Platzhalter">
    <g id="Solokiller">
      <path d="M12.41,38.59c-3.27,0-5.2-.82-5.28-.85-.26-.11-.37-.41-.26-.67.03-.07.07-.12.12-.17l29.97-26.86c.45-.4,1.03-.62,1.63-.62.68,0,1.33.27,1.8.76.49.5.76,1.18.75,1.89-.02.64-.3,1.25-.77,1.68l-7.27,6.51,2.76,3.08c.45.49.43,1.25-.05,1.72-2.73,2.53-11.95,10.89-16.23,12.31-2.31.79-4.73,1.2-7.17,1.22Z" fill="none" stroke="#fff" stroke-linecap="round" stroke-linejoin="round" stroke-width="2.88"/>
      <path d="M12.41,38.59c-3.27,0-5.2-.82-5.28-.85-.26-.11-.37-.41-.26-.67.03-.07.07-.12.12-.17l29.97-26.86c.45-.4,1.03-.62,1.63-.62.68,0,1.33.27,1.8.76.49.5.76,1.18.75,1.89-.02.64-.3,1.25-.77,1.68l-7.27,6.51,2.76,3.08c.45.49.43,1.25-.05,1.72-2.73,2.53-11.95,10.89-16.23,12.31-2.31.79-4.73,1.2-7.17,1.22Z" fill="#555556"/>
      <path d="M23.61,29.44v-.51c0-.39.08-.71.24-.97.16-.27.44-.53.84-.78.32-.2.54-.38.68-.54.14-.16.21-.35.21-.55,0-.16-.07-.29-.22-.39-.15-.1-.34-.15-.58-.15-.59,0-1.29.21-2.08.63l-.82-1.6c.98-.56,2-.84,3.06-.84.88,0,1.56.19,2.06.58.5.39.75.91.75,1.57,0,.48-.11.89-.34,1.24-.22.35-.57.67-1.06.98-.41.27-.67.46-.78.59-.1.12-.15.27-.15.44v.3h-1.81ZM23.35,31.51c0-.36.1-.64.31-.84.21-.2.52-.29.93-.29s.69.1.9.3c.21.2.32.47.32.83s-.11.63-.33.83c-.22.2-.51.3-.89.3s-.69-.1-.91-.29c-.22-.2-.33-.47-.33-.84Z" fill="#fff"/>
    </g>
  </g>
</svg>
