<?xml version="1.0" encoding="UTF-8"?>
<svg xmlns="http://www.w3.org/2000/svg" width="65" height="59" viewBox="0 0 65 59">
  <g id="Hintergrund">
    <rect id="Hintergrund-2" data-name="Hintergrund" x="3" width="59" height="59" rx="3.54" ry="3.54" fill="#555556"/>
  </g>
  <g id="Platzhalter">
    <g id="Solo">
      <path d="M52.92,27.43c-.35-.29-.81-.44-1.29-.42l-1.2.05c-.96-4.67-4.83-8.22-9.57-8.76l-.04-.99c-.04-1.01-.84-1.8-1.8-1.76h0c-.95.04-1.68.9-1.64,1.91l.04.99c-2.47.51-4.69,1.84-6.29,3.78-.96-1.28-2.13-2.28-3.5-2.96-3.51-1.76-6.24-1.12-7.65-.5-.23-.21-.51-.37-.82-.47-.56-.18-1.16-.13-1.69.15-1.08.56-1.51,1.9-.94,2.98.27.52.73.91,1.3,1.09.56.18,1.16.13,1.69-.15.22-.11.41-.26.58-.43.02,0,.03,0,.05.01.67.17,1.3.45,1.87.82.17.11.33.23.47.34l.16.14c.16.14.3.29.42.42l.07.09s.04.04.06.07l.05.07c.06.09.12.18.18.28l.13.23s.04.08.06.13l.05.11c.07.17.13.35.18.53l.08.34c.02.11.05.22.07.35v.04c.03.12.04.24.05.36v.09c.02.13.03.26.04.36v.08c0,.07,0,.13,0,.2-1.6-.61-3.3-.81-5.08-.59-2.31.29-4.09,1.26-5.27,2.88-1.95,2.66-1.74,6.31-1.51,7.97-.74.59-1.04,1.61-.69,2.53.44,1.14,1.72,1.7,2.86,1.26,1.14-.44,1.7-1.72,1.26-2.86-.19-.48-.53-.88-.97-1.12,0-.32.03-.64.1-.95.02-.1.05-.2.09-.31.14-.44.4-.83.73-1.13.27-.24.58-.43.93-.56.47-.19,1.2.03,1.98.59.26.19.52.41.76.64.54.52,1,1.11,1.39,1.75.16.96.34,1.48.63,2.3l.3.85.73-.24c3.52-1.14,6.9-1.86,10.31-2.2,1.63,1.34,3.64,2.19,5.74,2.42l.06,1.42c.02.51.24.98.6,1.31.32.29.71.44,1.13.44.02,0,.05,0,.07,0,.44-.02.85-.21,1.16-.55.33-.36.51-.86.48-1.36l-.06-1.42c4.67-.96,8.21-4.83,8.75-9.57l1.21-.05c1.01-.05,1.8-.86,1.75-1.8-.02-.47-.25-.92-.62-1.22Z" fill="none" stroke="#fff" stroke-miterlimit="10" stroke-width="3.54"/>
      <path d="M52.92,27.43c-.35-.29-.81-.44-1.29-.42l-1.2.05c-.96-4.67-4.83-8.22-9.57-8.76l-.04-.99c-.04-1.01-.84-1.8-1.8-1.76h0c-.95.04-1.68.9-1.64,1.91l.04.99c-2.47.51-4.69,1.84-6.29,3.78-.96-1.28-2.13-2.28-3.5-2.96-3.51-1.76-6.24-1.12-7.65-.5-.23-.21-.51-.37-.82-.47-.56-.18-1.16-.13-1.69.15-1.08.56-1.51,1.9-.94,2.98.27.52.73.91,1.3,1.09.56.18,1.16.13,1.69-.15.22-.11.41-.26.58-.43.02,0,.03,0,.05.01.67.17,1.3.45,1.87.82.17.11.33.23.47.34l.16.14c.16.14.3.29.42.42l.07.09s.04.04.06.07l.05.07c.06.09.12.18.18.28l.13.23s.04.08.06.13l.05.11c.07.17.13.35.18.53l.08.34c.02.11.05.22.07.35v.04c.03.12.04.24.05.36v.09c.02.13.03.26.04.36v.08c0,.07,0,.13,0,.2-1.6-.61-3.3-.81-5.08-.59-2.31.29-4.09,1.26-5.27,2.88-1.95,2.66-1.74,6.31-1.51,7.97-.74.59-1.04,1.61-.69,2.53.44,1.14,1.72,1.7,2.86,1.26,1.14-.44,1.7-1.72,1.26-2.86-.19-.48-.53-.88-.97-1.12,0-.32.03-.64.1-.95.02-.1.05-.2.09-.31.14-.44.4-.83.73-1.13.27-.24.58-.43.93-.56.47-.19,1.2.03,1.98.59.26.19.52.41.76.64.54.52,1,1.11,1.39,1.75.16.96.34,1.48.63,2.3l.3.85.73-.24c3.52-1.14,6.9-1.86,10.31-2.2,1.63,1.34,3.64,2.19,5.74,2.42l.06,1.42c.02.51.24.98.6,1.31.32.29.71.44,1.13.44.02,0,.05,0,.07,0,.44-.02.85-.21,1.16-.55.33-.36.51-.86.48-1.36l-.06-1.42c4.67-.96,8.21-4.83,8.75-9.57l1.21-.05c1.01-.05,1.8-.86,1.75-1.8-.02-.47-.25-.92-.62-1.22Z" fill="#555556"/>
      <path d="M31.82,31.17v-.61c0-.46.09-.85.28-1.16.19-.32.52-.63,1-.93.38-.24.65-.46.81-.65.17-.19.25-.41.25-.66,0-.2-.09-.35-.27-.46-.18-.12-.41-.18-.69-.18-.71,0-1.54.25-2.48.75l-.98-1.91c1.17-.67,2.39-1,3.66-1,1.05,0,1.87.23,2.46.69.6.46.89,1.09.89,1.88,0,.57-.13,1.06-.4,1.48-.26.41-.68.8-1.26,1.17-.49.32-.8.55-.93.7-.12.15-.18.32-.18.52v.36h-2.16ZM31.52,33.63c0-.43.12-.76.37-1,.25-.23.62-.35,1.11-.35s.83.12,1.08.36c.25.24.38.57.38.99,0,.43-.13.76-.39.99-.26.24-.61.35-1.06.35s-.83-.12-1.09-.35c-.26-.23-.39-.57-.39-1Z" fill="#fff"/>
    </g>
  </g>
</svg>
