<?xml version="1.0" encoding="UTF-8"?>
<svg xmlns="http://www.w3.org/2000/svg" width="65" height="59" viewBox="0 0 65 59">
  <g id="Hintergrund">
    <rect id="Hintergrund-2" data-name="Hintergrund" x="3" width="59" height="59" rx="3.54" ry="3.54" fill="#555556"/>
  </g>
  <g id="Platzhalter">
    <g id="Solokiller">
      <path d="M18.26,47.43c-4.03,0-6.39-1-6.49-1.05-.32-.14-.46-.51-.32-.82.04-.08.09-.15.15-.21L48.44,12.33c.55-.49,1.26-.76,2-.76.83,0,1.63.34,2.22.93.61.62.94,1.45.92,2.32-.02.79-.36,1.54-.95,2.07l-8.93,8,3.39,3.78c.56.61.53,1.54-.06,2.11-3.35,3.11-14.69,13.39-19.95,15.13-2.84.97-5.81,1.47-8.81,1.5Z" fill="none" stroke="#fff" stroke-linecap="round" stroke-linejoin="round" stroke-width="3.65"/>
      <path d="M18.26,47.43c-4.03,0-6.39-1-6.49-1.05-.32-.14-.46-.51-.32-.82.04-.08.09-.15.15-.21L48.44,12.33c.55-.49,1.26-.76,2-.76.83,0,1.63.34,2.22.93.61.62.94,1.45.92,2.32-.02.79-.36,1.54-.95,2.07l-8.93,8,3.39,3.78c.56.61.53,1.54-.06,2.11-3.35,3.11-14.69,13.39-19.95,15.13-2.84.97-5.81,1.47-8.81,1.5Z" fill="#555556"/>
      <path d="M32.02,36.19v-.62c0-.47.1-.87.29-1.19.19-.33.53-.65,1.03-.96.39-.25.67-.47.84-.67.17-.2.26-.42.26-.68,0-.2-.09-.36-.28-.48-.18-.12-.42-.18-.72-.18-.73,0-1.58.26-2.56.77l-1.01-1.97c1.2-.69,2.46-1.03,3.76-1.03,1.08,0,1.92.24,2.53.71.61.47.92,1.12.92,1.93,0,.58-.14,1.09-.41,1.52-.27.42-.7.83-1.3,1.21-.51.33-.82.57-.95.72-.13.15-.19.33-.19.54v.37h-2.22ZM31.7,38.73c0-.44.13-.79.38-1.03.26-.24.64-.36,1.14-.36s.85.12,1.11.37c.26.24.39.58.39,1.02s-.13.78-.4,1.02c-.27.24-.63.36-1.09.36s-.85-.12-1.12-.36c-.27-.24-.41-.58-.41-1.03Z" fill="#fff"/>
    </g>
  </g>
</svg>
