<?xml version="1.0" encoding="UTF-8"?>
<svg xmlns="http://www.w3.org/2000/svg" width="48" height="48" viewBox="0 0 48 48">
  <g id="Hintergrund">
    <rect id="Hintergrund-2" data-name="Hintergrund" width="48" height="48" rx="2.88" ry="2.88" fill="#555556"/>
  </g>
  <g id="Platzhalter">
    <g id="Solo">
      <path d="M40.61,22.31c-.29-.24-.66-.36-1.05-.34l-.98.04c-.78-3.8-3.93-6.69-7.79-7.12l-.04-.81c-.04-.82-.68-1.47-1.47-1.43h0c-.77.04-1.37.73-1.33,1.55l.04.81c-2.01.41-3.82,1.5-5.12,3.08-.78-1.05-1.73-1.85-2.84-2.41-2.85-1.43-5.07-.91-6.23-.41-.19-.17-.41-.3-.66-.38-.46-.14-.94-.1-1.37.12-.88.46-1.22,1.54-.77,2.42.22.43.6.74,1.05.89.46.14.95.1,1.37-.12.18-.09.34-.21.47-.35.01,0,.03,0,.04.01.54.14,1.06.37,1.52.67.14.09.27.18.38.28l.13.11c.13.11.25.24.34.34l.06.07s.03.04.05.06l.04.05c.05.07.1.15.15.23l.1.19s.03.07.05.1l.04.09c.06.14.11.28.15.43l.07.28c.02.09.04.18.05.29v.03c.02.1.03.2.04.29v.07c.02.1.02.21.03.29v.06c0,.05,0,.11,0,.16-1.3-.5-2.69-.66-4.13-.48-1.88.24-3.32,1.02-4.29,2.34-1.59,2.17-1.41,5.13-1.22,6.48-.6.48-.85,1.31-.56,2.06.36.92,1.4,1.39,2.33,1.03.92-.36,1.39-1.4,1.03-2.33-.15-.39-.43-.71-.79-.91,0-.26.03-.52.08-.77.02-.08.04-.16.07-.25.12-.35.32-.68.59-.92.22-.2.47-.35.75-.46.38-.15.97.02,1.61.48.22.16.42.33.62.52.44.42.82.9,1.13,1.42.13.78.28,1.2.51,1.87l.24.69.6-.19c2.87-.93,5.61-1.52,8.38-1.79,1.33,1.09,2.96,1.78,4.67,1.97l.05,1.15c.02.41.2.8.49,1.07.26.23.58.36.92.36.02,0,.04,0,.06,0,.36-.01.69-.17.94-.44.27-.29.41-.7.39-1.11l-.05-1.15c3.8-.78,6.68-3.93,7.12-7.78l.98-.04c.82-.04,1.46-.7,1.43-1.47-.02-.38-.2-.75-.51-1Z" fill="none" stroke="#fff" stroke-miterlimit="10" stroke-width="2.88"/>
      <path d="M40.61,22.31c-.29-.24-.66-.36-1.05-.34l-.98.04c-.78-3.8-3.93-6.69-7.79-7.12l-.04-.81c-.04-.82-.68-1.47-1.47-1.43h0c-.77.04-1.37.73-1.33,1.55l.04.81c-2.01.41-3.82,1.5-5.12,3.08-.78-1.05-1.73-1.85-2.84-2.41-2.85-1.43-5.07-.91-6.23-.41-.19-.17-.41-.3-.66-.38-.46-.14-.94-.1-1.37.12-.88.46-1.22,1.54-.77,2.42.22.43.6.74,1.05.89.46.14.95.1,1.37-.12.18-.09.34-.21.47-.35.01,0,.03,0,.04.01.54.14,1.06.37,1.52.67.14.09.27.18.38.28l.13.11c.13.11.25.24.34.34l.06.07s.03.04.05.06l.04.05c.05.07.1.15.15.23l.1.19s.03.07.05.1l.04.09c.06.14.11.28.15.43l.07.28c.02.09.04.18.05.29v.03c.02.1.03.2.04.29v.07c.02.1.02.21.03.29v.06c0,.05,0,.11,0,.16-1.3-.5-2.69-.66-4.13-.48-1.88.24-3.32,1.02-4.29,2.34-1.59,2.17-1.41,5.13-1.22,6.48-.6.48-.85,1.31-.56,2.06.36.92,1.4,1.39,2.33,1.03.92-.36,1.39-1.4,1.03-2.33-.15-.39-.43-.71-.79-.91,0-.26.03-.52.08-.77.02-.08.04-.16.07-.25.12-.35.32-.68.59-.92.22-.2.47-.35.75-.46.38-.15.97.02,1.61.48.22.16.42.33.62.52.44.42.82.9,1.13,1.42.13.78.28,1.2.51,1.87l.24.69.6-.19c2.87-.93,5.61-1.52,8.38-1.79,1.33,1.09,2.96,1.78,4.67,1.97l.05,1.15c.02.41.2.8.49,1.07.26.23.58.36.92.36.02,0,.04,0,.06,0,.36-.01.69-.17.94-.44.27-.29.41-.7.39-1.11l-.05-1.15c3.8-.78,6.68-3.93,7.12-7.78l.98-.04c.82-.04,1.46-.7,1.43-1.47-.02-.38-.2-.75-.51-1Z" fill="#555556"/>
      <path d="M23.45,25.36v-.49c0-.37.08-.69.23-.94.15-.26.42-.51.81-.75.31-.19.53-.37.66-.53.14-.16.21-.34.21-.54,0-.16-.07-.29-.22-.38-.14-.1-.33-.14-.57-.14-.58,0-1.25.2-2.02.61l-.8-1.56c.95-.54,1.94-.81,2.98-.81.85,0,1.52.19,2,.56.48.37.73.88.73,1.53,0,.46-.11.86-.33,1.2-.21.34-.56.65-1.03.96-.4.26-.65.45-.76.57-.1.12-.15.26-.15.42v.29h-1.76ZM23.2,27.36c0-.35.1-.62.3-.81.21-.19.51-.29.9-.29s.67.1.88.29c.21.19.31.46.31.81,0,.35-.11.62-.32.81-.21.19-.5.29-.86.29s-.67-.09-.89-.28c-.21-.19-.32-.46-.32-.81Z" fill="#fff"/>
    </g>
  </g>
</svg>
