<?xml version="1.0" encoding="UTF-8"?>
<svg xmlns="http://www.w3.org/2000/svg" width="48" height="48" viewBox="0 0 48 48">
  <g id="Hintergrund">
    <rect id="Hintergrund-2" data-name="Hintergrund" width="48" height="48" rx="2.88" ry="2.88" fill="#555556"/>
  </g>
  <g id="Platzhalter">
    <g id="Werwolf">
      <path d="M19.22,7.54s-.32,6.36.8,9.41c-1.75,1.53-3.71,3.27-4.02,3.7-.5.7-.12,3.66-1.82,4.92-.86.63-2.71,1.84-4.33,2.87-.99.63-1.99,1.26-2.99,1.88,0,0,.19.17.22.2.28.27.57.52.86.78.15.13.12.12.3.27,1.44,1.22,3.74,2.94,5.81,3.43.91.21,2,.11,3.13-.12,2.98-.59,6.31-2.01,7.69-.64,1.9,1.88,1.68,3.72,1.68,3.72,0,0,1.87-3.1,1.87-5.18,0,0,4.36,2.28,2.84,7.69,0,0,5.34-5.08,3.6-9.99,0,0,3.3,1.61,3.65,3.7,0,0,1.36-5.16-2.79-7.9,0,0,3.55-.52,5.45,1.09,0,0-.87-4.25-4.83-5.58,0,0,3.01-.76,4.41-2.79,0,0-3.34-.01-5.04-1.13h0c-.08-.24-1.32-4.01-2.79-6.14-1.53-2.2-3.34-3.96-3.34-3.96,0,0-2.36,3.34-2.91,6.22,0,0-.6-.19-1.47-.13h0s-1.33-1.45-3.22-3.69-2.74-2.62-2.74-2.62h0Z" fill="#917c6f" stroke="#fff" stroke-linecap="round" stroke-linejoin="round" stroke-width="2.88"/>
      <path d="M19.22,7.54s-.32,6.36.8,9.41c-1.75,1.53-3.71,3.27-4.01,3.7-.5.7-.12,3.66-1.82,4.92-.86.63-2.71,1.84-4.33,2.87-1.61,1.02-2.99,1.88-2.99,1.88,0,0,.54.54,1.38,1.25,1.44,1.22,3.74,2.94,5.81,3.43.91.22,2,.11,3.13-.12,2.98-.59,6.31-2.01,7.69-.64,1.91,1.88,1.68,3.72,1.68,3.72,0,0,1.86-3.1,1.86-5.18,0,0,4.36,2.28,2.84,7.69,0,0,5.34-5.08,3.6-9.99,0,0,3.3,1.61,3.65,3.7,0,0,1.35-5.16-2.79-7.9,0,0,3.56-.52,5.45,1.09,0,0-.87-4.25-4.83-5.58,0,0,3-.76,4.41-2.79,0,0-3.34-.01-5.04-1.13h0c-.08-.24-1.31-4.01-2.79-6.14-1.53-2.2-3.34-3.96-3.34-3.96,0,0-2.36,3.34-2.91,6.23,0,0-.6-.19-1.47-.13h0s-1.33-1.45-3.22-3.69c-1.89-2.24-2.74-2.62-2.74-2.62Z" fill="#555556"/>
      <path id="path580" d="M24.13,26.07v-.56c0-.43.09-.79.26-1.08.17-.3.48-.58.93-.86.35-.22.61-.42.76-.6.16-.18.24-.38.24-.62,0-.18-.08-.33-.25-.43-.17-.11-.38-.16-.65-.16-.66,0-1.43.23-2.31.7l-.91-1.78c1.09-.62,2.22-.93,3.4-.93.97,0,1.74.21,2.29.64.55.43.83,1.01.83,1.75,0,.53-.12.99-.37,1.37-.24.38-.64.75-1.18,1.09-.46.3-.75.51-.86.65-.11.14-.17.3-.17.48v.33h-2.01ZM23.85,28.36c0-.4.12-.71.35-.93.24-.22.58-.33,1.03-.33s.77.11,1,.33c.24.22.35.53.35.92s-.12.7-.37.92c-.24.22-.57.33-.99.33s-.77-.11-1.01-.32c-.24-.22-.37-.53-.37-.93Z" fill="#fff"/>
    </g>
  </g>
</svg>
