<?xml version="1.0" encoding="UTF-8"?>
<svg xmlns="http://www.w3.org/2000/svg" width="100" height="100" viewBox="0 0 100 100">
  <g id="Hintergrund">
    <rect id="Hintergrund-2" data-name="Hintergrund" x="0" width="100" height="100" rx="6" ry="6" fill="#555556"/>
  </g>
  <g id="Platzhalter">
    <g id="Werwolf">
      <path d="M40.05,15.71s-.66,13.24,1.66,19.61c-3.64,3.19-7.72,6.82-8.37,7.7-1.03,1.45-.25,7.63-3.8,10.26-1.79,1.31-5.65,3.83-9.03,5.98-2.07,1.31-4.15,2.62-6.23,3.91,0,0,.4.36.46.41.59.55,1.18,1.09,1.79,1.62.32.28.25.24.63.57,2.99,2.54,7.8,6.12,12.1,7.15,1.9.45,4.16.22,6.51-.25,6.2-1.23,13.14-4.19,16.02-1.34,3.97,3.91,3.49,7.74,3.49,7.74,0,0,3.89-6.46,3.89-10.79,0,0,9.08,4.75,5.92,16.01,0,0,11.12-10.59,7.49-20.82,0,0,6.87,3.35,7.6,7.71,0,0,2.82-10.76-5.81-16.46,0,0,7.41-1.09,11.35,2.26,0,0-1.82-8.86-10.06-11.63,0,0,6.26-1.59,9.2-5.81,0,0-6.96-.03-10.51-2.35v-.03c-.17-.47-2.74-8.33-5.81-12.77-3.19-4.58-6.96-8.25-6.96-8.25,0,0-4.92,6.96-6.06,12.97,0,0-1.24-.39-3.06-.28l.02-.03s-2.77-2.99-6.71-7.66-5.7-5.45-5.7-5.45h0Z" fill="#917c6f" stroke="#e8eaed" stroke-linecap="round" stroke-linejoin="round" stroke-width="6"/>
      <path d="M40.05,15.71s-.66,13.24,1.66,19.61c-3.64,3.19-7.72,6.82-8.36,7.7-1.03,1.45-.25,7.63-3.8,10.26-1.79,1.31-5.65,3.83-9.03,5.98-3.35,2.12-6.23,3.91-6.23,3.91,0,0,1.12,1.12,2.88,2.6,2.99,2.54,7.8,6.12,12.1,7.15,1.9.45,4.16.22,6.51-.25,6.2-1.23,13.14-4.19,16.02-1.34,3.97,3.91,3.49,7.74,3.49,7.74,0,0,3.88-6.45,3.88-10.79,0,0,9.08,4.75,5.93,16.01,0,0,11.12-10.59,7.49-20.82,0,0,6.87,3.35,7.6,7.71,0,0,2.82-10.76-5.81-16.46,0,0,7.41-1.09,11.35,2.26,0,0-1.82-8.86-10.06-11.63,0,0,6.26-1.59,9.19-5.81,0,0-6.96-.03-10.51-2.35v-.03c-.17-.48-2.74-8.33-5.81-12.77-3.19-4.58-6.96-8.25-6.96-8.25,0,0-4.92,6.96-6.06,12.97,0,0-1.24-.39-3.06-.28l.02-.03s-2.77-2.99-6.71-7.66c-3.94-4.67-5.7-5.45-5.7-5.45Z" fill="#555556"/>
      <path id="path580" d="M50.27,54.31v-1.17c0-.89.18-1.64.54-2.25.36-.62,1.01-1.22,1.94-1.8.74-.46,1.26-.88,1.58-1.25.33-.37.49-.8.49-1.28,0-.38-.17-.68-.52-.9-.35-.23-.8-.34-1.35-.34-1.37,0-2.98.49-4.81,1.46l-1.89-3.71c2.26-1.29,4.63-1.94,7.09-1.94,2.03,0,3.62.45,4.77,1.34,1.15.89,1.73,2.1,1.73,3.64,0,1.1-.26,2.05-.78,2.86-.51.8-1.33,1.56-2.45,2.28-.95.62-1.55,1.07-1.8,1.36-.24.28-.35.62-.35,1.01v.7h-4.18ZM49.68,59.08c0-.84.24-1.48.72-1.94.49-.45,1.21-.68,2.15-.68s1.6.23,2.09.7c.49.45.74,1.1.74,1.92s-.25,1.47-.76,1.92c-.5.45-1.19.68-2.06.68s-1.6-.22-2.11-.67c-.51-.45-.76-1.1-.76-1.94Z" fill="#e8eaed"/>
    </g>
  </g>
</svg>
