<?xml version="1.0" encoding="UTF-8"?>
<svg xmlns="http://www.w3.org/2000/svg" width="65" height="59" viewBox="0 0 65 59">
  <g id="Hintergrund">
    <rect id="Hintergrund-2" data-name="Hintergrund" x="3" width="59" height="59" rx="3.54" ry="3.54" fill="#555556"/>
  </g>
  <g id="Platzhalter">
    <g id="Werwolf">
      <path d="M26.63,9.27s-.39,7.81.98,11.57c-2.15,1.88-4.56,4.02-4.94,4.54-.61.86-.15,4.5-2.24,6.05-1.06.77-3.33,2.26-5.33,3.53-1.22.77-2.45,1.54-3.68,2.31,0,0,.24.21.27.24.35.33.7.64,1.06.96.19.17.14.14.37.34,1.76,1.5,4.6,3.61,7.14,4.22,1.12.26,2.46.13,3.84-.15,3.66-.73,7.75-2.47,9.45-.79,2.34,2.31,2.06,4.57,2.06,4.57,0,0,2.29-3.81,2.29-6.37,0,0,5.36,2.8,3.5,9.45,0,0,6.56-6.25,4.42-12.29,0,0,4.06,1.98,4.48,4.55,0,0,1.67-6.35-3.43-9.71,0,0,4.37-.64,6.69,1.34,0,0-1.07-5.23-5.94-6.86,0,0,3.69-.94,5.43-3.43,0,0-4.11-.02-6.2-1.39v-.02c-.1-.28-1.62-4.91-3.43-7.54-1.88-2.7-4.11-4.87-4.11-4.87,0,0-2.9,4.11-3.58,7.65,0,0-.73-.23-1.81-.16v-.02s-1.62-1.76-3.95-4.52-3.36-3.22-3.36-3.22h0Z" fill="#917c6f" stroke="#fff" stroke-linecap="round" stroke-linejoin="round" stroke-width="3.54"/>
      <path d="M26.63,9.27s-.39,7.81.98,11.57c-2.15,1.88-4.55,4.02-4.94,4.54-.61.86-.15,4.5-2.24,6.05-1.06.78-3.33,2.26-5.33,3.53-1.98,1.25-3.68,2.31-3.68,2.31,0,0,.66.66,1.7,1.53,1.76,1.5,4.6,3.61,7.14,4.22,1.12.26,2.46.13,3.84-.15,3.66-.73,7.75-2.47,9.45-.79,2.34,2.31,2.06,4.57,2.06,4.57,0,0,2.29-3.81,2.29-6.36,0,0,5.36,2.8,3.5,9.45,0,0,6.56-6.25,4.42-12.28,0,0,4.06,1.98,4.48,4.55,0,0,1.66-6.35-3.43-9.71,0,0,4.37-.64,6.7,1.34,0,0-1.07-5.23-5.94-6.86,0,0,3.69-.94,5.42-3.43,0,0-4.11-.02-6.2-1.38v-.02c-.1-.28-1.62-4.91-3.43-7.54-1.88-2.7-4.11-4.87-4.11-4.87,0,0-2.9,4.11-3.58,7.65,0,0-.73-.23-1.81-.16v-.02s-1.62-1.76-3.95-4.52c-2.33-2.75-3.36-3.22-3.36-3.22Z" fill="#555556"/>
      <path id="path580" d="M32.66,32.04v-.69c0-.53.11-.97.32-1.33.21-.36.6-.72,1.14-1.06.43-.27.75-.52.93-.74.19-.22.29-.47.29-.76,0-.23-.1-.4-.31-.53-.2-.13-.47-.2-.8-.2-.81,0-1.76.29-2.84.86l-1.12-2.19c1.34-.76,2.73-1.14,4.18-1.14,1.2,0,2.13.26,2.81.79.68.53,1.02,1.24,1.02,2.15,0,.65-.15,1.21-.46,1.69-.3.47-.78.92-1.45,1.34-.56.36-.92.63-1.06.8-.14.17-.21.36-.21.6v.41h-2.47ZM32.31,34.86c0-.49.14-.87.43-1.14.29-.27.71-.4,1.27-.4s.95.14,1.23.41c.29.27.43.65.43,1.13s-.15.87-.45,1.13c-.29.27-.7.4-1.21.4s-.95-.13-1.25-.39c-.3-.27-.45-.65-.45-1.14Z" fill="#fff"/>
    </g>
  </g>
</svg>
