<?xml version="1.0" encoding="UTF-8"?>
<svg xmlns="http://www.w3.org/2000/svg" width="106" height="100" viewBox="0 0 106 100">
  <g id="Hintergrund">
    <rect id="Hintergrund-2" data-name="Hintergrund" x="3" width="100" height="100" rx="6" ry="6" fill="#555556"/>
  </g>
  <g id="Narr">
    <path d="M35.86,28.65c-1.62-.02-2.95,1.28-2.97,2.9-.02,1.62,1.28,2.95,2.9,2.97.96.01,1.86-.45,2.42-1.22.39.13.77.28,1.14.44,1.18.51,2.64,1.31,4,2.52.35.31.68.64,1,.99.44.49.84,1.01,1.19,1.57l.08.13c.23.39.43.79.59,1.21l.06.16.11.33.05.14c.05.15.09.3.14.46l.04.16c.11.44.19.88.25,1.32l.03.21.03.33v.18s.02.09.02.09c.02.26.03.53.03.79v.14c0,.28,0,.56-.02.84v.16c-.02.28-.04.57-.07.85v.13s-.09.6-.09.6c-.03.25-.07.51-.11.76l-.05.33c-.06.32-.11.63-.18.96l-.03.16-.03.13c-2.95-2.17-6.68-3.72-11.38-3.83-15.4-.37-15.53,16.57-15.44,19.47-1.58.36-2.57,1.93-2.21,3.5.36,1.58,1.93,2.57,3.5,2.21,1.58-.36,2.57-1.93,2.21-3.5-.21-.93-.87-1.71-1.75-2.07l.02-.36c.06-.78.22-1.87.67-2.99.1-.25.21-.5.34-.75.54-1.1,1.37-2.03,2.39-2.71.78-.51,1.65-.88,2.56-1.08,1.75-.41,3.66.57,5.37,2.24.52.52,1.03,1.09,1.5,1.71,1.08,1.42,1.96,2.98,2.63,4.63.01,2.17.23,3.18.6,5.18,10.79-1.8,21.51-2.03,32.31-.23.39-2.05.1-2.78-.15-5.15h-.1s0-.08,0-.08v-.02c-.07-1.34.02-2.67.26-3.99.14-.78.32-1.56.55-2.32.32-1.09.76-2.15,1.3-3.15.25-.45.54-.88.85-1.3.91-1.18,2.01-1.96,3.25-2.08,5.32-.52,7.53,3.78,8.21,5.53-1.22,1.06-1.35,2.91-.28,4.13,1.06,1.22,2.91,1.35,4.13.28,1.22-1.06,1.35-2.91.28-4.13-.63-.72-1.57-1.09-2.53-.99-.85-2.77-6.46-18.75-20.91-13.42-.99.36-1.97.79-2.91,1.27-1.21-4.59-3.55-8.98-7.81-11.99-6.95-4.9-12.73-3.69-15.24-2.75-.4-1.17-1.5-1.97-2.74-1.98h0Z" fill="#fff" stroke="#fff" stroke-miterlimit="15.12" stroke-width="6"/>
    <path d="M61.35,66.13c.34.09,6-23.21-7.46-32.71-9.34-6.59-16.58-2.13-16.58-2.13l-.27,1.69s5.18,1.04,8.29,5.46c5.53,7.86-4.28,22.87-3.52,28.1l19.55-.41Z" fill="#87cdef"/>
    <path d="M37.19,31.99l-.16.98s5.18,1.04,8.29,5.46c3.27,4.66,1.17,11.82-.94,17.98l8.06,7.37s.56-8.84.71-18.44c.12-7.76-6.76-12.73-15.97-13.35h0Z" fill="#73c4ec"/>
    <path d="M51.41,64.14s-2.6-14.17,13.2-19.99c15.8-5.83,21.04,13.86,21.04,13.86l-1.49.99s-1.8-6.91-8.45-6.26c-4.4.43-7,9.2-6.03,14.4l-16.32.92-1.94-3.91Z" fill="#f4bd5a"/>
    <path d="M73.64,49.8c-3.45-.06-6.93,1.48-9.47,4.65-2.85,3.55-3.68,8.52-3.66,13.2l9.16-.52c-.98-5.19,1.63-13.96,6.03-14.39,6.66-.65,8.46,6.26,8.46,6.26l.74-.49c-2.16-5.7-6.67-8.63-11.25-8.71h0Z" fill="#f2ae37"/>
    <path d="M88.6,59.51c-.53-1.53-2.19-2.35-3.73-1.82-1.53.53-2.35,2.19-1.82,3.73,0,.02.01.04.02.05.55,1.52,2.24,2.31,3.76,1.75,1.5-.55,2.29-2.2,1.77-3.71" fill="#fefc25"/>
    <path d="M56.42,64.81s-4.53-18.83-21.36-19.24c-16.83-.4-15.43,19.92-15.43,19.92l1.73.46s-.53-7.12,5.97-8.66c4.31-1.02,9.61,6.45,10.36,11.68l16.99-2.07,1.72-2.09Z" fill="#fadb89"/>
    <path d="M32.46,53.13c-.75,0-1.5.08-2.27.23-3.45.66-9.15,2.14-9.92,12.31l1.09.29s-.53-7.12,5.97-8.66c4.3-1.02,9.61,6.45,10.36,11.68l8.99-2.52c-1.26-7.29-7.07-13.4-14.23-13.32h0Z" fill="#f8cc57"/>
    <path d="M17.33,67.87c.02-1.62,1.34-2.92,2.96-2.9s2.92,1.34,2.9,2.96-1.34,2.92-2.96,2.9-2.92-1.34-2.9-2.96h0" fill="#fefc25"/>
    <path d="M69.75,70.83c-10.79-1.8-21.51-1.56-32.3.23-.39-2.05-.61-3.06-.61-5.35,11.45-1.9,21.3-1.93,32.75-.03.26,2.37.54,3.1.15,5.15" fill="#ff523d"/>
    <path d="M32.94,31.59c.02-1.62,1.34-2.92,2.96-2.9s2.92,1.34,2.9,2.96-1.34,2.92-2.96,2.9c-1.62-.02-2.92-1.34-2.9-2.96" fill="#fefc25"/>
  </g>
</svg>
