<?xml version="1.0" encoding="UTF-8"?>
<svg xmlns="http://www.w3.org/2000/svg" width="212" height="100" viewBox="0 0 212 100">
  <g id="Ebene_1" data-name="Ebene 1">
    <rect id="Hintergrund" x="3" width="206" height="100" rx="6" ry="6" fill="#555556"/>
    <path id="Trennstrich" d="M101.5,59.4l7.24-18.8h1.76l-7.26,18.8h-1.74Z" fill="#fff"/>
  </g>
  <g id="Ebene_3" data-name="Ebene 3">
    <path d="M35.86,28.65c-1.62-.02-2.95,1.28-2.97,2.9-.02,1.62,1.28,2.95,2.9,2.97.96.01,1.86-.45,2.42-1.22.39.13.77.28,1.14.44,1.18.51,2.64,1.31,4,2.52.35.31.68.64,1,.99.44.49.84,1.01,1.19,1.57l.08.13c.23.39.43.79.59,1.21l.06.16.11.33.05.14c.05.15.09.3.14.46l.04.16c.11.44.19.88.25,1.32l.03.21.03.33v.18s.02.09.02.09c.02.26.03.53.03.79v.14c0,.28,0,.56-.02.84v.16c-.02.28-.04.57-.07.85v.13s-.09.6-.09.6c-.03.25-.07.51-.11.76l-.05.33c-.06.32-.11.63-.18.96l-.03.16-.03.13c-2.95-2.17-6.68-3.72-11.38-3.83-15.4-.37-15.53,16.57-15.44,19.47-1.58.36-2.57,1.93-2.21,3.5.36,1.58,1.93,2.57,3.5,2.21,1.58-.36,2.57-1.93,2.21-3.5-.21-.93-.87-1.71-1.75-2.07l.02-.36c.06-.78.22-1.87.67-2.99.1-.25.21-.5.34-.75.54-1.1,1.37-2.03,2.39-2.71.78-.51,1.65-.88,2.56-1.08,1.75-.41,3.66.57,5.37,2.24.52.52,1.03,1.09,1.5,1.71,1.08,1.42,1.96,2.98,2.63,4.63.01,2.17.23,3.18.6,5.18,10.79-1.8,21.51-2.03,32.31-.23.39-2.05.1-2.78-.15-5.15h-.1s0-.08,0-.08v-.02c-.07-1.34.02-2.67.26-3.99.14-.78.32-1.56.55-2.32.32-1.09.76-2.15,1.3-3.15.25-.45.54-.88.85-1.3.91-1.18,2.01-1.96,3.25-2.08,5.32-.52,7.53,3.78,8.21,5.53-1.22,1.06-1.35,2.91-.28,4.13,1.06,1.22,2.91,1.35,4.13.28,1.22-1.06,1.35-2.91.28-4.13-.63-.72-1.57-1.09-2.53-.99-.85-2.77-6.46-18.75-20.91-13.42-.99.36-1.97.79-2.91,1.27-1.21-4.59-3.55-8.98-7.81-11.99-6.95-4.9-12.73-3.69-15.24-2.75-.4-1.17-1.5-1.97-2.74-1.98h0Z" fill="#fff" stroke="#fff" stroke-miterlimit="15.12" stroke-width="6"/>
    <path d="M61.35,66.13c.34.09,6-23.21-7.46-32.71-9.34-6.59-16.58-2.13-16.58-2.13l-.27,1.69s5.18,1.04,8.29,5.46c5.53,7.86-4.28,22.87-3.52,28.1l19.55-.41Z" fill="#87cdef"/>
    <path d="M37.19,31.99l-.16.98s5.18,1.04,8.29,5.46c3.27,4.66,1.17,11.82-.94,17.98l8.06,7.37s.56-8.84.71-18.44c.12-7.76-6.76-12.73-15.97-13.35h0Z" fill="#73c4ec"/>
    <path d="M51.41,64.14s-2.6-14.17,13.2-19.99c15.8-5.83,21.04,13.86,21.04,13.86l-1.49.99s-1.8-6.91-8.45-6.26c-4.4.43-7,9.2-6.03,14.4l-16.32.92-1.94-3.91Z" fill="#f4bd5a"/>
    <path d="M73.64,49.8c-3.45-.06-6.93,1.48-9.47,4.65-2.85,3.55-3.68,8.52-3.66,13.2l9.16-.52c-.98-5.19,1.63-13.96,6.03-14.39,6.66-.65,8.46,6.26,8.46,6.26l.74-.49c-2.16-5.7-6.67-8.63-11.25-8.71h0Z" fill="#f2ae37"/>
    <path d="M88.6,59.51c-.53-1.53-2.19-2.35-3.73-1.82-1.53.53-2.35,2.19-1.82,3.73,0,.02.01.04.02.05.55,1.52,2.24,2.31,3.76,1.75,1.5-.55,2.29-2.2,1.77-3.71" fill="#fefc25"/>
    <path d="M56.42,64.81s-4.53-18.83-21.36-19.24c-16.83-.4-15.43,19.92-15.43,19.92l1.73.46s-.53-7.12,5.97-8.66c4.31-1.02,9.61,6.45,10.36,11.68l16.99-2.07,1.72-2.09Z" fill="#fadb89"/>
    <path d="M32.46,53.13c-.75,0-1.5.08-2.27.23-3.45.66-9.15,2.14-9.92,12.31l1.09.29s-.53-7.12,5.97-8.66c4.3-1.02,9.61,6.45,10.36,11.68l8.99-2.52c-1.26-7.29-7.07-13.4-14.23-13.32h0Z" fill="#f8cc57"/>
    <path d="M17.33,67.87c.02-1.62,1.34-2.92,2.96-2.9s2.92,1.34,2.9,2.96-1.34,2.92-2.96,2.9-2.92-1.34-2.9-2.96h0" fill="#fefc25"/>
    <path d="M69.75,70.83c-10.79-1.8-21.51-1.56-32.3.23-.39-2.05-.61-3.06-.61-5.35,11.45-1.9,21.3-1.93,32.75-.03.26,2.37.54,3.1.15,5.15" fill="#ff523d"/>
    <path d="M32.94,31.59c.02-1.62,1.34-2.92,2.96-2.9s2.92,1.34,2.9,2.96-1.34,2.92-2.96,2.9c-1.62-.02-2.92-1.34-2.9-2.96" fill="#fefc25"/>
  </g>
  <g id="Ebene_2" data-name="Ebene 2">
    <g>
      <path d="M159,14.28c-1.41,0-2.55,1.27-2.55,2.85v4.59c-13.32,1.21-23.95,11.84-25.16,25.16h-5.16c-1.58,0-2.85,1.14-2.85,2.55s1.27,2.55,2.85,2.55h5.16c1.21,13.32,11.85,23.95,25.16,25.16v5.74c0,1.58,1.13,2.85,2.55,2.85s2.55-1.27,2.55-2.85v-5.74c13.32-1.21,23.95-11.84,25.16-25.16h5.16c1.58,0,2.85-1.14,2.85-2.55s-1.27-2.55-2.85-2.55h-5.16c-1.21-13.32-11.85-23.95-25.16-25.16v-4.59c0-1.58-1.14-2.85-2.55-2.85Z" fill="#fff" stroke="#fff" stroke-linecap="square" stroke-linejoin="round" stroke-width="6"/>
      <path d="M151.49,53.92c-3.94,0-7.15,3.18-7.15,7.12,0,.01,0,.02,0,.03v.76c1.38,1.72,3.06,3.19,4.95,4.33v-3.29h2.55v-8.95h-.35Z" fill="#f99204" fill-rule="evenodd" stroke="#f99204" stroke-linecap="round" stroke-miterlimit="7.58" stroke-width="1.15"/>
      <path d="M153.73,54.89s1.12-1.06,1.26-1.55c.13-.5,7.63-.16,7.63-.16,0,0-.33.63.76,1.16.61.3,1.26.55,1.92.73l-7.43,4.69-4.26-4.79.13-.07Z" fill="#f8c47b"/>
      <path d="M151.02,44.88c-.01.19-.02.38-.02.57,0,5.03,3.43,9.11,7.66,9.11s7.66-4.08,7.66-9.11c0-.19,0-.38-.02-.57" fill="#f9cb8a" fill-rule="evenodd" stroke="#f9cb8a" stroke-linecap="round" stroke-linejoin="round" stroke-width=".77"/>
      <path d="M153.73,32.71c-.08,0-.15,0-.23,0-.84.05-1.44.68-1.8,1.4s-.56,1.59-.71,2.49c-.15.9-.25,1.82-.36,2.6s-.26,1.43-.36,1.63c-1.1,2.1-3.12,3.36-3.12,3.36l-1.75,1.07h26.49l-1.75-1.07s-2.02-1.26-3.11-3.36c-.11-.2-.25-.85-.36-1.63s-.21-1.7-.36-2.6-.35-1.77-.71-2.49-.95-1.34-1.8-1.4c-2.04-.29-3.41,1-5.15,1.05-1.83-.36-3.22-1.01-4.93-1.05h0Z" fill="#f99204" fill-rule="evenodd"/>
      <path d="M164.34,54.83c-1.47,1.66-3.39,2.59-5.39,2.59-1.71,0-3.37-.68-4.74-1.93v7.38h10.13v-8.04Z" fill="#f99204" fill-rule="evenodd" stroke="#f99204" stroke-linecap="round" stroke-miterlimit="7.58" stroke-width="1.15"/>
      <path d="M164.34,54.83c-1.32,1.49-2.99,2.38-4.76,2.56v5.48h4.76v-8.04Z" fill="#f38e04" fill-rule="evenodd" stroke="#f38e04" stroke-linecap="round" stroke-miterlimit="7.58" stroke-width="1.15"/>
      <path d="M166.11,53.92v8.95h2.55v3.31c1.89-1.13,3.56-2.59,4.95-4.3v-.81c0-3.94-3.18-7.15-7.13-7.15h-.38Z" fill="#f99204" fill-rule="evenodd" stroke="#f99204" stroke-linecap="round" stroke-miterlimit="7.58" stroke-width="1.15"/>
      <path d="M164.82,53.3v10.15h-11.05v-9.27l-1.62-.84v10.11h-2.26v3.05c2.79,1.55,5.93,2.36,9.12,2.37,3.17,0,6.28-.81,9.05-2.33v-3.08h-1.61v-10.12l-1.62-.03h0Z" fill="#d17a03" stroke="#d17a03" stroke-linecap="square" stroke-linejoin="round" stroke-width="1.04"/>
      <circle cx="158.98" cy="49.41" r="25.98" fill="none" stroke="#d17a03" stroke-linecap="square" stroke-linejoin="round" stroke-width="4.87"/>
      <path d="M158.98,21.58c-15.35,0-27.83,12.48-27.83,27.83s12.48,27.83,27.83,27.83,27.83-12.48,27.83-27.83-12.48-27.83-27.83-27.83h0ZM158.98,25.28c13.35,0,24.13,10.78,24.13,24.13s-10.78,24.13-24.13,24.13-24.13-10.78-24.13-24.13,10.78-24.13,24.13-24.13h0Z" fill="#212121"/>
      <g>
        <path d="M158.98,14.26h0c1.41,0,2.55,1.27,2.55,2.85v9.39c0,1.57-1.14,2.85-2.55,2.85h0c-1.41,0-2.55-1.27-2.55-2.85v-9.39c0-1.57,1.14-2.85,2.55-2.85Z" fill="#616161"/>
        <path d="M158.98,70.62h0c1.41,0,2.55,1.27,2.55,2.85v9.39c0,1.57-1.14,2.85-2.55,2.85h0c-1.41,0-2.55-1.27-2.55-2.85v-9.39c0-1.57,1.14-2.85,2.55-2.85Z" fill="#616161"/>
      </g>
      <g>
        <path d="M194.7,49.41h0c0,1.41-1.27,2.55-2.85,2.55h-9.39c-1.57,0-2.85-1.14-2.85-2.55h0c0-1.41,1.27-2.55,2.85-2.55h9.39c1.57,0,2.85,1.14,2.85,2.55Z" fill="#616161"/>
        <path d="M138.34,49.41h0c0,1.41-1.27,2.55-2.85,2.55h-9.39c-1.57,0-2.85-1.14-2.85-2.55h0c0-1.41,1.27-2.55,2.85-2.55h9.39c1.57,0,2.85,1.14,2.85,2.55Z" fill="#616161"/>
      </g>
      <path d="M182.14,49.41c0,12.79-10.37,23.16-23.16,23.16-12.79,0-23.16-10.37-23.16-23.16,0,0,0,0,0,0,0-12.79,10.37-23.16,23.16-23.16s23.16,10.37,23.16,23.16Z" fill="none" stroke="#616161" stroke-linecap="square" stroke-linejoin="round" stroke-width="2.78"/>
    </g>
  </g>
</svg>
