<?xml version="1.0" encoding="UTF-8"?>
<svg xmlns="http://www.w3.org/2000/svg" width="106" height="100" viewBox="0 0 106 100">
  <g id="Hintergrund">
    <rect id="Hintergrund-2" data-name="Hintergrund" x="3" width="100" height="100" rx="6" ry="6" fill="#555556"/>
  </g>
  <g id="Solokiller">
    <path d="M28.86,80.39c-6.82,0-10.82-1.7-10.99-1.78-.53-.24-.78-.86-.54-1.39.06-.14.15-.26.26-.36l62.44-55.96c.93-.83,2.14-1.29,3.39-1.28,1.41,0,2.77.57,3.76,1.58,1.03,1.04,1.59,2.46,1.55,3.93-.03,1.34-.62,2.61-1.61,3.51l-15.14,13.57,5.74,6.41c.94,1.03.89,2.61-.11,3.58-5.68,5.27-24.9,22.69-33.82,25.65-4.81,1.64-9.85,2.5-14.93,2.54Z" fill="none" stroke="#fff" stroke-linecap="round" stroke-linejoin="round" stroke-width="6"/>
    <path d="M28.86,80.39c-6.82,0-10.82-1.7-10.99-1.78-.53-.24-.78-.86-.54-1.39.06-.14.15-.26.26-.36l62.44-55.96c.93-.83,2.14-1.29,3.39-1.28,1.41,0,2.77.57,3.76,1.58,1.03,1.04,1.59,2.46,1.55,3.93-.03,1.34-.62,2.61-1.61,3.51l-15.14,13.57,5.74,6.41c.94,1.03.89,2.61-.11,3.58-5.68,5.27-24.9,22.69-33.82,25.65-4.81,1.64-9.85,2.5-14.93,2.54Z" fill="#555556"/>
    <path d="M52.18,61.34v-1.05c0-.8.16-1.48.49-2.03.33-.56.91-1.1,1.74-1.62.66-.42,1.13-.79,1.42-1.13.29-.34.44-.72.44-1.15,0-.34-.16-.61-.47-.81-.31-.2-.71-.31-1.21-.31-1.24,0-2.68.44-4.33,1.31l-1.71-3.34c2.04-1.16,4.16-1.74,6.38-1.74,1.82,0,3.26.4,4.29,1.2,1.04.8,1.56,1.89,1.56,3.27,0,.99-.23,1.85-.7,2.58-.46.72-1.19,1.4-2.21,2.05-.86.56-1.4.96-1.62,1.23-.21.25-.32.56-.32.91v.63h-3.77ZM51.65,65.64c0-.75.22-1.33.65-1.74.44-.41,1.09-.61,1.94-.61s1.44.21,1.88.63c.44.41.66.98.66,1.73s-.23,1.32-.68,1.73c-.45.41-1.07.61-1.85.61s-1.44-.2-1.9-.6c-.46-.41-.69-.99-.69-1.74Z" fill="#fff"/>
  </g>
</svg>
