<?xml version="1.0" encoding="UTF-8"?>
<svg xmlns="http://www.w3.org/2000/svg" width="100" height="100" viewBox="0 0 100 100">
  <g id="Hintergrund">
    <rect id="Hintergrund-2" data-name="Hintergrund" x="0" width="100" height="100" rx="6" ry="6" fill="#555556"/>
  </g>
  <g id="Platzhalter">
    <g id="Ebene_8" data-name="Ebene 8">
      <path d="M84.61,46.49c-.6-.49-1.37-.75-2.18-.71l-2.04.09c-1.62-7.92-8.18-13.93-16.22-14.84l-.07-1.69c-.07-1.71-1.42-3.05-3.06-2.98h0c-1.61.07-2.86,1.52-2.78,3.24l.07,1.69c-4.19.86-7.95,3.12-10.66,6.41-1.63-2.18-3.61-3.86-5.92-5.02-5.94-2.98-10.57-1.89-12.97-.85-.39-.36-.86-.63-1.38-.79-.95-.3-1.97-.21-2.86.25-1.83.95-2.55,3.22-1.6,5.05.46.89,1.24,1.54,2.2,1.85.95.3,1.97.21,2.86-.25.37-.19.7-.44.98-.74.03,0,.06.01.09.02,1.13.29,2.2.76,3.18,1.39.28.18.56.39.8.58l.28.24c.26.24.52.49.71.71l.12.15s.06.07.1.12l.08.11c.11.15.21.31.31.47l.22.39c.03.07.07.14.1.21l.08.19c.12.29.22.59.31.89l.14.58c.04.19.08.38.11.6v.07c.04.2.07.41.09.6v.15c.03.22.05.43.06.61v.13c0,.11.01.22.02.33-2.71-1.04-5.6-1.38-8.61-1-3.92.49-6.92,2.14-8.93,4.88-3.31,4.51-2.94,10.69-2.55,13.51-1.25.99-1.77,2.72-1.16,4.29.75,1.93,2.92,2.89,4.85,2.14,1.93-.75,2.89-2.92,2.14-4.85-.32-.81-.9-1.48-1.65-1.9,0-.54.05-1.08.17-1.61.04-.17.09-.34.15-.53.24-.74.68-1.41,1.23-1.92.46-.41.98-.73,1.57-.95.8-.32,2.03.05,3.36,1.01.45.33.88.69,1.29,1.09.91.88,1.7,1.88,2.36,2.96.27,1.63.58,2.5,1.07,3.9l.51,1.44,1.24-.4c5.97-1.94,11.69-3.16,17.47-3.73,2.77,2.27,6.17,3.7,9.72,4.11l.11,2.4c.04.86.41,1.67,1.02,2.23.54.49,1.21.75,1.91.75.04,0,.08,0,.13,0,.75-.03,1.44-.36,1.96-.93.56-.61.86-1.45.82-2.31l-.11-2.4c7.92-1.62,13.92-8.18,14.84-16.22l2.05-.09c1.71-.08,3.05-1.45,2.97-3.06-.03-.8-.42-1.55-1.06-2.08Z" fill="none" stroke="#fff" stroke-miterlimit="10" stroke-width="6"/>
      <path d="M84.61,46.49c-.6-.49-1.37-.75-2.18-.71l-2.04.09c-1.62-7.92-8.18-13.93-16.22-14.84l-.07-1.69c-.07-1.71-1.42-3.05-3.06-2.98h0c-1.61.07-2.86,1.52-2.78,3.24l.07,1.69c-4.19.86-7.95,3.12-10.66,6.41-1.63-2.18-3.61-3.86-5.92-5.02-5.94-2.98-10.57-1.89-12.97-.85-.39-.36-.86-.63-1.38-.79-.95-.3-1.97-.21-2.86.25-1.83.95-2.55,3.22-1.6,5.05.46.89,1.24,1.54,2.2,1.85.95.3,1.97.21,2.86-.25.37-.19.7-.44.98-.74.03,0,.06.01.09.02,1.13.29,2.2.76,3.18,1.39.28.18.56.39.8.58l.28.24c.26.24.52.49.71.71l.12.15s.06.07.1.12l.08.11c.11.15.21.31.31.47l.22.39c.03.07.07.14.1.21l.08.19c.12.29.22.59.31.89l.14.58c.04.19.08.38.11.6v.07c.04.2.07.41.09.6v.15c.03.22.05.43.06.61v.13c0,.11.01.22.02.33-2.71-1.04-5.6-1.38-8.61-1-3.92.49-6.92,2.14-8.93,4.88-3.31,4.51-2.94,10.69-2.55,13.51-1.25.99-1.77,2.72-1.16,4.29.75,1.93,2.92,2.89,4.85,2.14,1.93-.75,2.89-2.92,2.14-4.85-.32-.81-.9-1.48-1.65-1.9,0-.54.05-1.08.17-1.61.04-.17.09-.34.15-.53.24-.74.68-1.41,1.23-1.92.46-.41.98-.73,1.57-.95.8-.32,2.03.05,3.36,1.01.45.33.88.69,1.29,1.09.91.88,1.7,1.88,2.36,2.96.27,1.63.58,2.5,1.07,3.9l.51,1.44,1.24-.4c5.97-1.94,11.69-3.16,17.47-3.73,2.77,2.27,6.17,3.7,9.72,4.11l.11,2.4c.04.86.41,1.67,1.02,2.23.54.49,1.21.75,1.91.75.04,0,.08,0,.13,0,.75-.03,1.44-.36,1.96-.93.56-.61.86-1.45.82-2.31l-.11-2.4c7.92-1.62,13.92-8.18,14.84-16.22l2.05-.09c1.71-.08,3.05-1.45,2.97-3.06-.03-.8-.42-1.55-1.06-2.08Z" fill="#555556"/>
      <path d="M48.85,52.83v-1.03c0-.78.16-1.44.48-1.97.32-.54.88-1.06,1.69-1.57.64-.41,1.1-.77,1.38-1.1.29-.33.43-.7.43-1.12,0-.33-.15-.6-.45-.79-.3-.2-.69-.3-1.18-.3-1.2,0-2.6.43-4.21,1.28l-1.66-3.24c1.98-1.13,4.04-1.69,6.2-1.69,1.77,0,3.16.39,4.17,1.17,1.01.78,1.51,1.84,1.51,3.18,0,.96-.23,1.8-.68,2.5-.44.7-1.16,1.36-2.14,1.99-.83.54-1.36.94-1.57,1.19-.21.25-.31.54-.31.88v.61h-3.66ZM48.34,57c0-.73.21-1.3.63-1.69.43-.4,1.06-.59,1.88-.59s1.4.2,1.82.61c.43.4.64.96.64,1.68,0,.72-.22,1.28-.67,1.68-.44.4-1.04.6-1.8.6s-1.4-.2-1.85-.59c-.44-.4-.67-.96-.67-1.69Z" fill="#fff"/>
    </g>
  </g>
</svg>
