<?xml version="1.0" encoding="UTF-8"?>
<svg id="Schnelles_Spiel" data-name="Schnelles Spiel" xmlns="http://www.w3.org/2000/svg" width="430" height="48" viewBox="0 0 430 48">
  <rect id="Button" x="116.64" width="234.72" height="48" rx="6" ry="6" fill="#fff" opacity=".87"/>
  <g>
    <path d="M155.58,27.31c0-.54-.19-.96-.57-1.25-.38-.29-1.07-.6-2.07-.92-1-.32-1.78-.64-2.36-.95-1.58-.86-2.37-2.01-2.37-3.46,0-.75.21-1.42.64-2.01s1.03-1.05,1.83-1.38c.79-.33,1.69-.5,2.68-.5s1.88.18,2.66.54,1.38.87,1.81,1.53.65,1.4.65,2.24h-2.87c0-.64-.2-1.13-.6-1.49-.4-.35-.97-.53-1.69-.53s-1.25.15-1.64.45-.58.69-.58,1.17c0,.45.23.83.68,1.14.46.31,1.13.59,2.01.86,1.63.49,2.82,1.1,3.57,1.83.75.73,1.12,1.63,1.12,2.72,0,1.21-.46,2.15-1.37,2.84-.91.69-2.14,1.03-3.68,1.03-1.07,0-2.05-.2-2.93-.59-.88-.39-1.55-.93-2.01-1.61-.46-.68-.69-1.47-.69-2.37h2.88c0,1.54.92,2.31,2.76,2.31.68,0,1.22-.14,1.6-.42s.57-.67.57-1.16Z"/>
    <path d="M171.91,26.33c-.11,1.5-.66,2.68-1.66,3.54s-2.31,1.29-3.95,1.29c-1.79,0-3.19-.6-4.22-1.8-1.02-1.2-1.54-2.85-1.54-4.95v-.85c0-1.34.24-2.52.71-3.54s1.15-1.8,2.02-2.35c.88-.55,1.9-.82,3.06-.82,1.61,0,2.9.43,3.89,1.29s1.55,2.07,1.7,3.63h-2.87c-.07-.9-.32-1.55-.75-1.96s-1.09-.61-1.97-.61c-.96,0-1.67.34-2.15,1.03-.48.69-.72,1.75-.73,3.19v1.05c0,1.51.23,2.61.68,3.3s1.18,1.04,2.16,1.04c.89,0,1.55-.2,1.99-.61s.69-1.03.75-1.88h2.87Z"/>
    <path d="M185.83,30.97h-2.87v-5.97h-5.6v5.97h-2.87v-13.93h2.87v5.65h5.6v-5.65h2.87v13.93Z"/>
    <path d="M200.4,30.97h-2.87l-5.59-9.17v9.17h-2.87v-13.93h2.87l5.6,9.19v-9.19h2.86v13.93Z"/>
    <path d="M212.01,24.93h-5.51v3.73h6.47v2.31h-9.34v-13.93h9.32v2.33h-6.45v3.32h5.51v2.25Z"/>
    <path d="M218.38,28.66h6.1v2.31h-8.97v-13.93h2.87v11.63Z"/>
    <path d="M229.54,28.66h6.1v2.31h-8.97v-13.93h2.87v11.63Z"/>
    <path d="M246.2,24.93h-5.51v3.73h6.47v2.31h-9.34v-13.93h9.32v2.33h-6.45v3.32h5.51v2.25Z"/>
    <path d="M256.69,27.31c0-.54-.19-.96-.57-1.25-.38-.29-1.07-.6-2.07-.92s-1.78-.64-2.36-.95c-1.58-.86-2.37-2.01-2.37-3.46,0-.75.21-1.42.64-2.01.42-.59,1.03-1.05,1.83-1.38.79-.33,1.69-.5,2.68-.5s1.88.18,2.66.54,1.38.87,1.81,1.53.65,1.4.65,2.24h-2.87c0-.64-.2-1.13-.6-1.49-.4-.35-.97-.53-1.69-.53s-1.25.15-1.64.45c-.39.3-.58.69-.58,1.17,0,.45.23.83.68,1.14.46.31,1.13.59,2.01.86,1.63.49,2.82,1.1,3.57,1.83.75.73,1.12,1.63,1.12,2.72,0,1.21-.46,2.15-1.37,2.84-.91.69-2.14,1.03-3.68,1.03-1.07,0-2.05-.2-2.93-.59-.88-.39-1.55-.93-2.01-1.61-.46-.68-.69-1.47-.69-2.37h2.88c0,1.54.92,2.31,2.76,2.31.68,0,1.22-.14,1.6-.42s.57-.67.57-1.16Z"/>
    <path d="M274.8,27.31c0-.54-.19-.96-.57-1.25-.38-.29-1.07-.6-2.07-.92s-1.78-.64-2.36-.95c-1.58-.86-2.37-2.01-2.37-3.46,0-.75.21-1.42.64-2.01.42-.59,1.03-1.05,1.83-1.38.79-.33,1.69-.5,2.68-.5s1.88.18,2.66.54,1.38.87,1.81,1.53.65,1.4.65,2.24h-2.87c0-.64-.2-1.13-.6-1.49-.4-.35-.97-.53-1.69-.53s-1.25.15-1.64.45c-.39.3-.58.69-.58,1.17,0,.45.23.83.68,1.14.46.31,1.13.59,2.01.86,1.63.49,2.82,1.1,3.57,1.83.75.73,1.12,1.63,1.12,2.72,0,1.21-.46,2.15-1.37,2.84-.91.69-2.14,1.03-3.68,1.03-1.07,0-2.05-.2-2.93-.59-.88-.39-1.55-.93-2.01-1.61-.46-.68-.69-1.47-.69-2.37h2.88c0,1.54.92,2.31,2.76,2.31.68,0,1.22-.14,1.6-.42s.57-.67.57-1.16Z"/>
    <path d="M283.22,26.06v4.91h-2.87v-13.93h5.44c1.05,0,1.97.19,2.76.57.79.38,1.41.93,1.83,1.63s.64,1.51.64,2.41c0,1.37-.47,2.44-1.4,3.23s-2.23,1.18-3.88,1.18h-2.52ZM283.22,23.73h2.56c.76,0,1.34-.18,1.74-.54.4-.36.6-.87.6-1.53s-.2-1.23-.6-1.66-.96-.64-1.67-.65h-2.63v4.37Z"/>
    <path d="M296.33,30.97h-2.87v-13.93h2.87v13.93Z"/>
    <path d="M308.02,24.93h-5.51v3.73h6.47v2.31h-9.34v-13.93h9.32v2.33h-6.45v3.32h5.51v2.25Z"/>
    <path d="M314.39,28.66h6.1v2.31h-8.97v-13.93h2.87v11.63Z"/>
  </g>
</svg>
