<?xml version="1.0" encoding="UTF-8"?>
<svg xmlns="http://www.w3.org/2000/svg" width="430" height="48" viewBox="0 0 430 48">
  <g id="Hintergrund">
    <rect width="430" height="48" fill="#1d1d1d"/>
  </g>
  <g id="Verruecktes_Spiel" data-name="Verruecktes Spiel">
    <rect id="Button" x="107.59" width="252.81" height="48" rx="6" ry="6" fill="#fff" opacity=".87"/>
    <g id="Verruecktes_Spiel-2" data-name="Verruecktes Spiel">
      <path d="M145.75,27.51l3.16-10.48h3.2l-4.85,13.93h-3l-4.83-13.93h3.19l3.14,10.48Z"/>
      <path d="M162.51,24.93h-5.51v3.73h6.47v2.31h-9.34v-13.93h9.32v2.33h-6.45v3.32h5.51v2.25Z"/>
      <path d="M171.17,25.87h-2.29v5.1h-2.87v-13.93h5.18c1.65,0,2.92.37,3.81,1.1.89.73,1.34,1.77,1.34,3.11,0,.95-.21,1.74-.62,2.38-.41.64-1.04,1.14-1.87,1.52l3.01,5.69v.13h-3.08l-2.61-5.1ZM168.89,23.54h2.32c.72,0,1.28-.18,1.67-.55.4-.37.59-.87.59-1.52s-.19-1.17-.56-1.55c-.37-.38-.95-.56-1.72-.56h-2.31v4.18Z"/>
      <path d="M184.32,25.87h-2.29v5.1h-2.87v-13.93h5.18c1.65,0,2.92.37,3.81,1.1.89.73,1.34,1.77,1.34,3.11,0,.95-.21,1.74-.62,2.38-.41.64-1.04,1.14-1.87,1.52l3.01,5.69v.13h-3.08l-2.61-5.1ZM182.03,23.54h2.32c.72,0,1.28-.18,1.67-.55.4-.37.59-.87.59-1.52s-.19-1.17-.56-1.55c-.37-.38-.95-.56-1.72-.56h-2.31v4.18Z"/>
      <path d="M202.72,17.03v9.18c0,1.53-.48,2.73-1.43,3.62-.95.89-2.26,1.33-3.91,1.33s-2.92-.43-3.88-1.29-1.44-2.04-1.46-3.55v-9.28h2.87v9.2c0,.91.22,1.58.66,2s1.04.63,1.81.63c1.61,0,2.43-.85,2.46-2.55v-9.27h2.88ZM196.34,14.93c0,.34-.12.63-.37.86-.25.23-.57.35-.96.35s-.71-.12-.96-.36c-.24-.24-.36-.52-.36-.86s.12-.62.36-.86c.24-.24.56-.36.96-.36s.72.12.96.36c.25.24.37.53.37.86ZM198.35,14.93c0-.35.13-.64.39-.87s.57-.35.94-.35.69.12.94.36c.25.24.38.53.38.86s-.12.62-.36.86c-.24.24-.56.36-.96.36s-.72-.12-.96-.36c-.25-.24-.37-.53-.37-.86Z"/>
      <path d="M216.68,26.33c-.11,1.5-.66,2.68-1.66,3.54s-2.31,1.29-3.95,1.29c-1.79,0-3.19-.6-4.22-1.8-1.02-1.2-1.54-2.85-1.54-4.95v-.85c0-1.34.24-2.52.71-3.54s1.15-1.8,2.02-2.35c.88-.55,1.9-.82,3.06-.82,1.61,0,2.9.43,3.89,1.29s1.55,2.07,1.7,3.63h-2.87c-.07-.9-.32-1.55-.75-1.96s-1.09-.61-1.97-.61c-.96,0-1.67.34-2.15,1.03-.48.69-.72,1.75-.73,3.19v1.05c0,1.51.23,2.61.68,3.3s1.18,1.04,2.16,1.04c.89,0,1.55-.2,1.99-.61s.69-1.03.75-1.88h2.87Z"/>
      <path d="M223.62,25.38l-1.49,1.61v3.98h-2.87v-13.93h2.87v6.32l1.26-1.73,3.55-4.58h3.53l-4.95,6.19,5.09,7.74h-3.42l-3.58-5.59Z"/>
      <path d="M243.38,19.36h-4.27v11.61h-2.87v-11.61h-4.21v-2.33h11.35v2.33Z"/>
      <path d="M253.95,24.93h-5.51v3.73h6.47v2.31h-9.34v-13.93h9.32v2.33h-6.45v3.32h5.51v2.25Z"/>
      <path d="M264.44,27.31c0-.54-.19-.96-.57-1.25-.38-.29-1.07-.6-2.07-.92s-1.78-.64-2.36-.95c-1.58-.86-2.37-2.01-2.37-3.46,0-.75.21-1.42.64-2.01.42-.59,1.03-1.05,1.83-1.38.79-.33,1.69-.5,2.68-.5s1.88.18,2.66.54,1.38.87,1.81,1.53.65,1.4.65,2.24h-2.87c0-.64-.2-1.13-.6-1.49-.4-.35-.97-.53-1.69-.53s-1.25.15-1.64.45c-.39.3-.58.69-.58,1.17,0,.45.23.83.68,1.14.46.31,1.13.59,2.01.86,1.63.49,2.82,1.1,3.57,1.83.75.73,1.12,1.63,1.12,2.72,0,1.21-.46,2.15-1.37,2.84-.91.69-2.14,1.03-3.68,1.03-1.07,0-2.05-.2-2.93-.59-.88-.39-1.55-.93-2.01-1.61-.46-.68-.69-1.47-.69-2.37h2.88c0,1.54.92,2.31,2.76,2.31.68,0,1.22-.14,1.6-.42s.57-.67.57-1.16Z"/>
      <path d="M282.55,27.31c0-.54-.19-.96-.57-1.25-.38-.29-1.07-.6-2.07-.92-1-.32-1.78-.64-2.36-.95-1.58-.86-2.37-2.01-2.37-3.46,0-.75.21-1.42.64-2.01.42-.59,1.03-1.05,1.83-1.38s1.69-.5,2.67-.5,1.88.18,2.66.54,1.38.87,1.81,1.53.65,1.4.65,2.24h-2.87c0-.64-.2-1.13-.6-1.49-.4-.35-.97-.53-1.69-.53s-1.25.15-1.64.45c-.39.3-.58.69-.58,1.17,0,.45.23.83.68,1.14.46.31,1.13.59,2.01.86,1.63.49,2.82,1.1,3.57,1.83.75.73,1.12,1.63,1.12,2.72,0,1.21-.46,2.15-1.37,2.84-.91.69-2.14,1.03-3.68,1.03-1.07,0-2.05-.2-2.93-.59-.88-.39-1.55-.93-2.01-1.61s-.69-1.47-.69-2.37h2.88c0,1.54.92,2.31,2.76,2.31.68,0,1.21-.14,1.6-.42s.57-.67.57-1.16Z"/>
      <path d="M290.97,26.06v4.91h-2.87v-13.93h5.44c1.05,0,1.97.19,2.76.57.79.38,1.41.93,1.83,1.63s.64,1.51.64,2.41c0,1.37-.47,2.44-1.4,3.23s-2.23,1.18-3.88,1.18h-2.52ZM290.97,23.73h2.56c.76,0,1.34-.18,1.74-.54.4-.36.6-.87.6-1.53s-.2-1.23-.6-1.66-.96-.64-1.67-.65h-2.63v4.37Z"/>
      <path d="M304.08,30.97h-2.87v-13.93h2.87v13.93Z"/>
      <path d="M315.77,24.93h-5.51v3.73h6.47v2.31h-9.34v-13.93h9.32v2.33h-6.45v3.32h5.51v2.25Z"/>
      <path d="M322.14,28.66h6.1v2.31h-8.97v-13.93h2.87v11.63Z"/>
    </g>
  </g>
</svg>