<?xml version="1.0" encoding="UTF-8"?>
<svg xmlns="http://www.w3.org/2000/svg" width="106" height="100" viewBox="0 0 106 100">
  <g id="Hintergrund">
    <rect id="Hintergrund-2" data-name="Hintergrund" x="3" width="100" height="100" rx="6" ry="6" fill="#555556"/>
  </g>
  <g id="Werwölfe">
    <g id="Alphawerwolf">
      <path d="M41.45,16.41s-.63,12.45,1.54,18.44c-3.41,3-7.24,6.42-7.84,7.24-.99,1.36-.25,7.18-3.57,9.65-1.23.92-3.52,2.44-5.92,4-2.78,1.8-5.58,3.57-8.39,5.33,0,0,1.05,1.05,2.7,2.45.29.25.61.51.95.78,2.89,2.28,7.28,5.11,10.65,6.67,3.12,1.45,9.66,3.06,11.88,2.61.08-.02.24-.11.45-.25.21-.14.48-.34.79-.58.62-.47,1.42-1.08,2.29-1.69.44-.3.89-.61,1.36-.89.46-.28.93-.55,1.39-.77.93-.45,1.83-.75,2.61-.75,1.41,0,2.73.72,3.88,1.77,2.29,2.26,3.6,6.12,3.96,8.23,0,0,1.42-2.37,2.49-5.14.21-.55.41-1.12.59-1.7.34-1.14.57-2.29.57-3.31,0,0,.13.07.36.21.23.14.55.36.92.65.94.73,2.22,1.94,3.24,3.68.67,1.15,1.15,2.4,1.41,3.71.09.48.17.98.21,1.5.12,1.57-.03,3.34-.59,5.33,0,0,.16-.16.44-.45,1.12-1.17,4.08-4.51,5.86-8.73.22-.53.43-1.07.61-1.62.18-.55.34-1.12.46-1.69.5-2.29.51-4.72-.34-7.13,0,0,4.75,2.37,7.13,7.26,0,0,1.04-3.96-.16-8.23-.12-.44-.27-.87-.43-1.29-.17-.44-.37-.87-.59-1.29-.59-1.13-1.36-2.17-2.26-3.07-.61-.61-1.29-1.15-2.01-1.62,0,0,.44-.06,1.15-.11.71-.05,1.69-.08,2.8,0,.55.03,1.13.09,1.72.19,1.18.19,2.39.52,3.47,1.06.27.14.53.29.79.45.25.17.5.35.73.55,0,0-.04-.17-.13-.47-.12-.42-.25-.84-.4-1.26-.21-.62-.44-1.22-.7-1.82-.86-2.03-2.21-4.58-4.2-6.65-.33-.35-.68-.68-1.05-.99-.37-.31-.75-.61-1.16-.88-.41-.27-.83-.52-1.27-.74-.45-.23-.91-.42-1.39-.58,0,0,.14-.1.4-.32.26-.22.62-.55,1.08-1,.91-.91,2.17-2.32,3.55-4.31,0,0-.92,0-2.24-.12-.44-.04-.93-.09-1.44-.16-.53-.07-1.07-.16-1.6-.26-.55-.11-1.1-.24-1.64-.39-1.08-.31-2.11-.72-2.94-1.27,0,0,0-.02,0-.02-.15-.46-2.56-7.84-5.45-12.03-1.95-2.78-4.14-5.38-6.54-7.77,0,0-4.61,6.55-5.68,12.21,0,0-1.15-.36-2.85-.26v-.02s-2.58-2.82-6.29-7.22c-3.7-4.4-5.36-5.12-5.36-5.12h0Z" fill="#423b40" stroke="#fff" stroke-linecap="round" stroke-linejoin="round" stroke-width="6"/>
      <path d="M41.45,16.41s-.8,15.67,2.46,20.31c3.26,4.64,9.19-7.97,9.19-7.97,0,0-2.59-2.82-6.29-7.22-3.7-4.4-5.35-5.12-5.35-5.12Z" fill="#423b40"/>
      <path d="M83.52,71.23c-.69-4.1-7.13-7.26-7.13-7.26,3.41,9.63-7.03,19.62-7.03,19.62,2.96-10.6-5.55-15.09-5.55-15.09-.01,4.09-3.64,10.15-3.64,10.15.66-1.99-3.09-9.99-7.83-9.99-3.12,0-8.21,4.8-8.89,4.93-2.21.44-8.76-1.16-11.88-2.61-3.37-1.57-7.76-4.39-10.65-6.67-.32-.25-.64-.51-.95-.78-1.65-1.4-2.7-2.45-2.7-2.45,0,0,2.71-1.68,5.84-3.69.83-.53,1.7-1.09,2.55-1.64,2.39-1.55,4.69-3.08,5.92-3.99,3.32-2.48,2.58-8.3,3.57-9.65.99-1.36,12.44-11.28,12.44-11.28,4.23-3.14,8.34-1.78,8.34-1.78,1.06-5.66,5.68-12.21,5.68-12.21,2.4,2.4,4.59,5,6.54,7.77,2.89,4.19,5.3,11.58,5.45,12.03v.02c3.34,2.19,9.87,2.21,9.87,2.21-2.76,3.98-5.03,5.63-5.03,5.63,7.72,2.6,10.28,13.39,10.28,13.39-3.69-3.16-10.65-2.13-10.65-2.13,8.1,5.37,5.45,15.5,5.45,15.5Z" fill="#51474c"/>
      <path d="M38.09,51.88s1.48-5.22,2.95-6.38c1.47-1.16,7.41-3.48,7.41-3.48,0,0-1.98,4.98-3.96,6.01-1.99,1.03-6.4,3.85-6.4,3.85Z" fill="#c62828"/>
      <path d="M25.85,61.76c-.32.64-2.26,1.6-2.47,1.77-.21.17-.27-.92-.27-.92l-1.66-.21-.34,1.41-.18.5c-.32-.25-.64-.51-.95-.78-1.65-1.4-2.7-2.45-2.7-2.45,0,0,2.71-1.68,5.84-3.69.83-.53,1.7-1.09,2.55-1.64.12,1.37.45,5.48.18,6.01h0ZM62.22,21.51s4.35,5.78,4.89,9.93c.53,4.15-.2,6.37-.2,6.37,0,0-2.2-3.71-6.08-5.94-3.88-2.22,1.4-10.36,1.4-10.36ZM83.52,71.23c-2.38-4.89-7.13-7.26-7.13-7.26,3.41,9.63-7.03,19.62-7.03,19.62,2.96-10.6-5.55-15.09-5.55-15.09-.01,4.09-3.64,10.15-3.64,10.15-.53-3.09-3.09-9.99-7.83-9.99-3.12,0-8.21,4.8-8.89,4.93,0,0,4.04-7.12,10.04-7.46,6-.34,6.68,3.22,6.68,3.22,0,0,1.65-4.59-.77-6.99,0,0,8.19-1.44,11.72,4.66,0,0-.84-11.1-9.23-13.29,0,0,6.89-1.85,11.57,2.95,0,0-2.15-6.1-6.79-7.33,0,0,5.8-3.49,10.57-.96,0,0-3.83-5.48-7.99-5.89,0,0,3.62-2.67,6.97-2.47,0,0-2.21-2.22-2.61-3.38,3.33,2.19,9.86,2.21,9.86,2.21-2.76,3.98-5.03,5.63-5.03,5.63,7.72,2.6,10.28,13.39,10.28,13.39-3.69-3.16-10.65-2.13-10.65-2.13,8.1,5.37,5.45,15.5,5.45,15.5h0Z" fill="#423b40"/>
    </g>
  </g>
</svg>