<?xml version="1.0" encoding="UTF-8"?>
<svg xmlns="http://www.w3.org/2000/svg" width="100" height="100" viewBox="0 0 100 100">
  <g id="Hintergrund">
    <rect id="Hintergrund-2" data-name="Hintergrund" x="0" width="100" height="100" rx="6" ry="6" fill="#555556"/>
  </g>
  <g id="Solokiller">
    <g id="Brandstifter">
      <path d="M59.2,14.28c-.54,0-1.08.1-1.58.3l-3.38,1.34h-.02s-.05.03-.05.03l-15.06,5.99c-2.36.94-4.55,3.63-4.99,6.13l-.81,4.66c-.91.63-1.74,1.36-2.47,2.19l-4.91-2.12-4.28,9.93,4.37,1.88c-.34,1.82-.24,3.93.34,5.4l13.17,33.14c.83,2.08,3.21,3.11,5.29,2.28l35.38-14.06c2.08-.83,3.11-3.21,2.28-5.29l-11.31-28.47-5.42-13.64h0s-2.92-7.34-2.92-7.34c-.58-1.47-2.04-2.35-3.62-2.36h0ZM49.55,22.17l-.03.17c-.04.21-.46,2.78-.65,3.96l-11.07,4.4.34-1.93c.19-1.1,1.45-2.64,2.48-3.05l8.94-3.55ZM21.44,47.08s-4.17,5.49-4.2,8.13c-.03,2.64,1.79,4.8,4.06,4.82,2.27.02,4.13-2.1,4.16-4.74.03-2.64-4.03-8.21-4.03-8.21Z" fill="#f7bb0a" stroke="#fdfdfd" stroke-linecap="round" stroke-linejoin="round" stroke-width="6"/>
      <path d="M39.4,38.61l-4.28,9.93-13.49-5.81,4.28-9.93,13.49,5.81" fill="#f7bb0a"/>
      <path d="M53.27,24.91c-.19,1.1-1.44,2.63-2.47,3.04l-13.47,5.35.79-4.53c.19-1.1,1.44-2.64,2.48-3.05l13.45-5.34-.78,4.52ZM57.45,16.2c-.82-.67-1.99-.76-3.28-.24l-15.07,5.99c-2.36.94-4.55,3.63-4.99,6.13l-1.09,6.26c-.24,1.37.08,2.49.9,3.16.82.67,1.99.76,3.28.24l15.11-6c2.36-.94,4.55-3.63,4.98-6.14l1.07-6.24c.24-1.37-.09-2.5-.91-3.17" fill="#f7bb0a"/>
      <path d="M34.95,31.83c-2.08.83-4.59,3.15-5.58,5.16l-2.73,5.58c-.99,2.01-1.12,5.36-.29,7.44l13.17,33.14c.83,2.09,3.2,3.11,5.29,2.28l35.39-14.06c2.08-.84,3.1-3.2,2.28-5.29l-16.74-42.11c-.84-2.08-3.2-3.1-5.29-2.28l-25.5,10.14" fill="#f14b1c"/>
      <path d="M49.69,21.43c.42-2.2,2.47-4.68,4.55-5.5l3.38-1.34c2.08-.83,4.42.09,5.2,2.05.78,1.96-.29,4.23-2.37,5.06l-7.92,3.15c-1.84.73-3.82,2.36-3.82,2.36,0,0,.76-4.6.8-4.86l.18-.92" fill="#f14b1c"/>
      <path d="M61.19,41.58l9.97-3.96-8.34-20.98-9.97,3.96,8.34,20.98" fill="#f14b1c"/>
      <path d="M56.34,48.16c-.25,0-.5.05-.73.14l-8.71,3.46c-1.03.41-1.53,1.58-1.12,2.61l3.46,8.7c.4.99,1.6,1.52,2.61,1.13l8.7-3.46c.5-.2.89-.58,1.1-1.07.21-.49.22-1.04.03-1.54l-3.46-8.7c-.31-.77-1.06-1.27-1.88-1.27ZM51.11,68.47c-2.52.01-4.79-1.53-5.71-3.87l-3.46-8.7c-1.25-3.15.29-6.71,3.44-7.97l8.7-3.46c.72-.29,1.48-.43,2.26-.43,2.52-.01,4.79,1.52,5.71,3.87l3.46,8.7c.61,1.51.58,3.2-.07,4.69-.64,1.5-1.85,2.68-3.37,3.27l-8.7,3.46c-.72.29-1.48.43-2.25.43" fill="#f7bb0a"/>
      <path d="M43.85,54.19c-.28,0-.56-.06-.82-.17l-10.92-4.7c-1.05-.45-1.53-1.67-1.08-2.71.45-1.05,1.67-1.53,2.71-1.08l10.91,4.71c1.05.45,1.53,1.66,1.08,2.71-.33.76-1.07,1.25-1.9,1.25M74.57,67.44c-.28,0-.56-.06-.82-.17l-10.92-4.71c-1.05-.45-1.53-1.67-1.08-2.71s1.67-1.53,2.71-1.08h0l10.91,4.71c1.05.45,1.53,1.67,1.07,2.71-.33.75-1.07,1.24-1.89,1.24M58.02,48.56c-1.14,0-2.06-.92-2.07-2.06,0-.28.06-.56.17-.82l4.71-10.92c.45-1.05,1.67-1.53,2.71-1.08s1.53,1.67,1.08,2.71h0l-4.71,10.91c-.33.76-1.07,1.25-1.9,1.25M44.77,79.27c-1.14,0-2.06-.92-2.07-2.06,0-.28.06-.56.17-.82l4.71-10.92c.45-1.05,1.67-1.53,2.71-1.08,1.05.45,1.53,1.67,1.08,2.71h0l-4.71,10.91c-.33.76-1.07,1.25-1.9,1.25" fill="#f7bb0a"/>
      <path d="M25.47,55.29c-.03,2.64-1.89,4.76-4.16,4.74-2.27-.03-4.09-2.18-4.06-4.82.03-2.64,4.2-8.13,4.2-8.13,0,0,4.06,5.57,4.03,8.21" fill="#27303c"/>
    </g>
  </g>
</svg>