<?xml version="1.0" encoding="UTF-8"?>
<svg xmlns="http://www.w3.org/2000/svg" width="108.4" height="100" viewBox="0 0 108.4">
  <g id="Hintergrund">
    <rect id="Hintergrund-2" data-name="Hintergrund" x="4.2" width="100" height="100" rx="6" ry="6" fill="#555556"/>
  </g>
  <g id="Aura">
    <path d="M57.09,27.21c-.31,0-.59.2-.71.48-.98,2.32-1.35,4.18-6.1,7.48-2.43.06-4.9.42-7.37,1.13,2.56-2.69,2.89-4.47,3.34-6.04.12-.41-.12-.84-.53-.96-.41-.12-.84.12-.96.53h0c-.59,2.06-.6,3.53-4.81,7.13-.14.12-.23.28-.26.45-7.81,3.2-15.57,10-22.45,21.65.07-.05.16-.12.23-.17,23.58,27.5,58.99,8.04,64.13-5.45.11.08.23.16.34.25-.23-.35-.47-.71-.71-1.05.08,0,.17-.02.26-.05,4.46-1.63,5.94-3.03,7.14-4.6.26-.34.19-.83-.15-1.09-.34-.26-.83-.19-1.09.15h0c-1.3,1.7-2.52,2.73-6.42,4.08-.28.09-.43.27-.5.47-1.02-1.37-2.11-2.69-3.28-3.94,4.32-2.16,5.23-4.02,6.21-5.58.24-.35.15-.84-.21-1.08-.35-.24-.84-.15-1.08.21,0,.01-.02.03-.03.04-1.09,1.74-1.54,3.1-6.03,5.23-1.84-1.84-3.84-3.51-5.98-4.99,4.08-2.1,4.97-3.91,5.93-5.43.23-.36.13-.84-.23-1.07-.36-.23-.84-.13-1.07.23,0,0,0,.01-.01.02-1.1,1.75-1.55,3.12-6.12,5.27-1.87-1.18-3.85-2.18-5.9-3.01,3.51-2.57,4.13-4.44,4.84-6.05.17-.39,0-.85-.39-1.02-.39-.17-.85,0-1.02.39h0c-.83,1.88-1.08,3.29-5.19,6.02-2.62-.89-5.35-1.45-8.12-1.62,3.51-2.84,4.19-5,5.01-6.93.17-.39,0-.85-.4-1.02-.1-.04-.21-.07-.32-.07h0Z" fill="#fff" fill-rule="evenodd" stroke="#fff" stroke-linecap="round" stroke-linejoin="round" stroke-width="6"/>
    <g>
      <path d="M45.45,29.28c-.34.01-.63.24-.72.57-.59,2.06-.6,3.52-4.8,7.12-.33.27-.37.76-.1,1.09.27.33.76.37,1.09.1,0,0,.01,0,.02-.01,4.38-3.75,4.74-5.97,5.28-7.87.12-.41-.11-.84-.52-.96-.08-.02-.17-.04-.25-.03h0ZM57.03,27.23c-.31,0-.59.2-.7.48-.99,2.35-1.35,4.23-6.3,7.62-.36.23-.46.71-.22,1.07.23.36.71.46,1.07.22,0,0,.02-.01.03-.02,5.16-3.53,5.91-6.07,6.85-8.29.17-.39,0-.85-.4-1.02-.1-.04-.21-.07-.32-.07h0ZM66.76,30.37c-.31,0-.59.18-.71.47-.87,1.96-1.08,3.4-5.75,6.39-.36.22-.48.7-.26,1.06.22.36.7.48,1.06.26.01,0,.02-.01.03-.02,4.86-3.11,5.52-5.25,6.33-7.06.18-.39,0-.85-.38-1.03-.1-.05-.21-.07-.32-.07ZM75.26,34.87c-.25.01-.49.15-.62.37-1.14,1.81-1.56,3.21-6.6,5.5-.39.18-.56.63-.38,1.02.18.39.63.56,1.02.38h0c5.25-2.38,6.22-4.41,7.27-6.08.23-.36.13-.84-.23-1.07-.14-.09-.3-.13-.46-.12h0ZM82.63,40.88c-.25.01-.49.15-.62.37-1.14,1.81-1.56,3.21-6.6,5.5-.39.17-.57.62-.4,1.02s.62.57,1.02.4c0,0,.02,0,.02-.01,5.25-2.38,6.22-4.41,7.27-6.08.23-.36.13-.84-.23-1.07-.14-.09-.3-.13-.46-.12ZM87.95,46.72c-.25,0-.5.11-.65.31-1.3,1.7-2.51,2.72-6.41,4.07-1,.32-.48,1.83.51,1.46,4.45-1.62,5.93-3.02,7.13-4.59.39-.5.05-1.23-.58-1.25Z" fill="#4e4e4e" fill-rule="evenodd"/>
      <circle cx="49.19" cy="53.93" r="13.96" fill="#4fc3f7"/>
      <circle cx="49.19" cy="53.93" r="11.06" fill="#03a9f4"/>
      <path d="M17.44,58.81c8.04,3.42,35.77,14.98,64.08-5.4-5.12,13.49-40.53,32.95-64.08,5.4Z" fill="#e09465" fill-rule="evenodd"/>
      <path d="M17.26,59.04c9.25-6.79,31.19-29.56,64.6-5.37-13.21-20.1-43.23-30.88-64.6,5.37h0Z" fill="#e09465" fill-rule="evenodd"/>
      <path d="M53.25,59.85l-3.78-2.34-3.37,2.9.14-4.45-4.2-1.47,3.92-2.11-.82-4.37,3.78,2.34,3.37-2.9-.14,4.45,4.2,1.47-3.92,2.11.82,4.37Z" fill="#e1ef5b" stroke="#e1ef5b" stroke-linecap="square" stroke-linejoin="round" stroke-width=".79"/>
      <circle cx="49.19" cy="53.93" r="1.67" fill="#03a9f4"/>
    </g>
  </g>
</svg>
