<?xml version="1.0" encoding="UTF-8"?>
<svg xmlns="http://www.w3.org/2000/svg" width="100" height="100" viewBox="0 0 100 100">
  <g id="Hintergrund">
    <rect id="Hintergrund-2" data-name="Hintergrund" x="0" width="100" height="100" rx="6" ry="6" fill="#555556"/>
  </g>
  <g id="Solokiller">
    <g id="Räuber">
      <path d="M50,14.28c-17.24,0-13.57,19.73-13.57,19.73,0,0,.02,0,.03,0-.63.41-1.13,1-1.41,1.7-.54,0-1.08.07-1.59.22.33.6.6,1.23.8,1.89.28.89.77,1.45,1.32,1.61-.02.04-.03.09-.05.13-.34,0-1.3.13-2.07,1.29-.95,1.44-1.04,2.25-1.04,2.25.9-.08,1.8-.07,2.7.02.8.11,1.55-.44,1.93-.78.12.02.24.04.35.04.22,0,.44-.04.64-.12.05.34.13.72.24,1.12-7,1.92-11.31,5.42-11.35,9.21.04.99.36,1.97.98,2.92l-.09.03-3.16,1.92c-2.05,1.24-3.07,3.67-2.51,6.01l4.28,17.99c.59,2.49,2.82,4.25,5.38,4.25h36.4c2.56,0,4.79-1.76,5.38-4.25l4.28-17.99c.56-2.34-.46-4.76-2.51-6.01l-3.15-1.92-.09-.04c.61-.95.94-1.93.98-2.91,0-3.91-4.56-7.5-11.89-9.4.14-.84.23-1.68.27-2.53,1.73-.33,2.98-1.84,2.98-3.6,0-1.04-.44-2.03-1.21-2.72h0s4.01-20.09-13.24-20.09Z" fill="#262626" stroke="#fff" stroke-linecap="round" stroke-linejoin="round" stroke-width="6"/>
      <g>
        <path d="M77.86,63.48l-4.28,17.99c-.59,2.49-2.82,4.25-5.38,4.25H31.8c-2.56,0-4.79-1.76-5.38-4.25l-4.28-17.99c-.56-2.34.46-4.76,2.51-6.01l3.16-1.91,22.19-8.73,22.19,8.73,3.16,1.91c2.05,1.25,3.07,3.67,2.51,6.01Z" fill="#262626"/>
        <ellipse cx="50" cy="52.61" rx="23.08" ry="10.75" fill="#262626"/>
        <path d="M35.85,51.47c.13-1.38,1.14-2.56,2.36-3.22s2.62-.89,3.99-1.05c4.34-.52,8.72-.5,13.05.05,3.21.41,12.57,2.83,8.24,7.41-.88.93-2.02,1.54-3.08,2.25-3.04,2.04-5.45,4.9-6.95,8.25-3.66-2.18-7.44-3.89-11.1-5.95-2.63-1.48-6.84-4.19-6.51-7.74Z" fill="#2ea8dd"/>
        <path d="M57.21,57.88c.72-1.3,1.26-2.37,1.36-2.75.68-2.62-.04-6.27-.04-9.01l-.34-5.3h-15.41v7.33c0,3.04-1.33,7.06.31,9.87,1.79,3.09,7.48,5.22,10.37,7.11.05.03,2.09-4.26,3.75-7.26h0Z" fill="#f7cfaa"/>
        <path d="M58.55,47.11c-2.14,4.04-5.04,5.76-8.48,5.5-3.14-.23-5.64-1.61-7.3-5.27v-6.51h15.41c.11,1.77.22,3.53.34,5.3,0,.31.01.65.02.98h0Z" fill="#d69a69"/>
        <circle cx="38.42" cy="37.09" r="3.68" fill="#e3ba96"/>
        <circle cx="60.76" cy="37.09" r="3.68" fill="#e3ba96"/>
        <path d="M62.3,25.61l-1.01,13.75c0,1.87-.02,4.08-1.01,5.69-.85,1.42-1.94,2.67-3.23,3.69-2.3,1.78-5.16,2.68-8.07,2.52-.08,0-.16-.01-.24-.02h0c-.3-.02-.61-.06-.91-.11-2.56-.48-4.88-1.79-6.61-3.74-3.34-3.69-2.54-8.52-2.87-13.03-.21-2.91-.42-5.83-.64-8.74l2.88-7.61,9.09-1.02,12.62,8.64Z" fill="#f7cfaa"/>
        <path d="M62.3,25.61l-1.01,13.75c0,1.87-.02,4.08-1.01,5.69-.85,1.42-1.94,2.67-3.23,3.69-2.3,1.78-5.16,2.68-8.07,2.52-.08,0-.16-.01-.24-.02,2.33-.21,4.55-1.07,6.41-2.5,1.29-1.03,2.39-2.28,3.24-3.69.99-1.6,1.01-3.82,1.01-5.69l1-13.66,1.91-.08Z" fill="#e3ba96"/>
        <path d="M63.23,34.36c-1.34.31-1.74,2.16-1.85,3.33.4-10.95-3.05-14.37-5.35-14.26-2.38.12-3.19,1.93-6.03,1.93s-3.66-1.82-6.03-1.93c-.61-.01-1.21.17-1.7.53-.09-.13-1.6-2.26-1.64-4.39,0,0-.42,2.92.92,5.01-1.69,1.8-3.17,5.87-3.08,13.63-.01-1-.42-3.83-2.04-4.21,0,0-3.66-19.73,13.57-19.73s13.24,20.08,13.24,20.08Z" fill="#161614"/>
        <path d="M38.44,38.92s.24-1.31-.37-2.07c-.61-.77-2.5-1.52-4.63-.91.33.6.6,1.23.8,1.89.34,1.11,1.01,1.71,1.73,1.66.84-.13,1.67-.32,2.48-.57Z" fill="#6bc1e6"/>
        <path d="M35.64,39.58s-1.25-.14-2.2,1.29c-.95,1.44-1.04,2.25-1.04,2.25.9-.08,1.8-.07,2.7.01,1.14.16,2.2-1.04,2.2-1.04l-1.66-2.52Z" fill="#61bde5"/>
        <circle cx="37.39" cy="40.34" r="2.05" fill="#47b1e1"/>
        <path d="M38.49,38.62s5.13,1.05,7.73.28c2.6-.76,4.05-1.14,7.03,0,2.98,1.14,8.13-1.2,8.13-1.2,0,0,2.03,15.05-12.11,18.93,0,0-.99-1.74-4.96-4.34-4.27-2.8-6.6-9.09-6.33-11.16s.5-2.51.5-2.51h0Z" fill="#68c3ed"/>
        <path d="M53.25,34.8l5.35-2.93c.11-.06.26-.02.32.09,0,.02.02.04.02.06l.2.81c.03.11-.02.21-.12.26l-5.25,2.7c-.12.06-.26.01-.32-.1,0,0,0,0,0,0l-.29-.58c-.06-.11-.01-.25.1-.31h0Z" fill="#161614"/>
        <circle cx="55.33" cy="37.3" r="1.48" fill="#161614"/>
        <path d="M46.73,34.8l-5.33-2.93c-.11-.06-.26-.02-.32.09,0,.02-.02.04-.02.06l-.19.81c-.03.11.02.21.12.26l5.24,2.7c.11.06.26.01.31-.1,0,0,0,0,0,0l.29-.58c.06-.11.01-.25-.1-.31h0Z" fill="#161614"/>
        <circle cx="44.66" cy="37.3" r="1.47" fill="#161614"/>
      </g>
    </g>
  </g>
</svg>