<?xml version="1.0" encoding="UTF-8"?>
<svg xmlns="http://www.w3.org/2000/svg" width="108.4" height="100" viewBox="0 0 108.4">
  <g id="Hintergrund">
    <rect id="Hintergrund-2" data-name="Hintergrund" x="4.2" width="100" height="100" rx="6" ry="6" fill="#555556"/>
  </g>
  <g id="Biestjäger">
    <g image-rendering="optimizeQuality" shape-rendering="geometricPrecision" text-rendering="geometricPrecision">
      <path d="M59.79,14.28s-.66.99-1.26,2.55h-12.89c-3.02,0-5.47,2.45-5.47,5.47h0v2.63c0,.87.21,1.7.57,2.43-.37.07-.72.26-.98.53h-3.71c-2.19,0-3.97,1.78-3.97,3.97s1.78,3.97,3.97,3.97h.91c-.05,1.49-.08,2.99-.07,4.48,0,1.17.87,2.16,2.15,2.63.05,0,.1-.01.14-.01.07,2.03.43,4.02,1.06,5.89h-10.33c-.05,0-.1,0-.15.02-.35.07-.6.38-.6.74l.13.74,2.89,16.87-4.54,10.12c-.34.75-.32,2.14-.32,3.05v2.32c0,1.69,1.23,3.05,2.74,3.05h45.9c1.51,0,2.74-1.36,2.74-3.05,0-1.14.08-4.5-.32-5.37l-6.3-14.03c-.47-1.05-1.38-1.68-2.36-1.78-.51-.55-1.23-.87-1.98-.88h-9.62c-.14.12-.3.23-.45.34l-.08.06-.09.05v-2.83c5.1-2.25,8.66-7.99,9.09-14.67h.01c1.13-.46,1.89-1.42,1.89-2.5,0-1.82-.01-3.59-.06-5.24h.36c2.19,0,3.97-1.78,3.97-3.97s-1.78-3.97-3.97-3.97h-2.52c-.26-.27-.61-.46-.98-.53.36-.73.57-1.56.57-2.43v-1.81c.09-.12.19-.24.28-.36,1.85-2.6,2.54-5.47,2.79-6.98.03-.07.04-.15.04-.23.08-.53.11-.86.11-.86,0,0-.3.14-.78.39-.08.02-.15.06-.21.11-1.49.82-2.86,1.84-4.06,3.04-.9-.81-2.04-1.29-3.24-1.38-.25-.89-.59-1.74-1.02-2.56h0ZM41.02,50.71c1.63,3.5,4.22,6.16,7.29,7.52v2.84l-.08-.05-.1-.07c-.15-.11-.3-.22-.45-.34h-7.12l.45-9.9Z" fill="#906448" stroke="#fff" stroke-linejoin="round" stroke-width="6"/>
      <g>
        <path d="M32.81,70.79h7.29l.94-20.54.03-.74c0-.41-.33-.75-.75-.75h-10.41c-.41,0-.75.34-.75.75l.13.74,3.51,20.54Z" fill="#906448"/>
        <path d="M32.81,70.79h2.91v-22.03h-5.8c-.41,0-.75.34-.75.75l.13.74,3.51,20.54Z" fill="#82553e"/>
        <path d="M41.04,50.25h-11.74l-.13-.74c0-.41.34-.75.75-.75h10.4c.41,0,.75.33.75.75h0s-.03.74-.03.74Z" fill="#82553c"/>
        <path d="M35.71,50.25h-6.42l-.13-.74c0-.41.34-.75.75-.75h5.8v1.49Z" fill="#724834"/>
        <path d="M57.51,63.92c0,.85-.69,1.53-1.53,1.53h-6.13c-.85,0-1.53-.69-1.53-1.53v-6.71c0-.85.69-1.53,1.53-1.53h6.13c.85,0,1.53.69,1.53,1.53v6.71Z" fill="#f8c47b"/>
        <ellipse cx="52.91" cy="42.19" rx="13.74" ry="17" fill="#f9cb8a"/>
        <path d="M68.5,41.02c0,1.08-.76,2.04-1.89,2.51-4.54-4.43-2.19-7.95-1.8-8.33l-6.68,3.52,1.76-4.92c-3.21,6.41-14.22,8.45-20.84,9.09-1.29-.46-2.16-1.46-2.16-2.62,0-4.73.11-8.52,1.1-11.39h29.67c.77,2.81.84,7.32.84,12.15h0Z" fill="#82553e"/>
        <path d="M72.76,31.81c0,2.19-1.78,3.97-3.97,3.97h-32.74c-2.19,0-3.97-1.78-3.97-3.97s1.78-3.97,3.97-3.97h32.74c2.19,0,3.97,1.78,3.97,3.97Z" fill="#32a067"/>
        <path d="M65.87,24.88c0,3.02-2.45,5.47-5.47,5.47h-14.77c-3.02,0-5.47-2.45-5.47-5.47v-2.63c0-3.02,2.45-5.47,5.47-5.47h14.77c3.02,0,5.47,2.45,5.47,5.47v2.63Z" fill="#328c69"/>
        <path d="M66.15,22.71c-2.65,3.73-6.65,5.43-6.65,5.43,0,0,.29-4.34,2.94-8.07,2.65-3.73,6.65-5.43,6.65-5.43,0,0-.29,4.34-2.94,8.07h0Z" fill="#ee4037"/>
        <path d="M58.23,29.83c-.2-.18-.23-.48-.08-.7l9.88-13.92c.17-.24.5-.29.73-.12h0c.24.17.29.49.12.73l-9.88,13.91c-.17.24-.49.29-.73.12l-.04-.03Z" fill="#f27062"/>
        <path d="M61.38,21.17c-.16,3.79-2.18,6.78-2.18,6.78,0,0-1.75-3.15-1.59-6.94s2.18-6.78,2.18-6.78c0,0,1.76,3.15,1.59,6.94h0Z" fill="#f58334"/>
        <path d="M59.1,29.49c-.19-.03-.33-.2-.32-.39l.53-12.36c0-.21.19-.37.4-.36h0c.21,0,.37.18.36.39,0,0,0,0,0,0l-.53,12.36c-.01.21-.19.37-.4.36-.01,0-.03,0-.04,0h0Z" fill="#fec52b"/>
        <path d="M66.61,28.98c0,.76-.79,1.37-1.77,1.37h-23.64c-.98,0-1.77-.62-1.77-1.37v-.35c0-.76.79-1.37,1.77-1.37h23.64c.98,0,1.77.62,1.77,1.37v.35Z" fill="#197e59"/>
        <path d="M78.4,77.25l-6.3-14.03c-.47-1.05-1.38-1.68-2.36-1.78-.52-.54-1.21-.88-1.98-.88h-9.62c-1.26,1.18-3.13,1.93-5.23,1.93s-3.97-.75-5.22-1.93h-10.15c-.9,0-1.69.47-2.23,1.18-.57.3-1.06.79-1.37,1.47l-6.3,14.03c-.34.75-.31,2.14-.31,3.05v2.32c0,1.69,1.23,3.05,2.74,3.05h45.9c1.51,0,2.74-1.37,2.74-3.05,0-1.14.08-4.5-.31-5.38h0Z" fill="#198862"/>
        <path d="M70.05,77.06h-1.45c-2.81,0-5.09-2.09-5.09-4.67v-11.11c0-.4-.35-.72-.78-.72h-4.59c-1.26,1.1-3.13,1.8-5.23,1.8s-3.97-.7-5.22-1.8l-5.29.05c-.43,0-.78.32-.78.72v11.11c0,2.58-3.23,4.62-6.03,4.62h-1.45c-.43,0-.78.32-.78.72v5.39c0,1.39,1.23,2.51,2.74,2.51h32.01c1.51,0,2.74-1.13,2.74-2.51v-5.39c0-.4-.35-.72-.78-.72h0Z" fill="#41b97f"/>
        <path d="M64.48,75.13c-.61-.77-.97-1.72-.97-2.74v-11.11c0-.4-.35-.72-.78-.72h-4.59c-.19.17-.4.33-.63.48v14.09h6.97Z" fill="#41b97f"/>
        <path d="M58.28,63.21c0,9.96-5.37,18.03-5.37,18.03,0,0-5.36-8.07-5.36-18.03,0-.9.02-1.78.06-2.65h.09c1.26,1.05,3.13,1.72,5.22,1.72s3.97-.67,5.23-1.72h.08c.04.87.06,1.75.06,2.65h0Z" fill="#328c69"/>
        <path d="M52.03,83h1.77v-8.53h-1.77v8.53Z" fill="#328c69"/>
        <path d="M48.2,77.81v7.22c0,.35-.29.64-.64.64h-6.91c-.35,0-.64-.29-.64-.64v-7.22c0-.35.29-.64.64-.64h6.91c.35,0,.64.29.64.64h0Z" fill="#32a067"/>
        <path d="M48.2,77.81v1.33c0,.36-.29.64-.64.64h-6.91c-.35,0-.64-.29-.64-.64h0v-1.34c0-.35.29-.64.64-.64h6.91c.35,0,.64.29.64.64h0Z" fill="#81caa9"/>
        <path d="M45.03,79.79c0,.51-.42.93-.93.93s-.93-.42-.93-.93.42-.93.93-.93.93.42.93.93Z" fill="#328c69"/>
        <path d="M66.27,77.81v7.22c0,.35-.29.64-.64.64h-6.91c-.35,0-.64-.29-.64-.64v-7.22c0-.35.29-.64.64-.64h6.91c.35,0,.64.29.64.64h0Z" fill="#32a067"/>
        <path d="M66.27,77.81v1.33c0,.36-.29.64-.64.64h-6.91c-.35,0-.64-.29-.64-.64h0v-1.34c0-.35.29-.64.64-.64h6.91c.35,0,.64.29.64.64h0Z" fill="#81caa9"/>
        <path d="M63.1,79.79c0,.51-.4.94-.91.95-.51,0-.94-.4-.95-.91,0-.01,0-.02,0-.04,0-.51.42-.93.93-.93.51,0,.93.42.93.93h0Z" fill="#328c69"/>
        <path d="M40.36,85.36c0,.18-.14.32-.3.32h-3.16c-.17,0-.3-.14-.3-.32v-25.26c0-.18.14-.32.3-.32h3.16c.17,0,.3.14.3.32v25.26Z" fill="#87583e"/>
        <ellipse cx="47.5" cy="45.11" rx="1.38" ry="1.34" fill="#464648"/>
        <ellipse cx="58.09" cy="45.11" rx="1.38" ry="1.34" fill="#464648"/>
        <path d="M55.49,42.33l5.04-1.24.24.96-5.04,1.24-.24-.96ZM50.22,42.76l-4.92-1.66-.32.94,4.92,1.66.32-.94Z" fill="#82553e" fill-rule="evenodd"/>
        <path d="M48.31,61.73c1.24.73,2.84,1.17,4.6,1.17s3.36-.44,4.6-1.17c.26-.15.51-.32.73-.5,0-.22-.02-.45-.02-.67h-.08c-.19.16-.4.32-.63.46-1.22.78-2.83,1.26-4.6,1.26s-3.38-.48-4.6-1.26c-.22-.14-.43-.29-.63-.46h-.08c0,.22-.02.44-.02.67.23.18.47.35.74.5h0Z" fill="#3c9d7a" fill-rule="evenodd"/>
      </g>
    </g>
  </g>
</svg>
