<?xml version="1.0" encoding="UTF-8"?>
<svg xmlns="http://www.w3.org/2000/svg" width="106" height="100" viewBox="0 0 106 100">
  <g id="Hintergrund">
    <rect id="Hintergrund-2" data-name="Hintergrund" x="3" width="100" height="100" rx="6" ry="6" fill="#555556"/>
  </g>
  <g id="bodyguard">
    <path d="M52.56,14.29c-6.75,0-12.22,6.68-12.22,14.93h0c0,.69.05,1.37.13,2.05,0,.09,0,.17.01.26h-.02v.15c0,.26,0,.53.02.79.11,1.35.64,3.97,2.92,6.61.32.45.66.87,1.02,1.27-.11.05-.18.1-.2.16-.15.56-.86,1.43-1.52,2.15-.37-.12-.76-.17-1.14-.15-2.34.24-4.79,3.15-4.79,3.15,0,0-11.8-.35-12.5,9.35l.27,1.42-.19.09c.29,2.04.58,4.09.88,6.13l.22,1.52c.23,1.47.45,2.89.67,4.13l.05.32c.11.6.22,1.2.34,1.8l.11.47.02.09c.05.16.09.3.12.38.03.08.1.16.2.23.12.07.25.13.39.18.18.06.37.1.56.13.52.07,1.05.12,1.58.14,1.11.02,2.22,0,3.33-.06,1.85-.1,3.7-.25,5.54-.43.72,1.11,3.31,14.17,3.31,14.17h22.66s2.63-13.27,3.32-14.2c.01-.02.03-.03.05-.04.11,0,.26,0,.51.01l1.26.07c.51.03,1.08.07,1.69.1,1.52.08,3.27.14,4.68.07.28-.01.55-.03.8-.06.42-.04.84-.12,1.26-.24.2-.05.38-.16.53-.3.03-.04.06-.08.08-.13.04-.12.08-.24.12-.36l.04-.16.08-.29.14-.56c.1-.43.22-.93.34-1.5l.06-.26c.65-3.11,1.27-6.23,1.86-9.35l.6-3.15-.07-.02.07-.36c-.37-5.15-3.87-7.47-7.08-8.5-2.83-.92-5.42-.84-5.42-.84,0,0-2.45-2.92-4.79-3.15-.25-.02-.49,0-.73.05-.09.02-.18.04-.26.06-.11.03-.23.07-.34.1h0l-.29.09-.3-.14c-2.07-1.01-1.79-2.17-1.68-2.46.34-.38.66-.78.96-1.2,2.23-2.61,2.75-5.2,2.86-6.54.01-.26.02-.52.03-.78,0-.1,0-.15,0-.15h-.02c0-.09,0-.18,0-.28.08-.67.12-1.34.13-2.02,0-8.25-5.47-14.94-12.21-14.94h0Z" fill="#f8c47b" stroke="#fff" stroke-linejoin="round" stroke-width="6"/>
    <g>
      <path d="M41.48,43.88s2.45-2.3,2.74-3.38c.29-1.08,16.64-.36,16.64-.36,0,0-.72,1.37,1.66,2.52s4.18,1.58,4.18,1.58l-16.2,10.23-9.29-10.44.29-.14Z" fill="#f8c47b"/>
      <path d="M41.55,42.49c-2.34.23-4.79,3.15-4.79,3.15,0,0-11.8-.35-12.5,9.34,0,0,2.69,14.6,3.27,16.01.58,1.4,10.16.35,10.75.47.58.12,3.39,14.25,3.39,14.25h22.66s2.8-14.14,3.39-14.25c.58-.12,10.16.93,10.75-.47s3.27-16,3.27-16c-.7-9.7-12.5-9.35-12.5-9.35,0,0-2.45-2.92-4.79-3.15s-7.71,4.09-11.45,4.09-9.11-4.32-11.45-4.09h0Z" fill="#113233" fill-rule="evenodd"/>
      <ellipse cx="52.56" cy="29.21" rx="12.22" ry="14.94" fill="#f9cb8a"/>
      <path d="M53.95,22.57c.35-.63,2.63-.37,4.33-.33s2.21.62,2.43.92c.22.3.68,2.06.68,2.84-.01.94-.76,1.7-1.7,1.74-1.02.04-5.42.24-5.53-.62-.23-1.25.15-1.79-.63-1.79-.75.04-1.49,0-1.94,0-.78,0-.4.54-.63,1.79-.1.86-4.51.66-5.52.62-.94-.03-1.69-.79-1.71-1.73,0-.78.45-2.55.68-2.85.22-.3.73-.86,2.43-.91,1.7-.05,3.99-.3,4.34.33.58.37,2.43.47,2.77,0h0Z" fill="#121212" fill-rule="evenodd"/>
      <ellipse cx="45.12" cy="23.52" rx=".69" ry=".37" transform="translate(1.43 49.6) rotate(-58.36)" fill="#737373"/>
      <path d="M41.55,42.49c-2.34.23-4.79,3.15-4.79,3.15,0,0-11.8-.35-12.5,9.34,0,0,2.69,14.6,3.27,16.01.58,1.4,10.16.35,10.75.47.58.12,3.39,14.25,3.39,14.25h22.66s2.8-14.14,3.39-14.25c.58-.12,10.16.93,10.75-.47s3.27-16,3.27-16c-.7-9.7-12.5-9.35-12.5-9.35,0,0-2.45-2.92-4.79-3.15s-7.71,4.09-11.45,4.09-9.11-4.32-11.45-4.09h0Z" fill="#113233" fill-rule="evenodd"/>
      <path d="M52.41,48.68l-2.63,27.02,3.23,3.9,3.55-3.8-2.58-27.16-1.57.03Z" fill="#b16329" stroke="#b16329" stroke-linejoin="round" stroke-width=".81"/>
      <path d="M67.6,71.48c.6-.11,10.33.95,10.92-.47s3.22-15.63,3.22-15.63c0,0-5.17-1.68-7.8-2.32-1.52-.37-2.1-.64-2.1-.64-4.09,6.81-11.42,10.67-18.3,14.39,3.57,3.28,14.05,4.67,14.05,4.67h0Z" fill="#f9cb8a"/>
      <path d="M81.15,58.52c-1.31,4.33-3.71,8.95-4.08,9.84-.59,1.42-9.38.76-9.98.88,0,0-7.52-.99-11.99-3.27l-1.53.83c3.57,3.28,14.05,4.67,14.05,4.67.6-.12,10.33.95,10.92-.47.42-1,1.82-8.23,2.63-12.48h0Z" fill="#e8bd80"/>
      <path d="M26.76,71.35c.57,1.37,9.56.44,18.06-.46,8.5-.9,21.97-11.4,25.17-15.43,3.2-4.03.06-2.25-4.45-2.96-.47-.07-.95-.1-1.43-.1-5.1.01-14.47,2.88-16.3,2.23-1.96-.69-15.04-2.56-23.48,1.88,0,0,1.83,13.42,2.42,14.85h0Z" fill="#f9cb8a" fill-rule="evenodd"/>
      <path d="M71.12,53.82l-.05.06c-3.2,4.03-17.37,13.78-25.87,14.67-8.5.9-15.74,1.89-16.31.52-.43-1.02-3.33-7.3-4.36-11.18.43,3.11,1.73,12.27,2.23,13.45.57,1.37,9.56.44,18.06-.46,8.5-.9,21.97-11.4,25.17-15.43.57-.71.93-1.24,1.12-1.63h0Z" fill="#e8bd80" fill-rule="evenodd"/>
      <path d="M64.66,31.51h-.02c.01-.18.02-.36.02-.55v-1.35c-.45,1.33-1.81,4.34-5.04,4.34-4.15,0-3.36-1.46-7.05-1.46s-2.91,1.46-7.06,1.46c-3.23,0-4.6-3.01-5.04-4.34v1.35c0,.18,0,.36.02.54h-.02v.15c0,.27,0,.53.02.79.17,2.08,1.32,7.15,8.3,10.68l.05.03s.07.04.12.07l.03.02c.06.03.14.08.23.13,2.18,1.08,4.75,1.04,6.89-.11l.04-.02.04-.02s.09-.05.12-.07l.05-.03c.13-.07.26-.14.38-.2,6.63-3.52,7.75-8.44,7.91-10.48.01-.26.02-.52.02-.79,0-.05,0-.1,0-.15" fill="#935b2a"/>
      <ellipse cx="53.17" cy="47.86" rx="1.7" ry="1.27" fill="#9b5724"/>
      <path d="M42.67,42.63l7.4,6.49,3.14-2.52-.07-.03s-.09,0-.14,0c-2.77,0-6.44-2.37-9.11-3.51l-.89-.34c-.11-.04-.22-.07-.33-.1h0Z" fill="#174344"/>
      <path d="M63.45,42.59c-.11.03-.24.07-.35.11l-1.11.42c-2.65,1.15-6.26,3.45-8.99,3.45h-.06s3.12,2.5,3.12,2.5l7.39-6.49Z" fill="#174344"/>
    </g>
  </g>
</svg>
