<?xml version="1.0" encoding="UTF-8"?>
<svg xmlns="http://www.w3.org/2000/svg" width="108.4" height="100" viewBox="0 0 108.4">
  <g id="Hintergrund">
    <rect id="Hintergrund-2" data-name="Hintergrund" x="4.2" width="100" height="100" rx="6" ry="6" fill="#555556"/>
  </g>
  <g id="Solokiller">
    <g id="Saboteur">
      <path d="M35.49,14.29c-.13,0-.26.02-.39.04h-.05c-.17.05-.33.12-.48.2-.33.19-.6.47-.78.82h0c-.16.3-.24.63-.24.97v6.88h-1.15c-1.77,0-3.46.76-4.64,2.09l-.06.06c-.07.08-.13.16-.2.24l-.1.14c-.79,1.06-1.21,2.35-1.21,3.68v1.15h-6.88c-.6,0-1.17.25-1.57.7h0s-.03.04-.05.07c-.14.18-.25.38-.32.59-.21.63-.06,1.32.37,1.81.4.45.97.71,1.57.7h6.88v3.13h-6.88c-.6,0-1.18.25-1.57.7-.12.14-.23.3-.3.48h0c-.11.24-.16.5-.16.76h0c0,.2.03.39.09.58h0c.08.24.21.46.37.65.39.45.97.71,1.57.7h6.88v3.13h-6.88c-.6,0-1.17.25-1.57.7h0s-.08.1-.11.15h0c-.22.32-.34.7-.34,1.08,0,.45.16.89.46,1.24.4.45.97.71,1.57.7h6.88v3.13h-6.88c-.6,0-1.18.25-1.57.7-.29.34-.46.78-.46,1.24,0,.45.16.89.46,1.23.4.45.97.71,1.57.7h6.88v3.13h-6.88c-.6,0-1.17.25-1.57.7-.3.34-.46.78-.47,1.24,0,.39.12.76.34,1.08h0c.04.05.07.1.11.15h0s.09.09.13.14h0c.39.37.9.57,1.44.57h6.88v3.13h-6.88c-.73,0-1.42.38-1.79,1.01-.06.11-.11.22-.15.34h0v.04c-.14.43-.11.89.07,1.29h0c.34.73,1.07,1.19,1.87,1.18h6.88v1.15c0,2.69,1.71,4.97,4.1,5.83.02,0,.04.01.06.02.42.15.85.25,1.31.31h.04s.27.03.27.03h.08s.34.01.34.01h1.15v6.89c0,.42.12.81.33,1.14h0c.17.27.41.49.68.65h0c.11.06.22.12.34.16h0c.06.02.12.04.19.05h0c.85.18,1.71-.24,2.09-1.02.15-.3.23-.63.23-.97v-6.89h3.13v6.89c0,.42.12.81.33,1.14h0c.17.27.41.49.68.65.57.33,1.28.33,1.85,0,.39-.22.69-.57.86-.99.1-.25.15-.52.15-.79v-6.89h3.13v6.89c0,.4.12.8.33,1.14h0c.31.49.83.82,1.41.88.2.02.4.01.59-.03h0c.13-.03.25-.07.36-.12h0c.12-.05.22-.11.33-.19h0c.26-.18.48-.43.62-.72.15-.3.23-.63.23-.97v-6.89h3.13v6.89h0c0,.42.12.81.33,1.14h0c.21.32.5.58.85.74.36.16.76.2,1.15.12h0c.06-.01.13-.03.19-.05h0c.12-.04.24-.09.34-.16h0c.39-.22.7-.57.86-.99.1-.25.15-.52.15-.79v-6.89h3.13v6.89c0,.42.12.81.33,1.14h0c.17.27.41.49.68.65.63.36,1.42.32,2.01-.1h0c.26-.18.47-.43.62-.72.15-.3.23-.63.23-.97h0v-6.88h3.13v6.88c0,.4.11.8.33,1.14h0c.24.38.61.66,1.03.8.31.1.65.12.97.05h0c.06-.01.13-.03.19-.05h0c.12-.04.24-.09.34-.16h0c.39-.22.7-.57.86-.99.1-.25.15-.52.15-.79v-6.88h1.15c3.44,0,6.2-2.77,6.2-6.2v-1.15h6.88c.07,0,.14,0,.21,0h0c.14-.01.27-.04.4-.08h0c.43-.13.81-.4,1.08-.76h0c.07-.1.14-.21.19-.33h0c.38-.86.07-1.87-.74-2.36-.34-.22-.73-.33-1.14-.33h-6.89v-3.13h6.89c.2,0,.41-.03.6-.09l.07-.02.12-.04h0c.12-.05.24-.11.34-.18h0c.21-.14.4-.32.55-.52l.04-.06c.09-.14.16-.29.22-.45.14-.44.12-.91-.07-1.33-.24-.53-.7-.94-1.27-1.09-.2-.06-.4-.09-.61-.09h-6.89v-3.13h6.89c.07,0,.14,0,.21-.01h0c.33-.03.65-.14.93-.32.38-.24.66-.6.8-1.03.18-.56.09-1.18-.26-1.66-.3-.43-.76-.72-1.28-.81-.14-.03-.27-.04-.41-.04h-6.89v-3.13h6.89c.2,0,.41-.03.6-.09l.07-.02.12-.04h0c.36-.15.67-.39.89-.7.22-.32.34-.7.34-1.08,0-.39-.12-.77-.34-1.08h0c-.07-.1-.16-.2-.25-.29h0c-.09-.09-.19-.17-.3-.24h0c-.28-.18-.6-.29-.93-.32-.07,0-.14-.01-.21-.01h-6.89v-3.13h6.89c.07,0,.14,0,.21-.01h0c.33-.03.65-.14.93-.32.38-.24.66-.6.8-1.03.06-.19.09-.38.09-.57h0c0-.39-.12-.77-.34-1.09-.3-.43-.76-.72-1.28-.81-.14-.03-.27-.04-.41-.04h-6.88v-3.13h6.88c.2,0,.41-.03.6-.09l.07-.02.12-.04h0c.12-.05.24-.11.34-.18h0c.38-.24.66-.6.8-1.03.23-.69.03-1.45-.5-1.95h0c-.09-.09-.19-.17-.3-.24h0c-.34-.22-.73-.34-1.14-.33h-6.89v-1.15c0-1.63-.64-3.2-1.78-4.36l-.11-.11c-.09-.09-.18-.17-.28-.25l-.11-.1c-.29-.24-.6-.45-.93-.63-.91-.5-1.94-.76-2.98-.76h-1.15v-6.89c0-.34-.08-.67-.23-.97h0c-.21-.4-.54-.71-.95-.9-.06-.03-.12-.05-.18-.07h0c-.31-.1-.65-.12-.97-.05h0c-.13.03-.25.07-.36.12h0c-.06.03-.11.05-.17.09h0c-.06.03-.11.06-.16.1h0c-.26.18-.48.43-.62.72h0c-.15.3-.23.63-.23.97v6.88h-3.13v-6.88c0-.34-.08-.67-.23-.97h0c-.15-.28-.36-.53-.62-.72h0c-.43-.3-.96-.41-1.47-.3-.19.04-.37.11-.53.2h0c-.17.09-.32.21-.45.35-.13.14-.24.3-.33.47h0c-.15.3-.23.63-.23.97v6.88h-3.13v-6.88c0-.34-.08-.67-.23-.97-.21-.4-.54-.71-.95-.9-.06-.03-.12-.05-.18-.07h0c-.31-.1-.65-.12-.97-.05h0c-.13.03-.25.07-.36.12h0c-.12.05-.22.11-.33.19h0c-.26.18-.48.43-.62.72h0c-.15.3-.23.63-.23.97v6.88h-3.13v-6.88c0-.34-.08-.67-.23-.97h0c-.15-.28-.36-.53-.62-.72h0c-.21-.15-.44-.25-.69-.3h0c-.26-.06-.52-.06-.78,0h-.05c-.36.1-.68.29-.93.55-.13.14-.24.3-.33.47h0c-.15.3-.23.63-.23.97v6.88h-3.13v-6.88c0-.34-.08-.67-.23-.97-.18-.34-.45-.62-.78-.82-.63-.36-1.42-.32-2.01.1h0c-.26.19-.47.43-.62.72h0c-.16.3-.23.63-.23.97v6.88h-3.13v-6.88c0-.34-.08-.67-.23-.97-.15-.28-.36-.53-.62-.72h0c-.05-.04-.1-.07-.16-.1h0c-.28-.16-.6-.25-.92-.25Z" fill="#fff" stroke="#fff" stroke-linecap="round" stroke-miterlimit="15.12" stroke-width="6"/>
      <g>
        <g>
          <path d="M35.49,14.28h0c1.07,0,1.94.91,1.94,2.03v67.37c0,1.12-.87,2.03-1.94,2.03h0c-1.07,0-1.94-.91-1.94-2.03V16.31c0-1.12.87-2.03,1.94-2.03Z" fill="#c69d01"/>
          <path d="M70.51,14.28h0c1.07,0,1.94.91,1.94,2.03v67.37c0,1.12-.87,2.03-1.94,2.03h0c-1.07,0-1.94-.91-1.94-2.03V16.31c0-1.12.87-2.03,1.94-2.03Z" fill="#c69d01"/>
          <path d="M56.5,14.28h0c1.07,0,1.94.91,1.94,2.03v67.37c0,1.12-.87,2.03-1.94,2.03h0c-1.07,0-1.94-.91-1.94-2.03V16.31c0-1.12.87-2.03,1.94-2.03Z" fill="#c69d01"/>
          <path d="M49.5,14.28h0c1.07,0,1.94.91,1.94,2.03v67.37c0,1.12-.87,2.03-1.94,2.03h0c-1.07,0-1.94-.91-1.94-2.03V16.31c0-1.12.87-2.03,1.94-2.03Z" fill="#c69d01"/>
          <path d="M42.49,14.28h0c1.07,0,1.94.91,1.94,2.03v67.37c0,1.12-.87,2.03-1.94,2.03h0c-1.07,0-1.94-.91-1.94-2.03V16.31c0-1.12.87-2.03,1.94-2.03Z" fill="#c69d01"/>
          <path d="M63.51,14.28h0c1.07,0,1.94.91,1.94,2.03v67.37c0,1.12-.87,2.03-1.94,2.03h0c-1.07,0-1.94-.91-1.94-2.03V16.31c0-1.12.87-2.03,1.94-2.03Z" fill="#c69d01"/>
          <path d="M88.72,32.49h0c0,1.07-.91,1.94-2.03,1.94H19.31c-1.12,0-2.03-.87-2.03-1.94h0c0-1.07.91-1.94,2.03-1.94h67.37c1.12,0,2.03.87,2.03,1.94Z" fill="#c69d01"/>
          <path d="M88.72,67.51h0c0,1.07-.91,1.94-2.03,1.94H19.31c-1.12,0-2.03-.87-2.03-1.94h0c0-1.07.91-1.94,2.03-1.94h67.37c1.12,0,2.03.87,2.03,1.94Z" fill="#c69d01"/>
          <path d="M88.72,53.5h0c0,1.07-.91,1.94-2.03,1.94H19.31c-1.12,0-2.03-.87-2.03-1.94h0c0-1.07.91-1.94,2.03-1.94h67.37c1.12,0,2.03.87,2.03,1.94Z" fill="#c69d01"/>
          <path d="M88.72,46.5h0c0,1.07-.91,1.94-2.03,1.94H19.31c-1.12,0-2.03-.87-2.03-1.94h0c0-1.07.91-1.94,2.03-1.94h67.37c1.12,0,2.03.87,2.03,1.94Z" fill="#c69d01"/>
          <path d="M88.72,39.49h0c0,1.07-.91,1.94-2.03,1.94H19.31c-1.12,0-2.03-.87-2.03-1.94h0c0-1.07.91-1.94,2.03-1.94h67.37c1.12,0,2.03.87,2.03,1.94Z" fill="#c69d01"/>
          <path d="M88.72,60.51h0c0,1.07-.91,1.94-2.03,1.94H19.31c-1.12,0-2.03-.87-2.03-1.94h0c0-1.07.91-1.94,2.03-1.94h67.37c1.12,0,2.03.87,2.03,1.94Z" fill="#c69d01"/>
          <path d="M35.49,14.28c-1.07,0-1.94.91-1.94,2.03v14.24h-14.24c-1.13,0-2.03.86-2.03,1.94s.91,1.94,2.03,1.94h14.24v3.13h-14.24c-1.13,0-2.03.86-2.03,1.94s.91,1.94,2.03,1.94h14.24v3.13h-14.24c-1.13,0-2.03.86-2.03,1.94s.91,1.94,2.03,1.94h14.24v3.13h-14.24c-1.13,0-2.03.86-2.03,1.94s.91,1.94,2.03,1.94h14.24v3.13h-14.24c-1.13,0-2.03.86-2.03,1.94s.91,1.94,2.03,1.94h14.24v3.13h-14.24c-1.13,0-2.03.86-2.03,1.94s.91,1.94,2.03,1.94h14.24v14.24c0,1.13.86,2.03,1.94,2.03s1.94-.91,1.94-2.03v-14.24h3.13v14.24c0,1.13.86,2.03,1.94,2.03s1.94-.91,1.94-2.03v-14.24h3.13v14.24c0,1.13.86,2.03,1.94,2.03s1.94-.91,1.94-2.03v-14.24h3.13v14.24c0,1.13.86,2.03,1.94,2.03s1.94-.91,1.94-2.03v-14.24h3.13v14.24c0,1.13.86,2.03,1.94,2.03s1.94-.91,1.94-2.03v-14.24h3.13v14.24c0,1.13.86,2.03,1.94,2.03s1.94-.91,1.94-2.03v-14.24h14.24c1.13,0,2.03-.86,2.03-1.94s-.91-1.94-2.03-1.94h-14.24v-3.13h14.24c1.13,0,2.03-.86,2.03-1.94s-.91-1.94-2.03-1.94h-14.24v-3.13h14.24c1.13,0,2.03-.86,2.03-1.94s-.91-1.94-2.03-1.94h-14.24v-3.13h14.24c1.13,0,2.03-.86,2.03-1.94s-.91-1.94-2.03-1.94h-14.24v-3.13h14.24c1.13,0,2.03-.86,2.03-1.94s-.91-1.94-2.03-1.94h-14.24v-3.13h14.24c1.13,0,2.03-.86,2.03-1.94s-.91-1.94-2.03-1.94h-14.24v-14.24c0-1.13-.86-2.03-1.93-2.03s-1.94.91-1.94,2.03v14.24h-3.13v-14.24c0-1.13-.86-2.03-1.94-2.03s-1.94.91-1.94,2.03v14.24h-3.13v-14.24c0-1.13-.86-2.03-1.94-2.03-1.07,0-1.94.91-1.94,2.03v14.24h-3.13v-14.24c0-1.13-.86-2.03-1.94-2.03s-1.94.91-1.94,2.03v14.24h-3.13v-14.24c0-1.13-.86-2.03-1.94-2.03s-1.94.91-1.94,2.03v14.24h-3.13v-14.24c0-1.13-.86-2.03-1.94-2.03h0ZM37.42,34.42h3.13v3.13h-3.13v-3.13ZM44.43,34.42h3.13v3.13h-3.13v-3.13ZM51.43,34.42h3.13v3.13h-3.13v-3.13ZM58.44,34.42h3.13v3.13h-3.13v-3.13ZM65.44,34.42h3.13v3.13h-3.13v-3.13ZM37.42,41.43h3.13v3.13h-3.13v-3.13ZM44.43,41.43h3.13v3.13h-3.13v-3.13ZM51.43,41.43h3.13v3.13h-3.13v-3.13ZM58.44,41.43h3.13v3.13h-3.13v-3.13ZM65.44,41.43h3.13v3.13h-3.13v-3.13ZM37.42,48.43h3.13v3.13h-3.13v-3.13ZM44.43,48.43h3.13v3.13h-3.13v-3.13ZM51.43,48.43h3.13v3.13h-3.13v-3.13ZM58.44,48.43h3.13v3.13h-3.13v-3.13ZM65.44,48.43h3.13v3.13h-3.13v-3.13ZM37.42,55.44h3.13v3.13h-3.13v-3.13ZM44.43,55.44h3.13v3.13h-3.13v-3.13ZM51.43,55.44h3.13v3.13h-3.13v-3.13ZM58.44,55.44h3.13v3.13h-3.13v-3.13ZM65.44,55.44h3.13v3.13h-3.13v-3.13ZM37.42,62.44h3.13v3.13h-3.13v-3.13ZM44.43,62.44h3.13v3.13h-3.13v-3.13ZM51.43,62.44h3.13v3.13h-3.13v-3.13ZM58.44,62.44h3.13v3.13h-3.13v-3.13ZM65.44,62.44h3.13v3.13h-3.13v-3.13Z" fill="#c69d01"/>
        </g>
        <rect x="26.2" y="23.2" width="53.6" height="53.6" rx="8.16" ry="8.16" fill="#009a31"/>
        <path d="M76.58,23.96l-3.85,3.93h-8.16c-.79,0-1.44.64-1.44,1.44v11.04c-.04,1.96,2.92,1.96,2.87,0v-9.6h7.33c.39,0,.76-.16,1.03-.43l4.35-4.44c-.55-.8-1.28-1.46-2.13-1.93ZM28.79,24.36c-.79.57-1.44,1.31-1.89,2.18l5.07,3.92c.25.19.56.3.88.3h16.34c.59,2.08,2.52,3.62,4.78,3.62,2.73,0,4.97-2.24,4.97-4.97s-2.24-4.98-4.97-4.98c-2.2,0-4.08,1.46-4.73,3.45h-15.9l-4.55-3.52ZM53.97,27.31c1.18,0,2.1.92,2.1,2.1s-.92,2.1-2.1,2.1c-1.15.01-2.09-.91-2.1-2.05,0-.01,0-.03,0-.04,0-1.18.92-2.1,2.1-2.1h0ZM26.2,34.02v2.88h3.51v39.29c.84.41,1.77.62,2.7.62h.17v-41.35c0-.79-.64-1.44-1.44-1.44h-4.94ZM75.26,34.02c-.79,0-1.44.64-1.44,1.44v33.79h-4.87c-.53-2.17-2.5-3.8-4.83-3.8-2.73,0-4.98,2.25-4.98,4.98s2.24,4.97,4.98,4.97c2.13,0,3.96-1.37,4.66-3.27h6.27c.36.05.72-.04,1.01-.24.02-.01.04-.03.06-.04.43-.32.65-.86.56-1.39v-33.56h3.11v-2.88h-4.54ZM44.2,62.64v8.08c0,.79.64,1.44,1.44,1.44h6.25l3.57,4.65h3.63l-5.34-6.96c-.27-.35-.69-.56-1.14-.56h-5.52v-6.64h-2.88ZM38.1,67.17c-1.55,0-2.8,1.26-2.8,2.8h0c0,.99.52,1.9,1.37,2.4v4.42h2.88v-4.42c.85-.51,1.37-1.42,1.37-2.4,0-1.55-1.25-2.8-2.8-2.81,0,0,0,0,0,0ZM64.13,68.32c1.18,0,2.1.92,2.1,2.1s-.92,2.1-2.1,2.1c-1.15.01-2.09-.91-2.1-2.06,0-.01,0-.03,0-.04,0-1.18.92-2.1,2.1-2.1Z" fill="#ff0"/>
        <g>
          <rect x="35.74" y="35.62" width="34.51" height="28.76" rx="5.02" ry="5.02" fill="#1a1a1a"/>
          <g>
            <g>
              <path d="M40.75,44.6l26.33,12.37-1.21,2.58-26.33-12.37,1.21-2.58Z" fill="#e6e6e6"/>
              <g>
                <ellipse cx="39.98" cy="44.16" rx="1.9" ry="1.97" transform="translate(-16.99 61.56) rotate(-64.82)" fill="#e6e6e6"/>
                <ellipse cx="38.71" cy="46.88" rx="1.9" ry="1.97" transform="translate(-20.19 61.97) rotate(-64.82)" fill="#e6e6e6"/>
              </g>
              <g>
                <ellipse cx="67.29" cy="57" rx="1.9" ry="1.97" transform="translate(-12.91 93.65) rotate(-64.82)" fill="#e6e6e6"/>
                <ellipse cx="66.01" cy="59.72" rx="1.9" ry="1.97" transform="translate(-16.11 94.06) rotate(-64.82)" fill="#e6e6e6"/>
              </g>
            </g>
            <circle cx="52.96" cy="47.15" r="8.79" fill="#e6e6e6"/>
            <g>
              <path d="M65.25,44.6l-26.33,12.37,1.21,2.58,26.33-12.37-1.21-2.58Z" fill="#e6e6e6"/>
              <g>
                <ellipse cx="66.01" cy="44.16" rx="1.97" ry="1.9" transform="translate(-12.51 32.28) rotate(-25.18)" fill="#e6e6e6"/>
                <ellipse cx="67.29" cy="46.88" rx="1.97" ry="1.9" transform="translate(-13.55 33.08) rotate(-25.18)" fill="#e6e6e6"/>
              </g>
              <g>
                <ellipse cx="38.71" cy="57" rx="1.97" ry="1.9" transform="translate(-20.57 21.88) rotate(-25.18)" fill="#e6e6e6"/>
                <ellipse cx="39.98" cy="59.72" rx="1.97" ry="1.9" transform="translate(-21.61 22.68) rotate(-25.18)" fill="#e6e6e6"/>
              </g>
            </g>
            <path d="M53.79,48.28l7.01-2.64c.08,4.63-6.02,7.3-7.01,2.64ZM52.14,48.28l-7.01-2.64c-.08,4.63,6.02,7.3,7.01,2.64Z" fill="red"/>
            <ellipse cx="52.96" cy="56.27" rx="4.95" ry="3.65" fill="#e6e6e6"/>
            <path d="M53.07,53.86c-1.59.04-1.66.1-1.04-1.24.8-1.78,1.02-1.63,1.72-.09.71,1.54.83,1.33-.69,1.33Z" fill="red"/>
          </g>
        </g>
      </g>
    </g>
  </g>
</svg>
