<?xml version="1.0" encoding="UTF-8"?>
<svg xmlns="http://www.w3.org/2000/svg" width="106" height="100" viewBox="0 0 106 100">
  <g id="Hintergrund">
    <rect id="Hintergrund-2" data-name="Hintergrund" x="3" width="100" height="100" rx="6" ry="6" fill="#555556"/>
  </g>
  <g id="Amor">
    <path d="M41.87,30.14c-.41,0-.82.03-1.23.08l-.23.03-.33.05-.26.04-.14.03c-.23.04-.47.09-.7.14l-.15.03c-.26.06-.52.13-.78.21h0c-.16.05-.32.1-.48.16l-.18.07c-.33.12-.66.25-.98.4l-.14.07c-.13.06-.25.12-.38.19l-.11.06c-.16.08-.31.17-.46.26l-.07.05c-.13.08-.25.16-.37.24l-.11.07c-.14.1-.28.2-.42.3-3.82,2.94-4.81,7.51-4.58,11.25-1.9-2.7-3.43-5.67-4.92-8.63-.44-.88-1.27-1.89-2.12-1.9-.21,0-.41.06-.59.17-.31.2-.52.53-.59.89-.08.38-.1.77-.07,1.16.19,2.56.91,5.06,2.12,7.33-1.26-.95-2.67-1.7-4.17-2.21-.28-.09-.6-.18-.87-.06-.27.11-.42.4-.52.67-.48,1.25-.38,2.62.07,3.89.27.76.68,1.48,1.17,2.11,1.3,1.69,3.13,2.88,4.93,4.04-1.32.1-2.6-.45-3.92-.53-.91-.06-1.95.25-2.54.89v.02c-.07.06-.12.12-.16.19l-.04.06c-.03.05-.07.11-.09.17l-.03.08c-.02.06-.04.11-.06.17l-.02.08c-.02.09-.04.18-.05.27-.07,1.03.8,1.87,1.63,2.49,2.56,1.94,5.38,3.5,8.38,4.64-.42.24-.85.49-1.21.8h0c-.09.08-.17.16-.25.24l-.08.09-.06.06c-.05.06-.1.13-.15.2-.42.62-.51,1.54,0,2.08.29.3.72.44,1.12.55,3.58.97,7.34,1.09,10.97.34-1.03.56-1.62,1.5-.86,2.29.75.79,1.99.78,3.07.65,2.51-.29,4.97-.88,7.42-1.49,1.75,1.32,3.64,2.71,5.7,4.22.84-.61,1.64-1.2,2.43-1.78l1.1-.81,1.32-.98.86-.65c2.45.6,4.91,1.2,7.42,1.49,1.08.12,2.33.13,3.07-.65.76-.79.17-1.72-.86-2.29,3.63.75,7.39.64,10.97-.34.41-.11.83-.25,1.12-.55.52-.55.44-1.46.01-2.08-.05-.07-.1-.13-.15-.2l-.06-.07-.08-.09c-.08-.08-.16-.16-.25-.23h0c-.38-.31-.78-.58-1.21-.8,3-1.14,5.82-2.7,8.38-4.64.32-.24.62-.5.9-.79.32-.32.55-.71.68-1.14.05-.19.06-.39.05-.59,0-.08-.02-.16-.04-.24l-.02-.08c-.02-.06-.04-.12-.06-.18l-.04-.08c-.03-.06-.06-.11-.09-.17l-.04-.06c-.04-.06-.09-.12-.14-.18l-.02-.03c-.59-.63-1.63-.95-2.55-.89-1.32.09-2.6.63-3.92.53,1.68-1.08,3.4-2.2,4.68-3.73.44-.51.81-1.08,1.1-1.68.24-.48.42-.99.54-1.52.09-.39.14-.78.16-1.18.01-.39-.02-.79-.09-1.18-.07-.33-.17-.65-.31-.96-.06-.13-.15-.25-.26-.35-.05-.05-.11-.09-.18-.11-.27-.12-.59-.03-.87.06-1.5.51-2.91,1.25-4.17,2.21,1.25-2.36,1.98-4.96,2.13-7.62,0-.29-.02-.58-.08-.87-.08-.36-.29-.68-.59-.89-.18-.11-.38-.17-.59-.17-.85,0-1.68,1.02-2.12,1.9-1.49,2.96-3.02,5.93-4.91,8.63,0-.04,0-.08,0-.11.05-.82.03-1.65-.05-2.47-.1-1.01-.3-2-.6-2.97-.36-1.15-.9-2.24-1.59-3.24-.76-1.08-1.69-2.01-2.77-2.76-.03-.03-.07-.05-.11-.08-.27-.18-.55-.35-.84-.51l-.13-.07c-.14-.07-.28-.14-.42-.21l-.09-.04c-.17-.08-.34-.16-.51-.23l-.14-.05c-.13-.05-.26-.1-.39-.15l-.2-.07c-.12-.04-.23-.08-.35-.11l-.19-.06c-.14-.04-.28-.08-.42-.12-.05-.01-.09-.03-.14-.04-.19-.05-.38-.09-.57-.13h-.06c-.18-.05-.35-.08-.53-.11l-.15-.02c-.35-.05-.7-.09-1.05-.12h-.18c-.2-.03-.4-.04-.6-.04h0c-.19,0-.39,0-.58,0-.07,0-.14,0-.21,0l-.39.02h-.22s-.41.05-.41.05l-.2.02c-.18.02-.36.05-.54.08h0l-.32.06c-.2.03-.39.07-.59.12l-.23.06c-.12.03-.24.06-.36.1l-.12.04c-.45.13-.9.29-1.33.48l-.08.03c-.81.35-1.58.79-2.3,1.3-1.31.95-2.42,2.14-3.26,3.52-2.63-4.26-7-5.99-11.14-5.9h.01Z" fill="#fafdfc" stroke="#fff" stroke-linejoin="round" stroke-width="6"/>
    <path d="M22.72,33.31c-.21,0-.41.06-.59.17-.65.4-.71,1.3-.66,2.05.19,2.57.91,5.07,2.12,7.34-1.27-.95-2.67-1.7-4.17-2.21-.28-.09-.6-.18-.87-.06-.27.11-.42.4-.52.68-.76,2-.07,4.31,1.24,6,1.3,1.69,3.14,2.88,4.93,4.04-1.32.1-2.6-.45-3.92-.53-1.32-.09-2.91.6-3.01,1.92-.07,1.03.8,1.87,1.63,2.5,2.56,1.94,5.38,3.5,8.39,4.64-.65.37-1.33.77-1.76,1.39-.42.62-.51,1.54.01,2.08.29.3.72.44,1.12.55,3.56.98,7.36,1.09,10.98.34-1.03.57-1.62,1.5-.86,2.29.75.79,1.99.78,3.07.66,2.57-.29,5.08-.91,7.59-1.53.94-.23,1.96-.53,2.47-1.35.86-1.42-1.44-2.6-1.69-4.25-1.63-10.8-12.09-8.38-16.78-13.97-2.73-3.25-4.71-7.05-6.61-10.84-.44-.88-1.27-1.9-2.12-1.9ZM83.28,33.31c-.85.01-1.68,1.02-2.12,1.9-1.9,3.79-3.88,7.59-6.61,10.84-4.69,5.58-15.16,3.17-16.78,13.97-.24,1.64-2.55,2.82-1.69,4.25.5.82,1.53,1.12,2.47,1.35,2.51.62,5.02,1.24,7.59,1.53,1.08.12,2.33.13,3.08-.66.75-.79.16-1.72-.86-2.29,3.62.76,7.41.64,10.98-.34.41-.11.83-.25,1.13-.55.52-.54.43-1.46,0-2.08-.43-.62-1.1-1.01-1.76-1.39,3-1.14,5.83-2.7,8.38-4.64.83-.63,1.7-1.46,1.63-2.5-.1-1.32-1.69-2-3.01-1.92-1.32.09-2.6.63-3.92.53,1.8-1.16,3.63-2.35,4.93-4.04,1.31-1.69,2-4.01,1.24-6.01-.1-.27-.26-.56-.52-.68-.27-.12-.59-.03-.87.06-1.5.51-2.91,1.26-4.17,2.21,1.21-2.27,1.93-4.77,2.12-7.34.06-.76-.01-1.65-.66-2.05-.18-.11-.38-.17-.59-.17h0Z" fill="#d2efe3"/>
    <path d="M30.16,46.03c-.16,0-.3.08-.41.19-.3.31-.21.81-.07,1.22.46,1.38,1.2,2.66,2.18,3.73-.83-.35-1.7-.56-2.6-.63-.17-.01-.35-.02-.49.09-.13.1-.17.28-.19.44-.14,1.2.56,2.38,1.52,3.13.95.75,2.12,1.15,3.27,1.53-.71.24-1.49.11-2.22.25-.74.14-1.51.74-1.38,1.47.1.58.7.92,1.24,1.14,1.67.71,3.44,1.17,5.25,1.38-.31.3-.63.61-.77,1.01-.14.4-.07.92.3,1.14.2.13.45.14.69.14,2.1.04,4.18-.42,6.08-1.34-.49.45-.68,1.05-.16,1.38.52.32,1.2.15,1.78-.07,1.36-.52,2.66-1.21,3.95-1.9.48-.26,1.01-.56,1.17-1.08.28-.9-1.15-1.23-1.51-2.1-2.4-5.7-7.8-2.92-11.16-5.33-1.95-1.4-3.56-3.22-5.13-5.03-.34-.39-.87-.79-1.32-.76h0ZM75.84,46.03c-.45-.03-.98.38-1.32.77-1.57,1.82-3.19,3.63-5.13,5.03-3.35,2.41-8.76-.37-11.16,5.33-.36.87-1.79,1.19-1.51,2.1.16.52.68.82,1.17,1.08,1.29.69,2.59,1.38,3.95,1.89.57.22,1.26.39,1.78.07.52-.33.33-.92-.16-1.38,1.88.92,3.98,1.38,6.07,1.34.24.01.48-.04.69-.15.36-.22.45-.74.3-1.14-.14-.4-.47-.71-.77-1.01,1.81-.21,3.57-.67,5.25-1.38.55-.23,1.14-.57,1.24-1.15.13-.74-.65-1.34-1.38-1.47-.74-.14-1.52-.01-2.23-.25,1.15-.39,2.32-.79,3.27-1.53.95-.75,1.66-1.92,1.52-3.13-.02-.16-.06-.34-.19-.44-.14-.1-.32-.1-.49-.09-.89.07-1.77.29-2.6.63.98-1.08,1.72-2.35,2.18-3.73.14-.41.22-.91-.07-1.22-.11-.11-.25-.18-.41-.19h0Z" fill="#e9f7f1"/>
    <path d="M22.14,33.47c-.65.4-.71,1.3-.66,2.05.19,2.57.91,5.07,2.12,7.34.68,1.41,1.6,1.99,1.6,1.99-3.97-7-3.06-11.38-3.06-11.38ZM83.86,33.47s.9,4.38-3.06,11.38c0,0,.92-.58,1.6-1.99,1.21-2.27,1.93-4.77,2.12-7.34.06-.76-.01-1.65-.66-2.05ZM18.55,40.59c-.27.11-.42.4-.52.68-.76,2-.07,4.31,1.24,6,1.3,1.69,3.14,2.88,4.93,4.04l2.45.87s-3.61-2.33-6.35-4.95c-2.74-2.61-1.76-6.64-1.76-6.64ZM87.45,40.59s.98,4.03-1.76,6.64c-2.74,2.61-6.35,4.95-6.35,4.95l2.46-.87c1.8-1.16,3.63-2.35,4.93-4.04,1.31-1.69,2-4.01,1.24-6.01-.1-.27-.26-.56-.52-.68ZM17.74,51.67c-.27.28-.43.65-.46,1.03-.08,1.03.8,1.87,1.63,2.49,2.56,1.94,5.38,3.5,8.39,4.64,1.37.25,2.57.17,2.57.17,0,0-6.2-2.75-9.18-4.44-2.97-1.69-2.95-3.9-2.95-3.9ZM88.26,51.67s.02,2.21-2.95,3.9c-2.98,1.69-9.18,4.44-9.18,4.44,0,0,1.21.08,2.58-.17,3-1.14,5.83-2.7,8.38-4.64.83-.63,1.7-1.46,1.63-2.5-.03-.39-.19-.75-.46-1.03h0ZM26.08,60.64c-.21.17-.39.37-.54.59-.42.62-.51,1.54.01,2.09.29.3.72.44,1.12.55,3.56.98,7.36,1.09,10.98.34,1.32-.6,1.3-.88,1.3-.88-8.09,1.46-12.34-.36-12.91-.79-.57-.42.03-1.86.04-1.9ZM79.92,60.64s.61,1.48.04,1.9c-.57.43-4.83,2.25-12.91.79,0,0-.02.28,1.3.88,3.62.76,7.41.64,10.98-.34.41-.11.83-.25,1.13-.55.52-.54.43-1.46,0-2.08-.15-.22-.33-.42-.54-.59Z" fill="#a9e1cd"/>
    <path d="M71.65,32.61c-4.83-3.73-14.23-3.75-18.66,3.43-4.42-7.18-13.82-7.16-18.66-3.44-4.32,3.33-5.03,8.73-4.43,12.66,1.18,7.75,7.44,13.23,23.08,24.63,15.65-11.39,21.91-16.86,23.09-24.61.6-3.93-.11-9.33-4.42-12.66" fill="#ef3456"/>
    <path d="M48.48,55.87c-1.3-5.98-10.69-10.38-12.67-16.26-1.97-5.85,4.74-9.36,4.81-9.4-2.38.26-4.6,1.1-6.28,2.39-4.32,3.33-5.03,8.73-4.43,12.66,1.18,7.75,7.44,13.23,23.08,24.63,6.17-4.5,10.88-8.06,14.4-11.22-14.8,10.96-17.6,3.19-18.9-2.79" fill="#ee2352"/>
    <path d="M64.15,30.14c-2.71-.05-5.53.67-7.89,2.38,8.62-3.51,19.35,5.14,18.42,17.29.7-1.46,1.16-2.95,1.41-4.54.6-3.92-.11-9.33-4.42-12.66-1.96-1.51-4.68-2.42-7.51-2.47h0Z" fill="rgba(255, 255, 255, .04)"/>
  </g>
</svg>
