<?xml version="1.0" encoding="UTF-8"?>
<svg xmlns="http://www.w3.org/2000/svg" width="100" height="100" viewBox="0 0 100 100">
  <g id="Hintergrund">
    <rect id="Hintergrund-2" data-name="Hintergrund" x="0" width="100" height="100" rx="6" ry="6" fill="#555556"/>
  </g>
  <g id="Dorfbewohner">
    <g id="Verfluchter">
      <path d="M29.21,14.29c-.12,0-.23,0-.35,0,.11,2.24.38,4.08.76,5.6.01.05.03.1.04.15.62,2.44,1.5,4.05,2.38,5.16h0c.17.22.35.42.54.62h0c.09.09.18.18.27.27.24.24.5.46.76.67.32.26.62.47.88.66.25.19.47.36.62.53.04.04.07.08.1.13.03.04.05.08.08.13h0c-1.22,0-3.01-.06-4.17.77h0c.53,0,.9.2,1.3.58.13.13.27.27.42.44h0c.15.17.31.35.49.55h0c.2.22.4.44.61.66.55.57,1.12,1.12,1.73,1.63-1.16.58-3.91.9-5.52,1.61h0c.07.03.13.06.19.09.13.06.26.12.38.18.06.03.12.06.18.1.13.07.25.13.37.2.17.09.33.19.5.29.05.03.09.06.14.09.11.07.22.14.33.21l.1.07c.13.09.27.18.4.28.08.06.15.11.23.17.16.12.32.25.48.38l.15.13c.07.06.14.13.21.19.11.1.22.21.33.32l.12.12c.09.09.16.17.22.24.03.03.06.06.08.09.05.06.09.11.12.15.02.02.04.05.05.07l.02.03v.11c-.12.78-.14,1.14-.14,1.49,0,3.07.67,5.95,1.84,8.46h0l.1.18c.21.44.44.87.68,1.29,1.29,2.33,3.21,5.09,6.9,6.53l-.39,2.49s-.07-.06-.1-.09h-4.06v-.57h-3.07v.57h-5.04c-.12,0-.24,0-.36.02-.02,0-.04,0-.07.01-.44.07-.86.24-1.23.5-.1.07-.19.14-.28.22-.18.16-.34.34-.48.53h0c-.32.17-.6.39-.85.65-.13.14-.25.28-.35.44-.11.16-.2.33-.28.51l-3.42,15.24c-.14.3-.22.71-.27,1.15-.05.45-.07.9-.07,1.35,0,.29,0,.57,0,.82v2.52c0,.11,0,.23.02.34.03.33.1.64.22.95.45,1.19,1.51,2.02,2.74,2.02h5.45v.12h34.41v-.12h6.58c1.64,0,2.98-1.48,2.98-3.31,0-1.24.09-4.89-.34-5.84l-4.57-15.24c-.51-1.14-1.5-1.83-2.56-1.93-.56-.59-1.32-.95-2.15-.95h-2.99v-.57h-3.07v.57h-5.53s-.06.06-.1.09l-.39-2.52c3.62-1.44,5.54-4.14,6.82-6.43.26-.44.5-.89.72-1.36l.1-.18h0c1.17-2.51,1.84-5.39,1.84-8.46,0-.36-.01-.72-.15-1.52v-.07c.05-.06.36-.48,1.03-1.09l.06-.06c.22-.19.44-.38.67-.56.36-.28.73-.53,1.12-.77.15-.09.3-.18.45-.27.05-.03.11-.06.16-.09.12-.06.23-.13.35-.19.06-.03.13-.07.19-.1.18-.09.37-.19.57-.28h0c-.21-.09-.43-.18-.65-.25-1.62-.54-3.86-.85-4.87-1.36.61-.51,1.18-1.05,1.73-1.63h0c.21-.22.41-.44.61-.66h0c.18-.2.34-.39.49-.55h0c.14-.15.28-.3.42-.44.4-.38.77-.58,1.3-.58h0c-1.16-.84-2.95-.77-4.17-.77.02-.05.05-.09.08-.13h0s.06-.09.1-.13c.15-.17.36-.34.62-.53s.55-.4.88-.66c.27-.21.52-.44.76-.67.09-.09.18-.18.27-.27h0c.29-.31.56-.64.81-.98.29-.41.56-.83.79-1.28.18-.34.35-.69.5-1.05.08-.19.16-.39.23-.59.69-1.83,1.21-4.29,1.38-7.65-.12,0-.23,0-.35,0-.11,0-.23,0-.34.02-.06,0-.12.01-.18.02-.06,0-.11.01-.17.02-.05,0-.09.02-.14.02-.07.01-.14.02-.21.03l-.12.03c-.08.02-.16.03-.23.05-.05.01-.1.03-.15.04-.07.02-.13.03-.2.05-.07.02-.13.04-.2.06l-.15.05c-.07.02-.13.05-.2.07-.06.02-.11.04-.17.06-.06.02-.12.05-.18.07l-.16.06c-.31.13-.62.28-.92.45-.12.06-.24.13-.36.2-.12.07-.24.14-.35.22-.12.07-.23.14-.35.22-.12.08-.25.17-.37.26-.11.08-.22.16-.33.24-.12.09-.24.18-.35.27-.11.09-.23.18-.34.27-.12.1-.24.2-.36.3-.11.09-.21.18-.32.28-.11.1-.22.2-.32.3-.12.11-.24.22-.36.34-.09.09-.17.17-.26.26-.13.13-.26.26-.38.39-.1.11-.21.23-.31.34-.1.11-.2.22-.3.33-.11.12-.21.25-.31.37-.1.12-.2.24-.3.36-.06.08-.12.16-.18.23-.32.41-.63.82-.92,1.24.41-1.21.62-2.2.73-3,.05-.42.08-.84.09-1.26,0-.97-.12-1.54-.05-1.9-.83,2.12-2.25,2.95-4.81,4.11-.02-.13-.03-.26-.04-.4,0-.12-.01-.25-.01-.37h0c-.01-1.7.63-2.63.63-2.63,0,0-.24.04-.63.15-.53.15-1.05.35-1.56.58,0,0,0,0,0,0-.9.41-1.74.96-2.48,1.61h0c-.15.14-.3.28-.44.42l-.05.05c-.35.36-.66.75-.94,1.16-.28-.41-.59-.8-.94-1.16-.03-.03-.06-.06-.09-.09-1.59-1.6-3.48-2.31-4.45-2.58-.15-.04-.31-.08-.46-.12h0c-.11-.03-.17-.03-.17-.03,0,0,.33.48.51,1.37h0c.08.42.12.84.12,1.26h0c0,.13,0,.25-.01.38h0c0,.13-.02.27-.04.4-2.57-1.16-3.98-1.99-4.81-4.11.04.18.03.41,0,.72-.02.31-.05.69-.05,1.16h0c0,.14,0,.26.01.39.05.93.23,2.19.8,3.88-.17-.25-.35-.5-.53-.74h0c-.1-.15-.21-.29-.32-.42-.08-.1-.16-.21-.24-.31-.11-.14-.22-.27-.34-.4-.09-.1-.17-.21-.27-.32-.11-.13-.23-.26-.35-.39-.09-.1-.18-.2-.27-.3-.12-.12-.23-.24-.35-.36-.1-.1-.2-.2-.3-.3-.11-.11-.22-.21-.33-.31-.11-.11-.23-.22-.34-.32-.11-.1-.22-.19-.32-.28-.12-.1-.23-.2-.35-.3-.11-.09-.22-.18-.34-.27-.12-.09-.24-.19-.36-.28-.11-.08-.23-.16-.34-.24-.12-.09-.24-.17-.37-.25-.12-.08-.23-.15-.35-.22-.12-.07-.24-.15-.35-.22-.12-.07-.24-.13-.36-.2-.12-.06-.24-.13-.36-.19-.18-.09-.36-.18-.55-.26-.06-.02-.12-.05-.17-.07l-.17-.07c-.05-.02-.11-.04-.16-.06-.07-.02-.14-.05-.2-.07-.05-.02-.09-.03-.14-.04-.07-.02-.14-.04-.21-.06-.07-.02-.14-.04-.2-.05-.05-.01-.09-.03-.14-.04-.08-.02-.15-.03-.23-.05-.04,0-.09-.02-.13-.03-.07-.01-.14-.02-.22-.03-.05,0-.09-.02-.14-.02-.06,0-.12-.01-.18-.02-.06,0-.12-.01-.18-.02-.11,0-.23-.01-.34-.02h0,0Z" image-rendering="optimizeQuality" shape-rendering="geometricPrecision" text-rendering="geometricPrecision" fill="#f8c47b" stroke="#fff" stroke-linejoin="round" stroke-width="6"/>
      <path d="M55.38,61.54c.14.9-.74,1.65-1.65,1.65h-8.85c-.91,0-1.79-.75-1.65-1.65l1.13-7.21c.14-.9.74-1.65,1.65-1.65h6.59c.91,0,1.51.75,1.65,1.65l1.13,7.21Z" image-rendering="optimizeQuality" shape-rendering="geometricPrecision" text-rendering="geometricPrecision" fill="#f8c47b"/>
      <path d="M75.59,75.87l-4.52-15.08c-.51-1.13-1.49-1.81-2.54-1.91-.56-.58-1.3-.94-2.13-.94h-11.47c-1.35,1.27-3.37,2.07-5.62,2.07s-4.26-.8-5.62-2.07h-12.04c-.97,0-1.82.5-2.39,1.27-.65.35-1.17.91-1.47,1.58l-3.39,15.08c-.36.81-.34,2.3-.34,3.28v2.5c0,1.81,1.32,3.28,2.95,3.28h45.97c1.63,0,2.95-1.47,2.95-3.28,0-1.23.09-4.84-.34-5.78Z" image-rendering="optimizeQuality" shape-rendering="geometricPrecision" text-rendering="geometricPrecision" fill="#f38e04"/>
      <path d="M31.65,57.93c-.97,0-1.82.5-2.39,1.27-.65.35-1.17.91-1.47,1.58l-3.39,15.08c-.36.81-.34,2.3-.34,3.28v2.5c0,1.81,1.32,3.28,2.95,3.28h22.85v-24.94c-.18.01-.36.02-.54.02-2.25,0-4.26-.8-5.62-2.07h-12.04Z" fill="#f99204"/>
      <path d="M68.24,34.31c-1.59-.7-4.32-1.02-5.47-1.59,2.86-2.42,3.11-3.81,4.51-3.81-1.14-.83-2.92-.76-4.13-.76.67-1.39,5.77-1.97,6.36-13.79-3.65-.16-7.92,3.35-10.74,7.44,1.29-3.83.61-5.39.76-6.1-.83,2.1-2.22,2.92-4.77,4.07-.25-2.16.57-3.37.57-3.37,0,0-3.81.64-6.05,3.94-2.24-3.3-6.05-3.94-6.05-3.94,0,0,.83,1.21.57,3.37-2.54-1.14-3.94-1.97-4.77-4.07.16.71-.53,2.27.76,6.1-2.82-4.08-7.09-7.6-10.74-7.44.59,11.82,5.68,12.4,6.36,13.79-1.21,0-2.99-.06-4.13.76,1.4,0,1.65,1.4,4.51,3.81-1.14.57-3.88.89-5.47,1.59,3.31,1.53,4.58,3.39,4.58,3.39-.15.83-.16,1.19-.17,1.55,0,9.54,6.51,17.27,14.53,17.27s14.53-7.73,14.53-17.27c0-.36-.01-.73-.16-1.55,0,0,1.27-1.87,4.58-3.39h0Z" fill="#f9cb8a"/>
      <path d="M29.41,14.35c-.11,0-.23,0-.34,0,.59,11.82,5.68,12.41,6.36,13.79-1.21,0-2.99-.06-4.13.76,1.4,0,1.65,1.4,4.51,3.81-1.14.57-3.88.89-5.46,1.59,3,1.38,4.32,3.03,4.54,3.33l.02-.02c.11,1.35.96,2.56,2.01,3.72-.12-1.54-.21-2.54.28-4.87,1.64-.44,2.43-1.31,2.83-2.23-1.07-.02-1.29-.15-2.17-.83,1.27-.9,1.88-.91,2.32-2.27-1.06.07-1.83-.64-2.62-1.31,1.01-.86,2.82-.26,3.82-.19.43-1.11.22-1.65,0-2.76.9.11,1.81,1.88,2.61,2.44.97-.47.18-2.19.55-2.92,1.19.39,2.41.67,3.42,1.61.97-1.02,1.13-1.17,1.32-2.45.19,1.28.35,1.44,1.32,2.45,1.01-.93,2.23-1.22,3.42-1.61.37.72-.42,2.45.55,2.92.81-.57,1.71-2.34,2.62-2.44-.22,1.11-.43,1.65,0,2.76,1.01-.07,2.82-.67,3.82.19-.79.66-1.55,1.38-2.62,1.31.45,1.36,1.05,1.37,2.32,2.27-.88.68-1.1.81-2.17.83.41.91,1.19,1.79,2.83,2.23.49,2.33.4,3.33.28,4.87,1.05-1.16,1.9-2.37,2.01-3.72l.02.02c.22-.3,1.54-1.95,4.54-3.33-1.59-.7-4.32-1.02-5.47-1.59,2.86-2.42,3.11-3.81,4.51-3.81-1.14-.83-2.92-.76-4.13-.76.67-1.39,5.76-1.97,6.35-13.79-.11,0-.23,0-.34,0-3.57.06-7.67,3.48-10.4,7.44,1.29-3.83.61-5.39.76-6.1-.83,2.1-2.22,2.92-4.77,4.07-.25-2.16.57-3.37.57-3.37,0,0-3.77.63-6.01,3.89h0s-.04.05-.04.05l-.04-.05h0c-2.24-3.26-6.01-3.89-6.01-3.89,0,0,.83,1.21.57,3.37-2.54-1.14-3.94-1.97-4.77-4.07.16.71-.53,2.27.76,6.1-2.73-3.96-6.82-7.38-10.4-7.44Z" fill="#78402a"/>
      <path d="M58.46,36.75l-5.65.91.18,1.11,5.65-.91-.18-1.11M40.82,36.67l5.65.91-.18,1.11-5.65-.91.18-1.11" fill="#78402a" fill-rule="evenodd"/>
      <path d="M55.49,42.28c.82,0,1.5-.66,1.5-1.48,0-.83-.67-1.5-1.5-1.5-.82,0-1.5.67-1.5,1.5,0,.82.67,1.49,1.5,1.48,0,0,0,0,0,0M44.13,42.28c.82,0,1.5-.66,1.5-1.48,0-.83-.67-1.5-1.5-1.5-.82,0-1.48.67-1.48,1.5s.66,1.48,1.48,1.48" fill="#464648" fill-rule="evenodd"/>
      <path d="M37.18,22.08c-.48-.68-4.19-4.67-5.51-4.84-.5,1.74,1.84,7.02,3.98,7.93.24-1.26,1.53-3.09,1.53-3.09h0ZM60.92,22.34c.48-.68,4.19-4.67,5.51-4.84.5,1.74-1.84,7.02-3.98,7.93-.25-1.26-1.53-3.09-1.53-3.09h0Z" fill="#84523c"/>
      <path d="M36.64,57.37v16.04h-4.24v11.64h34.06v-11.64h-3.02v-16.04h-3.04v16.04h-20.73v-16.04h-3.04Z" fill="#818181" stroke="#818181" stroke-linecap="square" stroke-linejoin="round" stroke-width="1.94"/>
      <g>
        <circle cx="38.11" cy="78.34" r="2.46" fill="#b7b7b7" stroke="#cbcbcb" stroke-linecap="round" stroke-linejoin="round" stroke-width="1.44"/>
        <circle cx="60.75" cy="78.34" r="2.46" fill="#b7b7b7" stroke="#cbcbcb" stroke-linecap="round" stroke-linejoin="round" stroke-width="1.44"/>
      </g>
      <g>
        <path d="M62.01,47.63c-4.33.57-8.57.5-12.66-.66-4.11,1.16-8.45,1.23-12.77.66,1.69,3.26,4.35,8.64,12.69,8.9,8.34-.26,11.06-5.63,12.75-8.9" fill="#78402a" fill-rule="evenodd"/>
        <path d="M45.78,47.15l-4.83,5.94,8.29-4.73,8.29,4.73-4.83-5.94-3.46-.42-3.46.42" fill="#84523c" fill-rule="evenodd"/>
      </g>
    </g>
  </g>
</svg>