<?xml version="1.0" encoding="UTF-8"?>
<svg xmlns="http://www.w3.org/2000/svg" width="106" height="100" viewBox="0 0 106 100">
  <g id="Hintergrund">
    <rect id="Hintergrund-2" data-name="Hintergrund" x="3" width="100" height="100" rx="6" ry="6" fill="#555556"/>
  </g>
  <g id="Detektiv">
    <path d="M45.71,14.28c-1.45.06-4.51,10.16-6.46,17.07h0c-.48,1.73-.96,3.44-1.43,5.16h-8.07c-.91-.04-1.68.67-1.72,1.58-.04.91.67,1.68,1.58,1.72.05,0,.09,0,.14,0h8.05v1.35c0,.48.2,1.03.53,1.54.47,5.23,2.74,9.95,6.22,12.96l-4.73,4.69.09.11h-4.68c-.92,0-1.74.5-2.29,1.27-.63.36-1.13.91-1.41,1.59l-3.51,13.33c-.35.8-.32,2.31-.32,3.29v2.5c0,1.82,1.26,3.29,2.82,3.29h45.01c1.56,0,2.82-1.47,2.82-3.29,0-1.23.09-4.84-.32-5.79l-4.26-13.33c-.49-1.13-1.42-1.81-2.43-1.91-.51-.59-1.25-.93-2.04-.95h-3.16l.09-.11-4.74-4.69c3.43-2.96,5.68-7.58,6.2-12.71.49-.61.83-1.32.83-1.93,0-.47,0-.83,0-1.2h7.78c.91.04,1.68-.67,1.72-1.58.04-.91-.67-1.68-1.58-1.72-.05,0-.09,0-.14,0h-7.98c-.13-.56-.34-1.05-.7-2.37h-.03c-1.8-6.51-5.59-19.8-7.25-19.87-2.2-.09-4.85,2.99-7.32,2.99s-5.12-3.07-7.31-2.99h0Z" image-rendering="optimizeQuality" shape-rendering="geometricPrecision" text-rendering="geometricPrecision" fill="#f8c47b" stroke="#fff" stroke-linejoin="round" stroke-width="6"/>
    <path d="M59.86,64.07c0,.91-1,1.65-2.23,1.65h-8.92c-1.23,0-2.23-.74-2.23-1.65v-7.22c0-.91,1-1.65,2.23-1.65h8.92c1.23,0,2.23.74,2.23,1.65v7.22Z" image-rendering="optimizeQuality" shape-rendering="geometricPrecision" text-rendering="geometricPrecision" fill="#f8c47b"/>
    <path d="M78,76.65l-4.26-13.33c-.49-1.13-1.42-1.81-2.43-1.91-.53-.58-1.25-.95-2.03-.95h-11.38c-1.3,1.27-3.22,4.4-5.38,4.4s-4.08-3.13-5.38-4.4h-11.93c-.93,0-1.74.5-2.29,1.27-.63.36-1.13.91-1.41,1.58l-3.52,13.33c-.35.81-.32,2.31-.32,3.29v2.5c0,1.81,1.26,3.29,2.82,3.29h45c1.56,0,2.82-1.47,2.82-3.29,0-1.23.09-4.84-.32-5.79h0Z" image-rendering="optimizeQuality" shape-rendering="geometricPrecision" text-rendering="geometricPrecision" fill="#525f67"/>
    <path d="M51.14,81.37l-5.04-10.27,2.92-6.73,10.08-.25-1.69,10.67-4.11,7.86-2.16-1.27Z" fill="#bdbdbe"/>
    <path d="M52.94,63.91l-4.31,1.59,3.35,3.77-2.22,9.63,3.23,4.46,3.24-4.46-2.22-9.63,3.35-3.77-4.31-1.59v.07s-.08-.05-.12-.07h0Z" fill="#333842"/>
    <path d="M47.75,58.67c-.1.67,2.6,4.79,5.25,5.19l-8.13,7.01c.96-4.07-1.01-7.1,2.88-12.2h0ZM58.25,58.67c.1.67-2.6,4.79-5.25,5.19l8.13,7.01c-.96-4.07,1.01-7.1-2.88-12.2h0Z" fill="#fff"/>
    <path d="M53,83.38c-4.21-6.28-7.69-19.05-4.09-32.05l-9.11,9.02,4.53,5.47-2,4.4c3.25,4.69,6.71,9.17,10.67,13.16h0ZM53,83.38c4.21-6.28,7.69-19.05,4.09-32.05l9.11,9.02-4.53,5.47,2,4.4c-3.25,4.69-6.71,9.17-10.67,13.16Z" fill="#333842"/>
    <ellipse cx="53" cy="40.68" rx="14.8" ry="18.3" image-rendering="optimizeQuality" shape-rendering="geometricPrecision" text-rendering="geometricPrecision" fill="#f9cb8a"/>
    <path d="M67.59,34.14c.83,3.03.9,1.68.9,6.88,0,1.16-1.23,2.72-2.45,3.22-2.03-4.27-3.12-8.9-4.5-9.63l6.05-.47Z" image-rendering="optimizeQuality" shape-rendering="geometricPrecision" text-rendering="geometricPrecision" fill="#82553e"/>
    <ellipse cx="47.05" cy="45.17" rx="1.49" ry="1.44" image-rendering="optimizeQuality" shape-rendering="geometricPrecision" text-rendering="geometricPrecision" fill="#464648"/>
    <ellipse cx="58.45" cy="45.17" rx="1.49" ry="1.44" image-rendering="optimizeQuality" shape-rendering="geometricPrecision" text-rendering="geometricPrecision" fill="#464648"/>
    <path d="M55.66,42.18l5.43-1.33.25,1.03-5.43,1.33-.25-1.03ZM49.98,42.65l-5.3-1.79-.34,1.01,5.3,1.79.34-1.01Z" image-rendering="optimizeQuality" shape-rendering="geometricPrecision" text-rendering="geometricPrecision" fill="#82553e" fill-rule="evenodd"/>
    <path d="M38.68,34.3c-.83,3.03-.9,1.68-.9,6.88,0,1.16,1.23,2.72,2.45,3.22,2.03-4.27,3.12-8.91,4.5-9.63l-6.05-.47Z" image-rendering="optimizeQuality" shape-rendering="geometricPrecision" text-rendering="geometricPrecision" fill="#82553e"/>
    <path d="M45.69,14.28c-2.2.09-8.15,23.39-8.22,23.39l11.03.32-.05.26,4.55-.13,4.55.13-.05-.26,11.03-.32c-.07,0-6.02-23.3-8.22-23.39-2.2-.09-4.84,2.99-7.31,2.99s-5.12-3.08-7.31-2.99h0Z" fill="#555f68"/>
    <path d="M39.22,31.35c-1,3.56-1.73,6.32-1.76,6.32l11.03.32-.05.26,4.55-.13,4.55.13-.05-.26,11.03-.32s-.75-2.77-1.76-6.32h-27.55Z" fill="#404950" isolation="isolate" opacity=".61"/>
    <rect x="28.08" y="36.51" width="49.85" height="3.31" rx="1.65" ry="1.65" fill="#555f68"/>
    <path d="M57.44,51.77c-1.41-1.53-2.09-1.28-2.64-1.25-.55.04-1.25.4-1.8,1.14-.55-.73-1.26-1.1-1.8-1.14-.55-.04-1.23-.28-2.64,1.25-1.84,1.78-2.91-.57-2.91-.57,0,0-.27,3.05,2.85,3.62,3.12.57,4.5-1.59,4.5-1.59,0,0,1.37,2.16,4.49,1.59,3.12-.57,2.85-3.62,2.85-3.62,0,0-1.07,2.35-2.91.57" fill="#82553e" fill-rule="evenodd"/>
  </g>
</svg>