<?xml version="1.0" encoding="UTF-8"?>
<svg xmlns="http://www.w3.org/2000/svg" width="108.424599832" height="100" viewBox="0 0 108.424599832 100">
  <g id="Hintergrund">
    <rect id="Hintergrund-2" data-name="Hintergrund" x="4.212299916 " width="100" height="100" rx="6" ry="6" fill="#555556"/>
  </g>
  <g id="doctor">
    <path d="M53.14,14.28c-5.79,0-11.36,2.19-15.59,6.14-.27.25-.37.63-.27.99l.99,3.52c-3,2.4-5.16,5.92-6.4,10.84-2.76,10.96-1.38,20.35,3.7,23.21,2.91,1.69,6.5,1.71,9.43.06.88.74,1.87,1.36,2.92,1.83-.21.57-.6,1.46-1.22,2.2l-.72-2.15-1.93,1.55c-.3.16-.66.68-1.02,1.35-.11.04-.2.09-.31.13-.88.31-1.76.6-2.66.85-1.57.44-2.92.74-3.15.81-3.97,1.21-6.36,2.28-7.45,6.33-.44,1.66-1.65,5.88-2.95,10.4-.01.04-.02.08-.03.12h-.01s-.94,3.26-.94,3.26h54.92l-.93-3.19-.02-.06c-1.3-4.52-2.55-8.88-2.99-10.53-1.08-4.05-3.47-5.12-7.45-6.33-.23-.07-1.58-.37-3.15-.81-.89-.25-1.78-.54-2.66-.85-.07-.03-.13-.05-.2-.08-.42-.68-.83-1.23-1.14-1.4l-1.93-1.55-.72,2.15c-.64-.76-1.03-1.66-1.24-2.24,1.03-.47,1.99-1.07,2.86-1.8,2.93,1.66,6.52,1.63,9.43-.06,5.09-2.86,6.47-12.25,3.71-23.21-1.24-4.92-3.4-8.45-6.4-10.85l1.06-3.78c.1-.36,0-.75-.28-1-4.19-3.78-9.64-5.86-15.28-5.86ZM67.03,38.7l.08,1.09v.09c-.02-.39-.05-.79-.1-1.18,0,0,.02,0,.02,0Z" fill="#916f6f" stroke="#fff" stroke-linecap="round" stroke-linejoin="round" stroke-width="6"/>
    <path d="M80.46,85.72H25.54l.94-3.25h.01s.01-.09.03-.13c1.3-4.52,2.51-8.74,2.95-10.4,1.08-4.05,3.47-5.12,7.45-6.33.23-.07,1.58-.37,3.15-.81.5-.14,1-.29,1.49-.45.39-.13.78-.26,1.17-.4.31-.12.61-.24.91-.37.29-.13.57-.27.85-.43l8.52,20.61,8.52-20.61c.28.16.56.3.85.43.29.13.59.25.91.37.38.14.76.27,1.17.4.49.16.99.31,1.49.45,1.57.44,2.92.74,3.15.81,3.97,1.21,6.36,2.28,7.45,6.33.44,1.65,1.69,6,2.99,10.53l.02.06.92,3.19Z" fill="#ebebeb"/>
    <path d="M60.63,68.7l-7.63.91-7.63-.91s-1.31-3.7.4-4.78c1.71-1.08,2.37-3.65,2.37-3.65l4.87.47,4.87-.47s.66,2.57,2.37,3.65c1.71,1.08.4,4.78.4,4.78Z" fill="#eab794"/>
    <path d="M67.14,40.82c0,17.59-8.92,21.11-14.18,21.11s-14.18-3.52-14.18-21.11c0-8.85,6.35-14.27,14.18-14.27s14.18,5.42,14.18,14.27Z" fill="#f4c3a2"/>
    <path d="M52.99,56.04c-1.04-.01-2.04-.36-2.87-.98-.16-.11-.2-.33-.09-.49,0,0,0,0,0-.01.12-.16.35-.2.52-.08,2.01,1.41,3.75.78,5.2-.02.18-.1.4-.04.51.13.1.17.04.39-.12.49,0,0,0,0-.01,0-.88.49-1.94.96-3.13.96h0Z" fill="#373434"/>
    <path d="M70.34,58.98c-2.91,1.69-6.5,1.71-9.43.06,6.87-6.06,6.21-19.24,6.21-19.24l-.08-1.09c-12.65,1.81-22.15-3.43-22.15-3.43-1.94,3.39-4.59,4.87-6.1,5.48,0,3.14.47,13.21,6.22,18.29-2.93,1.66-6.52,1.63-9.43-.06-5.09-2.86-6.47-12.25-3.71-23.21,2.75-10.92,9.98-14.98,21.02-15.02h.13c11.04.03,18.27,4.1,21.02,15.02,2.76,10.96,1.38,20.35-3.71,23.21h0Z" fill="#393b42" fill-rule="evenodd"/>
    <path d="M45.92,65.42s3.17,2.95,7.29,2.95,7.89-3.37,7.89-3.37l-8.1,18.76-6.09-9.41-.98-8.92Z" fill="#86cfef"/>
    <path d="M63.17,73.53l-10.17,11.19-10.18-11.19,2.98-2.6-4.72-2.42c.35-1.08,1.97-5.51,2.97-6.05l1.93-1.55,4.1,12.23,2.81,9.27.1.34,2.91-9.61,4.1-12.23,1.93,1.55c1,.54,3.05,4.96,3.4,6.05l-4.97,1.94,2.8,3.08Z" fill="#d5d5d5"/>
    <path d="M53.14,14.28c-5.79,0-11.36,2.19-15.59,6.14-.27.25-.37.63-.27.99l3.35,11.92c.15.53.69.83,1.22.69.11-.03.2-.08.29-.14,2.31-1.61,6.26-2.81,11-2.81s8.12.99,10.75,2.57c.47.28,1.07.13,1.36-.34.05-.08.08-.16.1-.24l3.35-11.91c.1-.36,0-.75-.28-1-4.19-3.78-9.64-5.86-15.28-5.86h0Z" fill="#ebebeb"/>
    <path d="M58.18,20.34v3.38h-3.36v3.39h-3.35v-3.39h-3.37v-3.38h3.37v-3.39h3.35v3.39h3.36Z" fill="#86cfef"/>
    <path d="M60.57,45.98c.04.75-.53,1.39-1.28,1.44-.75-.05-1.32-.69-1.28-1.44,0-.32.09-.63.28-.89.17-.25.41-.42.7-.5.1-.03.2-.04.3-.04.08,0,.15,0,.22.03.3.06.57.24.75.49.2.27.31.59.31.93ZM47.65,46.04c.04.75-.53,1.39-1.28,1.44-.75-.05-1.32-.69-1.28-1.44,0-.33.1-.65.3-.92.18-.25.44-.43.74-.49.08-.02.16-.03.24-.03.04,0,.09,0,.13,0,.31.04.6.2.8.44.23.28.35.63.35.99Z" fill="#373434"/>
    <path d="M44.55,42.15l3.72.33c.25.02.44.24.42.5,0,0,0,0,0,0-.02.25-.24.44-.5.42,0,0,0,0,0,0l-3.72-.33c-.25-.02-.44-.24-.42-.5.02-.25.24-.44.5-.42,0,0,0,0,0,0ZM61.09,42.16l-3.69.32c-.25.02-.44.24-.41.5.02.25.24.44.49.42,0,0,0,0,0,0l3.69-.32c.25-.02.44-.24.41-.5-.02-.25-.24-.44-.49-.42,0,0,0,0,0,0h0Z" fill="#373434" fill-rule="evenodd"/>
    <path d="M70.73,73.41v2.09l-3.2.53-2.9-.49v-2.12h6.1Z" fill="#d5d5d5"/>
  </g>
</svg>
