<?xml version="1.0" encoding="UTF-8"?>
<svg xmlns="http://www.w3.org/2000/svg" width="108.4" height="100" viewBox="0 0 108.4">
  <g id="Hintergrund">
    <rect id="Hintergrund-2" data-name="Hintergrund" x="4.2" width="100" height="100" rx="6" ry="6" fill="#555556"/>
  </g>
  <g id="Dorfbewohner">
    <path d="M52.56,14.28c-6.75,0-12.22,6.68-12.22,14.93h0c0,.69.05,1.37.13,2.05v.26s-.01,0-.01,0v.15c0,.27,0,.53.02.79.11,1.35.64,3.97,2.92,6.61.32.45.66.87,1.02,1.26-.11.05-.19.11-.2.17-.15.55-.86,1.42-1.52,2.15-.37-.12-.75-.17-1.14-.15-2.34.23-4.79,3.15-4.79,3.15,0,0-11.8-.35-12.5,9.34l.26,1.42-.19.09c.29,2.05.58,4.09.88,6.13.08.53.14.98.23,1.52.22,1.48.45,2.89.66,4.13l.06.33c.11.6.22,1.2.34,1.8.04.17.07.34.11.47l.02.09c.04.16.08.3.12.38.04.09.11.16.2.23.12.07.25.13.39.18.18.06.37.1.56.13.22.03.45.07.72.09.62.05,1.24.07,1.86.06.7,0,1.49-.03,2.33-.07,1.85-.1,3.7-.25,5.54-.43.72,1.11,3.31,14.17,3.31,14.17h22.66s2.63-13.27,3.33-14.2c.01-.02.03-.03.05-.04.11,0,.26,0,.51,0,.32.01.76.04,1.26.07.5.03,1.07.07,1.69.1,1.52.08,3.27.14,4.68.07.28-.01.55-.03.8-.06.33-.03.66-.08.99-.16.09-.02.18-.05.26-.08.2-.05.38-.15.53-.3.03-.04.06-.08.08-.13.04-.12.08-.24.12-.36l.04-.16.08-.29.14-.56c.1-.43.22-.93.34-1.5l.06-.26c.4-1.91.79-3.83,1.16-5.75l.69-3.6.6-3.15-.07-.02.07-.36c-.37-5.15-3.88-7.47-7.08-8.5-2.83-.92-5.42-.84-5.42-.84,0,0-2.45-2.92-4.79-3.15-.25-.02-.49,0-.74.05l-.26.06c-.11.03-.23.07-.34.11h0c-.1.03-.19.06-.29.09-.1-.05-.2-.09-.3-.14-2.08-1.01-1.79-2.18-1.68-2.46.34-.38.66-.78.96-1.21,2.23-2.61,2.75-5.2,2.86-6.54.01-.26.02-.52.03-.78v-.16h-.03v-.28c.09-.67.13-1.34.14-2.02,0-8.25-5.47-14.94-12.22-14.94t0,0h0Z" fill="#f8c47b" stroke="#e8eaed" stroke-linejoin="round" stroke-width="6"/>
    <path d="M52.56,14.28c-6.75,0-12.22,6.69-12.22,14.94,0,.73.05,1.46.14,2.19,0,.04,0,.08,0,.11h-.02v.15c0,.27,0,.53.02.78.11,1.33.62,3.9,2.82,6.5.35.49.72.95,1.11,1.38-.11.05-.18.1-.19.16-.15.55-.86,1.42-1.52,2.15-.37-.12-.75-.17-1.14-.14h0c-2.34.23-4.79,3.15-4.79,3.15,0,0-11.8-.35-12.5,9.34l.26,1.42-.19.1s1.83,13.42,2.42,14.85c.42,1.02,5.52.76,11.6.19.72,1.1,3.31,14.17,3.31,14.17h22.66s2.75-13.87,3.37-14.24c1.19-.03,10.24.91,10.81-.46.59-1.43,3.22-15.63,3.22-15.63l-.07-.02.07-.36c-.7-9.69-12.5-9.34-12.5-9.34,0,0-2.46-2.92-4.79-3.15-.45-.05-1.01.08-1.64.3-.1-.05-.21-.09-.31-.14-2.05-.99-1.8-2.14-1.69-2.44.36-.4.69-.82,1.01-1.27,2.19-2.6,2.71-5.16,2.82-6.49.01-.26.02-.52.03-.78,0-.05,0-.1,0-.16h-.02s0-.07,0-.11c.09-.73.13-1.46.14-2.19,0-8.25-5.47-14.93-12.22-14.94Z" fill="#555556"/>
    <path d="M50.2,60.56v-1.18c0-.9.18-1.66.55-2.27.37-.63,1.02-1.23,1.95-1.82.75-.47,1.28-.89,1.6-1.26.33-.38.49-.81.49-1.3,0-.39-.17-.69-.52-.91-.35-.23-.8-.34-1.36-.34-1.39,0-3.01.49-4.86,1.47l-1.91-3.75c2.29-1.3,4.68-1.95,7.16-1.95,2.05,0,3.66.45,4.82,1.35,1.17.9,1.75,2.13,1.75,3.68,0,1.11-.26,2.07-.79,2.89-.52.81-1.34,1.57-2.48,2.3-.96.63-1.57,1.09-1.82,1.38-.24.29-.36.62-.36,1.02v.7h-4.23ZM49.6,65.39c0-.84.24-1.5.73-1.96.5-.46,1.22-.69,2.18-.69s1.62.23,2.11.7c.5.46.74,1.11.74,1.94s-.26,1.48-.77,1.94c-.5.46-1.2.69-2.08.69s-1.62-.23-2.14-.68c-.52-.46-.77-1.11-.77-1.95Z" fill="#e8eaed"/>
  </g>
</svg>
