<?xml version="1.0" encoding="UTF-8"?>
<svg xmlns="http://www.w3.org/2000/svg" width="108.4" height="100" viewBox="0 0 108.4">
  <g id="Hintergrund">
    <rect id="Hintergrund-2" data-name="Hintergrund" x="4.2" width="100" height="100" rx="6" ry="6" fill="#555556"/>
  </g>
  <g id="Osterhase">
    <path d="M74.03,65.9s0-.09.01-.13c0-.02,0-.04,0-.06,0-.05,0-.1.01-.15,0-.04,0-.07,0-.11,0-.03,0-.06,0-.09,0-.03,0-.06,0-.09,0-.03,0-.05,0-.08,0-.04,0-.08,0-.12,0-.07,0-.13,0-.19.02-4.47-1.31-8.77-2.83-12.92l-.59.45c-.17-.49-.41-.05-.3-1.04.95-5.62-1.61-11.15-5.06-15.6-1.17-1.5-4.37-4.16-4.76-3.86,9.79-19.37-.03-22.06-3.42-7.96-.51,1.36-.99,4.48-1.28,5.88-.87,1.02-1.89-.71-1.56-1.64,6.88-21.2-7.68-15.95-5.36.89.07,1.45-1.29,1.39-2.27,1.93-6.59,3.66-10.42,10.18-11.26,17.29-.16,1.35.04,1.91-.02,2.77-.82.7-1.2,1.39-1.34,2.53-1.03,3.1-1.78,6.23-2.08,9.51-.11,1.19-.03,3.82,0,4.16.12,1.59.64,3.13,1.19,4.61.55,1.48,1.11,2.67,1.94,4.01.99,1.6,2.04,2.89,3.42,4.16.67.61,1.35,1.11,2.08,1.63.8.58,1.23.86,2.08,1.34.13.07.26.2.45.3,6.32,3.23,13.32,3.2,19.65,0,.2-.1.32-.23.45-.3.81-.44,1.31-.78,2.08-1.34.67-.48,1.32-.93,1.94-1.49,1.43-1.28,2.72-2.81,3.72-4.46.69-1.14,1.33-2.46,1.79-3.71.48-1.31.82-2.63,1.04-4.01.06-.39.17-1.29.24-2.08,0,0,0-.02,0-.02Z" fill="#fff" stroke="#fff" stroke-miterlimit="10" stroke-width="6"/>
    <g>
      <path d="M71.26,51.96l-.59.45c.65,1.89-6.3-1.4-6.3-1.4,0,0-22.87.06-23.1-.24,0,0-6.61,4.71-7.22,2.82-1.03,3.1-1.78,6.23-2.08,9.51-.11,1.19-.03,3.82,0,4.16.12,1.59.64,3.13,1.19,4.61.55,1.48,1.11,2.67,1.94,4.01.99,1.6,2.04,2.89,3.42,4.16.67.61,1.35,1.11,2.08,1.63.8.58,1.23.86,2.08,1.34.13.07.26.2.45.3,6.32,3.23,13.32,3.2,19.65,0,.2-.1.32-.23.45-.3.81-.44,1.31-.78,2.08-1.34.67-.48,1.32-.93,1.94-1.49,1.43-1.28,2.72-2.81,3.72-4.46.69-1.14,1.33-2.46,1.79-3.71.48-1.31.82-2.63,1.04-4.01.1-.59.29-2.33.3-3.12.02-4.47-1.31-8.77-2.83-12.92Z" fill="#ff563d"/>
      <path d="M70.96,75.73c-1,1.64-2.29,3.17-3.72,4.46-7.36,1.75-15.27,1.79-22.86,1.02-1.93-.2-4.07-.5-5.86-1.17-1.39-1.27-2.44-2.56-3.42-4.16,3.27.74,6.58,1.5,9.92,1.91,7.04.86,13.99.5,20.92-.92,1.69-.35,3.33-.89,5.03-1.14Z" fill="#b6dcef"/>
      <path d="M31.97,67.27l3.61-4.38,4.54,4.78,4.54-4.79,4.91,4.94,3.16-3.86,2.83,3.67,5.34-4.61,4.67,4.65,4.24-4.77,4,5.11c-.23,1.38-.56,2.7-1.04,4.01l-2.79-2.17-5.09,5.61-4.68-4.95-3.63,3.01-3.77-4.14-3.35,4.35-4.25-3.21-4.55,4.28-5.12-5.11-2.37,2.19c-.55-1.48-1.07-3.01-1.19-4.61Z" fill="#ffd421"/>
      <path d="M40.6,81.68c.8.58,1.23.86,2.08,1.34.26.11,7.02.89,10.79.89,2.18,0,9.51-.79,9.75-.89.81-.44,1.31-.78,2.08-1.34-8.15,1.4-16.56,1.43-24.71,0Z" fill="#af6bd0"/>
      <path d="M69.55,59.84l-4.17,5.05c-.39.1-5.04-5.19-5.04-5.19l-4.14,5.23-3.32-4.19-3.64,4.46c-.45-.68-3.96-5.64-3.96-5.64,0,0-4.26,4.78-4.91,5.33l-4.45-5.19-3.99,4.4c0,.46,0,.96,0,1.43l4-4.5,4.32,5.34,4.91-5.49,4.32,5.94,3.28-4.6,3.31,4.23,4.43-5.41c.67.54,4.78,5.18,4.78,5.18l4.32-4.88s3.56,3.7,4.43,4.89c.04-.43.07-.85.08-1.17l-4.54-5.22Z" fill="#af6bd0"/>
      <path d="M70.67,52.41c-.17-.49-.41-.05-.3-1.04.95-5.62-1.61-11.15-5.06-15.6-1.17-1.5-4.37-4.16-4.76-3.86,9.79-19.37-.03-22.06-3.42-7.96-.51,1.36-.99,4.48-1.28,5.88-.87,1.02-1.89-.71-1.56-1.64,6.88-21.2-7.68-15.95-5.36.89.07,1.45-1.29,1.39-2.27,1.93-6.59,3.66-10.42,10.18-11.26,17.29-.16,1.35.04,1.91-.02,2.77-.82.7-1.2,1.39-1.34,2.53-.2,1.31,1.05,2.49,2.22,2.9,3.5,1.23,7.56-1.8,4.95-5.25.34.31.63.4.87.27l.33.09c1.51-1.27,3.53.74,2.25,2.25l.09.33c-.31.44.15.82.62.61l3.68-3.53c1.21,1.04,2.4,2.16,3.55,3.36.22.12.46.13.64-.08l3.52-3.36c1.2,1.1,2.39,2.23,3.57,3.4.44.35,1.1.02.64-.39l.16-.32c-.95-1.67.65-3.36,2.35-2.35l.33-.15c.26.06.53,0,.81-.22-5.09,4.23,3.38,8.67,6.12,4.41.51-.8.82-2.66-.08-3.15Z" fill="#ebebeb"/>
      <path d="M46.06,47.39c-1.74.4-1.3,3.61,1.09,2.87,1.49-.46,1.16-3.39-1.09-2.87Z" fill="#853e2a"/>
      <path d="M57.67,47.39c-1.31.3-1.36,2.49-.11,2.87,2.7.84,2.88-3.5.11-2.87Z" fill="#853e2a"/>
      <path d="M53.8,16.03c-.95.09-2.21,3.68-2.44,4.55-.43,1.62-1.14,5.41-.23,6.83.48.74.98.45,1.45-.1,1.45-1.68,2.45-8.77,1.7-10.77-.08-.22-.19-.53-.49-.5Z" fill="#f7a2b5"/>
      <path d="M62.59,17.53c-.71-.78-2.39,2.01-2.67,2.54-.81,1.54-2.53,6.43-1.23,7.82,1.3,1.39,2.78-2.28,3.08-3.14.46-1.29,1.72-6.22.82-7.21Z" fill="#f7a2b5"/>
      <path d="M51.72,50.36c-1.56.36-1.21,2.35.56,2.36,2.57.01,2.01-2.95-.56-2.36Z" fill="#f7a2b5"/>
      <path d="M42.09,51.52c.92.87,1.72,1.83,2.68,2.67,1.85-1.81-.87-4.52-2.68-2.67Z" fill="#ffa901"/>
      <path d="M60.99,54.19c1.05-.84,1.86-1.92,2.83-2.82-2.09-1.4-4.17.72-2.83,2.82Z" fill="#ffa901"/>
    </g>
  </g>
</svg>
