<?xml version="1.0" encoding="UTF-8"?>
<svg xmlns="http://www.w3.org/2000/svg" width="100" height="100" viewBox="0 0 100 100">
  <g id="Hintergrund">
    <rect id="Hintergrund-2" data-name="Hintergrund" x="0" width="100" height="100" rx="6" ry="6" fill="#555556"/>
  </g>
  <g id="Dorfbewohner">
    <g id="Blumenkind">
      <path d="M48.12,14.28c-1.9,2.17-4.34,5.73-4.69,9.78-1.51-2.47-4.19-4.75-8.76-6.27l-.24,4.07-3.33-2c-.57,2.83-.89,7.13.82,10.81-2.54-1.39-6-2.01-10.72-1.05l1.82,3.65-3.89-.07c.92,2.73,2.79,6.62,6.12,8.95-2.89.07-6.2,1.26-9.81,4.45l3.4,2.25-3.4,1.88c2.17,1.9,5.73,4.34,9.78,4.69-2.47,1.51-4.75,4.19-6.27,8.76l4.07.24-2,3.33c2.83.57,7.13.89,10.81-.82-1.39,2.54-2.02,6-1.05,10.72l3.65-1.82-.07,3.89c2.73-.92,6.62-2.79,8.95-6.12.07,2.89,1.26,6.2,4.45,9.81l2.25-3.4,1.88,3.4c1.33-1.51,2.91-3.7,3.87-6.25,2.27,1.7,6.64,5.36,7.08,8.56,0,0,1.27-2.63,2.05-5.97l.47.16.24-4.07,3.33,2c.16-.81.3-1.74.38-2.75,3.5,1.6,8.88,4.66,11.76,9.37,0,0,.43-9.07-4.3-16.06.69-.08,1.38-.19,2.06-.33l-1.82-3.65,3.89.07c-.93-2.73-2.79-6.62-6.12-8.95,2.89-.07,6.2-1.26,9.81-4.45l-3.4-2.25,3.4-1.88c-2.17-1.9-5.73-4.34-9.78-4.69,2.47-1.51,4.75-4.19,6.27-8.76l-4.07-.24,2-3.33c-2.83-.57-7.13-.89-10.81.82,1.39-2.54,2.02-6,1.05-10.72l-3.65,1.82.07-3.89c-2.73.93-6.62,2.79-8.95,6.12-.07-2.89-1.26-6.2-4.45-9.81l-2.25,3.4-1.88-3.4Z" fill="#009015" stroke="#fff" stroke-linecap="round" stroke-linejoin="round" stroke-width="6"/>
      <g>
        <path d="M64.28,69.93c3.34,5.85-1.46,15.77-1.46,15.77-.59-4.33-8.42-9.52-8.42-9.52l-1.3-8.83s1.54-3.71,5.28-5.61c2.23,2.53,4.2,5.28,5.89,8.2h0Z" fill="#009015"/>
        <path d="M81.05,84.44c-4.49-7.34-15.09-10.7-15.09-10.7l-.5-5.22-6.97-6.83c2.61-1.28,6.27-1.68,11.2.62,12.15,5.66,11.36,22.14,11.36,22.14h0Z" fill="#00b21a"/>
        <path d="M43.55,37.67c-13.77-1.39-13.56-12.36-12.47-17.84l3.33,2,.24-4.07c16.02,5.33,8.9,19.9,8.9,19.9h0Z" fill="#ffc61b"/>
        <path d="M50,35.94c-11.23-8.09-5.57-17.49-1.88-21.68l1.88,3.4,2.25-3.4c11.2,12.63-2.25,21.68-2.25,21.68Z" fill="#ffb61b"/>
        <path d="M56.44,37.67c-5.68-12.62,3.92-17.93,9.21-19.72l-.07,3.89,3.65-1.82c3.39,16.54-12.79,17.66-12.79,17.66h0Z" fill="#ffc61b"/>
        <path d="M61.15,42.38c1.39-13.77,12.36-13.56,17.84-12.47l-2,3.33,4.07.24c-5.33,16.02-19.9,8.9-19.9,8.9h0Z" fill="#ffb61b"/>
        <path d="M62.88,48.82c8.09-11.23,17.49-5.57,21.68-1.88l-3.4,1.88,3.4,2.25c-12.63,11.2-21.68-2.25-21.68-2.25h0Z" fill="#ffc61b"/>
        <path d="M61.15,55.26c12.62-5.68,17.93,3.92,19.72,9.21l-3.89-.07,1.82,3.65c-16.54,3.39-17.66-12.79-17.66-12.79h0Z" fill="#ffb61b"/>
        <path d="M56.44,59.98c13.77,1.39,13.56,12.36,12.47,17.84l-3.33-2-.24,4.07c-16.02-5.33-8.9-19.9-8.9-19.9h0Z" fill="#ffc61b"/>
        <path d="M50,61.71c11.23,8.09,5.57,17.49,1.88,21.68l-1.88-3.4-2.25,3.4c-11.2-12.63,2.25-21.68,2.25-21.68Z" fill="#ffb61b"/>
        <path d="M43.56,59.98c5.68,12.62-3.92,17.93-9.21,19.72l.07-3.89-3.65,1.82c-3.39-16.54,12.79-17.66,12.79-17.66h0Z" fill="#ffc61b"/>
        <path d="M38.84,55.27c-1.39,13.77-12.36,13.56-17.84,12.47l2-3.33-4.07-.24c5.33-16.02,19.9-8.9,19.9-8.9h0Z" fill="#ffb61b"/>
        <path d="M37.11,48.82c-8.09,11.23-17.49,5.57-21.68,1.88l3.4-1.88-3.4-2.25c12.63-11.2,21.68,2.25,21.68,2.25h0Z" fill="#ffc61b"/>
        <path d="M38.84,42.38c-12.62,5.68-17.93-3.92-19.72-9.21l3.89.07-1.82-3.65c16.54-3.39,17.66,12.79,17.66,12.79h0Z" fill="#ffb61b"/>
        <circle cx="50" cy="48.82" r="18.78" fill="#745143"/>
        <path d="M66.95,48.82c0,.52-.02,1.04-.07,1.55,0,.09-.02.18-.03.27-.08.72-.2,1.44-.37,2.15-.03.15-.07.3-.11.45-.14.52-.3,1.03-.49,1.53-.27.73-.59,1.43-.96,2.11-.23.43-.49.85-.76,1.26-.03.05-.06.1-.1.15-.38.56-.79,1.09-1.23,1.61-.31.36-.64.71-.98,1.04-.52.51-1.07.99-1.66,1.42-.23.18-.47.35-.71.51-.16.11-.32.21-.48.31-.64.4-1.31.76-2,1.08-.47.21-.95.41-1.45.58-.52.18-1.04.33-1.57.46-.28.07-.57.13-.86.18-.51.1-1.03.17-1.55.21-.08,0-.15.01-.23.02-.44.03-.88.05-1.32.05-.51,0-1.03-.02-1.53-.07-.09,0-.18-.02-.27-.03-.51-.05-1-.13-1.5-.23-.33-.06-.65-.14-.97-.22-.49-.13-.97-.28-1.44-.44-.49-.17-.97-.37-1.43-.59-.69-.32-1.35-.68-1.99-1.09-.39-.25-.77-.52-1.14-.8-.01,0-.03-.02-.04-.03-.58-.44-1.13-.92-1.64-1.44-.34-.34-.66-.69-.97-1.05-.19-.22-.38-.45-.55-.68-.27-.35-.52-.71-.76-1.08-.27-.41-.52-.84-.75-1.27-.36-.69-.68-1.4-.95-2.13-.18-.5-.34-1.01-.47-1.52,0,0,0-.02,0-.02-.21-.8-.35-1.62-.44-2.44,0-.06-.01-.12-.02-.18-.05-.53-.08-1.08-.08-1.62,0-.11,0-.21,0-.32,0-.34.02-.67.05-1,.05-.6.12-1.19.24-1.79.04-.24.09-.49.15-.73.13-.58.3-1.15.49-1.71.15-.45.33-.89.52-1.32.02-.04.03-.08.05-.12.31-.69.67-1.36,1.08-2,.26-.41.53-.81.82-1.2.44-.58.91-1.14,1.42-1.66.33-.34.68-.67,1.04-.98.55-.48,1.14-.92,1.75-1.33.41-.27.83-.52,1.26-.76.39-.21.79-.41,1.2-.59.3-.14.61-.26.92-.38.5-.19,1.01-.35,1.53-.49.19-.05.39-.1.59-.15.66-.15,1.33-.27,2.01-.34.5-.05,1-.09,1.5-.09.11,0,.21,0,.32,0,.03,0,.06,0,.1,0,.51,0,1.02.03,1.53.08h0c.65.06,1.29.16,1.92.3.23.05.47.1.7.16h0c.53.14,1.04.3,1.54.48.23.08.46.17.69.27.49.2.97.43,1.44.68.44.23.86.48,1.27.75.62.4,1.21.84,1.77,1.31.37.31.72.63,1.05.97.51.52.99,1.07,1.44,1.64.3.38.57.78.84,1.18.41.64.77,1.3,1.09,1.99.1.22.2.44.29.66.11.25.21.51.3.77.25.71.46,1.43.61,2.16.02.08.04.17.05.25.12.58.2,1.18.25,1.77.04.47.07.95.07,1.43,0,.03,0,.06,0,.1h0Z" fill="#7f5d4e"/>
        <path d="M66.57,45.27l-1.39-1.39-1.01-1.01-1.54-1.54-1.01-1.01-1.54-1.54-1.01-1.01-5.53-5.53c.23.05.47.1.7.16h0c.53.14,1.04.3,1.54.48.23.08.46.17.69.27l3.61,3.61,1.01,1.01,1.54,1.54,1.01,1.01,1.54,1.54.48.48c.11.25.21.51.3.77.25.71.46,1.43.61,2.16h0ZM66.95,48.82c0,.52-.02,1.04-.07,1.55,0,.09-.02.18-.03.27l-.12-.12-1.54-1.54-1.01-1.01-1.54-1.54-3.56-3.56-1.54-1.54-1.01-1.01-1.54-1.54-1.01-1.01-1.54-1.54-1.01-1.01-1.54-1.54-1.72-1.72c.5-.05,1-.09,1.5-.09.11,0,.21,0,.32,0,.03,0,.06,0,.1,0l16.85,16.85s0,.06,0,.1h0ZM66.36,53.25c-.14.52-.3,1.03-.49,1.53l-21.83-21.83c.5-.19,1.01-.35,1.53-.49l.22.22,1.54,1.54,1.01,1.01,6.64,6.64,1.01,1.01,1.54,1.54,1.01,1.01,1.54,1.54,1.01,1.01,1.54,1.54,1.01,1.01,2.72,2.72ZM64.91,56.89c-.23.43-.49.85-.76,1.26l-1.51-1.51-1.01-1.01-1.54-1.54-1.01-1.01-4.09-4.09-1.01-1.01-1.54-1.54-1.01-1.01-4.09-4.09-1.01-1.01-1.54-1.54-1.01-1.01-1.54-1.54-1.01-1.01-.56-.56c.41-.27.83-.52,1.26-.76l5.4,5.4,1.01,1.01,1.54,1.54,1.01,1.01,1.54,1.54,1.01,1.01,6.64,6.64,1.01,1.01,1.54,1.54,1.01,1.01,1.26,1.26ZM62.82,59.91c-.31.36-.64.71-.98,1.04l-2.77-2.77-1.54-1.54-1.01-1.01-1.54-1.54-1.01-1.01-1.54-1.54-1.01-1.01-1.54-1.54-1.01-1.01-1.54-1.54-5.1-5.1-1.01-1.01-1.54-1.54-1.81-1.81c.33-.34.68-.67,1.04-.98l5.87,5.87,1.01,1.01,1.54,1.54,1.01,1.01,1.54,1.54,1.01,1.01,10.2,10.2,1.54,1.54.19.19ZM60.19,62.37c-.23.18-.47.35-.71.51-.16.11-.32.21-.48.31l-7.57-7.57-1.54-1.54-1.01-1.01-9.19-9.19-1.01-1.01-1.54-1.54-1.51-1.51c.26-.41.53-.81.82-1.2l.68.68,2.55,2.55,1.01,1.01,1.54,1.54,1.01,1.01,4.09,4.09,1.01,1.01,1.54,1.54,1.01,1.01,4.09,4.09,1.01,1.01,1.54,1.54,1.01,1.01,1.54,1.54.1.1ZM56.99,64.27c-.47.21-.95.41-1.44.58l-.56-.56-1.01-1.01-1.54-1.54-1.01-1.01-4.09-4.09-1.01-1.01-1.54-1.54-1.01-1.01-1.54-1.54-1.01-1.01-1.54-1.54-1.01-1.01-1.54-1.54-1.01-1.01-2.15-2.15c.15-.45.33-.89.52-1.32.02-.04.03-.08.05-.12l1.05,1.05,1.54,1.54,1.01,1.01,9.19,9.19,1.01,1.01,1.54,1.54,7.1,7.1ZM53.11,65.49c-.51.1-1.03.17-1.55.21-.08,0-.15.01-.23.02l-1.43-1.43-1.01-1.01-1.54-1.54-3.56-3.56-1.54-1.54-1.01-1.01-1.54-1.54-1.01-1.01-1.54-1.54-1.01-1.01-1.54-1.54-1.01-1.01-.48-.48c.05-.6.13-1.19.24-1.79l1.25,1.25,1.01,1.01,9.19,9.19,1.01,1.01,1.54,1.54,1.01,1.01,1.54,1.54,1.01,1.01,2.21,2.21ZM48.19,65.68c-.51-.05-1-.13-1.5-.23-.33-.06-.65-.14-.97-.22l-3.49-3.49-1.01-1.01-1.54-1.54-1.01-1.01-1.54-1.54-1.01-1.01-1.54-1.54-.99-.99-.02-.02h0c-.21-.81-.35-1.63-.44-2.45l1.44,1.44,1.01,1.01,4.09,4.09,1.01,1.01,1.54,1.54,1.01,1.01,4.95,4.95ZM39.72,62.3s-.03-.02-.04-.03c-.58-.44-1.13-.92-1.64-1.44-.34-.34-.66-.69-.97-1.05-.19-.22-.38-.45-.55-.68l3.2,3.2Z" fill="#745143"/>
        <path d="M46.16,32.31l-.37.37-3.56,3.56-1.54,1.54-1.01,1.01-1.54,1.54-1.01,1.01-1.54,1.54-1.01,1.01-1.1,1.1c.13-.58.3-1.15.49-1.71.15-.45.33-.89.52-1.32l.09-.09,1.54-1.54,1.01-1.01,1.54-1.54,1.01-1.01,1.54-1.54,1.01-1.01.89-.89c.3-.14.61-.26.92-.38.5-.19,1.01-.35,1.53-.49.19-.05.39-.1.59-.15h0ZM51.62,31.95l-.73.73-1.01,1.01-1.54,1.54-1.01,1.01-1.54,1.54-1.01,1.01-1.54,1.54-1.01,1.01-1.54,1.54-3.56,3.56-1.54,1.54-1.01,1.01-1.46,1.46c-.05-.53-.08-1.07-.08-1.62,0-.11,0-.21,0-.32l.52-.52,1.01-1.01,1.54-1.54,5.1-5.1,1.01-1.01,1.54-1.54,5.9-5.9c.11,0,.21,0,.32,0,.03,0,.06,0,.1,0,.51,0,1.02.03,1.53.08h0ZM55.78,32.89l-.8.8-1.54,1.54-1.01,1.01-1.54,1.54-1.01,1.01-1.54,1.54-1.01,1.01-1.54,1.54-1.01,1.01-1.54,1.54-3.56,3.56-1.54,1.54-1.01,1.01-1.54,1.54-1.01,1.01-.52.53c-.18-.5-.34-1.01-.47-1.52l-.02-.02,2.55-2.55,1.01-1.01,1.54-1.54,1.01-1.01,1.54-1.54,1.01-1.01,1.54-1.54,1.01-1.01,1.54-1.54,2.55-2.55,1.01-1.01,1.54-1.54,1.01-1.01,1.54-1.54.27-.27h0c.53.14,1.04.3,1.54.48h0ZM59.19,34.58l-.64.65-1.01,1.01-1.54,1.54-1.01,1.01-1.54,1.54-1.01,1.01-1.54,1.54-1.01,1.01-1.54,1.54-1.01,1.01-1.54,1.54-3.56,3.56-1.54,1.54-1.01,1.01-1.54,1.54-1.01,1.01-1.38,1.38c-.27-.41-.52-.84-.75-1.27l1.12-1.12,1.01-1.01,1.54-1.54,1.01-1.01,1.54-1.54,1.01-1.01,2.55-2.55,1.54-1.54,1.01-1.01,1.54-1.54,1.01-1.01,1.54-1.54,1.01-1.01,1.54-1.54,1.01-1.01,1.54-1.54,1.01-1.01.38-.38c.44.23.86.48,1.27.75h0ZM62.01,36.86l-1.92,1.92-1.54,1.54-1.01,1.01-5.1,5.1-1.54,1.54-1.01,1.01-1.54,1.54-1.01,1.01-1.54,1.54-1.01,1.01-1.54,1.54-1.01,1.01-4.2,4.2c-.34-.34-.66-.69-.97-1.05l.07-.07,1.54-1.54,2.55-2.55,1.01-1.01,1.54-1.54,5.1-5.1,1.01-1.01,1.54-1.54,1.01-1.01,1.54-1.54,1.01-1.01,1.54-1.54,1.01-1.01,1.54-1.54,1.88-1.88c.37.31.72.63,1.05.97h0ZM64.28,39.69l-.63.64-1.01,1.01-1.54,1.54-1.01,1.01-1.54,1.54-3.56,3.56-1.54,1.54-1.01,1.01-1.54,1.54-3.56,3.56-1.54,1.54-1.01,1.01-1.54,1.54-1.01,1.01-1.37,1.37c-.39-.25-.77-.52-1.14-.8-.01,0-.03-.02-.04-.03h0s1.54-1.54,1.54-1.54l1.01-1.01,1.54-1.54,1.01-1.01,1.54-1.54,3.56-3.56,1.54-1.54,1.01-1.01,1.54-1.54,1.01-1.01,1.54-1.54,1.01-1.01,1.54-1.54,1.01-1.01,1.54-1.54,1.01-1.01.81-.81c.3.38.57.78.84,1.18h0ZM65.96,43.11l-.77.77-1.54,1.54-1.01,1.01-1.54,1.54-1.01,1.01-2.55,2.55-1.54,1.54-1.01,1.01-1.54,1.54-1.01,1.01-1.54,1.54-1.01,1.01-1.54,1.54-1.01,1.01-1.54,1.54-1.01,1.01-.5.5c-.49-.17-.97-.37-1.43-.59l.92-.92,1.01-1.01,1.54-1.54,1.01-1.01,1.54-1.54,1.01-1.01,1.54-1.54,1.01-1.01,1.54-1.54,1.01-1.01,1.54-1.54,3.56-3.56,1.54-1.54,1.01-1.01,1.54-1.54,1.01-1.01.19-.19c.1.22.2.44.29.66.11.25.21.51.3.77h0ZM66.88,47.29l-.68.68-1.01,1.01-1.54,1.54-1.01,1.01-1.54,1.54-1.01,1.01-1.54,1.54-1.01,1.01-5.1,5.1-1.54,1.54-1.01,1.01-1.42,1.42c-.09,0-.18-.02-.27-.03-.51-.05-1-.13-1.5-.23l.64-.64,1.54-1.54,1.01-1.01,1.54-1.54,1.01-1.01,1.54-1.54,1.01-1.01,1.54-1.54,1.01-1.01,1.54-1.54,5.1-5.1,1.01-1.01,1.44-1.44c.12.58.2,1.18.25,1.77h0ZM66.88,50.38c0,.09-.02.18-.03.27-.08.72-.2,1.44-.37,2.15l-.28.28-1.01,1.01-1.54,1.54-1.01,1.01-1.54,1.54-1.01,1.01-1.54,1.54-3.56,3.56-1.02,1.02c-.28.07-.57.13-.86.18-.51.1-1.03.17-1.55.21l.88-.88,1.54-1.54,1.01-1.01,1.54-1.54,1.01-1.01,1.54-1.54,1.01-1.01,1.54-1.54,2.55-2.55,1.01-1.01,1.54-1.54.15-.15ZM64.05,58.3c-.38.56-.79,1.09-1.23,1.61-.31.36-.64.71-.98,1.04-.52.51-1.07.99-1.66,1.42-.23.18-.47.35-.71.51l.61-.61,1.54-1.54,2.43-2.43Z" fill="#745143"/>
        <circle cx="41.98" cy="45.59" r="3.39" fill="#050505"/>
        <ellipse cx="43.34" cy="44.52" rx="1.3" ry="1.23" fill="#fbffff"/>
        <circle cx="40.36" cy="47.29" r=".65" fill="#fbffff"/>
        <circle cx="58.24" cy="45.59" r="3.39" fill="#050505"/>
        <ellipse cx="59.4" cy="44.52" rx="1.3" ry="1.23" fill="#fbffff"/>
        <circle cx="56.42" cy="47.29" r=".65" fill="#fbffff"/>
      </g>
    </g>
  </g>
</svg>