<?xml version="1.0" encoding="UTF-8"?>
<svg xmlns="http://www.w3.org/2000/svg" width="106" height="100" viewBox="0 0 106 100">
  <g id="Hintergrund">
    <rect id="Hintergrund-2" data-name="Hintergrund" x="3" width="100" height="100" rx="6" ry="6" fill="#555556"/>
  </g>
  <g id="Werwölfe">
    <g id="Wächterwolf">
      <path d="M31.99,14.28c-1.31,1.12-2.44,2.43-3.37,3.88-.91,1.44-1.59,3-2.02,4.65,0,0-.59,2.36-1.15,4.9-.61,2.77-.2,5.68,1.15,8.17,1.64,3.02,4.05,7.45,6.36,11.56,1.14,2.53,1.53,5.25,1.45,7.97-2.15.46-4.03,1.02-5.56,1.63-1.59-1.7-2.62-3.53-3.12-5.25h0s0,.02,0,.02c-.54.97-1,1.98-1.36,3.02-.42,1.14-.75,2.32-1,3.51-.98,4.56-.62,9.3,1.03,13.66.4,1.06.87,2.09,1.41,3.08,1.01-3.7,2.14-6.94,3.98-9.77.68.24,1.4.48,2.19.69-.42,1.03-.88,2.05-1.38,3.04-1,1.95-2.02,3.56-2.86,4.64,0,0,5.96.8,13.65-3.34h0c-.03.07-.65,1.5-2.21,3.18-.71.77-1.5,1.46-2.35,2.07-.48.34-.99.68-1.56,1-1.6.9-3.33,1.55-5.13,1.95,0,0,9.46,3.7,19.26-2.18,0,0,.23.59.29,1.6.02.34.02.72-.01,1.14-.13,1.69-.8,4.03-2.96,6.61,0,0,.16,0,.45-.04,2.01-.23,10.15-1.71,12.04-10.74,0,0,1.19.75,2.61,2.16.35.35.73.75,1.09,1.18,1.11,1.3,2.21,2.97,2.89,4.95,2.12-2.68,3.04-6.02,2.94-9.93,2.05.61,3.82,1.97,5.36,3.95.22.28.44.58.65.89.01-.08.03-.16.04-.25.02-.14.05-.29.07-.43.01-.09.02-.17.03-.26,0-.02,0-.04,0-.06,0-.06.01-.13.02-.19,0-.02,0-.04,0-.06,0-.08.01-.16.02-.24,0,0,0,0,0-.01,0-.08.01-.17.02-.25,0-.05,0-.1,0-.15,0-.16.01-.33.02-.49,0-.01,0-.03,0-.04,0-.08,0-.17,0-.25,0-.02,0-.05,0-.07,0-.03,0-.06,0-.09,0-.22-.01-.44-.02-.66,0,0,0,0,0-.01,0-.08-.01-.16-.02-.24-.02-.29-.05-.58-.09-.87-.01-.09-.02-.18-.04-.27,0-.06-.02-.12-.03-.18,0-.06-.02-.12-.03-.18,0-.02,0-.03-.01-.05-.01-.06-.02-.13-.04-.19-.01-.05-.02-.11-.03-.16,0,0,0-.01,0-.02-.03-.15-.07-.3-.1-.45-.02-.07-.03-.14-.05-.21-.02-.06-.03-.13-.05-.19-.02-.06-.03-.12-.05-.19,0-.01,0-.02,0-.03-.02-.07-.04-.14-.06-.21-.01-.05-.03-.1-.05-.15-.01-.03-.02-.06-.03-.09,0-.02-.02-.05-.02-.07-.02-.06-.04-.11-.06-.17-.03-.08-.05-.16-.08-.24,1.68.51,3.31.7,4.84.37.47,1.32.89,2.72,1.29,4.18.54-1,1.01-2.03,1.41-3.08h0c1.79-4.74,2.06-9.91.76-14.81-.21-.8-.45-1.58-.73-2.36-.37-1.04-.82-2.06-1.36-3.02,0,0,0,0,0-.01h0c-.36,1.23-.99,2.51-1.9,3.76-1.69-1.37-3.07-2.96-4.07-4.83-.11-.21-.22-.43-.33-.66,2.8-.37,5.44-1.51,7.63-3.29l-7.91-4.68c1.35-.56,2.61-1.31,3.75-2.23l-14.86-5.22-7.41-7.62c-.66-.68-1.6-1.03-2.55-.94l-6.15.55-9.17-7.8-1.08-.92-4.23-3.6ZM34.39,55.79c0,.12,0,.25-.02.37,0-.12.01-.25.02-.37ZM74.28,56.33c.73.43,1.5.79,2.3,1.07.04.02.09.04.13.06-.23.23-.46.45-.71.67-.55-.62-1.12-1.22-1.72-1.8ZM34.3,57.07c0,.06,0,.13-.02.19,0,.04-.01.09-.02.13,0-.04.01-.09.02-.13,0-.06.01-.13.02-.19ZM34.18,58.05c-.08.6-.18,1.2-.3,1.8-.06.3-.13.59-.2.89-.68-.37-1.35-.78-1.98-1.23.56-.52,1.4-1.01,2.49-1.46ZM33.62,60.99c-.11.46-.23.91-.36,1.36-.1.35-.23.69-.34,1.03-.38-.21-.74-.45-1.07-.72.54-.58,1.13-1.13,1.77-1.67Z" fill="#483737" stroke="#fff" stroke-linecap="round" stroke-linejoin="round" stroke-width="6"/>
      <g>
        <g>
          <path d="M70.15,43.78c.51.95,1.12,1.85,1.82,2.67-4.36-.83-9.16-1.83-9.83-2.33-1.27-.93-1.87-10.2-1.87-10.2l.15-.19.12.17,16.91,5.94c-2.19,1.78-4.83,2.92-7.63,3.29.11.22.21.44.33.66Z" fill="#c6c6c6"/>
          <path d="M80.82,70.16c-2.05,1.15-4.34,1.05-6.73.33.9,2.45,1.12,5.09.65,7.65-1.69-2.46-3.67-4.14-6.01-4.84.1,3.91-.82,7.26-2.94,9.93-1.83-5.29-6.6-8.3-6.6-8.3-2.16,10.33-12.48,10.78-12.48,10.78,4.31-5.16,2.68-9.35,2.68-9.35-9.8,5.88-19.26,2.18-19.26,2.18,1.79-.4,3.52-1.05,5.13-1.95,4.52-2.55,6.08-6.13,6.13-6.24h0c-7.69,4.13-13.65,3.33-13.65,3.33,2.23-2.89,5.82-9.49,6.56-16.44.36-3.32.07-6.71-1.33-9.81h0c-2.14-3.84-4.26-7.69-6.36-11.56-1.35-2.5-1.76-5.4-1.15-8.17.56-2.55,1.15-4.9,1.15-4.9.43-1.64,1.11-3.21,2.02-4.65.93-1.45,2.06-2.76,3.37-3.88l4.23,3.6,1.08.92,9.17,7.8,6.15-.55c.95-.08,1.88.26,2.55.94l9.44,9.71,16.99,10.04c-2.19,1.78-4.83,2.92-7.63,3.29.11.22.21.44.33.66,1.71,3.21,4.53,5.6,8.1,7.43-2.83.32-5.69-.31-8.13-1.79,1.28,1.23,2.45,2.56,3.51,3.99,1.5,2.09,5.12,2.98,5.12,2.98-1.46.96-3.34,1.19-5.62.72.52,2.36,1.76,4.5,3.53,6.14h0Z" fill="#e2e2e2"/>
          <path d="M75.4,59.93c-.04.45-.25.87-.6,1.17.24-.47.59-1.17.6-1.17ZM78.14,61.11c-.19,3.93-12.15,7.09-26.88,7.09-7.56,0-14.4-.84-19.28-2.18.35-.86.68-1.74.96-2.63,3.3,1.82,10.26,3.07,18.32,3.07,9.81,0,20.87-2.68,23.53-5.36-.12.24-.21.41-.22.41,3.79.24,3.4-.17,3.4-.17l.16-.23Z" fill="#e2e2e2"/>
          <path d="M80.82,70.16c-2.05,1.15-4.34,1.05-6.73.33.9,2.45,1.12,5.09.65,7.65-1.69-2.46-3.67-4.14-6.01-4.84.1,3.91-.82,7.26-2.94,9.93-1.83-5.29-6.6-8.3-6.6-8.3-2.16,10.33-12.48,10.78-12.48,10.78,4.31-5.16,2.68-9.35,2.68-9.35-9.8,5.88-19.26,2.18-19.26,2.18,1.79-.4,3.52-1.05,5.13-1.95,4.52-2.55,6.08-6.13,6.13-6.24h0c-7.69,4.13-13.65,3.33-13.65,3.33,2.23-2.89,5.82-9.49,6.56-16.44.37,2.99.52,9.58-.45,12.88,6.61-.93,9.34-5,10.72-6.15-.16,2.8-.68,5.57-1.55,8.24,2.8-.98,5.31-2.63,7.33-4.81,1.37,2.68,2.09,5.65,2.1,8.66,3.4-1.54,5.56-5.44,5.07-9.14,2.73,2.14,5.19,4.61,7.31,7.36,1.11-3,1.63-6.19,1.55-9.38l4.84,4.5c-.48-2.17-.62-4.39-.42-6.6.78,1.4,2.03,2.48,3.53,3.05-.87-2.23-1.42-4.57-1.63-6.96.9.69,1.94,1.17,3.04,1.4-1.22-1.09-2.45-2.2-3.37-3.55-.92-1.35-1.5-3-1.28-4.63,1.48.87,2.96,1.75,4.45,2.62-.86-1.17-1.29-2.6-1.22-4.05,1.71,3.21,4.53,5.6,8.1,7.43-2.83.32-5.69-.31-8.13-1.79,1.28,1.23,2.45,2.56,3.51,3.99,1.5,2.09,5.12,2.98,5.12,2.98-1.46.96-3.34,1.19-5.62.72.52,2.36,1.76,4.5,3.53,6.14h0Z" isolation="isolate" opacity=".08"/>
          <path d="M66.12,39.97l10.41,6.23s-6.1.26-8.06-1.35c-1.96-1.61-2.35-4.88-2.35-4.88Z" isolation="isolate" opacity=".08"/>
          <path d="M75.4,59.93c-.04.45-.25.87-.6,1.17.24-.47.59-1.17.6-1.17Z" fill="red" isolation="isolate" opacity=".41"/>
          <path d="M78.14,61.11c-.19,3.93-12.15,7.09-26.88,7.09-7.56,0-14.4-.84-19.28-2.18-4.7-1.29-7.6-3.06-7.6-5.01,0-2.27,3.92-4.29,10.04-5.6-.02.62-.06,1.24-.13,1.85-.03.26-.06.52-.1.78-2.08.85-3.29,1.87-3.29,2.97,0,.85.73,1.66,2.04,2.38,3.3,1.82,10.26,3.07,18.32,3.07,9.81,0,20.87-2.68,23.54-5.36-.12.24-.21.41-.22.41,3.79.24,3.4-.18,3.4-.18l.16-.23Z" fill="red" isolation="isolate" opacity=".41"/>
          <path d="M65.13,59.2c-.26,9.03-3.66,15.91-11.13,20.03-7.47-4.11-10.87-11-11.13-20.03l11.13-9.2,11.13,9.2Z" fill="#f66"/>
          <path d="M53.99,50v2.45l-.9,8.6-8.36-.95-1.87-.91,11.13-9.2Z" fill="#fff" isolation="isolate" opacity=".31"/>
          <path d="M65.13,59.2c-.26,9.03-3.66,15.91-11.13,20.03v-2.45l.75-4.81,8.52-11.85,1.87-.91Z" isolation="isolate" opacity=".12"/>
          <path d="M63.26,60.11c-.22,7.51-3.05,13.24-9.27,16.67-6.22-3.42-9.05-9.15-9.27-16.67l9.26-7.66,9.27,7.66Z" fill="#a80f0f"/>
          <path d="M33.84,60.81c-4.57,3.73-6.44,8.42-8.04,14.27-.54-1-1.01-2.03-1.41-3.08-1.65-4.36-2.01-9.1-1.03-13.66.25-1.19.58-2.36,1-3.51.37-1.05.82-2.06,1.36-3.02,0,0,0,0,0-.01h0c.91,3.12,3.57,6.59,8.11,9.01h0Z" fill="#f66"/>
          <path d="M33.84,60.81l-3.27.06h-7.61c.09-.85.22-1.69.4-2.53.04-.21.09-.41.13-.6.02-.07.03-.13.05-.2.1-.41.21-.81.33-1.22.02-.08.05-.15.07-.23.13-.42.27-.84.42-1.26.37-1.05.82-2.06,1.36-3.03,0,0,0,0,0-.01h0c.91,3.12,3.57,6.59,8.11,9.01h0Z" fill="#fff" isolation="isolate" opacity=".31"/>
          <path d="M30.57,60.88c-3.38,2.77-4.97,6.81-6.18,11.13-1.35-3.54-1.84-7.36-1.43-11.13.09-.85.22-1.69.4-2.53.04-.2.09-.41.13-.6l.05-.2c.1-.41.21-.81.33-1.22.02-.08.05-.15.07-.23.13-.42.27-.84.42-1.26.81,2.26,2.89,4.27,6.21,6.04Z" fill="#a80f0f"/>
          <path d="M81.63,71.96c-.4,1.06-.87,2.09-1.41,3.08-1.6-5.85-3.47-10.54-8.04-14.27,4.54-2.42,7.2-5.89,8.11-9.02h0s0,.01,0,.02c.54.97.99,1.98,1.36,3.02.28.77.52,1.56.73,2.36,1.29,4.89,1.03,10.07-.76,14.81Z" fill="#f66"/>
          <path d="M82.39,57.15c.31,1.2.53,2.41.66,3.64l-7.6.04-3.27-.06c4.54-2.42,7.2-5.89,8.11-9.02h0s0,.01,0,.02c.54.97.99,1.98,1.36,3.03.28.77.52,1.56.73,2.36h0Z" fill="#fff" isolation="isolate" opacity=".31"/>
          <path d="M75.45,60.84c3.38,2.77,4.97,6.81,6.18,11.12,2.73-7.19,1.34-13.58.03-17.17-.81,2.26-2.89,4.27-6.21,6.04Z" fill="#a80f0f"/>
        </g>
        <path d="M46.33,30.46s4.11-.39,5.34.34c1.23.72,4.52,4.31,4.52,4.31,0,0-4.07-.03-5.35-1.16s-4.5-3.49-4.5-3.49Z" fill="red"/>
        <path d="M36.23,17.88l-5.06,1.78-1.04-.87,1.08-.35-.13-1.29-2.44,1c.93-1.45,2.07-2.76,3.37-3.88l4.23,3.6Z" isolation="isolate" opacity=".08"/>
      </g>
    </g>
  </g>
</svg>