<?xml version="1.0" encoding="UTF-8"?>
<svg xmlns="http://www.w3.org/2000/svg" width="106" height="100" viewBox="0 0 106 100">
  <g id="Hintergrund">
    <rect id="Hintergrund-2" data-name="Hintergrund" x="3" width="100" height="100" rx="6" ry="6" fill="#555556"/>
  </g>
  <g id="Solo">
    <g id="Kopfgeldjäger">
      <g>
        <path d="M53,14.28c-1.41,0-2.55,1.27-2.55,2.85v4.59c-13.32,1.21-23.95,11.84-25.16,25.16h-5.16c-1.58,0-2.85,1.14-2.85,2.55s1.27,2.55,2.85,2.55h5.16c1.21,13.32,11.85,23.95,25.16,25.16v5.74c0,1.58,1.13,2.85,2.55,2.85s2.55-1.27,2.55-2.85v-5.74c13.32-1.21,23.95-11.84,25.16-25.16h5.16c1.58,0,2.85-1.14,2.85-2.55s-1.27-2.55-2.85-2.55h-5.16c-1.21-13.32-11.85-23.95-25.16-25.16v-4.59c0-1.58-1.14-2.85-2.55-2.85Z" fill="#fff" stroke="#fff" stroke-linecap="square" stroke-linejoin="round" stroke-width="6"/>
        <path d="M45.49,53.92c-3.94,0-7.15,3.18-7.15,7.12,0,.01,0,.02,0,.03v.76c1.38,1.72,3.06,3.19,4.95,4.33v-3.29h2.55v-8.95h-.35Z" fill="#f99204" fill-rule="evenodd" stroke="#f99204" stroke-linecap="round" stroke-miterlimit="7.58" stroke-width="1.15"/>
        <path d="M47.73,54.89s1.12-1.06,1.26-1.55c.13-.5,7.63-.16,7.63-.16,0,0-.33.63.76,1.16.61.3,1.26.55,1.92.73l-7.43,4.69-4.26-4.79.13-.07Z" fill="#f8c47b"/>
        <path d="M45.02,44.88c-.01.19-.02.38-.02.57,0,5.03,3.43,9.11,7.66,9.11s7.66-4.08,7.66-9.11c0-.19,0-.38-.02-.57" fill="#f9cb8a" fill-rule="evenodd" stroke="#f9cb8a" stroke-linecap="round" stroke-linejoin="round" stroke-width=".77"/>
        <path d="M47.73,32.71c-.08,0-.15,0-.23,0-.84.05-1.44.68-1.8,1.4s-.56,1.59-.71,2.49c-.15.9-.25,1.82-.36,2.6s-.26,1.43-.36,1.63c-1.1,2.1-3.12,3.36-3.12,3.36l-1.75,1.07h26.49l-1.75-1.07s-2.02-1.26-3.11-3.36c-.11-.2-.25-.85-.36-1.63s-.21-1.7-.36-2.6-.35-1.77-.71-2.49-.95-1.34-1.8-1.4c-2.04-.29-3.41,1-5.15,1.05-1.83-.36-3.22-1.01-4.93-1.05h0Z" fill="#f99204" fill-rule="evenodd"/>
        <path d="M58.34,54.83c-1.47,1.66-3.39,2.59-5.39,2.59-1.71,0-3.37-.68-4.74-1.93v7.38h10.13v-8.04Z" fill="#f99204" fill-rule="evenodd" stroke="#f99204" stroke-linecap="round" stroke-miterlimit="7.58" stroke-width="1.15"/>
        <path d="M58.34,54.83c-1.32,1.49-2.99,2.38-4.76,2.56v5.48h4.76v-8.04Z" fill="#f38e04" fill-rule="evenodd" stroke="#f38e04" stroke-linecap="round" stroke-miterlimit="7.58" stroke-width="1.15"/>
        <path d="M60.11,53.92v8.95h2.55v3.31c1.89-1.13,3.56-2.59,4.95-4.3v-.81c0-3.94-3.18-7.15-7.13-7.15h-.38Z" fill="#f99204" fill-rule="evenodd" stroke="#f99204" stroke-linecap="round" stroke-miterlimit="7.58" stroke-width="1.15"/>
        <path d="M58.82,53.3v10.15h-11.05v-9.27l-1.62-.84v10.11h-2.26v3.05c2.79,1.55,5.93,2.36,9.12,2.37,3.17,0,6.28-.81,9.05-2.33v-3.08h-1.61v-10.12l-1.62-.03h0Z" fill="#d17a03" stroke="#d17a03" stroke-linecap="square" stroke-linejoin="round" stroke-width="1.04"/>
        <circle cx="52.98" cy="49.41" r="25.98" fill="none" stroke="#d17a03" stroke-linecap="square" stroke-linejoin="round" stroke-width="4.87"/>
        <path d="M52.98,21.58c-15.35,0-27.83,12.48-27.83,27.83s12.48,27.83,27.83,27.83,27.83-12.48,27.83-27.83-12.48-27.83-27.83-27.83h0ZM52.98,25.28c13.35,0,24.13,10.78,24.13,24.13s-10.78,24.13-24.13,24.13-24.13-10.78-24.13-24.13,10.78-24.13,24.13-24.13h0Z" fill="#212121"/>
        <g>
          <path d="M52.98,14.26h0c1.41,0,2.55,1.27,2.55,2.85v9.39c0,1.57-1.14,2.85-2.55,2.85h0c-1.41,0-2.55-1.27-2.55-2.85v-9.39c0-1.57,1.14-2.85,2.55-2.85Z" fill="#616161"/>
          <path d="M52.98,70.62h0c1.41,0,2.55,1.27,2.55,2.85v9.39c0,1.57-1.14,2.85-2.55,2.85h0c-1.41,0-2.55-1.27-2.55-2.85v-9.39c0-1.57,1.14-2.85,2.55-2.85Z" fill="#616161"/>
        </g>
        <g>
          <path d="M88.7,49.41h0c0,1.41-1.27,2.55-2.85,2.55h-9.39c-1.57,0-2.85-1.14-2.85-2.55h0c0-1.41,1.27-2.55,2.85-2.55h9.39c1.57,0,2.85,1.14,2.85,2.55Z" fill="#616161"/>
          <path d="M32.34,49.41h0c0,1.41-1.27,2.55-2.85,2.55h-9.39c-1.57,0-2.85-1.14-2.85-2.55h0c0-1.41,1.27-2.55,2.85-2.55h9.39c1.57,0,2.85,1.14,2.85,2.55Z" fill="#616161"/>
        </g>
        <path d="M76.14,49.41c0,12.79-10.37,23.16-23.16,23.16-12.79,0-23.16-10.37-23.16-23.16,0,0,0,0,0,0,0-12.79,10.37-23.16,23.16-23.16s23.16,10.37,23.16,23.16Z" fill="none" stroke="#616161" stroke-linecap="square" stroke-linejoin="round" stroke-width="2.78"/>
      </g>
    </g>
  </g>
</svg>