<?xml version="1.0" encoding="UTF-8"?>
<svg xmlns="http://www.w3.org/2000/svg" width="108.4" height="100" viewBox="0 0 108.4">
  <g id="Hintergrund">
    <rect id="Hintergrund-2" data-name="Hintergrund" x="4.2" width="100" height="100" rx="6" ry="6" fill="#555556"/>
  </g>
  <g id="Jailer">
    <path d="M34.63,18.78c-.34,0-.69.01-1.03.03l-.3.02c-.5.04-1.01.1-1.51.19l-.18.03c-.53.09-1.05.21-1.56.36-.05.01-.09.03-.14.04-.36.1-.72.22-1.07.35h-.04s-.03.03-.03.03c-.54.2-1.07.42-1.58.67h-.01c-2.66,1.29-4.94,3.24-6.64,5.66l-.03.04c-1.35,1.92-2.3,4.1-2.79,6.39l-.03.13c-.11.55-.21,1.1-.27,1.66v.07c-.07.58-.11,1.16-.12,1.74v.02c0,.59.01,1.18.06,1.77v.02c.05.57.13,1.15.23,1.72l.02.1c.17.92.41,1.82.72,2.7v.03s.07.19.07.19l.07.17h0c3.46,9.24,13.54,14.03,22.61,10.75,6.08-2.21,10.43-7.66,11.32-14.19l3.49-1.26c1.32-.49,1.99-1.96,1.5-3.27,0,0,0,0,0-.01l-.31-.85c.91.57,1.96.88,3.04.88.27,0,.54-.02.8-.07.96,1.86,2.61,3.27,4.6,3.92.04,1.12.41,2.21,1.07,3.12h-1.8c-1.41-.02-2.56,1.1-2.58,2.51,0,0,0,0,0,.01v3.64c-.05.05-.1.09-.16.14-.11.06-.22.13-.32.19-2.38,1.34-4.42,3.21-5.97,5.47-1.37,2.01-2.3,4.29-2.75,6.68l-.03.14c-.16.95-.25,1.92-.25,2.89v.06c0,3.54,1.1,7,3.14,9.9l.03.03c1.01,1.43,2.21,2.7,3.59,3.77.04.03.09.07.14.11.91.7,1.89,1.31,2.92,1.83l.06.03c.52.26,1.05.49,1.6.7h.03c.55.22,1.11.4,1.67.56h.03c.55.16,1.11.28,1.69.38l.1.02c.93.15,1.87.24,2.82.24h.2s.18,0,.18,0h0c9.87-.1,17.82-7.95,17.82-17.59,0-6.47-3.65-12.41-9.48-15.48v-3.72c0-1.4-1.15-2.52-2.58-2.52h-.91c1.64-2.26,1.39-5.38-.6-7.34.34-.75.57-1.55.67-2.36v-.02h0c.04-.31.06-.62.06-.93,0-4.38-3.55-7.93-7.93-7.93h0c-.7,0-1.39.1-2.07.28-.86.23-1.68.6-2.41,1.1-.98-.73-2.16-1.12-3.38-1.12-2.47,0-4.65,1.6-5.4,3.95l-1.38-3.82c-.46-1.33-1.91-2.03-3.24-1.57,0,0,0,0,0,0l-3.42,1.24c-.06-.03-.12-.07-.19-.1-.1-.08-.2-.17-.3-.25-1.15-.98-2.41-1.81-3.76-2.48-2.3-1.13-4.81-1.75-7.37-1.8h-.39s0,0,0,0Z" fill="#fff" stroke="#fff" stroke-linecap="round" stroke-linejoin="round" stroke-width="6"/>
    <path d="M67.93,23.31c-4.38,0-7.93,3.55-7.93,7.93h0c0,4.38,3.55,7.93,7.93,7.93s7.93-3.55,7.93-7.93c0-4.38-3.55-7.93-7.93-7.93h0ZM67.93,26c2.9,0,5.25,2.35,5.25,5.25,0,2.9-2.35,5.25-5.25,5.25s-5.25-2.35-5.25-5.25c0-2.9,2.35-5.25,5.25-5.25Z" fill="#707070"/>
    <path d="M60.07,23.58c-3.13,0-5.67,2.54-5.67,5.67h0c0,3.13,2.54,5.67,5.67,5.67,3.13,0,5.67-2.54,5.68-5.67h0c0-3.14-2.54-5.68-5.67-5.68,0,0,0,0,0,0ZM60.07,26.3c1.63,0,2.95,1.32,2.95,2.94h0c0,1.63-1.32,2.95-2.94,2.95,0,0,0,0,0,0-1.63,0-2.95-1.32-2.95-2.95h0c0-1.63,1.32-2.95,2.95-2.95h0ZM71.14,32.9c-3.13,0-5.67,2.54-5.67,5.67h0c0,3.14,2.54,5.68,5.67,5.68h0c3.13,0,5.67-2.54,5.67-5.68h0c0-3.13-2.54-5.67-5.67-5.67h0ZM71.14,35.63c1.63,0,2.95,1.32,2.95,2.94,0,1.63-1.32,2.95-2.94,2.95,0,0,0,0,0,0-1.63,0-2.95-1.32-2.95-2.95h0c0-1.63,1.32-2.95,2.95-2.95h0Z" fill="#666"/>
    <path d="M70.69,46.02c-9.94,0-18,7.88-18,17.6h0c0,9.72,8.06,17.6,18,17.6h0c9.94,0,18-7.88,18-17.6h0c0-9.72-8.06-17.6-18-17.6h0ZM70.69,53.39c5.64,0,10.22,4.58,10.22,10.22,0,5.64-4.58,10.22-10.22,10.22s-10.22-4.58-10.22-10.22c0-5.64,4.58-10.22,10.22-10.22Z" fill="#c3c3c3"/>
    <path d="M64.75,41.89h11.89c1.42,0,2.58,1.13,2.58,2.52v5.41c0,1.39-1.15,2.52-2.58,2.52h-11.89c-1.42,0-2.58-1.13-2.58-2.52v-5.41c0-1.39,1.15-2.52,2.58-2.52Z" fill="#c3c3c3"/>
    <path d="M62.21,48.03l-.04.1c-5.83,3.06-9.47,9.01-9.48,15.48,0,9.72,8.06,17.6,18,17.6.06,0,.12,0,.18,0v-7.38h-.18c-5.64,0-10.22-4.57-10.22-10.21,0-3.98,2.31-7.6,5.93-9.27l-4.2-6.3Z" fill="#b3b3b3"/>
    <circle cx="70.69" cy="47.98" r="2.05" fill="#666"/>
    <path d="M70.69,44.27h0c.57,0,1.04.47,1.04,1.04v2.75c0,.57-.47,1.04-1.04,1.04h0c-.57,0-1.04-.47-1.04-1.04v-2.75c0-.57.47-1.04,1.04-1.04Z" fill="#666"/>
    <path d="M63,49.22c-5.36,2.85-8.72,8.42-8.72,14.49,0,9.07,7.35,16.42,16.41,16.42h0c.06,0,.12,0,.18,0v-4.52c-.06,0-.12,0-.18,0-6.57,0-11.89-5.32-11.89-11.89,0-4.56,2.62-8.72,6.72-10.7l-2.52-3.79Z" fill="#b9b9b9"/>
    <ellipse cx="70.46" cy="77.51" rx="3.61" ry="3.69" fill="#c3c3c3"/>
    <circle cx="70.46" cy="77.51" r="1.05" fill="#b3b3b3"/>
    <ellipse cx="64.6" cy="50.96" rx="3.72" ry="3.8" transform="translate(-15.87 33.78) rotate(-26.22)" fill="#c3c3c3"/>
    <circle cx="64.51" cy="43.84" r=".71" fill="#b3b3b3"/>
    <circle cx="76.88" cy="43.84" r=".71" fill="#b3b3b3"/>
    <path d="M51.44,30.71c-3.39-9.35-13.54-14.24-22.68-10.93h0c-9.14,3.31-13.79,13.58-10.4,22.92h0c3.39,9.35,13.54,14.24,22.68,10.93h0c9.14-3.31,13.79-13.58,10.4-22.92h0ZM44.51,33.22c1.92,5.31-.82,11.17-6.12,13.09-5.31,1.92-11.17-.82-13.09-6.12s.82-11.17,6.12-13.09c5.31-1.92,11.17.82,13.09,6.12Z" fill="#c3c3c3"/>
    <path d="M53.29,23.71l4.05,11.18c.49,1.34-.18,2.81-1.49,3.28l-5.08,1.84c-1.31.47-2.76-.23-3.25-1.56l-4.05-11.18c-.49-1.34.18-2.81,1.49-3.28l5.08-1.84c1.31-.47,2.76.23,3.25,1.56Z" fill="#c3c3c3"/>
    <path d="M46.65,23.42h-.11c-4.87-4.44-11.7-5.84-17.78-3.64-9.14,3.31-13.8,13.58-10.4,22.93.02.06.04.11.07.17l6.94-2.52-.07-.17c-1.92-5.31.82-11.17,6.13-13.09,3.74-1.36,7.94-.42,10.74,2.41l4.49-6.09Z" fill="#b3b3b3"/>
    <circle cx="49.6" cy="31.38" r="2.05" transform="translate(-7.73 18.79) rotate(-19.93)" fill="#666"/>
    <path d="M53.09,30.11h0c.2.54-.08,1.14-.62,1.33l-2.58.94c-.54.2-1.14-.08-1.33-.62h0c-.2-.54.08-1.14.62-1.33l2.58-.94c.54-.2,1.14.08,1.33.62Z" fill="#666"/>
    <path d="M45.8,24.57c-4.5-4.07-10.89-5.33-16.6-3.26-8.52,3.09-12.93,12.5-9.84,21.03h0c.02.06.05.11.07.17l4.25-1.54c-.02-.06-.05-.11-.07-.17-2.24-6.17.95-13,7.13-15.24,4.29-1.55,9.09-.51,12.35,2.67l2.7-3.67Z" fill="#b9b9b9"/>
    <ellipse cx="21.75" cy="41.23" rx="3.69" ry="3.61" transform="translate(-12.75 9.89) rotate(-19.93)" fill="#c3c3c3"/>
    <circle cx="21.75" cy="41.23" r="1.05" transform="translate(-12.75 9.89) rotate(-19.93)" fill="#b3b3b3"/>
    <ellipse cx="44.72" cy="26.67" rx="3.8" ry="3.72" transform="translate(-5.49 40.44) rotate(-46.15)" fill="#c3c3c3"/>
    <circle cx="51.38" cy="24.15" r=".71" transform="translate(-5.16 18.96) rotate(-19.93)" fill="#b3b3b3"/>
    <circle cx="55.6" cy="35.78" r=".71" transform="translate(-8.87 21.1) rotate(-19.93)" fill="#b3b3b3"/>
    <path d="M65.86,23.59c-2.54.69-4.57,2.59-5.43,5.08v.38c0,.57.47,1.04,1.04,1.04h1.34c.42-1.86,1.82-3.34,3.65-3.88v-1.67c0-.41-.24-.77-.61-.94ZM73.1,32.04c-.25,1.63-1.25,3.04-2.71,3.82v1.05c0,.58.47,1.04,1.04,1.04h.7c2.03-1.28,3.37-3.4,3.66-5.78-.15-.08-.32-.13-.49-.13h-2.21Z" fill="#707070"/>
  </g>
</svg>
