<?xml version="1.0" encoding="UTF-8"?>
<svg xmlns="http://www.w3.org/2000/svg" width="106" height="100" viewBox="0 0 106 100">
  <g id="Hintergrund">
    <rect id="Hintergrund-2" data-name="Hintergrund" x="3" width="100" height="100" rx="6" ry="6" fill="#555556"/>
  </g>
  <g id="Werwölfe">
    <g id="Juniorwerwolf">
      <path d="M39.9,17.07s-.23,4.53.02,9.7c-.35.03-.69.1-1.01.21-.94.34-1.02.77-1.21,2.59-.16,1.53.09,3.07.74,4.47,0,0,.62.33,2.25.23.25,1.38.57,2.66.96,3.75-3.78,3.32-8.29,7.33-8.93,8.22-1.12,1.54-.29,8.15-4.07,10.96-1.2.89-3.32,2.3-5.6,3.78-3.24,2.06-5.78,3.64-5.78,3.64,0,0,.69,3.38,2.57,4.97,0,0,0,0,0,0h0c.19.24,4.46,5.5,13.67,6.95,2.25.35,4.54.37,6.79.05.78-.11,1.56-.25,2.32-.43h0s.05-.01.08-.02l.67-.15c.55-.12,1.1-.23,1.65-.32.11-.02.22-.04.32-.05h0c.08-.01.16-.02.23-.03.14-.02.28-.04.41-.06h0c.1-.01.21-.03.31-.04h0l.31-.03h.06c.19-.02.37-.03.56-.04.11,0,.23,0,.34-.01.1,0,.19,0,.28,0,.7,0,1.41.07,2.09.22.17.04.34.08.5.12.68.17,1.35.42,1.97.74h0c.38.21.73.46,1.07.75.67.58,1.26,1.28,1.76,2,.45.66.86,1.35,1.22,2.07.47.92.72,1.59.72,1.59h0s3.11-5.02,3.13-9.66c0,0,.11.02.31.08h0c.2.06.48.14.82.27.52.19,1.18.48,1.9.89h0c.24.14.49.28.74.45h0c.54.35,1.05.74,1.53,1.16,1.53,1.35,2.99,3.31,3.74,6.09h0s2.54-2.33,4.15-6.06h0c.97-2.24,1.6-4.98,1.14-8.02,0,0,.3.12.81.35h0c.5.23,1.21.58,2.02,1.02.81.44,1.72.99,2.63,1.62.91.63,1.83,1.36,2.64,2.16,0,0,.53-2.81.19-6.2h0c-.27-2.64-1.06-5.62-3.04-7.91,0,0,.26-.05.72-.08.23-.01.51-.02.84-.02,1.61.03,3.2.33,4.7.89h0c.81.3,1.67.7,2.54,1.22,0,0-.76-8.86-7.14-12.43,0,0,.19-.11.53-.34h0c.17-.11.37-.26.61-.44.24-.18.5-.39.79-.64.29-.25.6-.53.94-.85.33-.32.69-.68,1.05-1.07h0c.83-.91,1.6-1.87,2.3-2.88,0,0-2.91,0-6.02-.62-.63-.12-1.25-.27-1.87-.45-.31-.09-.61-.18-.91-.29-.29-.1-.59-.21-.87-.33h0c-.28-.12-.55-.24-.82-.38h0c-.26-.13-.51-.28-.75-.44v-.03c-.18-.52-2.93-8.9-6.22-13.67-2.22-3.15-4.72-6.11-7.45-8.83,0,0-1.55,2.22-3.16,5.26-.41-.35-.83-.46-1.42-.55-1.16-.16-4.37.1-7.45,4.87.3-2.83,1.09-5.59,2.32-8.16-1.76.95-3.2,2.4-4.12,4.18,0,0-.4-4.18-1.02-5.11-.56-.84-1.71,2.08-1.92,4.99l-.11-.13c-4.22-5-6.1-5.82-6.1-5.82h0Z" fill="#5f5358" stroke="#fff" stroke-linecap="round" stroke-linejoin="round" stroke-width="6"/>
      <g>
        <g>
          <path d="M39.9,17.07s-.91,17.79,2.81,23.07c3.71,5.27,10.47-9.05,10.47-9.05,0,0-2.95-3.2-7.17-8.2-4.22-5-6.1-5.82-6.1-5.82Z" fill="#5f5358"/>
          <path d="M79.92,59.19c4.52,5.23,2.85,14.1,2.85,14.1-3.27-3.21-8.1-5.16-8.1-5.16,1.2,8.12-5.29,14.08-5.29,14.08-2.01-7.41-9.04-8.94-9.04-8.94-.01,4.64-3.12,9.66-3.12,9.66,0,0-1.76-4.77-4.77-6.41-1.41-.75-2.98-1.12-4.57-1.09-.1,0-.19,0-.29,0-.11,0-.22,0-.34.01-.18,0-.37.02-.56.04h-.06c-.1.01-.21.02-.31.03-.1.01-.21.02-.31.03-.14.02-.28.03-.41.05-.08.01-.16.02-.23.03-.11.02-.22.03-.32.05-.55.09-1.1.2-1.65.32l-.67.15-.08.02c-.77.18-1.54.32-2.32.43-2.25.31-4.54.3-6.79-.05-9.21-1.45-13.48-6.71-13.67-6.95t0,0c-.76-1.91-1.05-3.96-.84-6,3.62-2.31,7.75-4.98,9.65-6.4,3.78-2.81,2.94-9.42,4.07-10.96.73-1,6.52-6.13,10.47-9.58,0,0,0,0,0,0,3.68-3.25,3.09-5.12,2.04-8.54-1.05-3.42-4.49-7.08-4.49-7.08,1.98.57,3.8,1.59,5.33,2.97-.03-3.2,1.33-6.91,1.96-5.98.63.93,1.02,5.11,1.02,5.11.92-1.78,2.36-3.23,4.12-4.18-1.25,2.59-2.04,5.39-2.34,8.25-.17,1.41.09,2.83.75,4.09,1.59-.35,3.25-.32,4.83.1,1.21-6.43,6.47-13.87,6.47-13.87,2.74,2.72,5.23,5.67,7.45,8.83,3.29,4.76,6.04,13.15,6.21,13.67v.03c3.81,2.49,11.25,2.51,11.25,2.51-3.15,4.52-6.22,6.21-6.22,6.21,6.38,3.58,7.14,12.44,7.14,12.44-4.65-2.79-8.8-2.01-8.8-2.01h0Z" fill="#6c5f64"/>
          <path d="M24.1,65.11c-.23.47-1.64,1.16-1.79,1.28-.15.12-.2-.67-.2-.67l-1.2-.16-.25,1.02-.8,3.01c-1.88-1.59-2.57-4.97-2.57-4.97,0,0,2.89-1.8,6.46-4.07,0,0,.59,4.1.36,4.56ZM63.59,22.86s4.96,6.56,5.57,11.27c.61,4.71-.23,7.23-.23,7.23,0,0-2.51-4.22-6.93-6.74-4.43-2.52,1.6-11.76,1.6-11.76h0Z" fill="#5f5358"/>
        </g>
        <path d="M62.32,30.18s-.98,1.03-4.63,1.71c-2.03.34-4.11.17-6.06-.5l4.62-2.03,6.07.83Z" fill="#3961a9"/>
        <path d="M50.84,27.14c3.08-4.8,6.31-5.06,7.47-4.9,1.16.16,1.65.43,2.77,2.46.94,1.66,1.38,3.57,1.24,5.48,0,0-6.03-.26-10.69,1.2l-.79-4.18v-.06Z" fill="#6287ca"/>
        <path d="M38.44,34.05s.98.52,3.71.05c1.4-.22,2.72-.79,3.84-1.66l-4.2-.53s-3.35,2.14-3.35,2.14Z" fill="#3961a9"/>
        <path d="M45.24,28.11c-2.74-1.73-5.39-1.47-6.33-1.13-.94.34-1.02.77-1.21,2.6-.16,1.53.09,3.07.74,4.47,0,0,3.91-1.34,7.56-1.61l-.07-4.08-.7-.24Z" fill="#6287ca"/>
        <path d="M51.63,31.38c-1.8,1.28-5.63,1.05-5.63,1.05-.51-1.38-.77-2.85-.76-4.32,0,0,3.8-1.46,5.6-.97.52,1.36.78,2.79.79,4.24Z" fill="#3961a9"/>
        <path d="M79.92,59.19c4.52,5.23,2.85,14.1,2.85,14.1-3.27-3.21-8.1-5.16-8.1-5.16,1.2,8.12-5.29,14.08-5.29,14.08-2-7.41-9.04-8.94-9.04-8.94-.01,4.64-3.12,9.66-3.12,9.66,0,0-1.76-4.77-4.77-6.41-1.41-.75-2.98-1.12-4.57-1.09-.1,0-.19,0-.28,0-.11,0-.23,0-.34.01-.19,0-.37.02-.56.03h-.06c-.21.02-.42.04-.63.07-.14.02-.28.03-.41.05-.19.03-.37.05-.56.09-.55.09-1.1.2-1.65.32-.22.05-.45.1-.67.15-.02,0-.05.01-.08.02-.77.18-1.54.32-2.32.43,2.26-1.24,11.44-5.84,15.88-.99,0,0,2.15-4.47.71-7.23,0,0,6.06-.5,9.79,2.18,0,0,2.14-6.61-1.24-10.78,0,0,5.56-1.91,8.59.51,0,0,.27-4.51-1.28-5.6,0,0,3.35-2.57,6.46-1.71,0,0-1.63-5.33-4.32-6.34,0,0,4.22-.97,6.01-2.76,0,0-3.36-1.7-4.35-3.84,3.8,2.49,11.24,2.51,11.24,2.51-3.15,4.52-6.22,6.21-6.22,6.21,6.38,3.58,7.14,12.43,7.14,12.43-4.65-2.79-8.8-2.01-8.8-2.01h0Z" fill="#5f5358"/>
        <path d="M44.34,52.47c0,1.84-1.49,3.34-3.34,3.34h0c-1.84,0-3.34-1.49-3.34-3.34,0-1.84,1.49-3.34,3.34-3.34s3.34,1.49,3.34,3.34Z" fill="#a1d2fa"/>
      </g>
    </g>
  </g>
</svg>