<?xml version="1.0" encoding="UTF-8"?>
<svg xmlns="http://www.w3.org/2000/svg" width="100" height="100" viewBox="0 0 100 100">
  <g id="Hintergrund">
    <rect id="Hintergrund-2" data-name="Hintergrund" x="0" width="100" height="100" rx="6" ry="6" fill="#555556"/>
  </g>
  <g id="Dorfbewohner">
    <g id="Schreihals">
      <path d="M49.97,15.46C14,15.46,14.28,49.9,14.28,49.9h2.16c-.23,1.07-.39,2.32-.43,3.83-.24,9.18,6.99,8.53,6.99,8.53,0,0,7.15,22.28,26.97,22.28s26.97-22.28,26.97-22.28c0,0,7.23.65,6.99-8.53-.04-1.51-.2-2.76-.43-3.83h2.21s.23-34.45-35.74-34.45h0Z" fill="#483e37" stroke="#fff" stroke-linecap="round" stroke-linejoin="round" stroke-width="6"/>
      <path d="M76.95,62.26s-7.15,22.28-26.97,22.28-26.97-22.28-26.97-22.28c0,0-7.23.65-6.99-8.53.24-9.18,4.67-9.44,4.67-9.44,2.52-28.66,29.29-28.84,29.29-28.84,0,0,26.77.18,29.29,28.84,0,0,4.43.25,4.67,9.44.24,9.18-6.99,8.53-6.99,8.53Z" fill="#efbf9e"/>
      <circle cx="37.14" cy="56.73" r="5.15" fill="#fff"/>
      <circle cx="37.14" cy="56.73" r="4.14" fill="#111"/>
      <circle cx="63.65" cy="56.73" r="5.15" fill="#fff"/>
      <circle cx="63.65" cy="56.73" r="4.14" fill="#111"/>
      <path d="M14.28,49.91h46.31l4.45-13.13,3.39,13.13h17.3s.23-34.45-35.75-34.45c-35.97,0-35.69,34.45-35.69,34.45Z" fill="#161414"/>
      <path d="M68.32,69.29c-.51,2.01-1.33,3.92-2.44,5.67-.33.55-.69,1.08-1.06,1.6-.45.62-.97,1.19-1.55,1.69-.32.28-.66.53-1.01.77-1.04.7-2.16,1.25-3.35,1.66-.16.06-.32.11-.49.16-.75.24-1.5.43-2.27.58h0c-.86.17-1.74.29-2.61.36-1.54.13-3.09.14-4.63.01-.14-.01-.29-.02-.43-.04-1.33-.12-2.66-.32-3.96-.62-.24-.05-.48-.11-.73-.17-.1-.02-.19-.05-.29-.07-.58-.15-1.15-.33-1.71-.51-.62-.21-1.21-.44-1.75-.67h0c-.32-.14-.64-.29-.95-.45-.11-.05-.22-.11-.32-.17-.28-.15-.55-.3-.8-.46-1.22-.73-2.3-1.65-3.22-2.73-1.9-2.29-2.39-4.72-2.62-6.37-.38-2.73.05-4.49.8-5.57.68-1.02,1.85-1.59,3.06-1.51.82.06,1.29.41,2.59.81.11.03.23.07.35.1,1.64.43,3.32.72,5.01.86.2.02.41.04.63.06,1.67.15,3.34.25,5.02.31.09,0,.17,0,.26,0,1.73.04,3.47-.02,5.2-.19.2-.02.4-.04.59-.06,1.89-.21,3.45-.52,4.78-.79.2-.04.4-.08.59-.12,2.34-.49,3.95-.79,5.52-.1.62.27,1.13.72,1.47,1.3.66,1.13.75,2.75.32,4.63h0Z" fill="#961b1b"/>
      <path d="M39.1,64.31c-.03,1.7-1.43,3.06-3.13,3.04-1.67-.03-3.01-1.37-3.04-3.04,0-.12,0-.23.02-.35.68-1.02,1.85-1.59,3.06-1.51.82.06,1.28.41,2.59.81.11.03.23.07.35.1.1.31.15.62.15.95h0Z" fill="#fff"/>
      <path d="M44.59,64.3v.02c0,1.7-1.38,3.08-3.08,3.08s-3.08-1.38-3.08-3.08c0-.36.06-.71.18-1.05.11.03.23.07.35.1,1.64.43,3.32.72,5.01.86.2.02.41.04.63.06Z" fill="#fff"/>
      <path d="M49.94,65.28c0,.32-.05.64-.15.95-.52,1.62-2.26,2.51-3.88,1.99-.94-.3-1.68-1.05-1.99-1.99-.1-.31-.15-.62-.15-.95,0-.36.06-.71.18-1.05.2.02.41.04.63.06,1.67.15,3.34.25,5.02.31.09,0,.17,0,.26,0,.05.22.07.45.07.67h0Z" fill="#fff"/>
      <path d="M55.74,65.08c0,.38-.07.76-.21,1.12-.62,1.59-2.41,2.37-3.99,1.75-1.18-.46-1.96-1.6-1.96-2.87,0-.16.01-.32.04-.48.09,0,.17,0,.26,0,1.73.04,3.47-.02,5.2-.19.2-.02.4-.04.59-.06.06.23.08.48.08.72h0Z" fill="#fff"/>
      <path d="M61.23,64.57c0,.39-.07.78-.22,1.14-.63,1.58-2.42,2.35-4.01,1.72-1.17-.47-1.94-1.6-1.94-2.87,0-.05,0-.1,0-.15.2-.02.4-.04.59-.06,1.89-.21,3.45-.52,4.78-.79.2-.04.4-.08.59-.12.14.36.21.74.21,1.12Z" fill="#fff"/>
      <path d="M66.59,63.89c0,1.7-1.38,3.08-3.08,3.08s-3.08-1.38-3.08-3.08h0c0-.11,0-.22.02-.32l.59-.12c2.34-.48,3.95-.79,5.52-.1.03.18.05.36.05.54Z" fill="#fff"/>
      <path d="M62.32,76.45l-.3.66-.34.75-.79,1.75s-.87.38-2.02.82c-.17.07-.35.14-.52.2-.7.27-1.47.55-2.18.78h0c-.86.17-1.74.29-2.61.36-1.54.13-3.09.14-4.63.01-.14-.01-.29-.02-.43-.04-1.33-.12-2.66-.32-3.96-.62-.22-.08-.45-.16-.68-.25-.11-.04-.21-.08-.32-.12-1.06-.38-2.08-.72-2.5-.8-.33-.07-.65-.16-.97-.27h0c-.32-.14-.64-.29-.95-.45-.11-.05-.22-.11-.32-.17-.28-.15-.55-.3-.8-.46l.27-2.19c.16-.28.35-.54.56-.78,1.37-1.65,3.49-2.47,5.61-2.17,4.3.51,4.07.88,6.51.41,2.44-.47,4.41-1.22,7.46-.1,1.96.72,3.03,1.61,3.54,2.15.15.15.28.32.4.5h0Z" fill="#d4180c"/>
      <path d="M63.27,78.25c-.32.28-.66.53-1.01.77-1.04.7-2.16,1.25-3.35,1.66-.16.06-.32.11-.49.16-.03-.06-.06-.13-.09-.2-.13-.33-.2-.68-.2-1.03,0-1.51,1.22-2.74,2.73-2.75,0,0,0,0,.01,0,.24,0,.49.03.73.1.14.04.27.09.4.14.53.24.97.63,1.25,1.13h0Z" fill="#fff"/>
      <path d="M65.88,74.95c-.33.55-.69,1.08-1.06,1.6-.45.62-.97,1.19-1.55,1.69-.32.28-.66.53-1.01.77-.43-.5-.66-1.13-.66-1.79,0-.09,0-.18.01-.26.03-.35.14-.7.3-1.01.7-1.34,2.36-1.86,3.71-1.16.09.05.17.1.26.15ZM39.64,77.64c0,.58-.19,1.15-.53,1.62-.11-.05-.22-.11-.32-.17-.28-.15-.55-.3-.8-.46-1.22-.73-2.3-1.65-3.22-2.73.96-1.18,2.69-1.35,3.86-.39.59.48.96,1.19,1.01,1.95,0,.06,0,.12,0,.18Z" fill="#fff"/>
      <path d="M44.25,79.47c0,.5-.14,1-.4,1.43-.01.02-.03.05-.04.07-.1-.02-.19-.05-.29-.07-.58-.15-1.15-.33-1.71-.51-.62-.21-1.21-.44-1.75-.67h0c-.32-.14-.64-.29-.95-.45-.11-.05-.22-.11-.32-.17.2-1.5,1.59-2.55,3.09-2.35,1.29.18,2.28,1.23,2.37,2.53,0,.06,0,.13,0,.2h0Z" fill="#fff"/>
      <path d="M49,81.14c0,.22-.03.44-.08.66-.14-.01-.29-.02-.43-.04-1.33-.12-2.66-.32-3.96-.62-.24-.05-.48-.11-.73-.17-.1-.02-.19-.05-.29-.07,0-.04,0-.08.01-.11.2-1.5,1.58-2.56,3.09-2.36,1.36.18,2.38,1.34,2.38,2.72h0Z" fill="#fff"/>
      <path d="M53.98,81.68s0,.04,0,.06c-.14.02-.29.03-.43.04-1.54.13-3.09.13-4.63.01-.14-.01-.29-.02-.43-.04,0-.03,0-.05,0-.08,0-1.52,1.23-2.75,2.75-2.75s2.75,1.23,2.75,2.75h0Z" fill="#fff"/>
      <path d="M58.92,80.68c-.16.06-.32.11-.49.16-.75.24-1.5.43-2.27.58h0c-.86.17-1.74.29-2.61.36-.35-1.48.56-2.95,2.04-3.3,1.44-.34,2.9.53,3.28,1.96.02.08.04.16.05.24h0Z" fill="#fff"/>
      <circle cx="65.2" cy="56.83" r="11.48" fill="#fff" isolation="isolate" opacity=".12"/>
      <path d="M53.7,55.16c-3.68-2.65-6.28-.03-6.39.08l-.42-.4s3.06-3.09,7.14-.15l-.34.47Z" fill="#515151"/>
      <path d="M66.71,45.41l-7.22,21.42c1.42.78,3,1.25,4.62,1.37l7.11-21.09-4.51-1.7ZM73.78,49.37l-6.27,18.59c-.76.17-1.54.26-2.32.28-.11,0-.21,0-.31,0l6.97-20.68c.71.53,1.36,1.14,1.93,1.82h0ZM47.23,56.52c.11,6.33-4.93,11.56-11.26,11.67,0,0-.01,0-.02,0-.11,0-.21,0-.31,0-.26,0-.52-.01-.77-.03-1.62-.12-3.2-.59-4.62-1.37-5.56-3.04-7.6-10.02-4.56-15.58,1.98-3.62,5.75-5.89,9.87-5.97.64-.01,1.28.03,1.91.13,1.61.24,3.15.82,4.51,1.7.21.14.42.29.63.45.71.53,1.36,1.14,1.93,1.82,1.7,2.01,2.65,4.55,2.69,7.19Z" fill="#fff" isolation="isolate" opacity=".12"/>
      <path d="M65.18,68.6c-6.5.11-11.85-5.06-11.96-11.56-.11-6.5,5.06-11.85,11.56-11.96,6.5-.11,11.85,5.06,11.96,11.56.1,6.49-5.07,11.85-11.56,11.97ZM64.79,45.65c-6.18.11-11.1,5.2-10.99,11.38.11,6.18,5.2,11.1,11.38,10.99s11.1-5.2,10.99-11.38c0,0,0,0,0,0-.11-6.17-5.2-11.09-11.38-10.99Z" fill="#515151"/>
      <path d="M37.53,45.37l-7.22,21.42c1.42.78,3,1.25,4.62,1.37l7.11-21.09-4.51-1.7ZM44.61,49.33l-6.27,18.59c-.76.17-1.54.26-2.32.28-.11,0-.21,0-.31,0l6.97-20.68c.71.53,1.36,1.14,1.93,1.82Z" fill="#fff" isolation="isolate" opacity=".12"/>
      <path d="M35.96,68.48c-6.5.11-11.85-5.06-11.96-11.56-.11-6.5,5.06-11.85,11.56-11.96,6.5-.11,11.85,5.06,11.96,11.56.1,6.49-5.07,11.85-11.56,11.97ZM35.56,45.53c-6.18.11-11.1,5.2-10.99,11.38.11,6.18,5.2,11.1,11.38,10.99,6.18-.11,11.1-5.2,10.99-11.38h0c-.11-6.17-5.2-11.09-11.38-10.99h0Z" fill="#515151"/>
    </g>
  </g>
</svg>