<?xml version="1.0" encoding="UTF-8"?>
<svg xmlns="http://www.w3.org/2000/svg" width="106" height="100" viewBox="0 0 106 100">
  <g id="Hintergrund">
    <rect id="Hintergrund-2" data-name="Hintergrund" x="3" width="100" height="100" rx="6" ry="6" fill="#555556"/>
  </g>
  <g id="Bürgermeister">
    <path d="M39.12,31.59c-2.94,0-3.65,6.12-3.95,12.26-.05,1.06-.09,2.13-.13,3.19,0,.07,0,.13,0,.19l-.03.65-.03.43c0,.11-.01.21-.02.32-.02.27-.05.53-.07.78h0s-.04.4-.04.4l-.06.46c0,.09-.02.19-.03.28l-.02.13-.06.4c-.01.11-.03.22-.05.33-.02.13-.04.26-.06.39h0s0,.03,0,.03l-.06.34-.07.35-.07.35-.07.33-.07.3-.08.34h0s-.03.14-.03.14l-.03.11-.09.36-.02.07-.14.44c-2.32-1.57-3.37-2-5.91-3.43,0,0,0,0,0,0,0,0-.01,0-.01,0,0,0,0,0-.01,0,0,0,0,0-.01,0h-.03s-.06-.05-.06-.05l-.07-.04c-.14-.07-.27-.14-.41-.21-1.59-.8-3.09-1.15-4.43-1.15-3.29,0-5.57,2.76-5.57,6.04-.06,1.9.72,4.01,2.64,5.91l.03.03c.16.15.32.31.49.46,6.24,5.51,23.64,5.79,32.59,5.9h.31c9.03-.12,26.11-.45,32.28-5.9,7.24-6.4.87-15.63-7.4-11.01-2.18,1.22-4.05,2.5-5.9,3.73-.12-.37-.23-.74-.33-1.12l-.07-.28c-.26-1.02-.45-2.06-.59-3.11l-.05-.34c-.07-.51-.12-1.02-.16-1.53-.05-.61-.09-1.21-.11-1.82-.29-8.41-.77-18.3-6.58-14.53-3.88,2.52-8.66,2.45-11.41,2.59-2.75-.14-7.53-.06-11.41-2.59,0,0,0,0,0,0-.17-.11-.34-.21-.52-.31-.75-.41-1.4-.6-1.97-.6h0Z" fill="#83312a" stroke="#fff" stroke-linejoin="round" stroke-width="6"/>
    <path d="M64.36,32.5c5.8-3.77,6.28,6.12,6.57,14.52.29,8.41,3,11.89,3,11.89l-20.97,3.75-20.97-3.75s2.71-3.48,3-11.89c.29-8.4.77-18.29,6.57-14.52,3.88,2.52,8.66,2.45,11.4,2.58,2.74-.13,7.53-.06,11.4-2.58Z" fill="#83312a"/>
    <path d="M32.68,57.74h40.56c-.73-1.45-1.82-4.31-2.2-8.9h-36.16c-.37,4.59-1.46,7.45-2.2,8.9" fill="#90652d"/>
    <path d="M52.96,68.38c8.94-.11,26.33-.39,32.57-5.9,7.24-6.39.87-15.63-7.39-11-7.96,4.46-11.85,9.74-25.17,9.95-13.33-.21-17.22-5.5-25.17-9.95-8.26-4.62-14.63,4.6-7.39,11,6.23,5.51,23.62,5.79,32.57,5.89" fill="#9c4036"/>
    <path d="M39.06,31.58c-3.46,0-3.84,8.45-4.08,15.44v.03c-.02.59-.06,1.19-.1,1.78h0l-.02.2c-.16,2-.52,3.98-1.09,5.91,1.45.98,2.93,1.93,4.52,2.79,1.65.89,3.43,1.68,5.43,2.3l-.09-.07s-.12-.91-.24-2.23c-.19-1.98-.41-4.86-.29-6.95.03-.58.09-1.25.18-1.95.46-3.3,1.88-8.8,6.35-8.8.26,0,.53.01.81.04.78.08,1.56.12,2.34.12,4.33,0,5.83-1.43,5.83-1.43,0,0-1.01.36-2.71.36-1.57,0-3.74-.32-6.23-1.52-1.8-.88-3.41-2.15-4.74-3.43-1.18-.44-2.31-1.01-3.38-1.69-.97-.63-1.8-.92-2.49-.92Z"/>
    <path d="M52.96,68.38c-8.94-.11-26.33-.39-32.56-5.9-5.67-5.01-2.99-12.43,2.41-12.43,1.48,0,3.15.42,4.92,1.4l.06.03h.03s0,.02.01.02h.01s.02.02.02.02h0c2.54,1.43,3.58,1.86,5.91,3.43,1.45.98,2.93,1.93,4.52,2.79,1.65.89,3.43,1.68,5.43,2.3.72.62,5.83,6.64,10.13,8.32-.3,0-.6.01-.89.01"/>
    <path d="M52.99,41.39l2.32,4.73,5.21.76-3.77,3.67.88,5.19-4.66-2.46-4.66,2.44.9-5.19-3.76-3.68,5.21-.75,2.34-4.72" fill="#fbc02d"/>
    <path d="M52.99,43.37l1.7,3.46,3.81.56-2.77,2.68.65,3.8-3.41-1.8-3.42,1.79.66-3.8-2.76-2.7,3.81-.55,1.71-3.46" fill="#fdd835"/>
    <path d="M53.58,41.36c.02.3-.21.57-.51.59s-.57-.21-.59-.51c0-.03,0-.05,0-.08.02-.3.29-.53.59-.51.27.02.49.24.51.51M45.99,46.91c0,.3-.25.55-.55.55s-.55-.25-.55-.55c0-.3.25-.55.55-.55.3,0,.55.25.55.55M48.86,55.69c0,.3-.25.55-.55.55s-.55-.25-.55-.55.25-.55.55-.55.55.25.55.55h0M58.13,55.7c0,.3-.25.55-.55.55-.3,0-.55-.25-.55-.55h0c0-.31.25-.55.55-.55.3,0,.55.25.55.55M61.03,46.84c0,.3-.25.55-.55.55s-.55-.25-.55-.55.25-.55.55-.55.55.25.55.55h0" fill="#ffa726"/>
  </g>
</svg>