<?xml version="1.0" encoding="UTF-8"?>
<svg xmlns="http://www.w3.org/2000/svg" width="108.4" height="100" viewBox="0 0 108.4">
  <g id="Hintergrund">
    <rect id="Hintergrund-2" data-name="Hintergrund" x="4.2" width="100" height="100" rx="6" ry="6" fill="#555556"/>
  </g>
  <g id="Medium">
    <path d="M53,14.29c-17.24,0-31.22,13.93-31.22,31.11,0,9.11,3.93,17.3,10.19,22.99h-.18v2.27h-1.08c-.1,0-.19.01-.29.03h0c-.08.02-.16.04-.24.07l-.05.02c-.09.04-.18.09-.26.15l-.04.03s-.04.03-.06.05l-.02.02s-.07.07-.11.11h0s-.06.08-.06.08h0c-.19.26-.3.57-.3.88v.55c0,.79.65,1.44,1.44,1.44h-.07s.28,2.8-1.64,4.24h-.14c-.29,0-.56.05-.82.13h-.08s-.79.27-.9.57h0c-.54.5-.85,1.2-.85,1.94v2.11c0,1.46,1.18,2.64,2.64,2.64h48.24c1.46,0,2.64-1.18,2.64-2.64v-2.11c0-.71-.28-1.38-.79-1.88-.23-.3-.55-.51-.92-.59-.3-.11-.62-.17-.94-.17h-.33c-.54-.47-1.22-1.57-1.45-4.24h-.07c.8,0,1.44-.65,1.44-1.44v-.55c0-.32-.11-.62-.3-.87h0s-.04-.06-.06-.08h0s-.07-.08-.11-.11l-.02-.02s-.04-.03-.06-.05l-.03-.02c-.17-.12-.36-.21-.56-.25-.04,0-.08-.02-.12-.02h-.04s-.09,0-.13,0h-.75l.05-2.3h-.49c6.48-5.88,10.17-14.22,10.16-22.97,0-17.18-13.98-31.11-31.22-31.11h0Z" fill="#fff" stroke="#fff" stroke-linejoin="round" stroke-width="6"/>
    <path d="M84.2,45.37c0,17.18-13.98,31.11-31.22,31.11s-31.22-13.93-31.22-31.11c0-17.18,13.98-31.11,31.22-31.11s31.22,13.93,31.22,31.11" fill="#b7e5ff"/>
    <path d="M74.53,68.34l-42.77.03v5.7h-1.14s.28,2.8-1.65,4.24h-.14c-1.46,0-2.64,1.18-2.64,2.64v2.11c0,1.45,1.19,2.64,2.64,2.64h48.24c1.45,0,2.64-1.19,2.64-2.64v-2.11c0-1.46-1.18-2.64-2.64-2.64h-.33c-.54-.46-1.22-1.57-1.45-4.24h-.88l.11-5.73Z" fill="#cc803d"/>
    <path d="M75.24,74.07H30.69c-.79,0-1.44-.64-1.44-1.44v-.55c0-.79.65-1.44,1.44-1.44h44.55c.79,0,1.44.65,1.44,1.44v.55c0,.79-.65,1.44-1.44,1.44" fill="#bf7839"/>
    <path d="M27.94,78.44s-.79.27-.9.57l51.91.09s-.38-.66-1.49-.7l-49.52.04Z" fill="#e69045"/>
    <path d="M71.1,45.57c0-8.56-8.11-18.05-18.13-18.05s-18.13,9.49-18.13,18.05c0,6.03,4.04,9.48,9.92,11-.15.32-.24.67-.24,1.02,0,1.3,1.06,2.36,2.36,2.36h0c.83,0,1.6-.44,2.03-1.15.42.71,1.19,1.15,2.03,1.15.83,0,1.6-.44,2.03-1.15.42.71,1.19,1.15,2.03,1.15.83,0,1.6-.44,2.03-1.15.42.71,1.19,1.15,2.03,1.15,1.3,0,2.36-1.06,2.36-2.36,0-.35-.08-.7-.24-1.02,5.89-1.52,9.92-4.97,9.92-11" fill="#f0f0f0"/>
    <path d="M52.97,27.52v31.28h0c.43.71,1.2,1.15,2.03,1.15.83,0,1.6-.44,2.03-1.15.43.72,1.2,1.15,2.03,1.15,1.3,0,2.36-1.06,2.36-2.36,0-.35-.08-.7-.23-1.02,5.89-1.52,9.92-4.97,9.92-11,0-8.56-8.11-18.05-18.13-18.05h0Z" fill="#fafafa"/>
    <path d="M53.88,55.03h1.56l-2.47-4.41-2.47,4.41h1.56l.91-.76.91.76Z" fill="#4b4b4b" stroke="#4b4b4b" stroke-linejoin="round" stroke-width="1.04"/>
    <path d="M65.18,47.15c.07,2.73-2.09,4.99-4.82,5.06-2.73.07-4.99-2.09-5.06-4.82,0-.08,0-.16,0-.24.07-2.73,2.33-4.88,5.06-4.82,2.63.06,4.75,2.18,4.82,4.82M50.65,47.15c.07,2.73-2.09,4.99-4.82,5.06-2.73.07-4.99-2.09-5.06-4.82,0-.08,0-.16,0-.24.07-2.73,2.33-4.88,5.06-4.82,2.63.06,4.75,2.18,4.82,4.82" fill="#4b4b4b"/>
    <path d="M61.27,30.07c-.87.59-2.5,2.14-2.5,2.14l1.41,2.28-1,.96M58.63,32.26l-2-.27" fill="none" stroke="#f0f0f0" stroke-linecap="round" stroke-linejoin="round" stroke-width=".76"/>
    <path d="M42.85,18.3c-16.68,13.75-18.36,34.25-11.62,44.8-1.35-.18-19.46-25.14,11.62-44.8" fill="#e3f5ff" isolation="isolate" opacity=".4"/>
    <path d="M30.69,70.63c-.53,0-.99.29-1.24.72h47.03c-.26-.44-.73-.72-1.24-.72H30.69Z" fill="#e69045"/>
  </g>
</svg>
