<?xml version="1.0" encoding="UTF-8"?>
<svg xmlns="http://www.w3.org/2000/svg" width="100" height="100" viewBox="0 0 100 100">
  <g id="Hintergrund">
    <rect id="Hintergrund-2" data-name="Hintergrund" x="0" width="100" height="100" rx="6" ry="6" fill="#555556"/>
  </g>
  <g id="Werwölfe">
    <g id="Albtraumwerwolf">
      <path d="M61.78,21.89c-8.33.01-16.06,4.36-20.4,11.47-1.04-1.18-2.08-2.37-3.09-3.57-3.01-3.56-4.36-4.15-4.36-4.15,0,0-.51,10.09,1.25,14.94-2.77,2.43-5.88,5.2-6.37,5.87-.8,1.1-.2,5.82-2.9,7.82-1.36,1.01-4.3,2.92-6.89,4.56-2.55,1.62-4.75,2.99-4.75,2.99,0,0,.85.85,2.19,1.99,2.28,1.93,5.96,4.67,9.24,5.45,1.44.34,3.16.17,4.96-.18.58-.11,1.16-.25,1.75-.4.15-.03.29-.07.43-.1.62-.15,1.22-.31,1.83-.47.47-.12.93-.24,1.38-.34l.4-.1c.51-.12,1.03-.22,1.54-.31.17-.03.34-.05.5-.08.17-.03.34-.05.5-.07.3-.03.6-.06.9-.07h0c.1,0,.2,0,.3,0,3.67.21,4.93,4.89,5.23,6.38,0,.04.01.07.02.1.02.1.04.19.05.24,0,0,0,.02,0,.03,0,0,0,.01,0,.02,0,.01,0,.02,0,.03,0,0,0,0,0,.01,0,0,0,0,0,.01,0,0,2.92-3.43,3.32-5.51-.11,1.59.35,3.17,1.29,4.46.71,1,3.12,2.93,5.57,1.67,0,0-1.99-.06-3.02-1.28-.74-.88-.88-1.9.22-2.57,1.58-.97,4,.16,4.33.59,1.69,1.58,3.32,3.16,5.87,3.21,2.56.05,2.23-2.77,4.52-2.61,2.28.16,5.31.49,5,2.03-.31,1.54-3.23,2.85-3.77,1.77-.54-1.08.46-1.77.46-1.77,0,0-2.46.08-1.54,2.46.92,2.39,2.85,1.77,4.39,1.15,1.54-.62,3.08-1.69,2.38-3.46-.69-1.77.23-3-1.38-3.77-.95-.45-2.37-1.37-3.79-1.84,1.5-.51,2.95-1.16,4.32-1.95.67-.02,1.54-.19,2.77-.19,3.19,0,5.5-2.32,5.8-4.81h0c.1-.84-.04-1.81-.37-2.72,2.5-3.87,3.83-8.38,3.83-12.98,0-13.22-10.72-23.94-23.94-23.94h0ZM78.79,62.59c-.08,1.37-1.39,2.01-2.59,2.27.92-.69,1.78-1.45,2.59-2.27ZM65.18,69.53c-.95.96-1.42,1.97-2.09,2.02-.65.05-2.67-.42-3.69-1.95.79.1,1.58.15,2.37.17,1.14,0,2.28-.08,3.4-.24Z" fill="#edc351" stroke="#fff" stroke-linecap="round" stroke-linejoin="round" stroke-width="6"/>
      <path d="M60.09,42.02h0s0,0,0,0h0s0,0,0,0Z" fill="#13131c"/>
      <path d="M60.09,42.02s0,0,0,0h0s0,0,0,0c0,0,0,0,0,0,0,0,0,0,0,0h0Z" fill="#13131c"/>
      <circle cx="61.78" cy="45.83" r="23.94" fill="#edc351"/>
      <path d="M74.14,26.43c-.53-.28-1.12-.42-1.72-.42-1.21.04-2.52,1.14-2.78,2.32-.24,1.1.48,2.47,1.45,3.06.94.58,2.37.46,3.32-.09.9-.52,1.84-1.65,1.63-2.67-.18-.91-.97-1.72-1.9-2.19ZM78.49,31.13c-.51-.27-1.12-.37-1.59-.16-.53.23-.74,1.01-.69,1.59.05.61.45,1.29,1.01,1.53.57.25,1.42.14,1.84-.32.46-.57.52-1.36.16-1.99-.19-.27-.44-.49-.74-.65h0ZM58.5,24.18c-.57-.25-1.42-.14-1.84.32-.46.57-.52,1.36-.16,1.99.45.69,1.58,1.14,2.33.81.53-.23.74-1.01.69-1.59-.05-.61-.45-1.29-1.01-1.53ZM74.75,33.07c-.29-.17-.64-.21-.96-.1-.32.14-.45.61-.42.96.03.39.26.74.61.93.38.16.81.08,1.11-.19.28-.34.31-.82.1-1.2-.11-.16-.27-.3-.44-.39ZM80.51,57.34c-.29-.17-.64-.21-.96-.1-.32.14-.45.61-.42.96.03.39.26.74.61.93.38.16.81.08,1.11-.19.28-.34.31-.82.1-1.2-.11-.16-.27-.3-.44-.39h0ZM77.38,58.51c-.57-.25-1.41-.16-1.82.27-.44.55-.49,1.32-.12,1.92.46.67,1.58,1.13,2.32.82.52-.21.71-.96.65-1.51-.07-.64-.46-1.2-1.03-1.5Z"/>
      <path d="M33.93,25.63s-.65,12.69,2,16.45c2.65,3.76,7.47-6.46,7.47-6.46,0,0-2.11-2.28-5.12-5.85-3.01-3.56-4.35-4.15-4.35-4.15h0ZM45.51,73.85l-.05-.24c.02.1.04.19.05.24Z" fill="#13131c"/>
      <path d="M70.22,66.63c.07-.02.13-.06.18-.1-.02.01-.08.05-.18.1Z" fill="#13131c"/>
      <path d="M60.08,47.84c0,.78,3.58,3.74,2.55,4.82-1.03,1.09-3.02.81-3.44,1.56-.42.75.5,2.85.19,3.87-.31,1.01-1.8,1.57-2.55,1.68-.75.11-2.03-.05-1.47,2.44.55,2.5,1.45,5.55-.14,5.55s-5.77-4.21-6.7-3.96c-.93.25-1.01,5.19-1.62,5.6-.61.42-2.83-2.54-6.99-2.27h0c-2.58.06-6.04,1.3-9.24,1.93-1.8.36-3.52.52-4.96.18-3.28-.78-6.96-3.52-9.24-5.45-1.34-1.14-2.19-1.99-2.19-1.99,0,0,2.2-1.36,4.75-2.99,2.58-1.65,5.53-3.55,6.89-4.56,2.7-2,2.1-6.72,2.9-7.82.8-1.1,10.12-9.14,10.12-9.14,3.44-2.55,6.78-1.45,6.78-1.45.87-4.59,4.62-9.89,4.62-9.89,1.95,1.94,3.73,4.05,5.31,6.3,2.35,3.4,4.31,9.38,4.43,9.75v.02s.01,0,.01,0c.16.11,2.68,1.93,3.81,2.71,1.17.81-3.82,2.33-3.82,3.11h0Z" fill="#1e1d2c"/>
      <path d="M31.6,53.83s1.73-2.97,2.81-3.45c1.09-.48,5.11-.98,5.11-.98,0,0-1.99,2.75-3.38,3.07-1.38.32-4.54,1.36-4.54,1.36Z" fill="#bc5fd3"/>
      <path d="M19.14,62.15c-.17.33-1.17.83-1.28.92-.11.09-.14-.48-.14-.48l-.86-.11-.18.73-.21.58c-1.34-1.14-2.19-1.99-2.19-1.99,0,0,2.2-1.36,4.75-2.99,0,0,.28,3,.12,3.33h0ZM60.09,42.02h0s0,0,0,0c0,0,0,0,0,0h0Z" fill="#13131c"/>
      <path d="M82.26,61.53c-.29,2.49-2.61,4.81-5.8,4.81s-4.04,1.17-4.89-2.23c-.85-3.4,3.29-3.4,4.36-2.12-4.04-.11-2.13,2.76-1.59,2.97.53.21,4.64-.04,4.46-2.66-.16-2.31-.86-3.34-4.03-3.76-5.72-.76-4.68,4.11-8.82,2.63-2.21-.79-2.72.15-2.81,1.16-.16,1.73,3.06.79,4.37,2.85.8,1.26,2.45,1.54,2.72,1.44-.45.24-1.76.76-3.46-.28-2.12-1.29-1.9.81-3.45,1.16-.83.19-2.87-.24-4.44-.94-.01.16-.03.31-.04.47-.38,3.62,3.34,4.6,4.26,4.52.92-.08,1.46-2,3.46-3.08,2-1.08,5,1.08,6.62,1.85,1.62.77.69,2,1.39,3.77.69,1.77-.85,2.85-2.38,3.46-1.54.62-3.46,1.23-4.39-1.15-.92-2.39,1.54-2.46,1.54-2.46,0,0-1,.69-.46,1.77.54,1.08,3.46-.23,3.77-1.77.31-1.54-2.72-1.87-5-2.03-2.28-.16-1.96,2.67-4.52,2.61-2.56-.05-4.19-1.63-5.87-3.21-.33-.43-2.75-1.56-4.33-.59-1.1.67-.97,1.69-.22,2.57,1.03,1.22,3.02,1.28,3.02,1.28-2.45,1.26-4.86-.67-5.57-1.67-.94-1.29-1.4-2.87-1.29-4.46-.4,2.08-3.32,5.51-3.32,5.51,0,0,0,0,0-.01,0,0,0,0,0-.01,0,0,0-.02,0-.03,0,0,0-.01,0-.02,0,0,0-.02,0-.02-.01-.08-.03-.16-.04-.24,0-.03-.01-.07-.02-.1-.31-1.49-1.57-6.21-5.28-6.39h0c-.08,0-.16,0-.25.01h0c-.23,0-.47.02-.72.04h-.01c-.34.03-.68.08-1.02.14,0,0,0,0,0,0-2.28.38-4.96,1.25-7.48,1.75,0,0,6.04-3.76,10.47-3.64.15,0,.3,0,.44.02h0c4.03.26,4.7,2.55,4.7,2.55,0,0,.85-2.82.45-4.92-.06-.37-.19-.72-.36-1.05,0,0,4.15-.36,7.46,1.75.06.04.13.08.19.13l-.03-.11c-.19-.72-1.37-4.85-3.78-6.37-.19-.12-.39-.22-.59-.31,0,0,.37-.07.98-.14,1.21-.16,2.43-.21,3.65-.16,1.11.03,2.2.25,3.23.66,0,0,.38-2.05-1.91-3.83-.09-.07-.19-.14-.29-.21-.4-.28-.82-.52-1.26-.73-.09-.04-.17-.08-.26-.12,0,0,.07-.02.21-.05.85-.21,4.14-.9,7.17.03,0,0-1.67-2.68-4.04-4.28-.23-.16-.47-.3-.72-.44-.39-.21-.79-.38-1.21-.51,0,0,.48-.08,1.21-.23.13-.03.27-.05.42-.09,1.68-.35,4.21-.98,5.27-1.72-.49-.51-.92-1.09-1.26-1.71-.28-.5-.52-1.02-.71-1.55t0,0s0,0,0,0c0,0,.01,0,.02.02,0,0,.01,0,.02.01.94.63,2.02,1.03,3.14,1.18.92.08,1.83.21,2.74.41,0,0,0,0,.01,0,.1.02.2.04.3.07,5.12,1.31,11.19,1.55,10.9-2.76-.14-2.11-2.62-3.26-3.85-3.46-1.44-.24-4.78,3.01-2.08,3.85,2.69.85,2.62-.47,3.24-1.24-.31,1.61.65,3.48-4.66,2.55-5.31-.92-1.49-4.75-.49-6.29,1-1.54,4.74-1.23,7.07-.94,3.11.39,3.73,4.43,2.62,7.14-.5,1.21-2.23,4.69-6.31,4-4.08-.69-8.15.23-8.92.92-.22.17-.47.31-.74.4,1.07.51,1.77,1.23,1.83,2.19.18,2.94,6.17,3.25,5.68.86-.51-2.51-3.4-.14-3.4-.14,0,0,.05-1.64,1.22-2.07,1.16-.43,3.8-.55,3.92,1.84.18,3.69-3.89,3.97-5.31,4.39-1.47.44-2.52-.13-4.02-.49,1.19,4.41,3.75,1.34,7.5,1.63,4.86.37,5.73-.72,7.12-.75,3.11-.07,4.93,3.62,4.63,6.18h0ZM50.83,29.76s3.54,4.68,3.97,8.04c.43,3.36-.16,5.16-.16,5.16,0,0-1.79-3.01-4.95-4.81-3.16-1.8,1.14-8.39,1.14-8.39h0Z" fill="#13131c"/>
      <path d="M60.09,42.03s0,0,0,0h0s0,0,0,0c0,0,0,0,0,0,0,0,0,0,0,0h0Z" fill="#13131c"/>
    </g>
  </g>
</svg>