<?xml version="1.0" encoding="UTF-8"?>
<svg xmlns="http://www.w3.org/2000/svg" width="108.4" height="100" viewBox="0 0 108.4">
  <g id="Hintergrund">
    <rect id="Hintergrund-2" data-name="Hintergrund" x="4.2" width="100" height="100" rx="6" ry="6" fill="#555556"/>
  </g>
  <g id="Werwölfe">
    <g id="Partywolf">
      <path d="M84.98,47.34h0s0,0,0,0c0,0-6.19-.44-9.21-2.73,0,0,0-.01,0-.02-.11-.44-1.92-7.58-4.39-11.73-1.67-2.75-3.58-5.35-5.7-7.77,0,0-2.43,2.99-4.33,6.62-.26-.43-.53-.86-.8-1.3,0,0,0,0,0,0h0c-.68-1.09-1.36-2.18-2.06-3.27h0c-.64-1-1.29-1.99-1.94-2.97h0c-.71-1.07-1.44-2.13-2.19-3.17h0s0,0,0,0c-.03-.04-.05-.07-.08-.11.66.32,1.44.52,1.76-.12.59-1.15-2.02-2.07-2.02-2.07,0,0,2.68.21,2.46-1.32-.15-1.56-2.91.1-2.91.1,0,0,2.02-2.44.86-2.99-1.16-.58-2.1,2.29-2.1,2.29,0,0,.23-3.07-.92-3-1.05.06-.35,2.94-.35,2.94h0s-1.87-1.87-2.68-.94c-.81.93,1.7,2.44,1.7,2.44,0,0-2.82-.13-2.61,1.13.22,1.54,2.98.19,2.98.19,0,0-2.4,2.01-1.07,2.9.29.15.55.16.78.08-.32.73-.66,1.54-1.02,2.4h0,0c-.62,1.5-1.21,3-1.81,4.51-3.58-3.35-5.09-3.83-5.09-3.83,0,0,.37,6.8,1.71,12.45-.02.04-.03.08-.05.12-.8,2.09-1.32,3.5-1.32,3.5,0,.26.61.63,1.61,1.01.08.03.16.06.24.09-2.62,2.03-5.07,3.98-5.52,4.51-1.02,1.22-.7,6.77-4.01,8.89-1.67,1.07-3.61,2.11-6.76,3.82-1.58.86-3.04,1.64-4.1,2.21-.23.12-.44.23-.62.33-.66.35-1.05.56-1.05.56,0,0,.68,1.84,2.15,3.27,2.31,2.76,5.19,6.11,8.95,7.28,1.65.51,3.67.46,5.8.18,2.69-.34,5.56-1.03,8.08-1.35-.3.2-.54.43-.68.68-.31.56-.22,1.21.21,1.57.53.44,1.44.49,2.47.15.09-.03.04.11-.21.59-1.37,2.72-1.41,5.4-.12,7.74.4.72.62.83,1,.52.27-.22.26-.39-.08-.99-.63-1.1-.87-2.15-.79-3.5.06-1.01.21-1.71.54-2.48l.18-.43-.02.73c-.1,2.99,1.05,5.53,3.45,7.66h0c.62.55.94.61,1.18.24.19-.3.11-.46-.5-1-1.97-1.76-2.99-3.78-3.11-6.19-.01-.35,0-.7.04-1.05l.07-.54.14.31c.24.5.75,1.06,1.26,1.37.44.27.49.28,1.07.34.72.06.98-.02,1.47-.47.35-.33.53-.68.59-1.17,1.07,2.4.72,4.18.72,4.18,0,0,3.84-5.5,4.12-9.36,0,0,7.78,4.8,4.29,14.62,0,0,10.55-8.76,7.94-18.08,0,0,5.91,3.41,6.29,7.33h0s.45-1.32.62-3.27c.29-3.25-.19-8.23-4.78-11.73.02,0,6.67-.52,9.96,2.71,0,0,0,0,0,0,0,0,0,0,0,0,0,0-1.09-8-8.25-10.97.04,0,5.68-1.03,8.54-4.6ZM49.98,73.35c-.27.18-.72.41-.99.52h0c-.39.15-.57.19-.91.17-.5-.03-.58-.06-.56-.26.02-.23.4-.54.85-.72.5-.19,1.35-.25,1.8-.12l.3.08-.5.32ZM54.38,76.78c-.08.13-.2.24-.33.31h0c-.41.2-1.1-.01-1.57-.49-.27-.27-.57-.84-.68-1.28-.12-.48-.15-1.23-.06-1.64l.07-.31.23.1c.42.19.95.56,1.43.98.97.86,1.3,1.69.92,2.32Z" fill="#726564" stroke="#fff" stroke-linejoin="round" stroke-width="6"/>
      <g>
        <path id="path97371" d="M42.26,25.58s.81,14.84,4.35,18.89c3.55,4.05,7.89-8.43,7.89-8.43,0,0-2.73-2.4-6.67-6.17-3.94-3.77-5.57-4.29-5.57-4.29Z" fill="#726564"/>
        <path id="path97391" d="M78.88,75.21c-.38-3.92-6.29-7.33-6.29-7.33,2.61,9.32-7.94,18.08-7.94,18.08,3.49-9.83-4.29-14.62-4.29-14.62-.28,3.86-4.12,9.36-4.12,9.36,0,0,.67-3.37-2.64-7.11-2.39-2.7-8.74-.49-14.33.22-2.13.27-4.15.33-5.8-.18-3.77-1.17-6.64-4.52-8.95-7.28-1.47-1.43-2.15-3.27-2.15-3.27,0,0,2.68-1.42,5.78-3.1,3.15-1.71,5.09-2.75,6.76-3.82,3.31-2.12,2.99-7.67,4.01-8.89,1.02-1.22,12.54-9.85,12.54-9.85,4.22-2.7,8.02-1.14,8.02-1.14,1.38-5.28,6.18-11.17,6.18-11.17,2.12,2.42,4.03,5.02,5.7,7.77,2.47,4.15,4.28,11.29,4.39,11.73,0,0,0,.01,0,.02,3.02,2.29,9.21,2.73,9.21,2.73-2.88,3.58-8.55,4.6-8.55,4.6,7.16,2.96,8.25,10.97,8.25,10.97-3.29-3.23-9.96-2.71-9.96-2.71,7.34,5.61,4.16,15,4.16,15h0s0,0,0,0Z" fill="#726564"/>
        <path id="path97431" d="M28.03,63.87c-.22.37-1.43.87-1.57.96-.13.1-.12-.57-.12-.57l-.99-.2-.27.84-.55,1.44c-1.47-1.43-2.15-3.27-2.15-3.27,0,0,2.68-1.42,5.78-3.1,0,0,.09,3.53-.13,3.9h0Z" fill="#393337"/>
        <path id="path97451" d="M78.88,75.21c-.38-3.92-6.29-7.33-6.29-7.33,2.61,9.32-7.94,18.08-7.94,18.08,3.49-9.83-4.29-14.62-4.29-14.62-.28,3.86-4.12,9.36-4.12,9.36,0,0,.67-3.37-2.64-7.11-2.39-2.7-8.74-.49-14.33.22,0,0,7.35-3.9,12.5-3.41,5.16.49,5.79,3.41,5.79,3.41,0,0,1.71-4.5.58-6.96,0,0,5.07-.09,8.78,2.8,0,0-1.11-6.55-4.58-8.27,0,0,5.87-.69,9.13,1.05,0,0,.89-3.44-3.94-6,0,0,4.6-.99,8.61.56,0,0-2.72-5.14-6.55-6.57,0,0,6.18-.59,8.21-1.82-.95-1.16-1.65-2.52-2.04-3.97,3.02,2.29,9.21,2.73,9.21,2.73-2.88,3.58-8.55,4.6-8.55,4.6,7.16,2.96,8.25,10.97,8.25,10.97-3.29-3.23-9.96-2.71-9.96-2.71,7.34,5.61,4.16,15,4.16,15h0Z" fill="#685c5c"/>
        <path id="path97471" d="M65.95,29.57s3.75,5.74,3.99,9.7-.61,6-.61,6c0,0-1.85-3.65-5.39-6.01-3.54-2.35,2-9.7,2-9.7Z" fill="#ecb8b8"/>
        <path id="path53011" d="M47.51,53.27c-1.71.12-3,1.46-2.89,3,.11,1.53,1.38-.57,3.09-.69,1.71-.12,3.2,1.78,3.09.25-.11-1.53-1.58-2.67-3.29-2.55h0s0,0,0,0Z" fill="#292528"/>
        <path id="path66521" d="M50.94,73.02c-.03-.16-.09-.9-.07-.91.01,0,.23-.04.48-.08,3.17-.49,5.63-3.95,7.07-9.92.59-2.48.87-4.32,1.19-7.86.41-4.58.49-8.81.25-13.85,0-.12.94-.21.99-.1.06.13.16,3.44.17,5.51,0,5.39-.42,10.67-1.21,14.7-1.02,5.27-2.7,8.96-4.97,10.91-1.01.87-2.07,1.4-3.23,1.61-.57.1-.64.1-.67,0h0Z" fill="#f59fe1"/>
        <path id="path36391" d="M64.59,37.19c-3.82,1.14-6.36,3.97-8.95,6.72,5.35-.66,10.29-3.41,10.3-3.96,0-.24-.52-1.28-1.34-2.76h0Z" fill="#f1b074"/>
        <path id="path39161" d="M62.64,33.84c-4.64,2.92-9.1,6.16-13.22,10.01,1.73.22,3.63.3,5.5.14.24-.02.48-.05.72-.08l8.95-6.72c-.54-.95-1.21-2.1-1.95-3.35h0Z" fill="#fff"/>
        <path id="path39141" d="M60.54,30.4c-5.8,3.22-11.11,7.63-16.33,12.26,1.24.46,3.09.93,5.2,1.19l13.22-10.01c-.65-1.09-1.36-2.25-2.1-3.44Z" fill="#59cbff"/>
        <path id="path39121" d="M58.48,27.13c-5.3,2.57-9.93,6.8-14.56,11.02-.8,2.09-1.32,3.5-1.32,3.5,0,.26.61.63,1.61,1.01l16.33-12.26c-.68-1.09-1.36-2.18-2.06-3.27h0Z" fill="#fff"/>
        <path id="path39101" d="M46.43,31.68c-.85,2.16-1.68,4.32-2.51,6.48l14.56-11.02c-.64-1-1.29-1.99-1.94-2.97-3.63,1.46-6.91,4.35-10.11,7.52h0Z" fill="#f59fe1"/>
        <path id="path39081" d="M54.36,20.99c-1.1-1.51-1.9-2.45-2.14-2.39-.37.09-1.6,2.8-3.06,6.3,2.1-.24,3.99-1.12,5.2-3.91h0Z" fill="#f1b074"/>
        <path id="path39061" d="M54.36,20.99l-5.2,3.91c-.93,2.25-1.84,4.51-2.73,6.78l10.11-7.52c-.71-1.07-1.44-2.13-2.19-3.17h0Z" fill="#fff"/>
        <path id="path40601" d="M51.07,16.71s-.7-2.89.35-2.94c1.15-.06.92,3,.92,3,0,0,.95-2.87,2.1-2.29,1.16.55-.86,2.99-.86,2.99,0,0,2.76-1.65,2.91-.1.22,1.54-2.46,1.32-2.46,1.32,0,0,2.61.92,2.02,2.07-.62,1.21-2.87-.57-2.87-.57,0,0,.87,2.6-.36,2.68-1.17.25-1.24-2.49-1.24-2.49,0,0-.73,2.82-2.18,2.05-1.33-.88,1.07-2.9,1.07-2.9,0,0-2.76,1.35-2.98-.19-.21-1.26,2.61-1.13,2.61-1.13,0,0-2.52-1.5-1.7-2.44s2.68.94,2.68.94h0s0,0,0,0Z" fill="#749bf1"/>
        <path id="path65731" d="M53.31,84.69c-2.4-2.13-3.54-4.67-3.45-7.66l.02-.73-.18.43c-.33.77-.48,1.47-.54,2.48-.08,1.36.15,2.4.79,3.5.34.59.35.76.08.99-.38.32-.6.2-1-.52-1.29-2.34-1.24-5.01.12-7.74.24-.49.29-.62.21-.59-1.02.35-1.94.29-2.47-.15-.43-.36-.52-1.01-.21-1.57.32-.58,1.24-1.12,2.17-1.26.55-.08,1.71.05,2.37.27.31.1.71.23.89.29.74.22,1.92,1.06,2.58,1.84.64.76.91,1.43.84,2.15-.05.54-.23.92-.61,1.27-.49.45-.74.54-1.47.47-.57-.05-.63-.07-1.07-.34-.51-.31-1.02-.87-1.26-1.37l-.14-.31-.07.54c-.04.35-.05.7-.04,1.05.12,2.41,1.13,4.43,3.11,6.19.61.54.69.71.5,1-.24.38-.56.31-1.18-.24h0ZM54.04,77.1c.13-.08.25-.18.33-.31.37-.63.05-1.46-.92-2.32-.47-.42-1-.78-1.43-.98l-.23-.1-.07.31c-.09.41-.06,1.16.06,1.64.11.44.41,1.01.68,1.28.47.48,1.16.69,1.57.49h0ZM49,73.87c.27-.1.71-.34.99-.52l.5-.32-.3-.08c-.45-.13-1.3-.07-1.8.12-.46.18-.83.49-.85.72-.02.2.06.23.56.26.34.02.52-.02.91-.17h0s0,0,0,0Z" fill="#749bf1"/>
      </g>
    </g>
  </g>
</svg>
