<?xml version="1.0" encoding="UTF-8"?>
<svg xmlns="http://www.w3.org/2000/svg" width="108.4" height="100" viewBox="0 0 108.4">
  <g id="Hintergrund">
    <rect id="Hintergrund-2" data-name="Hintergrund" x="4.2" width="100" height="100" rx="6" ry="6" fill="#555556"/>
  </g>
  <g id="Priester">
    <path d="M69.57,85.72c-1.64-8.28-2.26-16.9-1.92-21.54l14.04-19.94-1.09-.9.66-.9c1.02-.38,2.4-1.13,3.09-2.03.92-1.06,1.35-1.65,2.9-4.11.68-.88-.12-2.19-1.07-1.92.36-.95-.55-2.08-1.5-1.63.57-.93-.29-2.2-1.26-1.9l2.88-3.85c.7-.87-.09-2.09-1-2.04h0c-.3.02-.61.18-.88.54-2.76,3.54-7.85,7.69-7.78,10.48-.47.61-.41,1.46-.52,2.65,0,.09,0,.19,0,.28l-.33.46-1.48-1.22-11.53,12.42c-1.19-1.02-2.78-1.45-4.33-1.16-.99-.41-1.96-.83-2.94-1.28,5.39-3.22,8.73-9.21,8.74-15.72,0-.17,0-.33-.02-.5,3.21.73,6.4-1.28,7.13-4.48.73-3.21-1.28-6.4-4.48-7.13-1.23-.28-2.51-.16-3.67.33-.04-1.63-1.39-2.92-3.02-2.88-.76.02-1.49.33-2.03.88-3.07-2.77-7.06-4.31-11.2-4.32-4.31.02-8.46,1.7-11.57,4.69-1.09-1.2-2.95-1.29-4.15-.19-.57.52-.91,1.24-.95,2-3.1-1.1-6.51.52-7.61,3.62-1.1,3.1.52,6.51,3.62,7.61,1.09.39,2.27.45,3.4.18,0,.07,0,.14-.01.21.01,6.36,3.2,12.25,8.4,15.51-.68.8-1.43,1.52-1.53,1.62-.48-.12-.97-.22-1.46-.32-1.94-.34-4.26.91-6.54,2.85-.57-.6-1.25-1.09-2.01-1.44l-2.49.7-.43-.48.4,5.99c-1.04,1.29-2.01,2.64-2.91,4.03-1.04,1.3-2.86,3.76-2.6,6.01.24,2.06,3.96,9.77,5.98,13.83-.12,1.68-.32,3.35-.59,5.02h45.65Z" fill="#f8c47b" stroke="#fff" stroke-linecap="round" stroke-linejoin="round" stroke-width="6"/>
    <path d="M36.46,49.55s2.25-2.12,2.52-3.12c.27-.99,15.32-.33,15.32-.33,0,0-1.9.51.29,1.57s5.08,2.21,5.08,2.21l-14.92,9.41-8.55-9.61.27-.13Z" fill="#f8c47b"/>
    <ellipse cx="46.93" cy="32.36" rx="17.28" ry="18.11" fill="#f9cb8a"/>
    <path d="M85.25,24.92c-.3.02-.61.18-.88.54-2.76,3.54-7.85,7.69-7.78,10.48-.46.62-.41,1.47-.52,2.65,0,.09,0,.19,0,.28l-2.7,3.8,3.67,3.18,2.03-.5,2.16-2.94c1.02-.38,2.4-1.14,3.09-2.03.92-1.06,1.35-1.64,2.9-4.11.69-.88-.12-2.19-1.07-1.92.35-.95-.55-2.08-1.51-1.63.57-.93-.29-2.21-1.26-1.9l2.88-3.85c.7-.87-.1-2.09-1-2.04h0Z" fill="#f9cb8a" fill-rule="evenodd"/>
    <path d="M52.03,51.28h-8.79v4.79h8.79v-4.79M57.28,20.64c0-1.63,1.32-2.95,2.95-2.95s2.95,1.32,2.95,2.95-1.32,2.95-2.95,2.95-2.95-1.32-2.95-2.95" fill="#fff"/>
    <path d="M59.56,26.05c0-3.29,2.66-5.96,5.95-5.97,3.29,0,5.96,2.66,5.97,5.95v.02c0,3.29-2.68,5.96-5.97,5.95-3.29,0-5.95-2.67-5.95-5.95" fill="#fff"/>
    <path d="M65.19,29.6c-1.65.02-3-1.3-3.01-2.95,0-.05,0-.11,0-.16.06-1.32,1.18-2.35,2.51-2.29.52.02.99.25,1.34.63.35.38.53.88.5,1.4-.04.86-.77,1.53-1.64,1.5-.7-.03-1.25-.63-1.21-1.33.03-.57.51-1.01,1.08-.99.47.02.83.42.81.88-.02.38-.34.68-.73.66-.32-.01-.56-.28-.55-.59,0,0,0,0,0,0h.18c0,.22.16.41.38.42,0,0,0,0,0,0,.14.01.27-.04.37-.13.1-.09.16-.22.17-.36.02-.37-.27-.68-.64-.7-.23-.01-.45.07-.62.22-.17.15-.27.37-.28.59-.03.6.44,1.11,1.04,1.14.76.04,1.41-.55,1.45-1.32,0,0,0,0,0,0,.04-.97-.71-1.79-1.68-1.83-.03,0-.07,0-.1,0-1.19,0-2.16.93-2.22,2.12-.07,1.54,1.13,2.85,2.67,2.92,1.94.08,3.58-1.42,3.67-3.36h.18c-.04.99-.47,1.91-1.2,2.57-.68.62-1.57.97-2.49.97" fill="#96978e"/>
    <path d="M30.25,20.94c0-1.63,1.32-2.95,2.95-2.95s2.95,1.32,2.95,2.95-1.32,2.95-2.95,2.95-2.95-1.32-2.95-2.95" fill="#fff"/>
    <path d="M22.3,26.36c0-3.29,2.67-5.96,5.96-5.96s5.96,2.67,5.96,5.96-2.67,5.96-5.96,5.96-5.96-2.67-5.96-5.96" fill="#fff"/>
    <path d="M28.05,29.91c-.92,0-1.81-.34-2.49-.97-.73-.66-1.16-1.58-1.2-2.57h.18c.04.93.45,1.81,1.14,2.43.7.63,1.6.96,2.53.92,1.54-.07,2.74-1.38,2.67-2.92-.06-1.22-1.09-2.17-2.32-2.12-.97.04-1.72.87-1.68,1.84.03.76.67,1.36,1.45,1.32.6-.03,1.07-.54,1.04-1.14,0-.23-.11-.44-.28-.59-.17-.16-.39-.24-.62-.22-.37.02-.65.33-.64.7,0,.28.25.5.53.49,0,0,0,0,.01,0,.22,0,.38-.19.38-.41,0,0,0,0,0,0h.18c.02.31-.23.58-.54.59,0,0,0,0,0,0-.38.02-.71-.28-.73-.66-.02-.47.34-.86.81-.88.27-.01.54.09.75.27.2.19.32.44.34.72.03.7-.51,1.3-1.21,1.33h-.07c-.84,0-1.53-.66-1.57-1.5-.02-.51.16-1.02.51-1.39.35-.38.83-.61,1.34-.63,1.32-.06,2.44.97,2.51,2.29.07,1.64-1.2,3.03-2.84,3.11-.06,0-.11,0-.17,0" fill="#96978e"/>
    <path d="M63.94,51.96c-1.62-2.7-4.33-2.96-5.87-2.52s-1.7.52-7.67,1.33l-.23,4.7h-6.6l-.06-4.69c-5.15-.17-3.66-.67-8.45-1.61-6.22-1.08-16.4,14.12-16.14,16.24-.13,1.41,3.85,5.88,5.87,10.92-.14,1.45-.35,6.21-.9,9.36-.02-.02,30.05-.02,45.64,0-1.64-8.3-2.27-16.94-1.91-21.58,0,0-2.05-9.45-3.67-12.15h0ZM25.83,68.96c.07.22.14.45.21.72,0,0-.09-.33-.21-.72Z" fill="#161717"/>
    <path d="M55.29,60.5l-1.78-3.01c-8.28-1.68-13.11.2-20.35.51-2.29-2.96-4.28-6.43-6.65-7.41l-2.72.76,7.96,9.61,23.54-.46Z" fill="#f4e159"/>
    <path d="M32.31,82.83l22.08,1.28,1.22-24.1h-23.81l-8.2-9.21,1.1,16.66,7.61,15.37" fill="#8a4924"/>
    <path d="M33.9,60.02v22.81h-1.59l-.51-22.81h2.1" fill="#703c1f"/>
    <path d="M28.77,71.43l-3.01,11.81s-6.93-13.57-7.26-16.4c-.33-2.84,2.67-6.03,3.2-6.79l7.08,11.38Z" fill="#161717"/>
    <path d="M24.42,76.46c0-3.43,1.27-6.22,2.84-6.22s2.85,2.78,2.85,6.22-1.27,6.22-2.85,6.22-2.84-2.78-2.84-6.22" fill="#28292a"/>
    <path d="M27.97,71.61s6.22-3.51,5.52,0c0,0,4.11,0,3.81,3.01-.3,3.01-1.5,8.56-5.96,6.63s-6.21-6.34-3.37-9.64" fill="#f9cb8a"/>
    <path d="M55.23,33.2l-5.43.88.17,1.07,5.43-.88-.17-1.07M38.25,33.13l5.43.88-.17,1.07-5.43-.88.17-1.07" fill="#78402a" fill-rule="evenodd"/>
    <path d="M52.38,37.98c.79,0,1.44-.63,1.44-1.43,0-.8-.65-1.44-1.44-1.44-.79,0-1.44.65-1.44,1.44s.65,1.43,1.44,1.43M41.44,37.98c.79,0,1.44-.63,1.44-1.43,0-.8-.65-1.44-1.44-1.44-.79,0-1.42.65-1.42,1.44s.63,1.43,1.42,1.43" fill="#464648" fill-rule="evenodd"/>
    <path d="M65.23,67.52l16.42-23.32-7.39-6.1-12.08,13.02,3.05,16.41Z" fill="#161717"/>
  </g>
</svg>
