<?xml version="1.0" encoding="UTF-8"?>
<svg xmlns="http://www.w3.org/2000/svg" width="108.4" height="100" viewBox="0 0 108.4">
  <g id="Hintergrund">
    <rect id="Hintergrund-2" data-name="Hintergrund" x="4.2" width="100" height="100" rx="6" ry="6" fill="#555556"/>
  </g>
  <g id="Kürbiskönig">
    <path d="M81.24,49.12c-2.14-3.5-5.24-6.55-9.17-7.94,1.76-4.29,3.15-8.76,4.87-13.08.4-.61,2.04-.53,2.51-2.32.83-3.21-3.38-3.2-3.75-.34-.09.72.24,1.23.21,1.68-.03.61-.8.81-1.19,1.18-2.3,2.17-5.19,5.83-7.96,7.1v-9.46c4.77-4.02-3.15-6.32-1.57-.4l-6.88,6.97c-.06-.11-.41-.28-.61-.71-.63-1.37-4.59-12.39-4.42-13.06.12-.47.8-1.03.87-1.8.31-3.54-4.39-3.71-3.56.53.13.65.93,1.08.67,1.87-1.79,4.1-2.74,9.27-4.78,13.18l-6.88-6.74c-.42-.92.71-2.05-.71-3.38-1.88-1.75-3.52,1.22-1.93,2.89.33.35,1.03.41,1.09.65.18.7-.24,1.63-.26,2.36-.07,2.36.07,4.75,0,7.11-2.71-1.25-6.17-5.42-8.45-7.59-.2-.19-.66-.32-.7-.39-.18-.3.84-2.3-.63-3.58-3.03-2.63-4.35,3.55-.62,3.99,1.82,4.57,3.87,9.31,5.08,14.07-3.35,1.41-5.59,4.01-7.48,6.98-7.14,11.22-5.09,27.16,7.56,33.5,3.96,1.98,5.59,1.31,9.44,1.9,3.23.49,4.41,1.63,8.46,1.43,2.24-.11,2.84-.11,5.08,0,4.05.2,5.22-.93,8.46-1.43,2.9-.44,4.43.1,7.59-1.1,13.89-5.28,16.98-22.1,9.66-34.05Z" fill="#f54950" stroke="#fff" stroke-miterlimit="10" stroke-width="6"/>
    <path d="M81.24,49.12c-.43.16-.04.75.06,1.02,2.38,6.3,3.1,11.57,1.21,18.18-1.51,5.25-5.53,10.88-10.86,12.76-.56.2-2.51.93-2.7.15-.1-.43,2.63-7.07,2.99-8.28,2.26-7.54,2.45-15.43-2.17-22.14l1.33,5.77c-5.03-.63-9.07,2.99-14,3.01,2.01,5.47,11.43,5.19,14,.36.4,1.33.3,3.16.24,4.57-1.51,1.34-6.56,5.48-8.51,5.01-.45-.11-2.07-1.4-2.24-1.39l-1.95,3.35c-.88-.22-1.47-1.03-2.41-1.17-1.08-.17-4.94-.18-6.03-.03-.91.12-1.85,1.02-2.65,1.45-.57-.43-1.51-2.97-1.97-3.1-.73-.21-1.82,1.14-2.49,1.32-1.27.35-7.39-3.69-8.46-4.95-.07-1.68.05-3.38,0-5.05,2.07,4.25,10.57,4.93,13.52,1.08.29-.38,1.14-1.46.36-1.56-4.51-.59-9.6-3.42-13.64-2.89.05-1.5,1.41-4.16,1.45-5.41,0-.21-.45-.16-.48-.12-.11.1-1.16,2.29-1.32,2.65-2.88,6.4-2.46,12.66-.49,19.24.36,1.22,3.11,7.86,3,8.29-.18.77-2.16.04-2.71-.16-6.71-2.37-10.85-10-11.73-16.7-.73-5.52.52-10.37,2.39-15.49,1.89-2.97,4.14-5.57,7.48-6.98.9.73.79,1.88,1.85,2.61,1.19.83,5.08,2.12,6.6,2.56,8.9,2.58,19.77,2.1,28.17-2,2.37-1.16,2.06-1.66,2.98-3.89,3.94,1.39,7.03,4.44,9.17,7.94Z" fill="#fc7826"/>
    <path d="M25,48.88c-1.87,5.13-3.12,9.97-2.39,15.49.89,6.7,5.03,14.33,11.73,16.7.55.2,2.53.93,2.71.16.1-.43-2.64-7.07-3-8.29-1.97-6.58-2.39-12.84.49-19.24.16-.37,1.22-2.55,1.32-2.65.03-.03.49-.09.48.12-.04,1.25-1.41,3.91-1.45,5.41-.18.02-.59.41-.97.24-.12.11.62,2.91.73,3.13.05,1.68-.07,3.38,0,5.05.09,2.14.58,2.7,1.21,4.57-.43.35-.28.55.24.48.02.15-.03.33,0,.48.93,4.93,4.49,11.6,10.29,12.25,1.32.15,3.38.15,4.57-.45.59-.3,1.79-1.74,2.13-1.68.48.08,1.48,1.92,3.66,2.15,5.83.6,9.41-2.88,11.75-7.78.85-1.78,1.91-4.24,1.89-6.18.64-1.64.89-2.56.97-4.33.06-1.41.16-3.24-.24-4.57.5-.94.8-1.95.97-3,0-.05-.91-.36-.97-.37l-1.33-5.77c4.62,6.71,4.43,14.6,2.17,22.14-.36,1.21-3.09,7.86-2.99,8.28.19.78,2.14.04,2.7-.15,5.33-1.88,9.35-7.51,10.86-12.76,1.89-6.6,1.17-11.88-1.21-18.18-.1-.27-.49-.86-.06-1.02,7.32,11.95,4.23,28.77-9.66,34.05-3.16,1.2-4.69.66-7.59,1.1-3.24.49-4.41,1.63-8.46,1.43-2.24-.11-2.84-.11-5.08,0-4.05.2-5.23-.93-8.46-1.43-3.86-.59-5.48.09-9.44-1.9-12.65-6.34-14.7-22.28-7.56-33.5Z" fill="#eb6417"/>
    <path d="M34.89,56.58c4.04-.53,9.13,2.3,13.64,2.89.77.1-.07,1.18-.36,1.56-2.95,3.84-11.45,3.17-13.52-1.08-.11-.22-.84-3.02-.73-3.13.38.17.79-.22.97-.24Z" fill="#541009"/>
    <path d="M71.11,56.58c.06,0,.96.32.97.37-.17,1.05-.47,2.06-.97,3-2.57,4.83-11.99,5.11-14-.36,4.94-.02,8.97-3.65,14-3.01Z" fill="#541009"/>
    <path d="M36.1,70.54c.74.44,1.27,2.4,2.1,2.62.72.18,1.48-1.07,2.2-.65.28.16,1.59,3.21,1.74,3.32.48.34,3.2-1.97,3.74-2.39h.35c.69,1.21,1.69,2.96,3.08,3.3,1.97.48,6.45.55,8.25-.31.89-.43,2.04-2.83,2.59-2.97.71-.18,3.47,2.48,3.94,2.14l1.71-3.59c.62-.32,2.1,1.14,2.39.94.82-1.4,1.58-2.56,2.18-4.09.02,1.94-1.04,4.4-1.89,6.18-2.34,4.9-5.91,8.37-11.75,7.78-2.18-.22-3.18-2.06-3.66-2.15-.34-.06-1.54,1.38-2.13,1.68-1.19.59-3.25.59-4.57.45-5.8-.65-9.35-7.32-10.29-12.25Z" fill="#fc7826"/>
    <path d="M70.38,68.85c-.6,1.53-1.36,2.69-2.18,4.09-.29.2-1.77-1.26-2.39-.94l-1.71,3.59c-.47.34-3.22-2.33-3.94-2.14-.55.14-1.71,2.55-2.59,2.97-1.81.87-6.29.79-8.25.31-1.39-.34-2.39-2.09-3.08-3.31h-.35c-.54.42-3.26,2.73-3.74,2.39-.15-.11-1.46-3.15-1.74-3.32-.72-.42-1.48.83-2.2.65-.83-.21-1.36-2.17-2.1-2.62-.03-.15.02-.33,0-.48-.02-.13-.19-.32-.24-.48-.63-1.87-1.11-2.43-1.21-4.57,1.06,1.26,7.19,5.3,8.46,4.95.67-.19,1.76-1.54,2.49-1.32.46.13,1.4,2.68,1.97,3.1.8-.43,1.74-1.33,2.65-1.45,1.09-.15,4.95-.14,6.03.03.93.14,1.52.95,2.41,1.17l1.95-3.35c.17-.01,1.79,1.28,2.24,1.39,1.95.48,6.99-3.66,8.51-5.01-.08,1.77-.33,2.69-.97,4.33Z" fill="#541009"/>
    <path d="M36.1,70.06c-.52.07-.67-.13-.24-.48.05.16.22.35.24.48Z" fill="#fc7826"/>
    <path d="M58.31,32.51c.05.1-.03.44.14.7,1.81,2.76,5.31,3.56,8.31,2.19,2.78-1.27,5.67-4.93,7.96-7.1.4-.37,1.16-.57,1.19-1.18.02-.45-.31-.96-.21-1.68.36-2.86,4.58-2.87,3.75.34-.46,1.79-2.11,1.72-2.51,2.32-1.72,4.32-3.1,8.78-4.87,13.08-.92,2.23-.6,2.73-2.98,3.89-8.39,4.1-19.27,4.58-28.17,2-1.53-.44-5.41-1.74-6.6-2.56-1.05-.73-.95-1.88-1.85-2.61-1.21-4.76-3.26-9.5-5.08-14.07-3.73-.43-2.41-6.62.62-3.99,1.47,1.27.45,3.27.63,3.58.04.06.5.2.7.39,2.28,2.18,5.73,6.34,8.45,7.59,3.39,1.56,6.99.36,8.69-2.89,2.05-3.91,3-9.08,4.78-13.18.26-.79-.54-1.22-.67-1.87-.83-4.24,3.86-4.07,3.56-.53-.07.77-.75,1.33-.87,1.8-.17.67,3.79,11.69,4.42,13.06.2.43.55.6.61.71ZM52.24,33.76h-.65s-3.85,5.89-3.85,5.89l4.06,6.34c.14.11.34.03.5-.15.42-.46,4.02-5.9,4.05-6.27l-4.11-5.81Z" fill="#f8be16"/>
    <path d="M58.31,32.51l6.88-6.97c-1.58-5.92,6.34-3.61,1.57.4v9.46c-2.99,1.37-6.49.57-8.31-2.19-.17-.26-.08-.6-.14-.7Z" fill="#cd9a24"/>
    <path d="M46.48,32.51c-1.71,3.25-5.3,4.45-8.69,2.89.06-2.36-.08-4.74,0-7.11.02-.73.44-1.66.26-2.36-.06-.24-.76-.3-1.09-.65-1.58-1.67.06-4.64,1.93-2.89,1.42,1.32.29,2.46.71,3.38l6.88,6.74Z" fill="#cd9a24"/>
    <path d="M52.24,33.76h-.65s-3.85,5.89-3.85,5.89l4.06,6.34c.14.11.34.03.5-.15.42-.46,4.02-5.9,4.05-6.27l-4.11-5.81Z" fill="#e5811a"/>
    <path d="M51.91,35.4l-2.98,4.41c.84,1.07,3.18,4.31,3.18,4.31l2.99-4.51-3.19-4.21Z" fill="#a7110a"/>
    <path d="M51.79,43.58c.23-1.57-.42-3.55-2.18-3.73,1.86-.38,2.22-2.32,2.3-3.97.34,1.73.52,3.86,2.78,3.73-1.27.27-1.92.73-2.37,1.98-.25.71-.17,1.44-.53,1.99Z" fill="#f54950"/>
  </g>
</svg>
