<?xml version="1.0" encoding="UTF-8"?>
<svg xmlns="http://www.w3.org/2000/svg" width="106" height="100" viewBox="0 0 106 100">
  <g id="Hintergrund">
    <rect id="Hintergrund-2" data-name="Hintergrund" x="3" width="100" height="100" rx="6" ry="6" fill="#555556"/>
  </g>
  <g id="Rote_Dame" data-name="Rote Dame">
    <path d="M42.99,26.1c-1.77.05-3.52.39-5.17,1.02-3.57,1.31-6.12,3.52-10.95,12.69-4.83,9.18-9.59,9.73-9.59,9.73.45.25.91.47,1.37.67,10.92,5.91,15.55,23.36,34.35,23.69,18.8-.33,23.43-17.78,34.35-23.69.46-.19.91-.41,1.37-.67,0,0-4.76-.55-9.59-9.73-4.83-9.18-7.38-11.38-10.95-12.69-4.86-1.78-10.32-1.54-15.18,3.25-3.19-3.15-6.64-4.33-10.01-4.27Z" fill="#fff" stroke="#fff" stroke-linecap="round" stroke-linejoin="round" stroke-width="6"/>
    <path d="M42.92,38.16l-17.27,11.13s.88,6.24.88,7.03,20.59,6.15,20.59,6.15l5.85-1.03,5.85,1.03s20.58-5.37,20.58-6.15.88-7.03.88-7.03l-17.27-11.12-10.05.2-10.05-.2Z" fill="#500"/>
    <path d="M29.95,48.7l-4.29.59-8.4.23c11.94,5.12,16.15,24.01,35.72,24.36,19.57-.34,23.78-19.24,35.72-24.36l-8.4-.23-4.29-.58s-5.37,9.36-23.03,9.36-23.03-9.36-23.03-9.36h0Z" fill="#c0142c"/>
    <path d="M52.97,33.1l-7.66.57-2.9,8.9s-7.95,1.86,9.81,1.92c1.03,0,.59-3.49.75-5.24.16,1.74-.39,5.17.61,5.17,5.24-.23,11.38-.16,11.38-.16l-4.32-10.59-7.66-.57Z" fill="#fff"/>
    <path d="M42.97,26.08c-1.77.05-3.52.4-5.17,1.02-3.57,1.31-6.12,3.52-10.95,12.69-4.83,9.17-9.59,9.73-9.59,9.73,4.97,2.76,10.07,1.86,17.66-1.1,7.58-2.96,12.2-7.99,18.06-8,5.86.01,10.48,5.04,18.06,8,7.59,2.97,12.7,3.86,17.66,1.1,0,0-4.76-.55-9.59-9.73-4.83-9.18-7.38-11.38-10.95-12.69-4.86-1.78-10.31-1.54-15.18,3.25-3.19-3.15-6.64-4.33-10.01-4.27h0Z" fill="#e71c38"/>
    <path d="M65.44,27.82c-6.73-1.46-8.78,1.95-7.12,3.71,1.66,1.76,8.42,2,14.44,8.2,3.64,3.75,3.32-9.17-7.32-11.9h0Z" fill="#f15d71"/>
    <path d="M40.48,61.31c9.09,2.55,21.13,2.25,27.64-1.23,4.86-2.61.85,7.55-13.26,7.98-11.9.36-18.56-7.92-14.38-6.75h0Z" fill="#e71c38"/>
    <path d="M43.24,27.57c-5.61.03-7.51,1.97-6.19,2.66,1.32.69,7.01.04,11.79,2.46,2.89,1.46,3.25-4.96-5.6-5.12Z" fill="#f15d71"/>
  </g>
</svg>