<?xml version="1.0" encoding="UTF-8"?>
<svg xmlns="http://www.w3.org/2000/svg" width="108.4" height="100" viewBox="0 0 108.4">
  <g id="Hintergrund">
    <rect id="Hintergrund-2" data-name="Hintergrund" x="4.2" width="100" height="100" rx="6" ry="6" fill="#555556"/>
  </g>
  <g id="Weihnachtsmann">
    <path d="M84.36,21.37c0-3.92-3.18-7.09-7.1-7.09-3.53,0-6.46,2.57-7.01,5.95-.94-.07-1.84-.12-2.73-.22-7.42-.81-17.55-3.51-24.35.4-2.31,1.33-4.59,3.77-6.23,5.86-1.95,2.47-3.59,5.2-4.87,8.07-3.53,1.78-5.4,5.95-4.11,9.78.04.12.31.65.37.68-1.02,1.53-2.34,2.82-3.39,4.32-2.88,4.14-5.53,11.77-.43,15.28-.09,1.17-.32,2.35-.4,3.52-.17,2.35.83,4.95,2.19,6.85,2.37,3.3,6.7,4.82,10.68,4.53,3.72,5.19,10.65,7.51,16.83,5.94,3.61-.92,6.74-2.93,8.95-5.93.42.07.85.08,1.28.06,5.65-.22,10.1-3.47,11.39-9.06.46-1.99-.08-3.9-.21-5.9,4.51-3.04,2.88-9.46.69-13.47-1.32-2.42-3.26-4.31-4.84-6.54.28-.65.45-2.57.41-3.3-.13-2.55-1.63-5.23-3.88-6.48-.8-1.98-1.83-3.87-2.92-5.7,2.76-.1,5.42-.9,7.93-2.16,0,0,0,0,0,0,1.24,1.07,2.86,1.72,4.63,1.72,3.92,0,7.1-3.18,7.1-7.09Z" fill="#e8e9ea" stroke="#fff" stroke-miterlimit="10" stroke-width="6"/>
    <g>
      <path d="M71.09,44.39c1.57,2.23,3.52,4.12,4.84,6.54,2.19,4.01,3.81,10.43-.69,13.47.13,2,.67,3.91.21,5.9-1.29,5.59-5.74,8.84-11.39,9.06-.43.02-.85,0-1.28-.06-2.21,3.01-5.34,5.01-8.95,5.93-6.18,1.58-13.11-.75-16.83-5.94-3.98.29-8.32-1.23-10.68-4.53-1.36-1.9-2.35-4.5-2.19-6.85.08-1.17.31-2.35.4-3.52-5.1-3.51-2.45-11.13.43-15.28,1.05-1.51,2.37-2.8,3.39-4.32.02.01.45.07.51.07.39,0,2.39-.83,2.96-1.02,0,.14-.06.27-.07.41-.19,2.76.21,6.56,1.29,9.1,1.51,3.55,4.29,4.48,8.02,4.14,1.11-.1,2.23-.34,3.33-.54.02.02.04.05.07.07.78.75,1.75,1.21,2.79,1.49,1.63.45,2.79.46,4.42,0,1.04-.29,2.05-.74,2.79-1.56.02,0,.05,0,.07,0,.48.19,1.49.26,2.04.34,3.49.49,6.59.5,8.7-2.72,1.78-2.72,2.03-7.34,1.9-10.52,0-.09,0-.18,0-.27.15.05.34.08.51.13.64.21,1.97.89,2.52.95.35.04.76-.14.91-.47ZM46.89,62.25c1.23,1.63,3.3,1.65,4.62.14.13-.15.24-.2.37-.41.37-.59.73-1.44.59-2.14l-6.36-.3c-.15,1.04.17,1.91.78,2.72Z" fill="#e7e8e9"/>
      <path d="M67.62,34.61c2.25,1.26,3.75,3.93,3.88,6.48.04.73-.13,2.65-.41,3.3-.15.33-.56.51-.91.47-.55-.06-1.89-.73-2.52-.95-.17-.06-.36-.09-.51-.13-11.4-3.79-23.96-3.73-35.34.07-.57.19-2.57,1.01-2.96,1.02-.06,0-.48-.06-.51-.07-.06-.03-.33-.56-.37-.68-1.28-3.82.58-8,4.11-9.78,1.2-.6,2.95-1.06,4.27-1.41,8.64-2.27,17.82-2.28,26.47,0,1.56.41,3.41.9,4.81,1.68Z" fill="#eef3f3"/>
      <path d="M70.26,20.23c-.4,2.44.5,4.91,2.37,6.52-2.51,1.26-5.17,2.06-7.93,2.16,1.1,1.83,2.12,3.72,2.92,5.7-1.4-.78-3.25-1.27-4.81-1.68-8.64-2.28-17.82-2.27-26.47,0-1.32.35-3.07.8-4.27,1.41,1.28-2.88,2.91-5.6,4.87-8.07,1.65-2.09,3.92-4.53,6.23-5.86,6.81-3.92,16.93-1.21,24.35-.4.89.1,1.78.15,2.73.22Z" fill="#ec3926"/>
      <ellipse cx="77.26" cy="21.37" rx="7.1" ry="7.09" fill="#f1f2f0"/>
      <path d="M67.14,44.05c.13,3.18-.13,7.81-1.9,10.52-.55-.48-1.5-.77-2.22-.87-2.67-.4-5.48,1.06-6.48,3.59-.55-.08-1.56-.15-2.04-.34,2.17-2.28,1.45-5.28-1.15-6.83-2.35-1.39-5.62-1.38-7.95.07-2.49,1.55-3.18,4.56-1.02,6.75-1.1.21-2.22.44-3.33.54-.53-3.65-4.7-5.74-8.02-4.14-1.08-2.54-1.48-6.34-1.29-9.1l7.34-.81c-1.33.48-3.11,2.12-1.56,3.43s5.17.7,6.39-.89c.98-1.28-.02-2.49-1.36-2.82-.04-.21.1-.13.23-.14,6.14-.26,12.06-.57,18.22.07,2.06.21,4.11.61,6.15.95ZM57.34,43.05c-3.29.25-3.53,2.93-.55,4.11,1.36.53,3.11.66,4.41-.11s1-2.03-.01-2.86-2.62-1.23-3.85-1.14ZM40.3,51.99c.28-.59.96-.65,1.52-.4.19.09.24.4.42-.01.32-.72.05-2.51-.85-2.75-1.26-.34-1.6,1.46-1.49,2.37.02.14.22.91.4.79ZM56.88,51.93c.09.07.35-.26.45-.33.49-.3,1.11-.16,1.48.26.65-.82.25-3.13-1.02-3.06-1.16.06-1.46,2.3-.92,3.13Z" fill="#faba9f"/>
      <g>
        <path d="M67.14,43.78c0,.09,0,.18,0,.27-2.04-.34-4.09-.74-6.15-.95-6.15-.64-12.08-.33-18.22-.07-.13,0-.27-.07-.23.14-.91-.22-2.58-.05-3.47.27l-7.34.81c0-.14.06-.27.07-.41,11.38-3.8,23.94-3.86,35.34-.07Z" fill="#f8b09e"/>
        <path d="M41.05,57.5c-3.73.34-6.51-.59-8.02-4.14,3.32-1.6,7.49.49,8.02,4.14Z" fill="#f8b09e"/>
        <path d="M65.24,54.58c-2.1,3.22-5.21,3.2-8.7,2.72,1-2.53,3.81-3.99,6.48-3.59.72.11,1.67.39,2.22.87Z" fill="#f8b09e"/>
      </g>
      <path d="M51.51,62.38c-1.19-1.35-3.4-1.52-4.62-.14-.61-.81-.93-1.68-.78-2.72l6.36.3c.15.69-.22,1.55-.59,2.14-.13.21-.24.26-.37.41Z" fill="#802f28"/>
      <path d="M51.51,62.38c-1.32,1.51-3.39,1.5-4.62-.14,1.22-1.38,3.43-1.21,4.62.14Z" fill="#ec3926"/>
      <g>
        <path d="M57.34,43.05c1.23-.1,2.89.34,3.85,1.14s1.27,2.12.01,2.86-3.05.64-4.41.11c-2.98-1.17-2.75-3.85.55-4.11Z" fill="#fefefe"/>
        <path d="M42.54,43.17c1.34.32,2.34,1.54,1.36,2.82-1.22,1.59-4.83,2.21-6.39.89s.24-2.95,1.56-3.43c.88-.32,2.56-.49,3.47-.27Z" fill="#fefefe"/>
      </g>
      <g>
        <path d="M56.88,51.93c-.54-.82-.24-3.06.92-3.13,1.27-.07,1.67,2.24,1.02,3.06-.37-.42-1-.56-1.48-.26-.11.07-.36.39-.45.33Z" fill="#65382e"/>
        <path d="M40.3,51.99c-.18.13-.38-.65-.4-.79-.11-.91.23-2.71,1.49-2.37.89.24,1.16,2.03.85,2.75-.18.41-.23.1-.42.01-.56-.26-1.24-.2-1.52.4Z" fill="#65382e"/>
      </g>
      <path d="M54.5,56.95s-.05,0-.07,0c-.07-.04-.24-.27-.41-.37-1.5-.86-2.51.5-2.37,1.93-1.63.46-2.79.45-4.42,0,.07-1.17-.48-2.41-1.85-2.16-.27.05-.87.35-.93.66-.02-.02-.05-.04-.07-.07-2.16-2.19-1.46-5.2,1.02-6.75,2.32-1.45,5.6-1.47,7.95-.07,2.6,1.54,3.32,4.55,1.15,6.83ZM48.91,49.5c-1.07.15-2.44,1.17-1.07,2.05.79.5,2.06.55,2.94.23,1.3-.47,1.38-1.54.07-2.07-.59-.24-1.31-.29-1.94-.2Z" fill="#fe9499"/>
      <g>
        <path d="M47.23,58.51c-1.04-.29-2-.74-2.79-1.49.06-.31.66-.61.93-.66,1.37-.26,1.93.99,1.85,2.16Z" fill="#f68a97"/>
        <path d="M54.44,56.95c-.73.82-1.74,1.27-2.79,1.56-.14-1.43.88-2.79,2.37-1.93.18.1.34.33.41.37Z" fill="#f68a97"/>
      </g>
      <path d="M48.91,49.5c.63-.08,1.35-.03,1.94.2,1.31.53,1.24,1.6-.07,2.07-.87.32-2.14.28-2.94-.23-1.37-.87,0-1.9,1.07-2.05Z" fill="#feb4b8"/>
    </g>
  </g>
</svg>
