<?xml version="1.0" encoding="UTF-8"?>
<svg xmlns="http://www.w3.org/2000/svg" width="100" height="100" viewBox="0 0 100 100">
  <g id="Hintergrund">
    <rect id="Hintergrund-2" data-name="Hintergrund" x="0" width="100" height="100" rx="6" ry="6" fill="#555556"/>
  </g>
  <g id="Dorfbewohner">
    <g id="Seher">
      <path d="M54.09,27.23c-.31,0-.59.2-.7.48-.98,2.32-1.35,4.18-6.09,7.48-2.43.06-4.89.42-7.37,1.13,2.56-2.69,2.89-4.47,3.33-6.04.15-.4-.06-.85-.47-.99s-.85.06-.99.47c-.01.03-.02.07-.03.1-.59,2.06-.6,3.52-4.81,7.13-.14.12-.23.27-.26.45-7.81,3.19-15.56,9.99-22.43,21.64l.23-.17c23.57,27.48,58.94,8.03,64.08-5.45l.34.25c-.23-.35-.47-.7-.72-1.05.09,0,.18-.02.26-.05,4.45-1.63,5.94-3.02,7.14-4.6.28-.32.25-.81-.07-1.09-.32-.28-.81-.25-1.09.07-.02.03-.05.06-.07.09-1.3,1.7-2.52,2.72-6.42,4.07-.24.06-.42.24-.5.47-1.02-1.37-2.11-2.69-3.27-3.94,4.32-2.16,5.23-4.02,6.21-5.57.26-.34.19-.83-.15-1.09-.34-.26-.83-.19-1.09.15-.03.04-.05.07-.07.11-1.09,1.74-1.54,3.1-6.03,5.23-1.84-1.84-3.84-3.51-5.97-4.99,4.07-2.1,4.97-3.91,5.92-5.43.26-.34.18-.83-.16-1.09s-.83-.18-1.09.16c-.02.03-.05.07-.07.11-1.1,1.75-1.55,3.12-6.11,5.27-1.87-1.18-3.85-2.18-5.9-3.01,3.51-2.57,4.12-4.44,4.83-6.04.2-.38.05-.85-.33-1.04s-.85-.05-1.04.33c-.01.03-.03.06-.04.08-.83,1.87-1.08,3.28-5.18,6.02-2.62-.9-5.35-1.44-8.12-1.62,3.51-2.84,4.19-5,5-6.92.17-.39,0-.85-.4-1.02-.1-.04-.21-.07-.32-.06h0Z" fill="#fff" fill-rule="evenodd" stroke="#fff" stroke-linecap="round" stroke-linejoin="round" stroke-width="6"/>
      <path d="M42.48,29.3c-.34.01-.63.24-.72.57-.59,2.06-.6,3.52-4.8,7.12-.32.28-.36.77-.08,1.09.28.32.77.36,1.09.08,4.38-3.75,4.74-5.97,5.28-7.87.12-.41-.11-.84-.52-.96-.08-.02-.16-.03-.25-.03h0ZM54.06,27.25c-.31,0-.59.2-.7.48-.99,2.35-1.35,4.23-6.3,7.62-.36.23-.46.71-.23,1.07.23.36.71.46,1.07.23.01,0,.02-.01.03-.02,5.16-3.53,5.91-6.07,6.85-8.3.17-.39,0-.85-.4-1.02-.1-.04-.21-.07-.32-.06h0ZM63.79,30.39c-.31,0-.59.18-.71.47-.87,1.96-1.08,3.4-5.75,6.39-.37.21-.5.69-.29,1.06.21.37.69.5,1.06.29.02-.01.04-.03.06-.04,4.86-3.11,5.52-5.25,6.33-7.06.18-.39,0-.85-.38-1.03-.1-.05-.21-.07-.32-.07ZM72.29,34.89c-.25.01-.49.15-.62.37-1.14,1.81-1.56,3.21-6.6,5.5-.4.16-.59.61-.43,1.01.16.4.61.59,1.01.43.02,0,.04-.02.06-.03,5.25-2.38,6.22-4.41,7.27-6.08.23-.36.13-.84-.23-1.07-.14-.09-.3-.13-.46-.12ZM79.66,40.9c-.25.01-.49.15-.62.37-1.14,1.81-1.56,3.21-6.6,5.5-.4.16-.59.61-.44,1,.16.4.61.59,1,.44.02,0,.05-.02.07-.03,5.25-2.38,6.22-4.41,7.27-6.08.23-.36.13-.84-.23-1.07-.14-.09-.3-.13-.46-.12ZM84.98,46.74c-.25,0-.5.11-.65.31-1.3,1.7-2.51,2.72-6.41,4.07-1,.32-.48,1.83.51,1.46,4.45-1.62,5.93-3.02,7.13-4.59.26-.34.21-.82-.13-1.09-.13-.1-.28-.16-.45-.16Z" fill="#4e4e4e" fill-rule="evenodd"/>
      <g>
        <circle cx="46.22" cy="53.95" r="13.96" fill="#51baa7"/>
        <circle cx="46.22" cy="53.95" r="11.06" fill="#5bcfa7"/>
        <path d="M46.12,53.66c-.06.27-.4.06-.45-.09-.16-.41.27-.78.64-.82.67-.07,1.17.56,1.18,1.19,0,.92-.86,1.58-1.74,1.54-1.17-.05-1.99-1.16-1.9-2.28.11-1.41,1.46-2.39,2.83-2.26,1.66.16,2.8,1.76,2.62,3.38-.21,1.91-2.06,3.22-3.93,2.99-2.16-.27-3.63-2.36-3.35-4.47.32-2.4,2.66-4.04,5.02-3.71,2.65.37,4.45,2.96,4.07,5.57-.42,2.9-3.26,4.86-6.12,4.43-3.15-.47-5.27-3.56-4.79-6.66.52-3.39,3.86-5.68,7.21-5.15,3.64.57,6.1,4.16,5.52,7.76-.63,3.89-4.46,6.51-8.31,5.88-4.14-.68-6.92-4.76-6.24-8.85.73-4.38,5.06-7.33,9.4-6.6,2.32.39,4.4,1.77,5.68,3.73" fill="none" stroke="#21544a" stroke-linecap="round" stroke-linejoin="round" stroke-width="1.39"/>
      </g>
      <path d="M14.47,58.83c8.04,3.42,35.77,14.98,64.08-5.4-5.12,13.49-40.53,32.96-64.08,5.4Z" fill="#e09465" fill-rule="evenodd"/>
      <path d="M14.29,59.06c9.25-6.79,31.2-29.56,64.6-5.37-13.21-20.1-43.23-30.88-64.6,5.37h0Z" fill="#e09465" fill-rule="evenodd"/>
    </g>
  </g>
</svg>