<?xml version="1.0" encoding="UTF-8"?>
<svg xmlns="http://www.w3.org/2000/svg" width="106" height="100" viewBox="0 0 106 100">
  <g id="Hintergrund">
    <rect id="Hintergrund-2" data-name="Hintergrund" x="3" width="100" height="100" rx="6" ry="6" fill="#555556"/>
  </g>
  <g id="Solokiller">
    <g id="Serienmörder">
      <path d="M53,85.72c16.19,0,29.58-31.54,29.58-47.64,0-3.07-.47-6.04-1.34-8.82-4.5-9.52-18.61-14.97-28.23-14.97s-24.67,5.83-28.39,15.55c-.76,2.62-1.18,5.38-1.18,8.24,0,16.1,13.39,47.64,29.57,47.64" fill="#d4d8dd" stroke="#fff" stroke-miterlimit="15.12" stroke-width="6"/>
      <path d="M53,85.72c16.18,0,29.58-31.54,29.58-47.64,0-3.07-.47-6.04-1.35-8.83-4.5-9.52-18.61-14.97-28.23-14.97s-24.68,5.83-28.4,15.56c-.78,2.68-1.18,5.45-1.18,8.24,0,16.1,13.39,47.64,29.58,47.64" fill="#d4d8dd"/>
      <path d="M44.01,15.57c-8.24,2.22-16.71,7.22-19.41,14.26-.78,2.68-1.18,5.45-1.18,8.24,0,12.36,7.89,33.81,18.88,43.12-10.71-17.65-17.19-47.49,1.71-65.62Z" fill="#dce0e5"/>
      <path d="M53.42,56.02c5.18,0,9.38,5.11,9.38,11.42s-4.2,11.42-9.38,11.42-9.39-5.11-9.39-11.42,4.2-11.42,9.39-11.42" fill="#b9bcc0"/>
      <path d="M61.99,15.57c8.24,2.22,16.71,7.22,19.41,14.26.76,2.62,1.18,5.38,1.18,8.24,0,12.36-7.89,33.81-18.88,43.12,10.71-17.65,17.19-47.49-1.71-65.62h0Z" fill="#cfd3d8"/>
      <path d="M38.13,58.57c1.06-.04,1.96.79,1.99,1.85.04,1.06-.79,1.96-1.85,1.99-.05,0-.1,0-.15,0-1.06,0-1.92-.86-1.92-1.93,0-1.06.86-1.92,1.93-1.92M33.58,51.53c0-1.06.86-1.92,1.93-1.92,1.06,0,1.92.86,1.92,1.93h0c-.04,1.06-.94,1.89-2,1.85-1-.04-1.81-.84-1.85-1.85M70.5,53.45c-1.06,0-1.92-.86-1.92-1.92s.86-1.92,1.92-1.92,1.92.86,1.92,1.92-.86,1.92-1.92,1.92M67.87,62.41c-1.06,0-1.92-.86-1.92-1.92s.86-1.92,1.92-1.92,1.92.86,1.92,1.92-.86,1.92-1.92,1.92M61.85,54.51c-.06-1.06.76-1.97,1.82-2.03,1.06-.06,1.97.76,2.03,1.82,0,.07,0,.14,0,.21-.06,1.06-.97,1.87-2.03,1.82-.98-.05-1.76-.84-1.82-1.82M44.15,54.51c0,1.06-.86,1.92-1.93,1.92-1.06,0-1.92-.86-1.92-1.93,0-1.06.86-1.92,1.92-1.92s1.92.86,1.92,1.92" fill="#b9bdc1" stroke="#b9bdc1" stroke-miterlimit="15.12" stroke-width=".42"/>
      <path d="M39.67,34.47c-.86.76-1.43,1.79-1.64,2.92-.5,2.79,1.36,5.46,4.16,5.96,0,0,0,0,0,0,2.79.5,5.46-1.37,5.95-4.16,0,0,0,0,0,0,.11-.61.1-1.23,0-1.84l-8.47-2.88ZM66.33,34.47c.86.76,1.43,1.79,1.64,2.92.5,2.79-1.37,5.46-4.16,5.96-2.79.5-5.46-1.37-5.96-4.16-.11-.61-.1-1.23,0-1.84l8.47-2.88Z" fill="#757889" stroke="#757889" stroke-linecap="round" stroke-linejoin="round" stroke-width="5.72"/>
      <path d="M54.5,21.49c.06-1.06.97-1.87,2.03-1.82.98.05,1.76.84,1.82,1.82-.07,1.06-.99,1.86-2.05,1.79-.96-.06-1.73-.83-1.79-1.79M54.5,28.78c-.04-1.06.79-1.96,1.85-2,1.06-.04,1.96.79,2,1.85,0,.05,0,.1,0,.15-.06,1.06-.97,1.87-2.03,1.82-.98-.05-1.76-.84-1.82-1.82M47.65,28.78c0-1.06.86-1.92,1.92-1.92s1.92.86,1.92,1.92-.86,1.92-1.92,1.92-1.92-.86-1.92-1.92M47.65,21.49c.06-1.06.97-1.87,2.03-1.82.98.05,1.76.84,1.82,1.82-.06,1.06-.97,1.87-2.03,1.82-.98-.05-1.76-.84-1.82-1.82" fill="#b9bdc1" stroke="#b9bdc1" stroke-miterlimit="15.12" stroke-width=".42"/>
    </g>
  </g>
</svg>