<?xml version="1.0" encoding="UTF-8"?>
<svg xmlns="http://www.w3.org/2000/svg" width="100" height="100" viewBox="0 0 100 100">
  <g id="Hintergrund">
    <rect id="Hintergrund-2" data-name="Hintergrund" x="0" width="100" height="100" rx="6" ry="6" fill="#555556"/>
  </g>
  <g id="Werwölfe">
    <g id="Schattenwolf">
      <path d="M56.1,14.28s0,.01,0,.02v.02c-.18.38-1.72,3.85-3.39,7.04v.02c-.52.98-1.06,1.94-1.63,2.89-.18.29-.39.6-.64.94-.01.02-.02.03-.04.05-.77.94-1.58,1.85-2.43,2.71-1.13-1.87-2.23-3.76-3.32-5.66-2.79-4.88-4.25-5.87-4.25-5.87,0,0-3.13,13.11-1.6,18.89-.65.27-1.23.42-1.61.28-2.36-.85-4.01-7.56-4.1-7.92,0,0,0,0,0-.01-2.23,4.27-1.58,9.09-.63,12.42.46,1.57.51,3.24.13,4.84-.31,1.27-.83,2.53-1.92,3.33-.96.71-2.74,1.89-4.6,3.1-.66.43-1.34.86-1.98,1.27-2.44,1.55-4.54,2.86-4.54,2.86,0,0,.81.82,2.1,1.9.23.19.47.4.74.6,2.49,1.93,5.16,3.61,7.97,5.02.06.03.12.06.18.09.04.02.08.04.12.06.59.27,1.19.5,1.8.7,1.17.39,2.36.72,3.57.97,0,0,0,0,0,0,.17.05,6.6,2.1,8.63,1.36,0,0-1.75-.64-2.37-2.12,0,0,2.42-.07,3.78-1.03-.74-.11-1.46-.33-2.14-.64h0c.25-.15.5-.25.76-.37.25-.12.5-.27.74-.36.48-.18.95-.29,1.36-.29h.04c.07-.01,1.76-.23,3.52.49h0c.36.15.72.33,1.07.57h0c.78.53,1.41,1.24,1.84,2.08,0,0,.46-.39,1-.99s1.15-1.42,1.46-2.27c.97-.05,1.94.07,2.86.35.62.2.97.86.77,1.49-.06.19-.17.36-.31.5,0,0,0,0-.01.01-2.44,2.01-3.71,2.09-4.72,2.7-1.01.61-2.34,1.87-5.23,1.41-2.89-.45-2.68.16-3.99.03-1.31-.13-2.87.49-2.87.49-5.9,3.45-6.62,9.63-6.62,9.63,1.96-3.09,5.1-5.85,8.03-7.15,2.92-1.31,4.8-.05,4.8-.05,0,0-1.17.23-1.68.84s-.92.59-3.19,3.18c-2.28,2.59-1.54,7.8-1.54,7.8,1.05-5.09,5.53-8.59,6.37-9.01.84-.42,2.4-.38,2.44-.31.04.08-.42.47-.42.47-.51,1.18-.92,2.41-1.21,3.66-.49,2.06,1.84,8.25,1.91,8.43-.02-.13-.66-3.56-.36-4.9.23-1.23.39-2.48.49-3.73,0,0,1.56-2.13,1.75-2.59.2-.46,1.56-1.41,1.56-1.41,0,0-.69,2.09-.43,3.01.26.9,1.92,2.69,1.97,2.75-.79-1.51-.9-3.55-.54-4.16.35-.61,1.49-1.74,2.04-2.27.55-.54,2.9-1.29,2.9-1.29.21.33.33.72.33,1.11-.01.63-.64,1.99-1.89,4.79-1.26,2.8-4.49,4.13-4.49,4.13,5.56-.89,8.41-4.82,8.73-5.76.31-.95,1.35-1.43,1.69-3.05.34-1.61,2.97-3.65,3.9-5.05.11-.17.23-.33.35-.49.54-.7,1.19-1.31,1.93-1.8.61-.41,1.27-.74,1.96-.99,1.21-.45,2.13-.51,2.13-.51,0,0-.87-.03-1.99.18-.56.1-1.19.27-1.79.53-.31.13-.61.29-.89.46-.29.18-.57.39-.81.63-.43.42-.91.78-1.43,1.07-.37.21-.76.36-1.17.46-.34.08-.61.11-.8.11-.19,0-.29-.02-.29-.02,0,0,.54-.21,1.15-.85.37-.39.67-.84.91-1.32.28-.57.52-1.28.67-2.15.12-.77.35-1.53.67-2.24.29-.63.62-1.16.94-1.57.64-.83,1.21-1.24,1.25-1.27-.54.2-1,.39-1.41.59-.15.07-.27.14-.4.21-.23.12-.45.24-.66.38-.12.08-.22.15-.32.23-.16.11-.31.23-.45.36-.17.16-.34.33-.49.51-.17.21-.33.44-.46.67-.17.28-.37.57-.54.85-.06.11-.17.22-.24.32.39-1.4.43-2.87.11-4.28,0,0,4.62-1.75,9.16.45,0,0-.37-5.41-5.25-7.96,0,0,3.1-2.92,9.89-1.91,0,0-2.83-5.11-9.96-6.95,0,0,3.01-1.4,4.59-5.42,0,0-6.48,3.4-11.75.96,0,0,0-.01-.01-.02-.53-4.14-1.08-14.49-7.23-22.26h0Z" fill="#ac9393" stroke="#fff" stroke-linecap="round" stroke-linejoin="round" stroke-width="6"/>
      <g>
        <path d="M40.4,16.42s-3.55,14.9-1.24,19.93c2.31,5.04,10.27-6.01,10.27-6.01,0,0-1.99-3.17-4.78-8.05-2.79-4.88-4.25-5.87-4.25-5.87Z"/>
        <path d="M75.13,63.52s-3.67.27-6.02,3.3c-.12.16-.24.32-.35.49-.93,1.4-3.56,3.43-3.9,5.05-.34,1.61-1.37,2.1-1.69,3.05-.31.94-3.17,4.87-8.73,5.76,0,0,3.24-1.33,4.49-4.13,1.25-2.8,1.88-4.16,1.89-4.79,0-.4-.12-.78-.33-1.11,0,0-2.35.75-2.9,1.29-.55.54-1.69,1.67-2.04,2.27-.35.6-.24,2.65.54,4.16-.05-.06-1.71-1.85-1.97-2.75-.26-.92.43-3.01.43-3.01,0,0-1.36.95-1.56,1.41-.2.46-1.75,2.59-1.75,2.59-.1,1.25-.26,2.49-.49,3.73-.29,1.34.34,4.77.36,4.9-.07-.17-2.39-6.37-1.9-8.43.3-1.25.7-2.48,1.21-3.66,0,0,.46-.39.42-.47-.04-.08-1.6-.12-2.44.31-.84.42-5.32,3.92-6.37,9.01,0,0-.74-5.21,1.53-7.8,2.28-2.59,2.69-2.56,3.2-3.18.51-.62,1.68-.84,1.68-.84,0,0-1.88-1.26-4.8.05-2.92,1.3-6.07,4.07-8.03,7.15,0,0,.72-6.18,6.62-9.63,0,0,1.56-.62,2.87-.49,1.31.13,1.1-.49,3.99-.03,2.89.45,4.22-.81,5.23-1.41,1.01-.61,2.28-.69,4.72-2.7,0,0,0,0,.01-.01.47-.45.49-1.2.04-1.68-.14-.15-.31-.25-.5-.31-.93-.28-1.9-.4-2.87-.35-.62,1.7-2.46,3.26-2.46,3.26-1.96-3.77-6.47-3.14-6.47-3.14-.84,0-1.86.44-2.86,1.03.68.31,1.4.53,2.14.64-1.36.96-3.78,1.03-3.78,1.03.62,1.48,2.37,2.12,2.37,2.12-2.03.74-8.46-1.31-8.63-1.36,0,0,0,0,0,0-1.21-.26-2.4-.58-3.57-.97-.61-.2-1.22-.43-1.8-.7l-.12-.06c-.06-.03-.12-.06-.18-.09-2.82-1.41-5.49-3.09-7.98-5.02-.25-.2-.5-.4-.74-.6-1.28-1.09-2.1-1.9-2.1-1.9,0,0,2.1-1.3,4.54-2.86.65-.41,1.32-.84,1.98-1.27,1.86-1.2,3.64-2.38,4.6-3.09,1.08-.8,1.61-2.06,1.91-3.33.37-1.6.33-3.26-.13-4.84-.95-3.33-1.6-8.15.63-12.42,0,0,0,.01,0,.02.09.35,1.74,7.06,4.1,7.91.6.22,1.61-.14,2.84-.86,2.03-1.2,4.65-3.39,6.87-5.59,1.26-1.22,2.43-2.52,3.5-3.9l.04-.05c.24-.32.46-.64.67-.98.56-.93,1.09-1.88,1.59-2.85v-.02c1.68-3.19,3.22-6.66,3.39-7.04,0,0,0-.01,0-.02,0,0,0-.01,0-.02,6.15,7.77,6.7,18.12,7.23,22.26,0,0,.01.02.02.02,2.59,1.69,7.66,1.7,7.66,1.7-2.15,3.08-3.91,4.36-3.91,4.36,6.01,2.01-.28,8.72-.28,8.72,6.3,4.16-.77,4.58-1.36,4.28-.04-.02-1.23.68-1.23.68.03.08.56.73.59.81l.04.12c.43-.47.72-.78.77-.82.53.51.75,1.95.7,3.36-.02.76-.14,1.52-.37,2.24-.09.3-.24.58-.43.82.15-.12.3-.25.44-.39,0,0,.01-.01.02-.02,1.62-1.6.91-3.21,5.55-4.89-.07.05-2.3,1.63-2.86,5.08-.57,3.5-2.72,4.32-2.72,4.32,0,0,1.67.31,3.68-1.62s5.49-1.81,5.49-1.81h0Z" fill="#191919"/>
        <path d="M56.42,19.21c1.73,3.16,2.76,6.65,3.02,10.24.28,3.97-1.06,5.52-1.06,5.52,0,0-1.63-1.83-4.94-4.53-3.31-2.7,2.98-11.23,2.98-11.23h0ZM26.21,56.01c-.25.5-1.76,1.24-1.92,1.37-.16.13-.21-.72-.21-.72l-1.29-.17-.27,1.09-.14.39c-.25-.2-.5-.4-.74-.6-.72-.61-1.42-1.24-2.1-1.9,0,0,2.1-1.3,4.54-2.86.66-.42,1.32-.84,1.98-1.27.09,1.06.35,4.25.14,4.66ZM70.56,49.88c4.88,2.55,5.25,7.96,5.25,7.96-4.54-2.2-9.16-.45-9.16-.45.33,1.46.28,2.98-.15,4.42,1-1.4.98-2.81,5.02-4.26-.07.05-2.3,1.63-2.86,5.08-.57,3.5-2.72,4.32-2.72,4.32,0,0,1.67.31,3.68-1.62,2.02-1.93,5.49-1.81,5.49-1.81,0,0-3.67.27-6.02,3.3-1.48.66-3.11.89-4.71.67,0,0,2.69-1.79,3.24-3.91-.07.1-2.48,3.33-5.82,4.18,0,0,0,0,0,0,2.3-8.21-6.09-6.52-6.09-6.52-.62,1.7-2.46,3.26-2.46,3.26-1.96-3.77-6.47-3.14-6.47-3.14-.84,0-1.86.44-2.86,1.03.04-.06,1.45-1.93,4.43-2.06,3.96.06,4.52,1.56,4.52,1.56,0,0,1.29-3.56-.6-5.41,0,0,6.36-1.11,9.11,3.61,0,0-.65-8.59-7.18-10.29,0,0,5.36-1.43,8.99,2.28,0,0-1.67-4.72-5.28-5.68,0,0,4.51-2.71,8.22-.74,0,0-2.98-4.24-6.21-4.56,0,0,2.82-2.07,5.42-1.91,0,0-1.72-1.72-2.03-2.62,5.27,2.44,11.75-.96,11.75-.96-1.58,4.02-4.59,5.42-4.59,5.42,7.13,1.84,9.96,6.95,9.96,6.95-6.79-1.01-9.89,1.91-9.89,1.91h0Z"/>
      </g>
      <path d="M32.59,31.75s-.6,3.32.65,7.55c1.26,4.23.76,6.47-1.45,8.66,0,0,2.97-1.7,2.85-5.23-.12-3.54-1.91-5.85-2.05-10.98h0ZM35.06,47.59s1.71-2.1,3.89-3.3c2.18-1.19,2.97-6.18,3.96-7.13.99-.95,6.53-4.55,6.53-4.55,0,0-5.67,4.3-5.96,5.49-.29,1.19-1.82,4.75-2.11,5.94-.29,1.19-1.08,2.53-2.37,3.06s-5.52,2.86-7.59,5.05l3.65-4.56ZM44.4,55.68l-2.92,2.23c-.25.19-.61.14-.8-.11-.1-.13-.14-.29-.11-.45.05-.26.12-.55.2-.85-.68.97-1.21,1.89-1.34,2.71-.03.18-.15.33-.31.41l-1.14.56c-.28.14-.62.02-.75-.25,0-.02-.02-.03-.02-.05-.25-.77-.33-1.58-.22-2.38-.48.96-.75,2-.78,3.07,0,.14-.07.28-.17.38l-1,.98c-.15.15-.36.2-.56.14-.62-.18-1.17-.54-1.59-1.03.06.54.24,1.07.54,1.52.15.23.09.53-.13.69l-.82.59c-.61-.2-1.22-.43-1.8-.7l-.12-.06c-.06-.03-.12-.06-.18-.09-.14-.47-.13-.98.03-1.44.02-.06.06-.12.12-.16l3.24-2.63c.17-.14.42-.11.56.06,0,0,.01.02.02.03.31.41.7.75,1.15,1.01-.13-.63-.18-1.24.02-1.77.04-.1.11-.18.21-.22l2.17-.99c.2-.09.43,0,.52.2.02.05.04.11.04.17v1.1s1.24-2.35,1.24-2.35c.03-.05.07-.1.11-.13l1.77-1.32c.18-.13.42-.09.55.08.03.04.06.09.07.15l.09.41,1.47-2.26c2.42-1.25,4.06-3.62,4.37-6.33,0,0,1.85,4.67-3.7,9.09h0Z" fill="#e42439"/>
    </g>
  </g>
</svg>