<?xml version="1.0" encoding="UTF-8"?>
<svg xmlns="http://www.w3.org/2000/svg" width="108.4" height="100" viewBox="0 0 108.4">
  <g id="Hintergrund">
    <rect id="Hintergrund-2" data-name="Hintergrund" x="4.2" width="100" height="100" rx="6" ry="6" fill="#555556"/>
  </g>
  <g id="Sheriff">
    <path d="M53.12,14.28c-1.9,0-3.73.32-5.43.88h-.01c-.79.27-1.55.59-2.29.97l-.07.03c-.72.37-1.41.8-2.07,1.27l-.05.04-.46.34-.06.05c-.47.37-.92.76-1.35,1.17l-.03.03c-.14.13-.27.27-.4.4l-.07.07c-.41.43-.79.88-1.15,1.34l-.03.04c-.11.14-.22.29-.33.44l-.08.11c-.11.16-.22.31-.31.46l-.02.03c-.32.5-.62,1.01-.89,1.55l-.06.11c-.08.16-.16.32-.23.49l-.06.13c-.23.51-.43,1.03-.61,1.56l-.06.18c-.07.22-.14.45-.2.68-.42,1.5-.63,3.04-.63,4.59v2.61c-.26.27-.41.63-.41,1v.59c-.64.37-.86,1.18-.49,1.82.03.05.07.11.11.16h-6.41c-.8,0-1.46.65-1.46,1.46s.65,1.46,1.46,1.46h7.56c-.03.42-.06.83-.06,1.25,0,6.29,3.36,12.07,8.73,15.04-1.06.51-2.09,2-3.11,3.58-.65-.03-1.29-.05-1.94-.05-2.76-.01-5.85.26-7.39,1.54-5.11,4.49-5.66,17.33-5.53,19.64.08,1.48.28,3.09,1.64,4.39h48.29c1.36-1.3,1.57-2.92,1.64-4.39.12-2.32-.43-15.15-5.53-19.64-1.54-1.28-4.63-1.55-7.39-1.54-.68,0-1.33.02-1.94.05-1.03-1.58-2.05-3.07-3.12-3.58,5.37-2.97,8.73-8.74,8.74-15.03,0-.42-.02-.84-.05-1.25h7.54c.8,0,1.46-.65,1.46-1.46s-.65-1.46-1.46-1.46h-6.02c.46-.58.36-1.41-.21-1.87-.09-.07-.19-.13-.29-.18v-.52c0-.38-.16-.75-.43-1.02v-2.59c0-1.8-.28-3.59-.84-5.3l-.05-.14c-.18-.55-.4-1.09-.64-1.62l-.05-.11c-.08-.17-.16-.33-.24-.49l-.06-.11c-.37-.71-.78-1.4-1.25-2.05l-.07-.09c-.11-.15-.22-.3-.33-.45l-.07-.09c-.36-.47-.75-.91-1.16-1.34l-.05-.05c-.72-.74-1.51-1.42-2.36-2.02l-.04-.03c-.17-.12-.34-.23-.51-.34h-.02c-.53-.36-1.07-.67-1.63-.95h-.01c-.19-.09-.38-.19-.57-.27h-.02c-.78-.36-1.58-.65-2.4-.88h-.01c-1.5-.42-3.05-.64-4.61-.64h0Z" fill="#fff" stroke="#fff" stroke-linecap="round" stroke-linejoin="round" stroke-width="6"/>
    <g>
      <rect x="47.11" y="54.11" width="12.11" height="14.02" rx="5.7" ry="5.7" fill="#f8c47b"/>
      <path d="M44.21,61.13c-.2-.27,7.47,5.7,17.57.12l.43,7.81-13.91,2.01-4.09-9.94Z" fill="#fff"/>
      <path d="M40.12,60.14c-2.76-.01-5.85.26-7.39,1.54-5.11,4.49-5.66,17.33-5.53,19.65.08,1.48.28,3.09,1.64,4.39h48.29c1.36-1.3,1.56-2.91,1.64-4.39.12-2.32-.42-15.15-5.53-19.64-1.54-1.28-4.63-1.55-7.39-1.54-.92,0-1.8.04-2.57.08-3.89,0-10.3,7.6-10.3,7.6,0,0-6.4-7.6-10.29-7.6-.86-.04-1.72-.07-2.57-.08h0Z" fill="#363737"/>
      <path d="M66.98,74.62l-2.22-1.35-2.26,1.29.68-2.39-2-1.61,2.64-.13,1.02-2.28.95,2.31,2.63.2-2.05,1.56.61,2.41ZM37.88,66.52h6.58v1.53h-6.58v-1.53Z" fill="#f3c536"/>
      <path d="M35.8,72.53h10.73v1.53h-10.73v-1.53Z" fill="#f3ebe8"/>
      <path d="M45.86,56.42c-1.94.11-3.72,3.92-5.57,6.42,0,0,3.1-1.49,12.71,4.97,0,0-7.16-6.37-4.26-10.96l-2.87-.43ZM60.12,56.42c1.94.11,3.72,3.92,5.57,6.42,0,0-3.1-1.49-12.71,4.97,0,0,7.17-6.37,4.26-10.96l2.87-.43Z" fill="#161717"/>
      <circle cx="52.99" cy="72.42" r="1.37" fill="#f3c536"/>
      <circle cx="52.99" cy="81.68" r="1.37" fill="#f3c536"/>
      <path d="M37.88,69.54h6.58v1.53h-6.58v-1.53Z" fill="#f3c536"/>
      <path d="M69.21,76.16v6.34l-2.2-.66-2.2,1.71-2.2-1.71-2.2.66v-6.34h8.8ZM45.57,76.16v6.34l-2.2-.66-2.2,1.71-2.2-1.71-2.2.66v-6.34h8.8Z" fill="#161717"/>
    </g>
    <g>
      <ellipse cx="52.99" cy="41.57" rx="16.55" ry="17.07" fill="#f9cb8a"/>
      <path d="M28.94,37.41h48.1c.8,0,1.46.65,1.46,1.46h0c0,.8-.65,1.46-1.46,1.46H28.94c-.8,0-1.46-.65-1.46-1.46h0c0-.8.65-1.46,1.46-1.46Z" fill="#363737"/>
      <path d="M53.11,14.27c-9.35-.02-16.95,7.54-16.97,16.89,0,.03,0,.05,0,.08v7.63h33.94v-7.63c.02-9.35-7.54-16.95-16.89-16.97-.03,0-.05,0-.08,0Z" fill="#363737"/>
      <rect x="35.74" y="33.41" width="34.77" height="3.97" rx="1.89" ry="1.89" fill="#718b8e"/>
      <circle cx="47.38" cy="45.61" r="1.47"/>
      <path d="M44.03,42.14l5.58.75-.19,1.19-5.58-.75.19-1.19Z" fill="#520"/>
      <circle cx="58.6" cy="45.61" r="1.47"/>
      <path d="M61.94,42.14l-5.58.75.19,1.19,5.58-.75-.19-1.19Z" fill="#520"/>
      <path d="M55.23,32.52l-2.22-1.35-2.26,1.29.68-2.39-2-1.61,2.64-.13,1.02-2.28.95,2.31,2.63.2-2.05,1.56.61,2.41Z" fill="#f3c536"/>
      <path d="M55.15,14.39c.17,14.45,3.02,12.84,14.43,12.75-1.69-6.84-7.44-11.91-14.43-12.75ZM50.82,14.43c-6.89.92-12.52,5.97-14.18,12.72,11.2.12,14.01,1.6,14.18-12.71h0Z" fill="#161717"/>
      <rect x="35.06" y="35.24" width="36.23" height="2.68" rx="1.34" ry="1.34" fill="#f3c536"/>
    </g>
  </g>
</svg>
