<?xml version="1.0" encoding="UTF-8"?>
<svg xmlns="http://www.w3.org/2000/svg" width="106" height="100" viewBox="0 0 106 100">
  <g id="Hintergrund">
    <rect id="Hintergrund-2" data-name="Hintergrund" x="3" width="100" height="100" rx="6" ry="6" fill="#555556"/>
  </g>
  <g id="Seelenbinder">
    <path id="path95282-50-0-59-2" d="M60.57,12c-.7,1.6-2.77,2.4-4.69,2.28-1.97-.12-3.81-1.18-5.69-.41-1.75.77-2.71,2.17-3.51,2.43-3.93,1.28-5.17,2.34-4.9,3.84.26,1.41,4.13.18,5.83,2.99,2.44,4.04,5.94,2.06,6.41,3.46.18.54-1.16.49-1.7,1.1-1.1,1.23-1.11,2.48-3.36,2.66-1.94.16-3.64-2.32-5.02.31-.52.99-1.11,1.6-1.67,2.04-.44-.34-.68-.23-1.22-.15l-4.75.69-.16.08c-.65.31-1.07.92-1.12,1.63-.01.17,0,.25.2,1.34l-1.69.78c-.4-.55-.45-.59-.54-.67-.64-.51-1.45-.59-2.15-.21-.11.06-.95.66-2.81,2.01l-2.66,1.92-.11.14c-.45.56-.57,1.29-.31,1.96.05.14.09.2.55.84l-1.74,1.83c-1.14-.33-1.23-.35-1.38-.35-.82,0-1.5.43-1.82,1.16-.05.11-.34,1.11-.97,3.31l-.9,3.15v.18c-.02.72.34,1.37.96,1.73.16.09.17.1,1.62.52.12.04.21.06.31.09l.43,1.67c-.14.19-.37.53-.79,1.15-.84,1.24-.85,1.26-.91,1.42-.26.78-.06,1.56.54,2.09.09.08.95.67,2.85,1.95l2.71,1.84.17.06c.38.13.77.15,1.13.05.55,1.4,1.06,2.6,1.21,3.4.47,2.52-1.41,2.95-.18,5.26,5.79,10.91,20.88,18.77,36.01,11.79,2.64-1.22,5.49-2.62,7.75-4.24.28.08.74.16,1.19.04,2.45-.63,6.11-1.79,6.2-1.83.73-.31,1.16-1,1.16-1.82,0-.14,0-.19-.3-1.21l1.69-1.61c1.2.31,1.26.32,1.44.32.72,0,1.35-.38,1.71-1.01l.09-.15.81-3.18c.57-2.22.82-3.23.84-3.35.1-.79-.27-1.51-.98-1.92-.14-.08-.17-.09-1.62-.46-.1-.02-.16-.04-.24-.06l-1.1-2.67c.38-.45.53-.64.56-.71.19-.34.27-.72.24-1.11-.04-.46-.21-.82-.54-1.16-.14-.14-2.63-2.26-4.05-3.45-.97-3.21-.56-5.55-1.49-7.37-.79-1.55-1.94-.8-3.05-2.12-1.56-1.85-3.43-5.21-5.58-6.44-3.45-1.97-4.5-.28-7.63-2.95-1.94-1.66,1.63-1.88.73-3.6-1.07-2.04,1-1.98,3.3-2.48.4-.09.77-.18,1.11-.28.17-.05.34-.1.49-.16,4.58-1.54,3.43-4.4.44-6.49-.87-.61-.68-2.5-4.15-2.39-4.78.15-3.39-1.21-7.2-1.61-4.43-.46-2.63-1.75,1.55-3.24,1.99-.71,2.95-2.38,2.48-4.66h0ZM40.17,34.23c-.08.12-.15.24-.19.39-.34.91.16,1.75.77,2.55,0,0,0,0-.02-.02-1.52.28-3.4.63-3.45.61-.02,0-.03-.02-.05-.04l.36-.17c.58-.27.85-.92.6-1.46-.24-.51-.84-.73-1.4-.53-.05-.29-.08-.52-.08-.54,0-.05.03-.09.08-.13.04-.03,2.38-.46,3.34-.63,0-.01.02-.02.03-.03h0ZM31.77,37.65s.05.02.07.04h0s.05.04.11.11l-.08.03c-.58.27-.85.92-.6,1.46.24.52.88.75,1.45.52h0s.04-.01.05-.02l.46-.21c.24.35.24.38.21.45-.01.03-.79.6-2.6,1.91-2.45,1.77-2.58,1.86-2.64,1.86-.03,0-.09-.02-.12-.05-.02-.01-.06-.07-.12-.15l.06-.07c.44-.46.45-1.17.02-1.58-.36-.34-.91-.37-1.34-.1-.1-.15-.18-.27-.19-.28-.02-.05-.01-.09.01-.14.04-.07.19-.18,2.57-1.9,2.19-1.58,2.56-1.85,2.67-1.86h0ZM35.68,38.44c.15.29.36.53.63.72.38.26.76.36,1.24.32.12,0,3.06-.56,4.36-.79.62,1,.58,1.95-1.9,2.9h0c-1.47.54-4.08.43-5.65,1.82-2.04,1.8-3.08,5.36-4.7,8.2-1.4,2.45-3.29,1.81-3.66,5.19-.81-.55-1.46-.98-1.55-1.03-.14-.07-.28-.13-.42-.17l-.19-.76s.1-.05.14-.07c.41-.23.66-.52.84-.97.1-.25,1.77-6.02,1.82-6.31.08-.45.02-.88-.2-1.27-.13-.23-.28-.42-.47-.57l.81-.85c.06.07.1.12.12.14.29.27.63.44,1.02.5.46.07.84,0,1.26-.24.24-.13,5.11-3.66,5.32-3.84.34-.3.55-.68.62-1.12.06-.41.01-.77-.17-1.14h0s-.07-.12-.17-.26l.88-.41ZM22.29,46.23s.11.02.26.06c-.15.41-.07.86.24,1.17.42.4,1.09.37,1.54-.05h0s.04-.03.04-.05l.4-.42c.18.07.2.09.21.15,0,.03-.25.95-.87,3.1-.43,1.51-.65,2.26-.77,2.66l-.02-.09c-.16-.62-.75-1-1.33-.85-.42.11-.71.47-.78.9-.4-.12-.71-.22-.74-.23-.04-.03-.07-.07-.08-.12-.01-.07.04-.26.85-3.08.96-3.32.89-3.11,1.04-3.13h0s0,0,.02,0h0ZM24.63,57.96c.36.24.8.54,1.37.93.15,1.46.57,2.93,1.06,4.3-.22-.13-.79-.52-2.51-1.69-2.86-1.94-2.68-1.81-2.65-1.96h0c.01-.06.13-.24.67-1.03.19.58.75.92,1.31.78.56-.14.89-.73.77-1.33h0s0,0,0,0ZM80.5,58.79c1.79,1.51,1.97,1.67,1.98,1.72,0,.03,0,.09-.03.13,0,.02-.08.1-.16.21-.2-.05-.42-.03-.62.05-.52.22-.77.82-.59,1.39-.2.23-.35.39-.37.41-.05.03-.09.03-.14.02-.04,0-.12-.07-.6-.46.31-1.18.6-2.35.52-3.46h0ZM81.79,64.02l.3.72h0s-.09.05-.13.07c-.38.22-.66.56-.81.99-.09.27-1.58,6.09-1.62,6.36-.07.47,0,.86.23,1.26.11.18.24.34.39.47l-.15.14c-.17-.25-.38-.44-.66-.6-.22-.12-.44-.2-.68-.23,0,0-1.7.38-2.04.61.15-.19.31-.37.47-.55,1.17-1.32,2.48-2.56,2.94-3.82.67-1.81-.89-2.6-.66-4.46.04-.3.09-.61.16-.92l.09.07.16.07c.65.31,1.39.25,1.97-.17.02-.01.03-.02.05-.03h0ZM82.76,66.39l.37.91c.24.59.88.89,1.43.66.45-.18.7-.66.64-1.14.23.06.31.09.34.11h0c.12.09.17-.12-.68,3.23-.72,2.84-.77,3.03-.82,3.09-.04.04-.07.06-.13.07-.01,0-.06,0-.13-.02.18-.4.12-.87-.18-1.18-.41-.43-1.12-.42-1.58.02l-.6.57c-.06-.02-.1-.03-.11-.04-.04-.01-.09-.06-.1-.09-.03-.05.01-.21.76-3.14.47-1.82.71-2.76.79-3.03h0ZM78.48,74.91c.07.01.1.03.2.37l-.51.49c-.47.44-.51,1.14-.1,1.57.32.34.83.41,1.25.21,0,.02,0,.04,0,.06h0c-.02.15-1.36.7-4.66,1.66.07-.07.13-.15.19-.23.63-.89.39-2.1.65-3.27,1.21-.35,2.95-.87,2.97-.86h0Z" fill="#67f8ff" stroke="#fff" stroke-linecap="round" stroke-linejoin="round" stroke-width="6"/>
    <g>
      <path id="path95282-50-0-59" d="M40.02,41.59c-1.47.54-4.08.43-5.65,1.82-2.04,1.8-3.08,5.36-4.7,8.2-1.48,2.58-3.51,1.73-3.7,5.77-.2,4.14,2.57,8.84,2.96,10.93.47,2.52-1.41,2.94-.18,5.26,5.79,10.91,20.88,18.77,36.01,11.79,3.59-1.66,7.6-3.66,9.92-6.08,1.13-1.18.25-3.1,1.33-4.64,1.29-1.85,3.4-3.49,4.03-5.17.67-1.81-.89-2.6-.66-4.46.32-2.54,1.8-5.26.82-7.57-1.74-4.09-1-6.9-2.09-9.03-.79-1.55-1.94-.8-3.05-2.12-1.56-1.85-3.43-5.21-5.58-6.44-3.45-1.97-4.5-.28-7.63-2.95-1.94-1.66,1.63-1.88.73-3.59-1.07-2.04,1-1.98,3.3-2.48,6.4-1.38,5.35-4.62,2.05-6.92-.87-.61-.68-2.5-4.15-2.39-4.78.15-3.39-1.21-7.2-1.61-4.43-.46-2.63-1.75,1.55-3.24,1.99-.71,2.96-2.38,2.48-4.66-.7,1.6-2.77,2.4-4.69,2.28-1.97-.12-3.81-1.18-5.7-.41-1.75.77-2.71,2.17-3.51,2.43-3.93,1.28-5.17,2.34-4.9,3.84.26,1.41,4.13.18,5.83,2.99,2.44,4.04,5.94,2.06,6.41,3.46.18.54-1.16.49-1.7,1.1-1.1,1.23-1.11,2.48-3.36,2.66-1.94.16-3.64-2.32-5.02.31-1.51,2.87-3.56,2.62-3.95,3.97-1.03,2.75,5.56,4.85.04,6.96h0Z" fill="#67f8ff"/>
      <path id="path97261-4-8-8" d="M56.27,44.15s-9.81-1.62-16.96,4.7c-9.35,8.26-6.6,17.64-5.67,18.8.58.72.18-4.44,2.05-8.88,1.11-2.64,3.75-4.69,5.89-6.01,2.87-1.78-6.22,4.03-5.47,14.57.58,5.41,4.83,10.51,10.42,12.51,6.07,2.17,13.6.89,16.56-2.32.73-.9-12.8,1.46-15.25-1.42-3.03-3.56,12.46,3.89,22.08-5.47,9.62-9.36,2.31-21.68-.53-21.22-1.14.14,1.58,3.24.85,7.78-.49,3.05-1.66,4.69-2.57,5.53,2.42-9.22-.74-20.49-14.1-25.11-14.96-4.68-10.41,1.71-4.02,3.16,6.39,1.45,6.72,3.39,6.72,3.39Z" fill="#8df589"/>
      <path id="path97261-2-5-3-3" d="M51.38,51.52s6.11-1.01,10.57,2.93c5.83,5.15,4.11,10.99,3.53,11.71-.36.45-.11-2.77-1.28-5.53-.69-1.65-2.34-2.92-3.67-3.75-1.79-1.11,3.88,2.51,3.41,9.07-.36,3.37-3.01,6.55-6.49,7.79-3.78,1.35-8.47.55-10.32-1.45-.45-.56,7.97.91,9.5-.88,1.89-2.22-7.76,2.42-13.76-3.41-6-5.83-1.44-13.51.33-13.22.71.09-.99,2.02-.53,4.85.3,1.9,1.03,2.92,1.6,3.45-1.51-5.74.46-12.76,8.79-15.65,9.32-2.92,6.49,1.07,2.5,1.97-3.98.9-4.18,2.11-4.18,2.11h0Z" fill="#67ffc3"/>
      <path id="path98370-6-9-6" d="M52.36,16.29s-6.83.5-7.11,2.7c-.28,2.2,13.73,4.27,14.93,6.61,1.21,2.35-8.89,5.05-8.82,6.33.07,1.28,13.58-3.13,13.65-6.47.07-3.34-16.07-5.12-16.43-6.26s5.48-2.84,3.77-2.92Z" fill="#8df589"/>
      <path id="path95282-50-5-4-2" d="M60.59,84.1c-4.75-1.91-8.66.21-12.22.72-4.26.6-3.04-3.07-9.46-3.71-5.78-.58-3.97-6.13-4.9-8.65-1.19-3.24-3.92-5.9-4.27-6.41-1.82-2.62-1.29-6.16-3.79-8.66-.2,4.14,2.57,8.84,2.96,10.93.47,2.52-1.41,2.94-.18,5.26,5.79,10.91,20.88,18.77,36.01,11.79,3.59-1.66,7.6-3.66,9.92-6.08,1.13-1.18.25-3.1,1.33-4.64,1.29-1.85,3.4-3.49,4.03-5.17.67-1.81-.89-2.6-.66-4.46.32-2.54,1.8-5.26.82-7.57-1.74-4.09-1-6.9-2.09-9.03-.79-1.55-1.94-.8-3.05-2.12-1.56-1.85-3.43-5.21-5.58-6.44-3.45-1.97-4.5-.28-7.63-2.95-1.94-1.66,1.63-1.88.73-3.59-1.07-2.04,1-1.98,3.3-2.48,6.4-1.38,5.35-4.62,2.05-6.92-.87-.61-.68-2.5-4.15-2.39-4.78.15-3.39-1.21-7.2-1.61-4.43-.46-2.63-1.75,1.55-3.24,1.99-.71,2.96-2.38,2.48-4.66-1.28,3.53-1.75,3.96-9.77,5.64-3.93,1.28,7.53,4.25,10.08,6.21,4.47,3.27,3.41,6.13-1.35,7.68-1.94.16-4.57-.15-5.95,2.48-.5.94.66,1.99,2.52,2.7,1.7.64,4.08.84,4.37,3.58.35,3.35,5.5.55,7.4,1.92,1.07,1.09,1.8,3.31,3.7,5.27,2.18,2.26,5.45,4.3,5.11,5.89-.6,2.84-1.06,4.55-1.34,8.11-.21,2.64,0,7.02-1.42,9.85-.3.6-2.94,3.17-5.06,4.56-5.24,3.43-5.92,8.99-8.25,8.2Z" fill="#21cad2"/>
      <path id="path99250-2-8-6" d="M70.95,66.25c-2.52,7.28-9.33,9.03-9.74,8.02-.41-1.01,5.66-3.6,6.42-11.05.76-7.46-5.43-12.02-5.43-12.02,0,0,5.81,1.44,7.51,7.59,0,0,1.49-7.48-6.53-14.25-8.02-6.77,6.21-3.83,11.63,5.48,2.64,4.53,4.14,13.16,1.23,20.03-3.06,7.26-10.63,12.64-11.33,11.99-1.83-1.68,5.97-8.1,6.23-15.8Z" fill="rgba(255, 255, 255, .54)"/>
      <path id="path99250-9-4-3-3" d="M38.19,50.72c4.51-3.86,9.71-2.37,9.59-1.55-.12.83-5.16.19-8.56,4.85-3.4,4.66-1.07,10.1-1.07,10.1,0,0-3.3-3.22-2.04-7.97,0,0-1.42,2.2-1.73,6.5-.12,1.57-.2,3.53-.09,5.69.31,6.53-5.13.03-4.98-8.35.07-4.04,2.37-10.36,6.97-13.8,4.86-3.63,11.98-4.26,12.2-3.56.56,1.82-7.12,3.06-10.29,8.08Z" fill="rgba(255, 255, 255, .54)"/>
      <path id="path106769-7-3" d="M31.5,61.96c.01-.42.13-.75.37-1.09.26-.36.62-.6,1.06-.72.28-.07,6.22-1,6.49-1.01.48-.03.85.08,1.23.35.32.23.55.54.69.91.04.1.1.49.28,1.64.23,1.5.23,1.5.22,1.69-.07.71-.5,1.31-1.16,1.6l-.16.07-3.24.51c-2.26.36-3.29.51-3.41.51-.8.02-1.48-.41-1.82-1.16-.06-.15-.07-.18-.3-1.65-.19-1.23-.24-1.53-.24-1.66h0ZM33.63,64.64c.08.13-.14.15,3.28-.38,2.9-.45,3.09-.48,3.15-.52.04-.03.07-.07.08-.12.02-.09-.36-2.53-.41-2.65-.02-.04-.05-.09-.08-.1-.05-.03-.22,0-3.2.46-2.21.34-3.16.5-3.18.52-.09.06-.09.08.13,1.45.17,1.09.21,1.3.24,1.35h0Z"/>
      <path id="path106769-6-2-9" d="M22.17,56.13c.29-.3.61-.46,1.02-.54.43-.09.87-.02,1.27.2.25.14,5.22,3.51,5.43,3.69.37.31.57.64.66,1.1.08.39.04.77-.12,1.14-.04.1-.25.43-.91,1.39-.85,1.25-.86,1.26-1,1.38-.54.48-1.26.62-1.95.38l-.17-.06-2.71-1.84c-1.9-1.28-2.75-1.87-2.84-1.95-.6-.53-.8-1.31-.54-2.09.05-.15.07-.18.91-1.41.7-1.03.87-1.28.96-1.38h0ZM21.9,59.54c-.03.15-.21.02,2.65,1.96,2.42,1.65,2.59,1.76,2.66,1.77.05,0,.1,0,.14-.04.07-.06,1.47-2.1,1.51-2.22.02-.05.02-.1,0-.13-.02-.05-.16-.15-2.65-1.84-1.85-1.26-2.65-1.79-2.68-1.79-.11-.01-.12,0-.9,1.15-.62.91-.74,1.09-.75,1.15h0Z"/>
      <path id="path106769-6-8-2-9" d="M25.61,45.44c.37.19.63.43.83.8.22.39.28.82.2,1.27-.05.28-1.72,6.05-1.82,6.31-.18.44-.43.74-.84.97-.35.2-.72.28-1.12.24-.11,0-.48-.11-1.61-.43-1.45-.42-1.46-.42-1.62-.52-.62-.36-.98-1.01-.96-1.73v-.18s.91-3.15.91-3.15c.63-2.2.92-3.2.97-3.31.32-.73,1-1.17,1.82-1.16.16,0,.19,0,1.63.42,1.2.34,1.49.43,1.61.49h0ZM22.28,46.24c-.15.02-.08-.19-1.04,3.13-.81,2.81-.87,3-.85,3.08.01.05.04.09.08.12.07.05,2.45.74,2.58.75.05,0,.1-.01.13-.03.05-.04.09-.19.93-3.09.62-2.15.88-3.07.87-3.1-.02-.11-.04-.11-1.37-.5-1.06-.31-1.26-.36-1.33-.35h0Z"/>
      <path id="path106769-6-8-6-6-8" d="M34.96,39.11c.18.38.23.73.16,1.14-.07.44-.28.82-.62,1.12-.21.19-5.08,3.71-5.32,3.84-.41.24-.8.32-1.26.24-.39-.06-.74-.23-1.03-.5-.08-.07-.31-.38-1-1.33-.89-1.23-.89-1.23-.96-1.41-.26-.67-.15-1.4.31-1.96l.11-.14,2.65-1.93c1.85-1.34,2.7-1.95,2.81-2.01.7-.38,1.5-.31,2.15.21.12.1.15.13,1.02,1.34.73,1.01.91,1.26.97,1.38h0ZM31.85,37.69c-.13-.08.05-.2-2.75,1.82-2.38,1.72-2.53,1.83-2.57,1.9-.02.05-.03.09-.01.14.03.09,1.47,2.1,1.57,2.18.03.03.09.05.12.05.06,0,.19-.1,2.64-1.86,1.82-1.31,2.59-1.88,2.6-1.91.05-.1.04-.11-.77-1.24-.64-.89-.77-1.06-.83-1.1h0Z"/>
      <path id="path106769-6-8-6-9-1-8" d="M42.26,32.71c-.44-.34-.68-.24-1.22-.16l-4.75.69-.16.08c-.65.31-1.07.91-1.12,1.63-.01.19-.01.2.26,1.69.21,1.15.28,1.53.33,1.63.14.37.38.67.71.89.38.26.76.36,1.24.32.12,0,3.06-.56,4.36-.79-.2-.38-.81-1.18-1.18-1.53-1.52.28-3.4.63-3.45.61-.03-.02-.07-.06-.09-.1-.05-.12-.49-2.55-.48-2.64,0-.05.03-.09.08-.12.04-.03,2.38-.46,3.34-.63.53-.65,1.37-.88,2.13-1.56h0Z"/>
      <path id="rect106815-3-5" d="M39.88,60.91c-.59.18-.94.75-.8,1.31.14.58.76.92,1.38.76l5.15-1.29c.62-.16,1-.75.86-1.32-.14-.58-.76-.92-1.38-.76l-5.15,1.29s-.04,0-.06.01h0Z"/>
      <path id="path122501-74" d="M48.25,68.58c-.5-.08-.84-.27-1.16-.65-.31-.36-.33-.46-.98-4.06-.63-3.49-.69-3.97-.67-4.88.07-3.22,1.74-5.73,4.52-6.8,1.7-.65,3.4-.77,4.9-.34,1.91.55,3.46,2.01,4.42,4.17.45,1.01.46,1.08,1.19,5.21l.67,3.77-.09.32c-.27.99-1.28,1.55-2.28,1.27-.36-.1-.83-.45-1.03-.77l-.15-.23-.7-3.74c-.18-.98-.32-1.71-.42-2.25-.13-.99-.56-2.4-1.07-3.04-1.7-2.14-5.2-1.25-6.1,1.1-.37,1.08-.2,1.97,0,3.12l.41,2.34.65,3.77-.09.32c-.12.44-.35.78-.71,1.04-.24.18-.34.23-.65.3-.3.07-.41.08-.67.03h0Z"/>
      <path id="path20606-6-4-9-4" d="M48.44,65.61c-.06,0-.11.02-.17.03-.74.15-1.53.44-2.34.93-.76.46-1.33,1.03-1.75,1.67l-1.48.26.62,3.45c.04.45.12.9.24,1.33.48,1.74,1.74,3.16,2.77,3.9,3.51,2.52,10.96,6.7,10.96,6.7,0,0,5.43-6.21,7.95-10.09.69-1.06,1.39-2.82,1.24-4.62-.04-.44-.12-.89-.24-1.33l-.62-3.45-1.47.26c-.61-.46-1.35-.8-2.22-.96-3.56-.67-5.69,1.19-6.75,2.57l-2.04.37c-1.05-.66-2.71-1.37-4.71-1.03h0Z" fill="#912828"/>
      <path id="path20606-6-4-91" d="M47.66,62.2c-.74.15-1.53.44-2.34.93-2.56,1.54-3.01,4.4-2.37,6.72.48,1.74,1.74,3.16,2.77,3.9,3.51,2.52,10.96,6.7,10.96,6.7,0,0,5.43-6.21,7.95-10.09.69-1.06,1.39-2.82,1.24-4.62-.2-2.4-1.62-4.92-4.55-5.48-5.45-1.03-7.56,3.9-7.56,3.9,0,0-2.53-2.67-6.1-1.96Z" fill="#c83737"/>
      <circle id="path123030-4" cx="54.55" cy="68.49" r="1.88"/>
      <path id="rect123101-11" d="M53.91,69.62l-.51,3.62,3.88-.7-1.74-3.22-1.64.29Z"/>
      <path id="path123564-3" d="M58.63,61.57c-.58.59-.29,1.14.62,1.2.62.04,1.65-.2,2.49.63.78.78.95,2.07,1.1,3.08.09.6.26,1.72.86,1.78,1.33.13,1.58-4.09-.65-6.06-1.12-1.08-3.55-1.47-4.41-.64h0Z" fill="#fff"/>
      <path id="path106769-1-99-2-5-1" d="M62.84,55.08c.04-.41.18-.74.45-1.06.29-.34.67-.55,1.11-.64.28-.05,6.27-.53,6.54-.52.48,0,.84.15,1.2.44.31.26.51.58.62.96.03.1.07.49.16,1.66.12,1.51.12,1.52.09,1.7-.12.71-.6,1.27-1.28,1.51l-.17.07-3.27.27c-2.28.18-3.32.26-3.44.26-.8-.04-1.44-.52-1.73-1.29-.05-.15-.06-.18-.18-1.67-.11-1.24-.13-1.55-.11-1.68h0ZM64.76,57.91c.07.14-.15.14,3.29-.13,2.92-.23,3.12-.25,3.18-.29.04-.03.08-.06.09-.12.02-.09-.17-2.55-.21-2.68-.01-.05-.05-.09-.07-.11-.05-.04-.21-.02-3.22.22-2.23.18-3.18.26-3.21.28-.09.06-.09.08.02,1.46.09,1.1.11,1.31.14,1.37h0Z"/>
      <path id="path106769-1-99-2-0-8-6" d="M76.31,55.08c.32-.26.65-.4,1.07-.43.44-.04.86.07,1.24.33.23.17,4.82,4.04,5.01,4.24.33.34.5.7.54,1.16.04.4-.05.77-.24,1.12-.05.1-.29.4-1.05,1.29-.98,1.16-.98,1.16-1.14,1.27-.58.42-1.32.48-1.97.17l-.16-.07-2.51-2.11c-1.75-1.48-2.54-2.15-2.63-2.24-.54-.59-.65-1.39-.32-2.13.07-.14.08-.17,1.05-1.31.8-.95,1-1.19,1.1-1.27h0ZM75.68,58.45c-.05.15-.21,0,2.43,2.23,2.23,1.89,2.39,2.02,2.46,2.04.05.01.1,0,.14-.02.08-.05,1.68-1.93,1.74-2.05.02-.04.03-.1.03-.13,0-.06-.14-.16-2.44-2.11-1.71-1.45-2.44-2.06-2.48-2.07-.11-.02-.12-.01-1.02,1.05-.71.84-.85,1.01-.87,1.07h0Z"/>
      <path id="path106769-1-99-2-0-7-6-1" d="M83.07,64.55c-.41-.03-.76.06-1.12.27-.38.22-.66.56-.81.99-.09.27-1.58,6.09-1.62,6.36-.07.47,0,.86.24,1.26.2.34.48.6.84.77.1.05.47.15,1.61.44,1.47.37,1.47.38,1.66.37.72,0,1.35-.38,1.71-1.01l.09-.15.81-3.18c.57-2.22.82-3.23.84-3.35.1-.79-.27-1.51-.98-1.92-.14-.07-.17-.1-1.62-.46-1.2-.31-1.5-.38-1.63-.39h0ZM85.54,66.93c.12.09.17-.13-.68,3.22-.72,2.84-.77,3.03-.82,3.09-.04.04-.07.06-.13.07-.09.01-2.49-.6-2.6-.66-.04-.01-.09-.06-.1-.09-.03-.05.01-.21.76-3.14.55-2.17.79-3.1.81-3.12.07-.08.09-.08,1.43.26,1.07.27,1.27.33,1.33.36h0Z"/>
      <path id="path106769-1-99-2-0-7-7-6-8" d="M72.48,81.12c.28.08.74.16,1.2.05,2.46-.63,6.11-1.79,6.2-1.83.73-.32,1.16-1,1.16-1.82,0-.16,0-.19-.42-1.63-.34-1.2-.43-1.49-.49-1.61h0c-.19-.37-.43-.63-.8-.84-.22-.12-.44-.2-.69-.23,0,0-1.86.42-2.08.64-.61.63-1.02,1.3-1.1,1.93,1.21-.35,2.99-.88,3.01-.87.11.02.11.04.5,1.37.3,1.06.36,1.26.35,1.33h0c-.02.15-1.36.7-4.68,1.66-.2.15-1.15,1-2.17,1.85h0Z"/>
      <path id="rect106815-5-4-5-1" d="M59.39,56.84c-.6.14-.98.7-.87,1.27.11.58.71.96,1.34.83l5.21-1.01c.63-.12,1.04-.69.93-1.28-.11-.59-.71-.96-1.34-.83l-5.21,1.02s-.04.01-.06,0h0Z"/>
      <path id="rect106815-5-4-6-1-0" d="M71.69,55.05c-.59-.16-1.2.14-1.37.69-.18.57.16,1.18.77,1.38l5.06,1.62c.61.19,1.25-.1,1.43-.67.18-.57-.16-1.18-.77-1.38l-5.06-1.62s-.04,0-.05-.02h0Z"/>
      <path id="rect106815-5-4-6-9-9-9" d="M83.09,61.51c-.26-.56-.88-.83-1.41-.61-.55.23-.8.89-.56,1.48l2.01,4.91c.24.59.88.89,1.43.66.55-.23.8-.89.56-1.48l-2.01-4.91s-.02-.04-.02-.05h0Z"/>
      <path id="rect106815-5-4-6-9-7-9-0" d="M83.54,73.63c.42-.44.45-1.12.05-1.53-.41-.43-1.11-.42-1.58.02l-3.85,3.66c-.47.44-.51,1.14-.1,1.58.41.43,1.11.42,1.58-.02l3.85-3.66s.02-.03.05-.04h0Z"/>
      <path id="rect106815-9-0-3" d="M28.54,61.04c-.61-.09-1.17.28-1.28.85-.11.58.3,1.15.93,1.27l5.21,1c.63.12,1.23-.25,1.34-.84.11-.59-.3-1.15-.93-1.28l-5.21-1s-.04-.02-.06,0h0Z"/>
      <path id="rect106815-9-7-1-0" d="M24.64,57.96c.12.6-.21,1.19-.77,1.33-.58.15-1.17-.24-1.33-.85l-1.31-5.15c-.16-.62.18-1.24.76-1.39.58-.15,1.17.23,1.33.85l1.31,5.15s.02.04,0,.06h0Z"/>
      <path id="rect106815-9-7-5-20-5" d="M24.33,47.4c-.44.42-1.12.45-1.53.05-.43-.41-.43-1.11.02-1.58l3.66-3.85c.44-.46,1.14-.51,1.58-.1.43.41.42,1.11-.02,1.58l-3.66,3.85s-.02.03-.04.04h0Z"/>
      <path id="rect106815-9-7-5-2-7-9" d="M32.72,39.81c-.57.23-1.2,0-1.45-.52-.25-.54.02-1.19.6-1.46l4.82-2.22c.58-.26,1.25-.05,1.5.49.25.54-.02,1.19-.6,1.46l-4.82,2.22s-.04.02-.05.02h0Z"/>
    </g>
  </g>
</svg>