<?xml version="1.0" encoding="UTF-8"?>
<svg xmlns="http://www.w3.org/2000/svg" width="106" height="100" viewBox="0 0 106 100">
  <g id="Hintergrund">
    <rect id="Hintergrund-2" data-name="Hintergrund" x="3" width="100" height="100" rx="6" ry="6" fill="#555556"/>
  </g>
  <g id="vigilante">
    <path d="M42.73,27.31c-4.34-.18-8.61,1.13-12.09,3.72-.12.09-.23.18-.35.27-.76-.66-1.64-1.16-2.59-1.49-4.11-1.41-8.59.79-9.99,4.9-1.1,3.21-.02,6.76,2.68,8.81.11.08.23.16.35.23-2.93,7.65-.6,16.31,5.76,21.47,7.23,5.82,17.61,5.55,24.52-.65l26.53,7.96.34.1c.76.23,1.59-.03,2.08-.65l2.34-2.9.02-.02.79-.95,5.19-6.3c.68-.84.54-2.08-.3-2.76,0,0,0,0,0,0l-29.14-23.09c-.19-.15-.42-.26-.65-.33-.16-.04-.32-.06-.49-.06-1.1,0-2.16-.39-3.02-1.08-.86-.69-1.46-1.66-1.69-2.74-.09-.45-.3-.86-.61-1.2-.15-.17-.32-.32-.52-.44-2.76-1.7-5.91-2.67-9.15-2.8ZM25.05,32.12c.6-.01,1.19.08,1.76.28.5.18.98.43,1.4.75l-.05.05-.21.2-.2.2c-1.89,1.81-3.54,3.84-4.92,6.06l.17-.14c-.41.54-.78,1.1-1.13,1.68-.2-.16-.38-.34-.55-.53h0c-1.24-1.39-1.64-3.33-1.03-5.09.7-2.04,2.6-3.43,4.75-3.47Z" fill="#95a4ab" fill-rule="evenodd" stroke="#e8eaed" stroke-linecap="round" stroke-linejoin="round" stroke-width="6"/>
    <path d="M88.3,61.81l-5.19,6.3-.8.97c-.32.4.45-.72-.03-.66-.28.04-.56.02-.83-.06l-26.87-8.07c-6.91,6.2-17.29,6.47-24.52.65-6.77-5.46-8.95-14.83-5.29-22.71.65-1.39,1.46-2.7,2.43-3.9.2-.24.4-.48.6-.71.26-.29.52-.57.8-.84.46-.46.94-.89,1.44-1.29.02-.02.04-.03.06-.05.18-.14.36-.28.54-.42,6.22-4.63,14.64-4.99,21.24-.92.19.12.37.27.52.44.3.34.51.76.6,1.2.23,1.08.83,2.05,1.69,2.74.85.69,1.92,1.07,3.02,1.08.16,0,.33.02.49.06.24.06.46.17.66.33l29.14,23.09c.85.67.99,1.91.32,2.75,0,0,0,0,0,0h0Z" fill="#95a4ab" fill-rule="evenodd"/>
    <path d="M29.34,33.57c-.59,1.2-1.24,2.49-.91,2.79-.96.14-2.46,1.05-3.66,1.87-1.09.74-1.94,1.42-1.94,1.42,1.38-2.22,3.03-4.25,4.92-6.06.27-.27.55-.54.84-.81.47-.44.95-.87,1.44-1.29.02-.02.04-.03.06-.05h0c.12.31-.29,1.19-.75,2.13Z" fill="#95a4ab" fill-rule="evenodd"/>
    <path d="M30.42,32.75c-.32.33-.68.6-1.08.83-.47.29-1.06.31-1.55.06-.02,0-.03-.01-.05-.03.27-.27.55-.54.84-.81.46-.46.94-.89,1.44-1.29.02-.02.04-.03.06-.05h0c.18-.14.36-.28.54-.42.26.3.6.93-.21,1.72Z" fill="#505151" fill-rule="evenodd" isolation="isolate" opacity=".07"/>
    <path d="M30.58,37.72c-.11.08-.23.16-.36.23-.04.33-.12.65-.22.96-.92,2.68-3.83,4.11-6.51,3.19,0,0,0,0,0,0-.09-.03-.18-.07-.28-.1-.72-.29-1.36-.74-1.88-1.32h0c-1.24-1.39-1.64-3.33-1.03-5.09.92-2.68,3.83-4.11,6.51-3.19.55.19,1.06.47,1.52.83.16.13.37.16.57.09.42-.16.8-.41,1.12-.73.15-.15.29-.31.42-.48.17-.23.14-.56-.08-.75-.78-.69-1.68-1.21-2.66-1.55-4.11-1.41-8.59.79-9.99,4.9-1.1,3.21-.02,6.76,2.68,8.81.67.51,1.42.91,2.22,1.18,4.11,1.41,8.58-.78,9.99-4.89,0,0,0,0,0,0,.44-1.27.54-2.63.3-3.95-.7.7-1.48,1.33-2.31,1.87Z" fill="#87969d" fill-rule="evenodd"/>
    <path d="M58.19,35.63l-3.68,4.51-3.55,1.01s-2.47-1.06-2.4-1.58c.07-.52.26-4.75.26-4.75l3.57-4.27c.3.34.51.76.6,1.2.23,1.08.83,2.05,1.69,2.74.85.69,1.92,1.07,3.02,1.08.16,0,.33.02.49.06h0ZM88.3,61.81l-5.19,6.3c-.25.17-.54.28-.83.32l-.83-.06,2.97-5.05,3.57-4.27c.85.67.99,1.91.32,2.75,0,0,0,0,0,0Z" fill="#505151" fill-rule="evenodd" isolation="isolate" opacity=".19"/>
    <path d="M84.73,66.07l-4.77,5.91c-.5.62-1.32.88-2.09.65l-.34-.1-26.53-7.96c-6.91,6.2-17.29,6.47-24.52.65-8.14-6.56-9.42-18.47-2.86-26.61,0,0,0,0,0,0,5.98-7.42,16.56-9.24,24.67-4.23.58.37.99.97,1.12,1.64.23,1.08.83,2.05,1.69,2.74.85.69,1.92,1.07,3.02,1.07.41,0,.81.14,1.14.39l29.14,23.09c.85.67.99,1.9.32,2.74,0,0,0,0-.01.01Z" fill="#b7cbd6" fill-rule="evenodd"/>
    <path d="M54.93,35.74l-2.04,2.81c-.12.16-.32.24-.52.19-.06-.01-.13-.04-.18-.08l-1.03-.75c-.22-.16-.27-.47-.11-.7,0,0,0,0,0,0l2.04-2.8c.04-.05.09-.1.14-.13.17-.11.39-.1.55.02l1.03.75c.22.16.27.47.11.7,0,0,0,0,0,0Z" fill="#444c4f" fill-rule="evenodd"/>
    <path d="M54.55,35.81l-2.04,2.8c-.04.05-.09.1-.14.13-.06-.01-.13-.04-.18-.08l-1.03-.75c-.22-.16-.27-.47-.11-.7,0,0,0,0,0,0l2.04-2.8c.04-.05.09-.1.14-.13.06.01.13.04.18.08l1.03.75c.22.16.27.47.11.69,0,0,0,0,0,0Z" fill="#4f5456" fill-rule="evenodd"/>
    <path d="M48.74,58.85c-4.62,5.73-13.02,6.63-18.76,2.01-5.74-4.62-6.64-13.01-2.02-18.75,0,0,0,0,0,0,4.62-5.74,13.02-6.64,18.76-2.02h0c5.74,4.62,6.64,13.02,2.02,18.76,0,0,0,0,0,0h0Z" fill="#9cafbc" fill-rule="evenodd"/>
    <path d="M44.54,55.77c-.05,3.87-2.58,1.27-5.83,1-.15,0-.3-.02-.46-.02-3.46-.04-6.3,2.91-6.26-1.13.05-4.05,4.12-7.28,6.37-7.25.08,0,.16,0,.24.02,2.28.24,5.99,3.48,5.95,7.38ZM36.1,47.07l-.08.02c-1.17.3-2.46-.78-2.88-2.4-.41-1.62.21-3.18,1.38-3.49h0c1.17-.29,2.46.78,2.87,2.4.41,1.59-.17,3.11-1.29,3.47ZM43.66,44.82c-.45,1.61-1.77,2.66-2.94,2.33-.1-.03-.19-.07-.28-.11-.97-.48-1.42-1.93-1-3.4.45-1.61,1.77-2.66,2.93-2.33.23.07.44.18.63.34.73.63,1.02,1.89.67,3.18h0ZM47.38,49.73c-.76,1.28-2.12,1.87-3.05,1.32-.19-.11-.35-.27-.47-.46-.47-.7-.42-1.84.18-2.85.76-1.28,2.12-1.87,3.04-1.32.25.15.46.37.58.63.35.88.24,1.88-.28,2.67ZM32.81,50.43c-.13.19-.3.35-.5.47-.94.52-2.29-.1-3.01-1.4-.73-1.29-.56-2.77.38-3.3h0c.94-.52,2.28.11,3,1.4.57,1.01.59,2.14.12,2.83Z" fill="#fdcc64"/>
    <path d="M84.73,66.07l-4.77,5.91c-.5.62-1.32.88-2.09.65l-.34-.1,6.88-9.22c.85.67.99,1.9.32,2.74,0,0,0,0-.01.01Z" fill="#505151" fill-rule="evenodd" isolation="isolate" opacity=".19"/>
  </g>
</svg>
