<?xml version="1.0" encoding="UTF-8"?>
<svg xmlns="http://www.w3.org/2000/svg" width="108.4" height="100" viewBox="0 0 108.4">
  <g id="Hintergrund">
    <rect id="Hintergrund-2" data-name="Hintergrund" x="4.2" width="100" height="100" rx="6" ry="6" fill="#555556"/>
  </g>
  <g id="Hexe">
    <path d="M88.34,19s-.05,0-.08,0l-30.47,6.22c-.8.16-1.55.49-2.22.96l-16.79,11.84c-1.14.81-1.96,1.99-2.31,3.34l-4.48,17.36-.47-.02c-.22,0-.42.12-.5.31l-3.54,7.98c-.05.13-.05.27,0,.39l-9.86,8.68c-.49.25-.43,1.21.09,1.35,2.21.59,6.58,1.59,13.26,2.38,7.29.82,14.63,1.22,21.97,1.18.31,0,.61,0,.92,0,.24,0,.47,0,.71,0,1.4,0,2.81-.03,4.21-.07.31,0,.61-.02.92-.03.36-.01.72-.02,1.08-.04.34-.01.68-.03,1.01-.04.46-.02.92-.04,1.39-.06.21,0,.42-.02.63-.03.31-.02.61-.03.91-.05.25-.01.5-.03.75-.04.25-.02.51-.03.75-.04.24-.02.48-.03.71-.05.48-.03.96-.07,1.42-.1l.6-.04h.12c.22-.03.44-.05.65-.07.03,0,.07,0,.1,0,.41-.03.82-.07,1.23-.11.57-.05,1.13-.1,1.67-.16.28-.03.56-.06.84-.09.4-.04.8-.09,1.18-.13l.58-.07c.19-.03.38-.05.56-.07.3-.04.6-.08.88-.11.13-.01.25-.03.38-.05.23-.03.45-.06.67-.09.24-.03.48-.07.71-.1.17-.02.33-.05.49-.07.33-.05.65-.1.96-.15.01,0,.02,0,.04,0,.3-.05.59-.09.88-.14.61-.1,1.19-.21,1.74-.31.22-.04.43-.08.63-.12l.09-.02c.09-.02.18-.03.27-.05.22-.04.44-.09.64-.13l.5-.1c.55-.12,1.06-.23,1.52-.34.09-.02.18-.04.27-.06h0c.09-.02.17-.04.26-.06l.54-.13c.1-.03.2-.05.29-.07.18-.04.35-.09.51-.13.51-.14.58-1.09.09-1.35l-10.1-8.41c.23-.13.33-.42.22-.67l-3.53-7.97c-.09-.2-.29-.32-.5-.31h-.29s-3.77-19.4-3.77-19.4l18.32-19.67c.07-.07.11-.17.11-.27,0-.03,0-.07-.02-.1-.04-.16-.19-.28-.36-.28h0Z" fill="#53447f" stroke="#fff" stroke-linecap="round" stroke-linejoin="round" stroke-width="6"/>
    <path d="M88.17,77.43c-.16.04-.33.09-.51.13-.09.02-.19.05-.29.07-.17.04-.35.09-.54.13-.09.02-.17.04-.26.06h0c-.09.02-.18.04-.27.06-.46.11-.97.22-1.52.34-.16.03-.33.07-.5.1-.21.04-.42.09-.64.13-.09.02-.18.03-.27.05l-.09.02c-.21.04-.42.08-.64.12-.55.1-1.13.2-1.74.31l-.88.14s-.02,0-.04,0c-.31.05-.63.1-.96.15-.16.03-.33.05-.5.07-.23.04-.47.07-.71.1-.22.03-.44.06-.67.09-.12.02-.25.04-.38.05-.29.04-.58.08-.88.11-.19.02-.37.05-.56.07l-.58.07c-.39.05-.78.09-1.18.13l-.84.09c-.56.06-1.11.11-1.67.16-.4.04-.81.07-1.23.11-.03,0-.06,0-.1,0-.22.02-.43.04-.65.06h-.12s-.6.06-.6.06c-.46.04-.94.07-1.42.1-.23.02-.47.03-.71.05-.25.01-.5.03-.75.04-.25.01-.5.03-.75.04-.3.02-.6.04-.91.05-.21,0-.42.02-.63.03-.45.02-.92.04-1.38.06-.34.02-.67.03-1.01.04-.36.01-.72.03-1.08.04l-.92.03c-1.36.03-2.76.06-4.21.07-.24,0-.47,0-.71,0-.3,0-.61,0-.92,0-7.34.03-14.68-.36-21.97-1.18-6.69-.79-11.06-1.79-13.26-2.38-.52-.14-.58-1.09-.09-1.35l10.89-9.59,24.43,1.49,9.35-.34,2.7-.16,12.07-.73,11.2,9.33c.49.25.43,1.21-.09,1.35h0ZM88.61,19.65l-18.32,19.67,3.83,19.72-9.69,2.66-11.5,3.16-21.24-4.99,4.77-18.49c.35-1.35,1.17-2.54,2.31-3.34l16.79-11.84c.67-.47,1.42-.79,2.22-.96l30.48-6.22s.05,0,.08,0c.17,0,.32.11.36.28.01.03.02.07.02.1,0,.1-.04.2-.11.27h0Z" fill="#53447f"/>
    <path d="M88.61,19.65l-18.32,19.67,3.83,19.72-9.69,2.66-1.13-24.45,25.4-17.96s.02.07.02.1c0,.1-.04.2-.11.27ZM88.17,77.43c-.16.04-.33.09-.51.13-.09.02-.19.05-.29.07-.17.04-.35.09-.54.13-.09.02-.17.04-.26.06h0c-.09.02-.18.04-.27.06-.46.11-.97.22-1.52.34-.16.03-.33.07-.5.1-.21.04-.42.09-.64.13-.09.02-.18.03-.27.05l-.09.02c-.21.04-.42.08-.64.12-.55.1-1.13.2-1.74.31l-.88.14s-.02,0-.04,0c-.31.05-.63.1-.96.15-.16.03-.33.05-.5.07-.23.04-.47.07-.71.1-.22.03-.44.06-.67.09-.12.02-.25.04-.38.05-.29.04-.58.08-.88.11-.19.02-.37.05-.56.07l-.58.07c-.39.05-.78.09-1.18.13l-.84.09c-.56.06-1.11.11-1.67.16-.4.04-.81.07-1.23.11-.03,0-.06,0-.1,0-.22.02-.43.04-.65.06h-.12s-.6.06-.6.06c-.46.04-.94.07-1.42.1-.23.02-.47.03-.71.05-.25.01-.5.03-.75.04-.25.01-.5.03-.75.04-.3.02-.6.04-.91.05-.21,0-.42.02-.63.03-.45.02-.92.04-1.38.06-.34.02-.67.03-1.01.04-.36.01-.72.03-1.08.04l-.92.03c-1.36.03-2.76.06-4.21.07-.24,0-.47,0-.71,0-.3,0-.61,0-.92,0-7.34.03-14.68-.36-21.97-1.18h0s36.31-3.3,36.31-3.3l-2.28-9.03,12.07-.73,11.2,9.33c.49.25.43,1.21-.09,1.35h0Z" fill="#4a4171"/>
    <path d="M31.51,58.72l21.14.84h.04l21.66-.84c.22,0,.42.12.5.32l3.53,7.97c.12.27,0,.58-.27.7-.06.03-.12.04-.18.04l-24.96,1.49s-.04,0-.06,0l-24.98-1.48c-.29-.02-.51-.27-.5-.56,0-.06.02-.13.04-.18l3.54-7.98c.09-.2.29-.32.5-.31h0Z" fill="#332b37"/>
    <path d="M35.78,62.66s1.05-1.37,2.26-.82c1.21.55.99,3.5-2.64,4.59,0,0-2.35-1.08-2.6-3.13-.25-2.05,1.35-2.21,1.96-1.82.44.29.8.7,1.02,1.18h0ZM63.09,62.98s.8-1.53,2.09-1.2c1.29.33,1.58,3.27-1.81,4.98,0,0-2.5-.66-3.1-2.64s.94-2.41,1.61-2.13c.49.21.91.55,1.21.98ZM71.99,62.11s.64-1.61,1.95-1.42c1.31.19,1.92,3.09-1.28,5.15,0,0-2.56-.39-3.36-2.3-.81-1.9.68-2.5,1.38-2.29.51.16.96.45,1.31.85Z" fill="#1e1921"/>
    <path d="M55.2,70.52l-8.5-.17c-1.41-.03-2.54-1.1-2.51-2.38l.16-7.72c.03-1.28,1.2-2.3,2.61-2.27l8.5.17c1.41.03,2.54,1.1,2.51,2.38l-.16,7.72c-.03,1.28-1.2,2.3-2.61,2.27ZM46.92,59.52c-.45-.03-.84.31-.87.76l-.16,7.72c.01.45.39.8.84.79l8.5.17c.45.03.84-.31.87-.76l.16-7.72c-.01-.45-.39-.8-.84-.79l-8.5-.17Z" fill="#efca37"/>
    <path d="M50.21,64.9l-4.82-.1c-.52-.01-.92-.44-.92-.95.01-.52.44-.93.95-.92l4.82.1c.52.01.93.44.92.95-.01.52-.44.92-.95.92h0Z" fill="#efca37"/>
  </g>
</svg>
