<?xml version="1.0" encoding="UTF-8"?>
<svg xmlns="http://www.w3.org/2000/svg" width="106" height="100" viewBox="0 0 106 100">
  <g id="Hintergrund">
    <rect id="Hintergrund-2" data-name="Hintergrund" x="3" width="100" height="100" rx="6" ry="6" fill="#555556"/>
  </g>
  <g id="Werwölfe">
    <g id="Wächterwolf">
      <path d="M38.75,18.2s-.56,11.03,1.37,16.33c-3.03,2.66-6.43,5.68-6.97,6.41-.88,1.2-.22,6.36-3.17,8.55-1.49,1.1-4.7,3.19-7.53,4.99-2.78,1.77-5.19,3.27-5.19,3.27,0,0,.93.93,2.4,2.17,2.49,2.11,6.51,5.11,10.1,5.96,1.57.37,3.45.19,5.42-.2.66-.13,1.31-.28,1.96-.44,3.94-.96,7.95-2.3,10.33-1.36.4.16.75.38,1.05.67,1.24,1.23,1.97,2.44,2.38,3.48.14.35.24.67.32.98.16.6.21,1.1.22,1.45.01.35,0,.55,0,.55,0,0,.2-.34.5-.9.91-1.68,2.73-5.38,2.74-8.09,0,0,.12.06.32.19.2.13.49.32.82.58,1.16.9,2.13,2,2.88,3.26.6,1.02,1.02,2.13,1.25,3.29.34,1.69.32,3.7-.34,6.05,0,0,.15-.14.39-.4,1.07-1.12,4.06-4.49,5.57-8.65.03.98.06,1.99.06,3.07h0l-.12,4.18h0v.1c-.1,1.35-.26,2.7-.46,4.04l-.02.1c-.24,1.58-.49,2.86-.49,3.51,0,.23.03.38.11.43.27.19,1.74-.6,3.5-2.29l.08-.08c1.13-1.11,2.14-2.34,3.01-3.66l.07-.1h0c.95-1.48,1.74-3.06,2.36-4.71h0c.66-1.81,1.07-3.7,1.2-5.62.11-1.36-.02-2.73-.37-4.05-.27-.92-.55-1.9-.86-2.91.13.2.27.4.42.59.37.51.76,1,1.16,1.49.43.52.87,1.03,1.31,1.54h0s2.48,2.78,2.48,2.78l.06.07c.79.88,1.58,1.75,2.38,2.62l.06.07c1.27,1.37,2.23,2.32,2.55,2.22.32-.1.63-1.43.68-3.42h0s0-.1,0-.1c.02-1.28-.06-2.57-.24-3.84l-.02-.1c-.4-.21-.8-.41-1.21-.61.41.2.81.4,1.21.61-.22-1.4-.54-2.79-.95-4.14h0c-.47-1.47-1.1-2.89-1.87-4.22-.55-.95-1.25-1.8-2.07-2.53.18.08.37.17.55.25h0s2.87,1.25,2.87,1.25l.07.03c.97.42,1.91.82,2.73,1.16l.07.03c1.45.6,2.52.98,2.73.8.21-.18-.02-1.31-.68-2.85l-.03-.07c-.44-.99-.95-1.94-1.54-2.84l-.05-.07h-.19c.06,0,.13,0,.19,0-.65-1-1.38-1.94-2.18-2.82h0c-.87-.96-1.85-1.82-2.92-2.56-.75-.53-1.59-.94-2.47-1.2-.82-.22-1.7-.5-2.61-.78l-.13-.04c-.95-.31-1.92-.59-2.89-.83,1.09-.71,2.17-1.61,2.96-2.74,0,0-2.27,0-4.69-.48-.49-.1-.97-.21-1.45-.35-.24-.07-.48-.14-.71-.22-.45-.15-.9-.34-1.32-.56-.2-.1-.4-.22-.59-.34,0,0,0-.01,0-.02-.13-.41-2.27-6.94-4.84-10.66-1.73-2.46-3.68-4.76-5.81-6.88,0,0-4.1,5.8-5.05,10.81,0,0-1.02-.32-2.53-.23h0s-2.3-2.51-5.6-6.41c-3.29-3.9-4.76-4.54-4.76-4.54ZM82.89,51.83h0ZM77.56,56.22s0,0,0,0c0,.08-.02.16-.03.24l.03-.24ZM77.12,59.26c-.08.46-.17.91-.27,1.36.09-.45.18-.9.27-1.36h0ZM80.15,60.45h0ZM70.09,64.77h0c-.28.37-.57.74-.87,1.1.3-.36.59-.72.87-1.1ZM71.18,66c.07.12.15.23.22.35-.07-.12-.14-.23-.22-.35h0ZM68.95,66.18c-.34.39-.68.78-1.04,1.15.36-.37.7-.76,1.04-1.15h0Z" fill="#37474f" stroke="#fff" stroke-linecap="round" stroke-linejoin="round" stroke-width="6"/>
      <path d="M38.75,18.2s-.71,13.88,2.19,17.99c2.9,4.11,8.17-7.06,8.17-7.06,0,0-2.3-2.5-5.6-6.39-3.29-3.9-4.76-4.54-4.76-4.54h0Z" fill="#37474f"/>
      <path d="M72.2,64.45c-.61-3.63-6.34-6.43-6.34-6.43,3.03,8.53-6.25,17.37-6.25,17.37,2.63-9.39-4.93-13.36-4.93-13.36,0,3.62-3.24,8.99-3.24,8.99,0,0,.41-3.19-2.92-6.46-2.41-2.37-8.18.1-13.35,1.12-1.97.39-3.85.57-5.42.2-3.59-.85-7.61-3.85-10.1-5.96-1.47-1.24-2.4-2.17-2.4-2.17,0,0,2.4-1.49,5.19-3.26,2.82-1.8,6.04-3.89,7.53-4.99,2.95-2.19,2.3-7.35,3.17-8.55.88-1.2,11.06-9.99,11.06-9.99,3.76-2.79,7.41-1.58,7.41-1.58.95-5.01,5.05-10.81,5.05-10.81,2.13,2.12,4.08,4.42,5.81,6.88,2.57,3.71,4.71,10.25,4.84,10.66,0,0,0,.01,0,.02,2.96,1.94,8.76,1.95,8.76,1.95-2.45,3.52-7.68,4.84-7.68,4.84,6.87,2.3,8.4,9.7,8.4,9.7-3.28-2.8-9.47-1.89-9.47-1.89,7.2,4.76,4.84,13.72,4.84,13.72h0Z" fill="#455a64"/>
      <path d="M36.21,49.03s1.89-3.25,3.07-3.78,5.58-1.07,5.58-1.07c0,0-2.18,3-3.69,3.36-1.51.35-4.96,1.49-4.96,1.49Z" fill="#81d4fa"/>
      <path d="M22.58,58.13c-.18.36-1.28.91-1.4,1-.12.1-.15-.52-.15-.52l-.94-.12-.19.8-.23.64c-1.47-1.24-2.4-2.17-2.4-2.17,0,0,2.4-1.49,5.19-3.26,0,0,.31,3.28.13,3.64ZM72.2,64.45c-.61-3.63-6.34-6.43-6.34-6.43,3.03,8.53-6.25,17.37-6.25,17.37,2.63-9.39-4.93-13.36-4.93-13.36,0,3.62-3.24,8.99-3.24,8.99,0,0,.41-3.19-2.92-6.46-2.41-2.37-8.18.1-13.35,1.12,0,0,6.6-4.11,11.44-3.98,4.84.12,5.62,2.81,5.62,2.81,0,0,1.3-4.3.1-6.53,0,0,4.72-.41,8.37,2.05,0,0-1.46-6.04-4.81-7.42,0,0,5.43-1.02,8.58.39,0,0,.61-3.27-4.06-5.35,0,0,4.23-1.21,8.06-.03,0,0-2.87-4.62-6.53-5.71,0,0,5.73-.95,7.54-2.22-.96-1.02-1.7-2.24-2.15-3.57,2.96,1.94,8.76,1.95,8.76,1.95-2.45,3.52-7.68,4.84-7.68,4.84,6.87,2.3,8.4,9.7,8.4,9.7-3.28-2.8-9.47-1.89-9.47-1.89,7.2,4.76,4.84,13.72,4.84,13.72ZM57.22,22.72s3.87,5.12,4.34,8.79-.18,5.64-.18,5.64c0,0-1.96-3.29-5.41-5.26-3.45-1.97,1.24-9.17,1.24-9.17h0Z" fill="#37474f"/>
      <g>
        <path d="M86.34,49.04c-.38-.02-.76-.03-1.14-.04-.95-.02-1.9,0-2.85.05.21.92.39,1.83.54,2.74.06.36.11.71.16,1.07l-2.87-1.25s0,0,0,0c-.52-.23-1.03-.47-1.54-.71-.48-.23-.95-.47-1.41-.73h0c-1.43-.76-2.45-1.92-3.71-2.77l-.09-.06c-.57-.38-1.22-.76-1.9-1.14-.68-.38-1.37-.75-2.06-1.11l-.11-.06c-1.97-1.06-3.53-2-3.23-3.46.19-.77.99-1.16,1.93-1.32.4-.07.81-.1,1.21-.09.54,0,1.08.05,1.61.14l.13.03c1.7.33,3.38.77,5.02,1.31l.13.04c.91.28,1.79.56,2.61.78.88.26,1.72.67,2.47,1.2,1.07.74,2.05,1.6,2.92,2.56h0c.8.88,1.53,1.83,2.18,2.82h0Z" fill="#e7e0cf"/>
        <path d="M85.91,54.08c1.45.6,2.52.98,2.73.8.21-.18-.02-1.31-.68-2.85-.76-.09-1.52-.15-2.28-.19.1.75.18,1.49.23,2.24Z" fill="#212121"/>
        <path d="M82.35,49.05c.95-.05,1.9-.07,2.85-.05.38,0,.76.02,1.14.04l.05.07c.59.91,1.1,1.86,1.54,2.84l.03.07c-.76-.09-1.52-.15-2.28-.19.1.75.18,1.49.23,2.24l-.07-.03c-.82-.34-1.76-.74-2.73-1.16l-.07-.03c-.05-.35-.1-.71-.15-1.07-.15-.91-.33-1.82-.54-2.74Z" fill="#d74c48"/>
        <path d="M88.02,54.19c-7.31-8.09-17.46-13.04-28.33-13.83l-.04.61c10.81.59,20.97,5.32,28.37,13.22Z" fill="#59172f"/>
      </g>
      <path d="M83.56,58.11c-.91-.39-1.83-.76-2.74-1.09-1.08-.39-2.15-.74-3.23-1.04-.12,1.11-.27,2.21-.47,3.29-.16.91-.35,1.81-.57,2.7-.45-.51-.88-1.02-1.32-1.54-.4-.48-.79-.98-1.16-1.49-1.16-1.48-1.72-3.33-2.63-4.85l-.07-.12c-.9-1.45-3.26-4.53-3.26-4.53h0c-1.6-2.13-2.82-3.93-1.76-5.35.18-.25.42-.44.69-.57.21-.04.43-.06.65-.06,1.51-.03,3.05.7,4.44,1.63l.13.09s0,0,0,0c1.64,1.13,3.22,2.53,4.78,3.93l.12.11c.84.76,1.65,1.5,2.43,2.15.83.73,1.53,1.58,2.08,2.53.78,1.33,1.41,2.75,1.88,4.22Z" fill="#d9ceb4"/>
      <path d="M80.18,60.27c-.22,1.1-.49,2.18-.78,3.24-.12.41-.24.82-.37,1.23l.06.06h0c.79.88,1.58,1.75,2.38,2.62l.06.07c1.27,1.37,2.23,2.32,2.55,2.23.31-.1.63-1.43.68-3.42v-.1c.02-1.28-.06-2.57-.24-3.84l-.02-.1c-.4-.21-.81-.41-1.21-.61-1.03-.5-2.07-.96-3.12-1.37h0Z" fill="#212121"/>
      <path d="M79.04,64.74c.13-.41.25-.82.36-1.23.3-1.06.56-2.14.78-3.24,1.04.41,2.08.87,3.12,1.37.41.2.81.4,1.21.61-.22-1.4-.54-2.79-.95-4.15-.91-.39-1.83-.76-2.75-1.09-1.08-.39-2.15-.74-3.23-1.04-.12,1.12-.27,2.21-.47,3.29-.16.91-.35,1.81-.57,2.7l2.48,2.78Z" fill="#d74c48"/>
      <path d="M83.76,68.67c-3.87-12.4-12.38-22.83-23.76-29.11l-.34.64c11.4,6.03,20.04,16.23,24.1,28.47h0Z" fill="#59172f"/>
      <g>
        <path d="M74.9,65.3c-.13,1.92-.54,3.81-1.2,5.62-.42-1.06-.9-2.09-1.43-3.09-.6-1.12-1.28-2.21-2.03-3.24-.73.99-1.52,1.92-2.38,2.8-.7.71-1.44,1.39-2.21,2.01-.01-1.53-.08-2.99-.09-4.3.33-3.18.43-4.28.28-6.04v-.15c-.19-2.01-.58-4-1.17-5.93-.01-.05-.03-.1-.05-.15,0-.04.02-.08.03-.12l-.03.12c-.82-2.88-1.69-5.2-.26-6.32.25-.2.55-.31.86-.34.94-.07,2.08.63,3.24,1.88l-.27.02c.13.03.25.07.38.1.56.63,1.06,1.29,1.51,2,0,0,0,0,0,0,.03.05.07.11.1.17,1.3,2.17,2.34,4.48,3.11,6.89h0c.02.07.05.13.07.19.43,1.32.8,2.62,1.15,3.81.35,1.32.48,2.69.37,4.05h0Z" fill="#e7e0cf"/>
        <path d="M71.34,75.63l-.07.1c-.87,1.32-1.88,2.55-3.01,3.66l-.08.08c-1.77,1.69-3.23,2.48-3.51,2.29-.08-.05-.11-.2-.11-.43,0-.64.25-1.92.49-3.51l.02-.1c.18-1.22.35-2.61.45-4.04v-.1c.41-.25.8-.51,1.19-.78,1.02-.71,1.99-1.48,2.9-2.32.53,1.18.97,2.39,1.33,3.63.15.5.28,1,.4,1.52Z" fill="#212121"/>
        <path d="M65.52,73.58c.4-.25.79-.51,1.18-.78,1.02-.71,1.99-1.48,2.9-2.32.53,1.18.97,2.39,1.33,3.63.15.5.28,1,.4,1.52.95-1.48,1.74-3.06,2.36-4.7-.42-1.06-.9-2.09-1.43-3.09-.6-1.13-1.28-2.21-2.03-3.24-.73.99-1.52,1.92-2.38,2.8-.7.71-1.44,1.39-2.21,2.01l-.12,4.18Z" fill="#d74c48"/>
        <path d="M65.43,80.64c8.85-13.48,5.52-31.53-7.55-40.97-.14.2-.28.41-.43.61,12.89,8.97,16.59,26.74,7.97,40.36h0Z" fill="#59172f"/>
      </g>
      <g>
        <g>
          <circle cx="60.5" cy="40.01" r="3.16" fill="#c6773f"/>
          <path d="M60.5,43.96c-.97,0-1.9-.36-2.62-1-.78-.7-1.25-1.68-1.31-2.72-.06-1.05.3-2.07,1-2.85.7-.78,1.68-1.25,2.72-1.31,1.05-.06,2.07.3,2.85,1,.78.7,1.25,1.68,1.31,2.72.06,1.05-.3,2.07-1,2.85-.7.78-1.68,1.25-2.72,1.31-.08,0-.15,0-.23,0h0ZM60.37,37.65c-.63.03-1.21.32-1.63.79-.42.47-.63,1.08-.6,1.71.03.63.32,1.21.79,1.63.47.42,1.08.63,1.71.6.63-.03,1.21-.32,1.63-.79.42-.47.63-1.08.6-1.71-.03-.63-.32-1.21-.79-1.63-.47-.42-1.08-.63-1.71-.6h0Z" fill="#b15c2f"/>
        </g>
        <path d="M61.58,42.05l-1.12-.89-1.18.8.21-1.41-1.28-.63,1.33-.52-.1-1.42,1.12.89,1.18-.8-.21,1.41,1.28.63-1.33.52.1,1.42Z" fill="#b15c2f"/>
      </g>
    </g>
  </g>
</svg>