<?xml version="1.0" encoding="UTF-8"?>
<svg xmlns="http://www.w3.org/2000/svg" width="108.4" height="100" viewBox="0 0 108.4">
  <g id="Hintergrund">
    <rect id="Hintergrund-2" data-name="Hintergrund" x="4.2" width="100" height="100" rx="6" ry="6" fill="#555556"/>
  </g>
  <g id="Werwölfe">
    <g id="Wolfseher">
      <path d="M56.53,22.22c-.84,0-1.68.01-2.52.05-12.05.5-21.08,3.56-21.11,3.57h0s0,0,0,0h0c-1.85,1.04-4.2,9.67-5.08,15.92-.29,2.1-.57,4.48-.71,7.02-1.44.99-2.89,1.96-4.35,2.93-1.82,1.21-3.65,2.4-5.48,3.59l.07.07c.8.79,1.63,1.55,2.49,2.29h0c2.14,1.84,5.35,4.29,8.51,5.65.13.46.26.93.41,1.39,2.54,7.94,6.95,11.23,13.03,11.77,6.08.55,9.4-2.26,9.4-2.26,1.26.82,2.66,1.37,4.14,1.63,6.39,2.01,12.77,1.97,12.77,1.97l10.92-6.31c2.13-1.23,3.19-2.65,3.51-4.76.24-1.58-.49-4.46-1.09-6.94-.19-.76-.36-1.53-.52-2.3-.19-1.02-.16-1.98.08-3.05.41-1.78,1.41-3.87,2.94-7.04,2.45-5.07,4.78-7.33,4.78-7.33h0c-.19-.43-.38-.85-.59-1.27-3.06-6.2-7.74-10.23-13.03-12.76h0c-5.92-2.83-12.59-3.79-18.57-3.8h0Z" fill="#6c5353" stroke="#fff" stroke-linecap="round" stroke-linejoin="round" stroke-width="6"/>
      <path d="M32.66,26.37c.11-.28.39-.45.69-.41.56.04,20.03,4.54,29.6,20.46,9.57,15.92,4.85,27.59-3.42,28.52-8.26.93-6.73-1.93-9.61-.61s-14.2,3.17-18.51-8.62c-4.31-11.79-.81-35.69,1.24-39.34Z" fill="#21010e"/>
      <path d="M33.21,26.06s-2.43,10.28-2.75,19.6c-.33,9.32,0,20.21,5.58,25.49,5.58,5.28,15.16,2.5,15.16,2.5v.53s-3.32,2.81-9.4,2.26c-6.08-.55-10.5-3.83-13.04-11.77-2.54-7.94-1.82-16.67-.94-22.92.88-6.25,3.23-14.88,5.08-15.91l.34.15-.03.08Z" fill="#f89e28"/>
      <path d="M75.55,62.2c-.67-3.95-6.76-6.96-6.76-6.96,2.15,6.07-1.32,12.33-3.96,15.92-.68.04-1.35.08-2.03.12.46-4.67-1.81-9.19-5.83-11.6.01,3.94-3.37,9.81-3.37,9.81,0,0,.41-3.47-3.13-7.01-2.56-2.56-8.67.16-14.14,1.31-2.08.44-4.07.65-5.74.26-3.81-.9-8.09-4.14-10.74-6.42-1.56-1.34-2.56-2.35-2.56-2.35,0,0,2.54-1.64,5.48-3.59,2.98-1.98,6.38-4.27,7.95-5.49,3.11-2.41,2.38-8.01,3.31-9.33.92-1.31,11.66-10.95,11.66-10.95,3.97-3.06,24.39,5,24.53,5.44v.02c3.16,2.09,9.31,2.07,9.31,2.07-2.58,3.85-8.11,5.32-8.11,5.32,7.29,2.46,8.97,10.51,8.97,10.51-3.5-3.03-10.05-1.99-10.05-1.99,7.67,5.13,5.23,14.91,5.23,14.91Z" fill="#5e676a"/>
      <path d="M37.3,45.66s1.98-3.55,3.23-4.13c1.25-.58,5.91-1.2,5.91-1.2,0,0-2.29,3.28-3.89,3.68-1.6.4-5.25,1.66-5.25,1.66Z" fill="#2fffe5"/>
      <path d="M22.92,55.66c-.19.4-1.35.99-1.48,1.1-.12.11-.16-.57-.16-.57l-1-.13-.2.87-.24.7c-1.56-1.34-2.56-2.35-2.56-2.35,0,0,2.54-1.64,5.48-3.59,0,0,.35,3.57.16,3.97ZM75.55,62.2c-.67-3.95-3.2-4.61-3.2-4.61,2.15,6.07-2.56,12.68-7.35,14.8-.71.04-2.06.64-2.57.67,2.29-9.07-5.46-13.38-5.46-13.38.01,3.94-3.37,9.81-3.37,9.81,0,0,.41-3.47-3.13-7.01-2.56-2.56-8.67.16-14.14,1.31,0,0,6.97-4.52,12.1-4.42,5.13.1,5.97,3.02,5.97,3.02,0,0,1.35-4.69.06-7.11,0,0,5-.48,8.88,2.17,0,0-1.59-6.57-5.14-8.04,0,0,5.75-1.15,9.1.37,0,0,.63-3.56-4.34-5.79,0,0,4.47-1.35,8.54-.08,0,0-3.07-5.01-6.96-6.17,0,0,6.06-1.07,7.97-2.47-1.03-1.12-1.82-2.44-2.31-3.88,3.15,2.09,9.3,2.07,9.3,2.07-2.58,3.85-8.11,5.32-8.11,5.32,7.29,2.46,8.97,10.51,8.97,10.51-3.5-3.03-10.05-1.99-10.05-1.99,7.67,5.13,5.23,14.91,5.23,14.91h0Z" fill="#4b5355"/>
      <path d="M33.21,26.06s10.02,4.56,20.35,15.77c10.33,11.22,10.64,18.25,10.06,22.71-.59,4.46-5.24,8.73-12.43,9.1,0,0,1.06.89,1.7,1.11.64.22,14.36,3.12,15.15-10.4.79-13.52-9.58-30.94-34.83-38.29h0Z" fill="#21010e" isolation="isolate" opacity=".29"/>
      <path d="M88.72,40.05s-2.34,2.26-4.78,7.33c-2.45,5.07-3.54,7.36-3.02,10.09.52,2.72,1.92,7.12,1.6,9.24-.32,2.11-1.38,3.53-3.51,4.76l-10.92,6.3s-9.46.07-16.89-3.6c.34.14,11.66,4.68,16.36-5.88h0c.27-.62.51-1.25.72-1.89,4.2-13.14-7.46-27.02-20.05-34.68,0,0-7.73-5.13-14.58-5.78l-.74-.12s9.05-3.07,21.12-3.57c6.58-.27,14.32.52,21.08,3.75h0c5.64,2.7,10.6,7.11,13.62,14.03h0Z" fill="#6d0330"/>
      <path d="M88.72,40.05s-2.34,2.26-4.78,7.33c-2.45,5.07-3.54,7.36-3.02,10.09.52,2.72,1.92,7.12,1.6,9.24-.32,2.11-1.38,3.53-3.51,4.76l-10.92,6.3s-9.46.07-16.89-3.6c.34.14,11.66,4.68,16.36-5.88h0c.92-1.22,1.57-2.61,1.91-4.09,1.35-6.15.29-13.3.54-24.61.25-11.17,4.98-13.53,5.1-13.58h0c5.64,2.7,10.6,7.11,13.62,14.03h0Z" fill="#4f0227"/>
      <path d="M32.9,25.84l.31.23s7.9,2.48,17.29,9.76c9.39,7.29,13.71,13.93,15.27,19.87,1.56,5.94.79,10.43-.99,13.59s-6.26,6.43-13.58,4.36v.53c2.88,1.9,6.49,2.36,9.76,1.25,5.52-1.89,9.01-7.16,8.81-15.22-.2-8.06-5.01-16.69-13.55-23.7-8.54-7.01-18.79-11.78-23.31-10.67Z" fill="#f89e28"/>
    </g>
  </g>
</svg>
