<?xml version="1.0" encoding="UTF-8"?>
<svg xmlns="http://www.w3.org/2000/svg" width="122.2" height="58.5" viewBox="0 0 122.2 58.5">
  <g id="Hintergrund">
    <rect id="Hintergrund-2" data-name="Hintergrund" width="122.2" height="58.5" rx="3.51" ry="3.51" fill="#555556"/>
    <path id="Trennstrich" d="M58.47,34.75l4.23-11h1.03l-4.25,11h-1.02Z" fill="#fff"/>
  </g>
  <g id="Narr">
    <path d="M18.72,43.56l-.35-1.86c-.19-.99-.32-1.67-.35-2.81-.31-.72-.71-1.39-1.18-2.01-.22-.29-.46-.57-.72-.82-.68-.66-1.26-.91-1.51-.85-.35.08-.66.21-.94.39-.33.22-.6.53-.78.89-.06.12-.1.21-.14.29-.07.18-.13.36-.17.53.42.45.73,1.01.87,1.62.42,1.86-.75,3.73-2.62,4.15-.91.21-1.83.04-2.62-.45-.78-.49-1.33-1.26-1.53-2.17-.31-1.35.23-2.7,1.26-3.5.08-2.27.63-6.52,3.45-9.36,1.86-1.88,4.35-2.8,7.38-2.72,1.85.04,3.59.43,5.2,1.15h0v-.11c0-.11,0-.23-.01-.34l-.04-.37c-.02-.2-.06-.38-.11-.57l-.02-.08c-.01-.05-.03-.11-.05-.16l-.09-.26c-.07-.17-.14-.32-.23-.46l-.04-.07c-.13-.2-.31-.44-.5-.65-.14-.15-.29-.3-.44-.44-.45-.4-.96-.74-1.54-1.02-.52.3-1.12.45-1.74.45-1.91-.02-3.45-1.6-3.43-3.51.01-.93.38-1.79,1.04-2.44.65-.64,1.51-.99,2.43-.99h.04c.86,0,1.67.34,2.28.89,2.03-.43,5.42-.48,9.23,2.2,2.07,1.46,3.63,3.5,4.63,6.07h.03c2.85-1.06,5.49-1,7.86.18,3.58,1.77,5.48,5.61,6.29,7.74.57.19,1.08.54,1.49,1,1.26,1.44,1.11,3.64-.34,4.89-1.44,1.26-3.64,1.1-4.89-.34-.61-.7-.91-1.59-.85-2.52.03-.43.13-.84.31-1.21-.49-.79-1.3-1.46-2.6-1.33-.14.01-.39.16-.68.55-.13.16-.25.35-.35.54-.25.45-.46.96-.61,1.49-.11.38-.2.77-.27,1.16-.09.5-.14.99-.14,1.49l.06.42c.03.3.07.55.09.77.11.87.2,1.56-.03,2.76l-.32,1.68-1.69-.28c-5.89-.98-11.88-.94-18.32.14l-1.69.28ZM14.7,31.69c1.03,0,2.38.41,3.88,1.87.38.37.73.77,1.05,1.2.73.95,1.32,2,1.77,3.12l.12.31v.33c0,.41.02.74.05,1.04,5.44-.76,10.59-.82,15.66-.17l-.12-.95c-.05-.91.02-1.83.18-2.73.09-.51.21-1.04.36-1.54.22-.75.53-1.49.9-2.18.2-.36.41-.68.65-.99,1.11-1.43,2.31-1.82,3.12-1.9.5-.05.99-.04,1.45.01-.59-.65-1.28-1.22-2.07-1.61-1.49-.74-3.16-.75-5.09-.04-.52.19-1.03.41-1.52.66l-1.94.98-.55-2.1c-.7-2.68-2.01-4.7-3.89-6.03-1.88-1.32-3.54-1.75-4.87-1.79.32.22.63.47.92.72.25.22.49.46.72.71.32.36.62.75.88,1.15l.07.12c.19.32.35.64.48.97l.16.43c.05.14.08.26.11.38l.04.16c.07.29.14.62.18.96l.06.58c.01.18.02.38.02.57v.08c0,.18,0,.38-.01.58v.11c-.02.19-.03.38-.05.57l-.06.48c-.02.18-.05.35-.08.51l-.05.29c-.03.18-.07.37-.11.55l-.04.19-.6,2.6-2.15-1.58c-1.64-1.21-3.55-1.85-5.66-1.9-2.06-.05-3.63.5-4.81,1.68-.63.63-1.09,1.39-1.44,2.19.44-.22.91-.38,1.39-.49.26-.06.55-.1.88-.1Z" fill="#fff"/>
    <path d="M34.13,38.69c.2.05,3.51-13.58-4.37-19.13-5.46-3.85-9.7-1.25-9.7-1.25l-.16.99s3.03.61,4.85,3.19c3.23,4.6-2.5,13.38-2.06,16.44l11.44-.24Z" fill="#87cdef"/>
    <path d="M20,18.72l-.09.57s3.03.61,4.85,3.19c1.92,2.72.68,6.91-.55,10.52l4.72,4.31s.33-5.17.42-10.78c.07-4.54-3.95-7.45-9.34-7.81h0Z" fill="#73c4ec"/>
    <path d="M28.32,37.52s-1.52-8.29,7.72-11.7c9.24-3.41,12.31,8.11,12.31,8.11l-.87.58s-1.05-4.04-4.95-3.66c-2.57.25-4.1,5.38-3.53,8.42l-9.55.54-1.14-2.29Z" fill="#f4bd5a"/>
    <path d="M41.33,29.13c-2.02-.03-4.05.87-5.54,2.72-1.67,2.08-2.15,4.98-2.14,7.72l5.36-.3c-.57-3.04.95-8.17,3.53-8.42,3.89-.38,4.95,3.66,4.95,3.66l.43-.29c-1.26-3.34-3.9-5.05-6.58-5.09h0Z" fill="#f2ae37"/>
    <path d="M50.08,34.81c-.31-.9-1.28-1.37-2.18-1.07-.9.31-1.37,1.28-1.07,2.18,0,.01,0,.02.01.03.32.89,1.31,1.35,2.2,1.02.88-.32,1.34-1.28,1.04-2.17" fill="#fefc25"/>
    <path d="M31.25,37.92s-2.65-11.02-12.49-11.25c-9.85-.24-9.02,11.66-9.02,11.66l1.01.27s-.31-4.17,3.5-5.07c2.52-.59,5.62,3.77,6.06,6.83l9.94-1.21,1.01-1.22Z" fill="#fadb89"/>
    <path d="M17.24,31.08c-.44,0-.88.05-1.33.13-2.02.39-5.36,1.25-5.8,7.2l.64.17s-.31-4.17,3.5-5.07c2.52-.59,5.62,3.77,6.06,6.83l5.26-1.48c-.74-4.26-4.13-7.84-8.33-7.79h0Z" fill="#f8cc57"/>
    <path d="M8.38,39.7c.01-.95.79-1.71,1.73-1.7s1.71.79,1.7,1.73-.79,1.71-1.73,1.7-1.71-.79-1.7-1.73h0" fill="#fefc25"/>
    <path d="M39.05,41.43c-6.31-1.05-12.58-.91-18.9.13-.23-1.2-.35-1.79-.35-3.13,6.7-1.11,12.46-1.13,19.16-.02.15,1.39.32,1.81.09,3.01" fill="#ff523d"/>
    <path d="M17.52,18.48c.01-.95.79-1.71,1.73-1.7s1.71.79,1.7,1.73-.79,1.71-1.73,1.7c-.95-.01-1.71-.79-1.7-1.73" fill="#fefc25"/>
  </g>
  <g id="Kopfgeldjäger">
    <path d="M112.18,25.67h-1.49c-1.34-7.37-7.12-13.16-14.5-14.5v-1.16c0-1.89-1.46-3.42-3.24-3.42s-3.24,1.53-3.24,3.42v1.15c-7.37,1.34-13.16,7.12-14.5,14.5h-1.49c-1.89,0-3.42,1.46-3.42,3.24s1.53,3.24,3.42,3.24h1.49c1.34,7.37,7.13,13.16,14.5,14.5v1.83c0,1.89,1.46,3.42,3.24,3.42s3.24-1.53,3.24-3.42v-1.83c7.37-1.34,13.16-7.13,14.5-14.5h1.49c1.89,0,3.42-1.46,3.42-3.24s-1.53-3.24-3.42-3.24Z" fill="#fff"/>
    <path d="M88.56,31.2h-.01c-2.48,0-4.51,2.02-4.51,4.52v.56l.07.09c.84,1.04,1.84,1.92,2.98,2.61l.51.31v-2.18h1.49v-5.91h-.54Z" fill="#f99204"/>
    <path d="M89.87,32.11s.66-.62.73-.91c.08-.29,4.47-.1,4.47-.1,0,0-.19.37.44.68.36.18.73.32,1.12.43l-4.35,2.74-2.49-2.8.08-.04Z" fill="#f8c47b"/>
    <path d="M97.45,26.24c0-.12-.12-.22-.24-.21-.12,0-.21.11-.21.22h-8.5c0-.12-.09-.22-.21-.22-.13-.01-.23.09-.24.21,0,.12-.01.23-.01.35,0,3.06,2.11,5.55,4.71,5.55s4.71-2.49,4.71-5.55c0-.12,0-.23-.01-.35Z" fill="#f9cb8a"/>
    <path d="M89.87,19.13s-.09,0-.13,0c-.49.03-.84.4-1.05.82s-.33.93-.42,1.46c-.09.53-.15,1.07-.21,1.52s-.15.84-.21.95c-.64,1.23-1.82,1.97-1.82,1.97l-1.02.63h15.5l-1.02-.63s-1.18-.74-1.82-1.97c-.06-.12-.15-.5-.21-.95s-.12-.99-.21-1.52-.21-1.04-.42-1.46-.56-.79-1.05-.82c-1.2-.17-1.99.59-3.01.61-1.07-.21-1.88-.59-2.88-.62h0Z" fill="#f99204" fill-rule="evenodd"/>
    <path d="M95.82,31.85c-.8.9-1.83,1.4-2.9,1.4-.92,0-1.8-.36-2.55-1.04l-.56-.52v5.42h6.6v-5.93l-.59.67Z" fill="#f99204"/>
    <path d="M95.82,31.85c-.71.8-1.62,1.29-2.57,1.39l-.3.03v3.85h3.46v-5.93l-.59.67Z" fill="#f38e04"/>
    <path d="M97.32,31.2h-.54v5.91h1.49v2.2l.51-.31c1.14-.69,2.15-1.56,2.99-2.59l.08-.09v-.59c0-2.49-2.02-4.52-4.52-4.52Z" fill="#f99204"/>
    <path d="M98.24,36.82h-.64v-5.62c0-.17-.13-.3-.3-.3l-.95-.02c-.1,0-.16.03-.22.09-.06.06-.09.13-.09.22v5.63h-5.86v-5.12c0-.11-.06-.22-.16-.27l-.95-.49c-.09-.05-.21-.05-.3.01-.09.05-.15.15-.15.26v5.61h-1.02c-.17,0-.3.14-.3.3v1.78c0,.11.06.21.16.27,1.67.93,3.57,1.42,5.48,1.42,1.9,0,3.78-.49,5.44-1.4.1-.05.16-.15.16-.27v-1.8c0-.17-.14-.3-.3-.3Z" fill="#d17a03"/>
    <path d="M92.94,45.52c-9.16,0-16.62-7.46-16.62-16.62s7.46-16.62,16.62-16.62,16.62,7.46,16.62,16.62-7.46,16.62-16.62,16.62ZM92.94,15.13c-7.59,0-13.77,6.18-13.77,13.77s6.18,13.77,13.77,13.77,13.77-6.18,13.77-13.77-6.18-13.77-13.77-13.77Z" fill="#d17a03"/>
    <path d="M92.94,12.62c-8.98,0-16.28,7.3-16.28,16.28s7.3,16.28,16.28,16.28,16.28-7.3,16.28-16.28-7.3-16.28-16.28-16.28ZM92.94,43.02c-7.81,0-14.11-6.31-14.11-14.12s6.31-14.12,14.11-14.12h0c7.81,0,14.11,6.31,14.11,14.12s-6.31,14.11-14.12,14.11Z" fill="#212121"/>
    <path d="M92.94,8.34h0c.82,0,1.49.75,1.49,1.66v5.49c0,.92-.67,1.66-1.49,1.66h0c-.82,0-1.49-.75-1.49-1.66v-5.49c0-.92.67-1.66,1.49-1.66Z" fill="#616161"/>
    <path d="M92.94,41.31h0c.82,0,1.49.75,1.49,1.66v5.49c0,.92-.67,1.66-1.49,1.66h0c-.82,0-1.49-.75-1.49-1.66v-5.49c0-.92.67-1.66,1.49-1.66Z" fill="#616161"/>
    <path d="M113.84,28.9h0c0,.82-.75,1.49-1.66,1.49h-5.49c-.92,0-1.66-.67-1.66-1.49h0c0-.82.75-1.49,1.66-1.49h5.49c.92,0,1.66.67,1.66,1.49Z" fill="#616161"/>
    <path d="M80.86,28.9h0c0,.82-.75,1.49-1.66,1.49h-5.49c-.92,0-1.66-.67-1.66-1.49h0c0-.82.75-1.49,1.66-1.49h5.49c.92,0,1.66.67,1.66,1.49Z" fill="#616161"/>
    <path d="M92.94,43.26c-7.92,0-14.36-6.44-14.36-14.36,0-7.92,6.44-14.36,14.36-14.36s14.36,6.44,14.36,14.36-6.44,14.36-14.36,14.36ZM92.94,16.17c-7.02,0-12.74,5.71-12.74,12.74,0,3.4,1.33,6.6,3.73,9.01,2.41,2.41,5.6,3.73,9,3.73h0c7.02,0,12.73-5.71,12.73-12.74s-5.71-12.74-12.74-12.74Z" fill="#616161"/>
  </g>
</svg>

