<?xml version="1.0" encoding="UTF-8"?>
<svg xmlns="http://www.w3.org/2000/svg" width="87" height="100" viewBox="0 0 87 100">
  <g id="Hintergrund">
    <rect id="Hintergrund-2" data-name="Hintergrund" width="87" height="100" fill="#555556"/>
  </g>
  <g id="amor">
    <path d="M30.88,27.47c-.47,0-.93.04-1.39.09l-.26.03-.37.05-.29.04-.16.03c-.27.05-.53.1-.79.16l-.17.04c-.3.07-.59.15-.89.24h0c-.18.06-.36.12-.54.18l-.21.07c-.38.14-.74.29-1.11.46l-.16.07c-.14.07-.29.14-.43.21l-.12.07c-.18.09-.35.19-.52.29l-.08.06c-.14.09-.28.18-.42.27l-.13.08c-.16.11-.32.23-.48.34-4.33,3.34-5.46,8.52-5.19,12.75-2.15-3.06-3.89-6.43-5.58-9.78-.5-1-1.44-2.15-2.4-2.16-.24,0-.47.06-.67.19-.35.23-.59.6-.67,1.01-.09.43-.12.87-.07,1.31.21,2.91,1.03,5.74,2.4,8.31-1.43-1.08-3.03-1.92-4.73-2.5-.32-.11-.68-.21-.99-.07-.3.13-.47.46-.59.76-.54,1.41-.44,2.97.08,4.41.31.86.77,1.68,1.32,2.4,1.48,1.92,3.55,3.27,5.59,4.58-1.49.12-2.94-.5-4.44-.6-1.03-.07-2.21.29-2.88,1.01l-.02.02c-.06.07-.12.14-.17.21l-.04.07c-.04.06-.08.12-.11.19l-.04.09c-.03.06-.05.13-.07.2l-.03.09c-.03.1-.04.2-.05.31-.08,1.17.91,2.12,1.85,2.83,2.9,2.2,6.1,3.97,9.5,5.26-.48.27-.96.55-1.37.91h0c-.1.09-.19.18-.28.27l-.09.1-.07.07c-.06.07-.12.14-.17.22-.48.7-.58,1.75,0,2.36.33.34.81.49,1.27.63,4.06,1.1,8.32,1.24,12.44.38-1.17.64-1.83,1.7-.98,2.59.85.89,2.26.88,3.48.74,2.84-.33,5.63-1,8.41-1.68,1.98,1.49,4.12,3.07,6.46,4.78.95-.69,1.86-1.36,2.75-2.01l1.24-.92,1.5-1.11.98-.73c2.78.68,5.57,1.36,8.41,1.68,1.23.14,2.64.15,3.48-.74.86-.89.19-1.95-.98-2.59,4.12.85,8.38.72,12.44-.38.46-.13.94-.28,1.27-.63.59-.62.49-1.66.01-2.36-.05-.08-.11-.15-.17-.22l-.07-.07-.09-.1c-.09-.09-.18-.18-.28-.26h0c-.43-.35-.89-.65-1.37-.91,3.4-1.29,6.6-3.06,9.5-5.26.37-.27.71-.57,1.02-.9.36-.36.62-.81.77-1.3.05-.22.07-.44.05-.67,0-.09-.02-.18-.05-.27l-.03-.09c-.02-.07-.04-.13-.07-.2l-.04-.09c-.03-.06-.07-.13-.1-.19l-.05-.07c-.05-.07-.1-.14-.16-.2l-.03-.03c-.66-.72-1.85-1.07-2.89-1.01-1.49.1-2.94.72-4.44.6,1.91-1.23,3.85-2.49,5.31-4.22.5-.58.92-1.22,1.25-1.91.27-.55.47-1.13.62-1.72.1-.44.16-.89.18-1.34.01-.45-.02-.9-.11-1.34-.08-.38-.19-.74-.35-1.09-.07-.15-.17-.29-.29-.4-.06-.05-.13-.1-.2-.13-.31-.14-.66-.04-.98.07-1.7.58-3.29,1.42-4.73,2.5,1.42-2.67,2.24-5.62,2.42-8.64,0-.33-.02-.66-.09-.98-.09-.41-.33-.77-.67-1.01-.2-.12-.43-.19-.66-.19-.96,0-1.9,1.16-2.4,2.16-1.68,3.35-3.42,6.72-5.57,9.78,0-.05,0-.09,0-.13.06-.93.04-1.87-.06-2.8-.11-1.14-.34-2.27-.68-3.37-.41-1.31-1.02-2.54-1.8-3.67-.86-1.22-1.92-2.28-3.15-3.13-.04-.03-.08-.06-.13-.09-.31-.21-.63-.4-.95-.58l-.15-.08c-.16-.08-.31-.16-.47-.24l-.1-.05c-.19-.09-.38-.18-.58-.26l-.15-.06c-.15-.06-.29-.12-.44-.17l-.23-.08c-.13-.05-.27-.09-.4-.13l-.21-.07c-.16-.05-.31-.09-.47-.13-.06-.01-.11-.03-.16-.04-.22-.05-.43-.1-.65-.15h-.07c-.2-.05-.4-.09-.6-.12l-.17-.03c-.39-.06-.79-.1-1.19-.13l-.2-.02c-.23-.02-.45-.03-.68-.03h0c-.22,0-.44,0-.66,0-.08,0-.16,0-.24,0l-.45.02-.24.02-.47.05-.22.02c-.2.03-.41.05-.61.09h0l-.36.07c-.22.04-.44.08-.66.14l-.26.07c-.14.04-.27.07-.4.11l-.14.04c-.51.15-1.02.33-1.51.54l-.09.04c-.92.4-1.79.89-2.61,1.48-1.48,1.07-2.74,2.43-3.7,3.99-2.98-4.83-7.94-6.79-12.63-6.69h.01Z" fill="#fafdfc" stroke="#fff" stroke-linejoin="round" stroke-width="6"/>
    <path d="M9.18,31.07c-.24,0-.47.06-.67.19-.73.45-.81,1.47-.75,2.33.21,2.91,1.03,5.74,2.41,8.32-1.43-1.08-3.03-1.93-4.73-2.5-.32-.11-.68-.21-.99-.07-.3.13-.48.46-.59.77-.87,2.26-.07,4.89,1.41,6.81,1.48,1.92,3.56,3.27,5.59,4.59-1.5.12-2.95-.5-4.44-.6-1.5-.1-3.3.68-3.41,2.18-.08,1.17.91,2.12,1.85,2.83,2.9,2.2,6.1,3.97,9.51,5.26-.74.42-1.51.87-1.99,1.57-.48.7-.58,1.75.01,2.36.33.35.81.5,1.27.63,4.04,1.11,8.34,1.24,12.45.38-1.17.64-1.83,1.7-.98,2.6.85.9,2.26.89,3.48.75,2.91-.33,5.76-1.03,8.6-1.73,1.06-.26,2.23-.6,2.8-1.53.98-1.61-1.63-2.95-1.91-4.81-1.85-12.24-13.71-9.51-19.03-15.84-3.09-3.68-5.33-7.99-7.49-12.29-.5-1-1.44-2.15-2.4-2.16ZM77.82,31.07c-.96.01-1.9,1.16-2.4,2.16-2.15,4.3-4.4,8.61-7.49,12.29-5.32,6.33-17.18,3.59-19.03,15.84-.28,1.86-2.89,3.2-1.91,4.81.57.93,1.74,1.27,2.8,1.53,2.84.7,5.69,1.4,8.6,1.73,1.23.14,2.64.15,3.49-.75.85-.89.19-1.95-.98-2.6,4.1.86,8.4.72,12.44-.38.46-.13.94-.28,1.28-.63.59-.62.49-1.66,0-2.36-.48-.7-1.25-1.15-1.99-1.57,3.4-1.29,6.6-3.06,9.51-5.26.94-.71,1.93-1.65,1.85-2.83-.11-1.49-1.91-2.27-3.41-2.18-1.49.1-2.95.72-4.44.6,2.04-1.32,4.11-2.66,5.59-4.58,1.48-1.92,2.27-4.55,1.41-6.81-.12-.31-.29-.64-.59-.77-.31-.13-.67-.04-.99.07-1.7.58-3.3,1.42-4.73,2.5,1.37-2.57,2.19-5.41,2.4-8.32.07-.86-.01-1.88-.75-2.33-.2-.13-.43-.19-.66-.19h0Z" fill="#d2efe3"/>
    <path d="M17.61,45.49c-.18.01-.34.09-.47.22-.34.35-.24.92-.08,1.38.52,1.57,1.36,3.01,2.47,4.23-.94-.39-1.93-.63-2.94-.72-.19-.02-.4-.02-.55.1-.15.11-.2.31-.22.5-.16,1.36.64,2.7,1.72,3.54,1.08.85,2.41,1.3,3.71,1.74-.8.27-1.69.13-2.52.29-.83.15-1.72.83-1.57,1.67.11.66.79,1.04,1.41,1.3,1.9.8,3.9,1.33,5.95,1.57-.35.34-.71.69-.88,1.14-.16.46-.07,1.04.34,1.3.23.14.51.16.78.16,2.38.04,4.74-.48,6.89-1.52-.55.51-.77,1.19-.18,1.56.59.37,1.36.17,2.02-.08,1.55-.59,3.02-1.37,4.48-2.15.55-.29,1.14-.64,1.32-1.23.31-1.02-1.3-1.39-1.72-2.38-2.72-6.46-8.85-3.31-12.65-6.04-2.21-1.59-4.04-3.65-5.82-5.71-.38-.44-.99-.9-1.5-.87h0ZM69.39,45.49c-.51-.03-1.11.43-1.49.87-1.78,2.06-3.61,4.11-5.82,5.71-3.8,2.74-9.93-.42-12.65,6.05-.41.98-2.03,1.35-1.72,2.38.18.59.78.93,1.32,1.23,1.46.78,2.93,1.56,4.48,2.15.65.25,1.43.45,2.02.07.59-.37.37-1.05-.18-1.56,2.13,1.04,4.51,1.57,6.88,1.52.27.02.54-.04.78-.17.41-.25.5-.84.34-1.3-.16-.46-.53-.8-.87-1.14,2.05-.23,4.05-.76,5.95-1.56.62-.26,1.29-.64,1.41-1.3.15-.83-.73-1.51-1.56-1.67-.84-.16-1.72-.02-2.52-.29,1.3-.44,2.63-.89,3.71-1.74,1.08-.85,1.88-2.18,1.72-3.54-.02-.19-.07-.39-.22-.5-.15-.12-.36-.11-.55-.1-1.01.08-2.01.32-2.94.72,1.11-1.22,1.95-2.66,2.47-4.23.15-.46.25-1.03-.08-1.38-.12-.13-.29-.21-.47-.21h0Z" fill="#e9f7f1"/>
    <path d="M8.51,31.26c-.73.45-.81,1.47-.75,2.33.21,2.91,1.03,5.74,2.41,8.32.77,1.6,1.81,2.26,1.81,2.26-4.5-7.94-3.47-12.9-3.47-12.9ZM78.49,31.26s1.03,4.97-3.47,12.9c0,0,1.05-.66,1.81-2.26,1.37-2.57,2.19-5.41,2.4-8.32.07-.86-.01-1.88-.75-2.33ZM4.45,39.32c-.3.13-.48.46-.59.77-.87,2.26-.07,4.89,1.41,6.81,1.48,1.92,3.56,3.27,5.59,4.59l2.78.98s-4.09-2.64-7.2-5.61c-3.1-2.96-1.99-7.53-1.99-7.53ZM82.55,39.32s1.11,4.57-1.99,7.53c-3.11,2.96-7.2,5.61-7.2,5.61l2.78-.98c2.04-1.32,4.11-2.66,5.59-4.58,1.48-1.92,2.27-4.55,1.41-6.81-.12-.31-.29-.64-.59-.77ZM3.53,51.88c-.3.32-.49.73-.52,1.17-.09,1.17.91,2.12,1.84,2.83,2.9,2.2,6.1,3.97,9.51,5.26,1.55.28,2.92.19,2.92.19,0,0-7.03-3.11-10.4-5.03-3.37-1.92-3.34-4.42-3.34-4.42ZM83.47,51.88s.03,2.51-3.34,4.42c-3.37,1.91-10.4,5.03-10.4,5.03,0,0,1.37.09,2.92-.19,3.4-1.29,6.6-3.06,9.51-5.26.94-.71,1.93-1.65,1.85-2.83-.03-.44-.22-.85-.52-1.17h0ZM12.98,62.05c-.23.2-.44.42-.62.67-.48.7-.58,1.75.01,2.36.33.34.81.49,1.27.62,4.04,1.11,8.34,1.24,12.45.38,1.49-.68,1.48-.99,1.48-.99-9.17,1.65-13.99-.41-14.64-.9-.64-.48.03-2.11.05-2.15ZM74.02,62.05s.69,1.67.05,2.15c-.65.48-5.47,2.55-14.64.9,0,0-.02.31,1.48.99,4.1.86,8.4.72,12.44-.38.46-.13.94-.28,1.28-.63.59-.62.49-1.66,0-2.36-.17-.25-.38-.47-.61-.67Z" fill="none"/>
    <path d="M64.65,30.28c-5.48-4.22-16.13-4.25-21.15,3.89-5.02-8.14-15.67-8.12-21.15-3.9-4.9,3.77-5.71,9.9-5.02,14.35,1.34,8.79,8.43,15,26.17,27.92,17.74-12.92,24.83-19.12,26.18-27.9.68-4.45-.12-10.58-5.02-14.35" fill="#ef3456"/>
    <path d="M38.37,56.65c-1.48-6.78-12.12-11.77-14.37-18.44-2.23-6.63,5.37-10.61,5.46-10.66-2.69.29-5.22,1.25-7.12,2.71-4.9,3.77-5.71,9.9-5.02,14.35,1.34,8.79,8.43,15,26.17,27.92,7-5.1,12.34-9.14,16.32-12.72-16.78,12.43-19.95,3.61-21.43-3.17" fill="#ee2352"/>
    <path d="M56.14,27.47c-3.08-.06-6.27.76-8.95,2.7,9.77-3.98,21.93,5.82,20.88,19.6.8-1.66,1.32-3.34,1.6-5.14.68-4.45-.12-10.58-5.02-14.35-2.23-1.72-5.31-2.74-8.52-2.8h0Z" fill="rgba(255, 255, 255, .04)"/>
  </g>
</svg>
