<?xml version="1.0" encoding="UTF-8"?>
<svg xmlns="http://www.w3.org/2000/svg" width="100" height="112" viewBox="0 0 100 112">
  <g id="Aufstellung">
    <rect id="Hintergrund" x="-6" y="0" width="112" height="112" rx="6" ry="6" fill="#555556"/>
  </g>
  <g id="amor">
    <path d="M35.35,29.85c-.54.01-1.08.04-1.62.1l-.31.04-.43.06-.34.05-.18.04c-.31.05-.61.12-.92.19l-.2.05c-.35.08-.69.18-1.03.28h0c-.21.07-.42.13-.63.21l-.24.09c-.44.16-.86.34-1.29.53l-.18.09c-.17.08-.33.16-.5.25l-.14.08c-.2.11-.41.22-.6.34l-.1.06c-.16.1-.33.21-.49.31l-.15.1c-.19.13-.37.26-.55.4-5.03,3.87-6.33,9.89-6.02,14.8-2.5-3.56-4.52-7.46-6.47-11.35-.58-1.16-1.67-2.49-2.79-2.5-.27,0-.54.07-.77.22-.41.27-.69.69-.78,1.17-.11.5-.13,1.01-.09,1.52.25,3.37,1.2,6.66,2.79,9.65-1.66-1.25-3.52-2.23-5.49-2.9-.37-.12-.79-.24-1.15-.08-.35.15-.55.53-.68.88-.63,1.64-.51,3.45.09,5.12.36,1,.89,1.95,1.53,2.78,1.72,2.23,4.12,3.79,6.49,5.31-1.73.14-3.42-.59-5.15-.7-1.2-.08-2.57.33-3.34,1.17l-.02.02c-.07.08-.14.16-.2.25l-.05.08c-.05.07-.09.14-.12.22l-.05.11c-.03.07-.06.15-.08.23l-.03.11c-.03.12-.05.24-.06.36-.1,1.36,1.05,2.46,2.14,3.28,3.36,2.55,7.08,4.61,11.03,6.1-.55.31-1.11.64-1.59,1.05h-.01c-.11.1-.22.21-.33.32l-.11.11-.08.08c-.07.08-.14.17-.2.26-.56.81-.67,2.03.01,2.74.39.4.94.57,1.48.73,4.71,1.28,9.66,1.44,14.44.45-1.35.74-2.13,1.97-1.13,3.01.98,1.04,2.62,1.02,4.04.86,3.3-.38,6.53-1.16,9.76-1.95,2.3,1.73,4.78,3.57,7.5,5.55,1.1-.8,2.16-1.58,3.19-2.34l1.44-1.07,1.74-1.29,1.14-.85c3.23.79,6.46,1.58,9.77,1.95,1.42.16,3.06.17,4.04-.86.99-1.04.22-2.27-1.13-3.01,4.78.99,9.73.84,14.44-.45.53-.15,1.09-.33,1.47-.73.69-.72.57-1.93.02-2.74-.06-.09-.13-.17-.2-.26l-.08-.09-.11-.11c-.1-.11-.21-.21-.33-.31h-.01c-.5-.41-1.03-.76-1.59-1.06,3.95-1.5,7.66-3.55,11.03-6.1.42-.31.82-.66,1.18-1.04.42-.42.72-.94.89-1.5.06-.25.08-.51.06-.77,0-.11-.03-.21-.05-.32l-.03-.1c-.02-.08-.05-.16-.08-.23l-.05-.11c-.04-.08-.08-.15-.12-.22l-.05-.08c-.06-.08-.12-.16-.18-.23l-.03-.04c-.77-.83-2.15-1.25-3.35-1.17-1.73.11-3.42.83-5.15.7,2.21-1.42,4.47-2.89,6.16-4.9.58-.67,1.06-1.42,1.45-2.21.31-.64.55-1.31.71-2,.12-.51.19-1.03.21-1.55.02-.52-.02-1.04-.12-1.55-.09-.44-.22-.86-.4-1.27-.08-.18-.2-.33-.34-.46-.07-.06-.15-.11-.23-.15-.36-.16-.77-.05-1.14.08-1.97.67-3.82,1.65-5.49,2.9,1.65-3.1,2.61-6.52,2.8-10.03.01-.38-.02-.77-.11-1.14-.1-.48-.38-.9-.78-1.17-.23-.14-.5-.22-.77-.22-1.12.01-2.21,1.34-2.79,2.5-1.95,3.89-3.97,7.8-6.47,11.35,0-.05.01-.1.01-.15.06-1.08.04-2.17-.06-3.25-.13-1.33-.39-2.64-.79-3.91-.48-1.52-1.19-2.95-2.09-4.26-.99-1.42-2.23-2.64-3.65-3.63-.05-.04-.1-.07-.15-.1-.36-.24-.73-.46-1.1-.67l-.17-.09c-.18-.1-.36-.19-.55-.28l-.12-.06c-.22-.1-.45-.2-.67-.3l-.18-.07c-.17-.07-.34-.13-.51-.2l-.26-.09c-.15-.05-.31-.1-.46-.15l-.25-.08c-.18-.05-.36-.11-.55-.15-.06-.02-.12-.04-.19-.05-.25-.06-.5-.12-.76-.17l-.08-.02c-.23-.05-.46-.09-.7-.13l-.2-.03c-.46-.06-.92-.12-1.38-.15l-.23-.02c-.26-.02-.53-.03-.79-.04h0c-.26,0-.51,0-.77,0-.09,0-.19,0-.28.01l-.52.03-.28.02-.54.05-.26.03c-.24.03-.47.06-.71.1h0l-.42.08c-.26.04-.52.1-.77.16l-.3.08c-.16.04-.31.08-.47.13l-.16.05c-.59.18-1.18.39-1.75.63l-.1.05c-1.07.46-2.08,1.04-3.02,1.72-1.72,1.25-3.18,2.82-4.29,4.63-3.45-5.61-9.21-7.88-14.66-7.77h.02Z" fill="#fafdfc" stroke="#fff" stroke-linejoin="round" stroke-width="6"/>
    <path d="M10.16,34.03c-.27,0-.54.07-.77.22-.85.52-.94,1.7-.87,2.7.25,3.38,1.2,6.66,2.79,9.65-1.66-1.25-3.52-2.23-5.49-2.91-.37-.12-.79-.24-1.15-.08-.35.15-.55.53-.69.89-1.01,2.63-.09,5.68,1.63,7.9,1.72,2.23,4.13,3.79,6.49,5.32-1.74.14-3.42-.59-5.16-.7-1.74-.11-3.83.79-3.96,2.52-.1,1.36,1.05,2.46,2.14,3.29,3.37,2.55,7.08,4.61,11.04,6.1-.86.49-1.75,1.01-2.31,1.83-.56.82-.67,2.03.02,2.74.39.4.94.58,1.48.73,4.69,1.29,9.68,1.44,14.45.45-1.35.74-2.13,1.98-1.13,3.01.98,1.04,2.62,1.03,4.04.87,3.38-.39,6.69-1.2,9.99-2.01,1.23-.3,2.59-.7,3.25-1.78,1.13-1.87-1.89-3.42-2.22-5.59-2.14-14.21-15.91-11.03-22.08-18.38-3.59-4.27-6.19-9.28-8.69-14.26-.58-1.16-1.67-2.49-2.79-2.51ZM89.84,34.03c-1.11.02-2.21,1.35-2.79,2.51-2.5,4.99-5.1,9.99-8.69,14.26-6.17,7.35-19.94,4.17-22.08,18.38-.32,2.16-3.35,3.72-2.22,5.59.66,1.08,2.02,1.47,3.25,1.78,3.3.81,6.61,1.63,9.98,2.01,1.42.16,3.06.17,4.05-.87.99-1.04.22-2.27-1.13-3.01,4.76.99,9.75.84,14.44-.45.54-.15,1.1-.33,1.48-.73.68-.71.57-1.93.01-2.74-.56-.82-1.45-1.33-2.31-1.83,3.95-1.5,7.67-3.56,11.03-6.11,1.09-.82,2.24-1.92,2.14-3.28-.13-1.73-2.22-2.64-3.96-2.52-1.73.11-3.42.83-5.15.7,2.36-1.53,4.77-3.09,6.49-5.32,1.72-2.23,2.64-5.28,1.63-7.9-.14-.36-.34-.74-.69-.89-.36-.15-.77-.04-1.15.08-1.97.67-3.83,1.65-5.49,2.91,1.59-2.99,2.54-6.28,2.79-9.65.08-.99-.02-2.18-.87-2.7-.23-.15-.5-.22-.77-.22h0Z" fill="#d2efe3"/>
    <path d="M19.95,50.76c-.21.01-.4.1-.54.25-.39.4-.28,1.07-.1,1.6.6,1.82,1.58,3.49,2.87,4.91-1.09-.46-2.24-.74-3.42-.83-.22-.02-.46-.03-.64.11-.17.13-.23.36-.25.58-.19,1.58.74,3.13,2,4.11,1.25.98,2.79,1.51,4.3,2.02-.93.31-1.96.15-2.93.33-.97.18-1.99.97-1.82,1.94.13.76.92,1.21,1.63,1.5,2.2.93,4.53,1.55,6.91,1.82-.4.39-.82.8-1.02,1.32-.19.53-.09,1.21.39,1.5.26.17.59.19.91.19,2.77.05,5.51-.55,7.99-1.76-.64.6-.89,1.38-.2,1.81.68.43,1.58.2,2.34-.09,1.8-.68,3.5-1.59,5.2-2.49.63-.34,1.32-.74,1.53-1.42.36-1.18-1.51-1.61-1.99-2.76-3.15-7.5-10.27-3.84-14.68-7.01-2.56-1.85-4.69-4.23-6.75-6.62-.44-.51-1.15-1.04-1.74-1.01h0ZM80.05,50.76c-.59-.04-1.29.5-1.73,1.01-2.07,2.39-4.19,4.77-6.75,6.62-4.41,3.17-11.53-.48-14.68,7.02-.48,1.14-2.35,1.57-1.99,2.76.21.68.9,1.08,1.53,1.42,1.7.9,3.4,1.81,5.2,2.49.76.29,1.66.52,2.34.09.68-.43.43-1.21-.2-1.81,2.47,1.21,5.24,1.82,7.99,1.77.31.02.63-.05.91-.19.48-.29.59-.98.39-1.5-.19-.53-.61-.93-1.01-1.32,2.38-.27,4.7-.88,6.9-1.81.72-.3,1.5-.74,1.63-1.51.17-.97-.85-1.76-1.81-1.94-.97-.18-2-.02-2.93-.33,1.51-.51,3.05-1.04,4.3-2.02,1.25-.98,2.18-2.53,2-4.11-.03-.22-.08-.45-.25-.58-.18-.14-.42-.13-.64-.11-1.18.1-2.33.38-3.42.83,1.29-1.42,2.27-3.09,2.87-4.91.18-.53.29-1.19-.1-1.6-.14-.15-.33-.24-.54-.25h0Z" fill="#e9f7f1"/>
    <path d="M9.39,34.24c-.85.52-.94,1.7-.87,2.7.25,3.38,1.2,6.66,2.79,9.65.89,1.86,2.11,2.62,2.11,2.62-5.22-9.21-4.03-14.97-4.03-14.97ZM90.61,34.24s1.19,5.76-4.03,14.97c0,0,1.21-.77,2.11-2.62,1.59-2.99,2.54-6.28,2.79-9.65.08-.99-.02-2.18-.87-2.7ZM4.68,43.61c-.35.15-.55.53-.69.89-1.01,2.63-.09,5.68,1.63,7.9,1.72,2.23,4.13,3.79,6.49,5.32l3.23,1.14s-4.75-3.07-8.35-6.51c-3.6-3.44-2.31-8.74-2.31-8.74ZM95.32,43.61s1.29,5.3-2.31,8.74c-3.61,3.44-8.35,6.51-8.35,6.51l3.23-1.14c2.36-1.53,4.77-3.09,6.49-5.32,1.72-2.23,2.64-5.28,1.63-7.9-.14-.36-.34-.74-.69-.89ZM3.61,58.18c-.35.37-.57.85-.6,1.36-.1,1.36,1.05,2.46,2.14,3.28,3.37,2.55,7.08,4.61,11.04,6.11,1.8.33,3.39.22,3.39.22,0,0-8.16-3.61-12.08-5.84-3.91-2.23-3.88-5.13-3.88-5.13ZM96.39,58.18s.03,2.91-3.88,5.13c-3.92,2.22-12.08,5.84-12.08,5.84,0,0,1.59.11,3.39-.22,3.95-1.5,7.67-3.56,11.03-6.11,1.09-.82,2.24-1.92,2.14-3.28-.04-.51-.25-.99-.6-1.36h0ZM14.58,69.98c-.27.23-.51.48-.71.77-.56.82-.67,2.03.02,2.74.39.4.94.57,1.48.72,4.69,1.29,9.68,1.44,14.45.45,1.73-.79,1.71-1.15,1.71-1.15-10.64,1.92-16.24-.48-16.99-1.04-.75-.55.04-2.45.06-2.49ZM85.42,69.98s.81,1.94.06,2.49c-.76.56-6.35,2.96-16.99,1.04,0,0-.03.36,1.71,1.15,4.76.99,9.75.84,14.44-.45.54-.15,1.1-.33,1.48-.73.68-.71.57-1.93.01-2.74-.2-.29-.44-.55-.71-.77Z" fill="none"/>
    <path d="M74.54,33.11c-6.36-4.9-18.72-4.93-24.55,4.52-5.82-9.45-18.18-9.43-24.55-4.52-5.69,4.38-6.62,11.49-5.83,16.65,1.56,10.2,9.79,17.4,30.37,32.4,20.59-14.99,28.82-22.19,30.39-32.38.79-5.17-.14-12.28-5.82-16.66" fill="#ef3456"/>
    <path d="M44.05,63.71c-1.72-7.87-14.07-13.66-16.68-21.4-2.59-7.7,6.23-12.31,6.33-12.37-3.13.34-6.06,1.45-8.27,3.15-5.69,4.38-6.62,11.49-5.83,16.65,1.56,10.2,9.79,17.4,30.37,32.4,8.12-5.92,14.32-10.61,18.94-14.76-19.47,14.42-23.15,4.2-24.87-3.68" fill="#ee2352"/>
    <path d="M64.67,29.86c-3.57-.07-7.28.88-10.38,3.13,11.34-4.62,25.46,6.76,24.23,22.75.93-1.92,1.53-3.88,1.85-5.97.79-5.16-.14-12.28-5.82-16.66-2.59-1.99-6.16-3.18-9.89-3.25h0Z" fill="rgba(255, 255, 255, .04)"/>
  </g>
</svg>