<?xml version="1.0" encoding="UTF-8"?>
<svg xmlns="http://www.w3.org/2000/svg" width="87" height="100" viewBox="0 0 87 100">
  <g id="Hintergrund">
    <rect id="Hintergrund-2" data-name="Hintergrund" width="87" height="100" fill="#555556"/>
  </g>
  <g id="bodyguard">
    <path d="M43,9.51c-7.65,0-13.85,7.58-13.85,16.93h0c0,.78.05,1.55.15,2.32,0,.1,0,.2.01.29h-.02v.17c0,.3,0,.6.02.89.12,1.53.72,4.5,3.31,7.49.36.51.75.99,1.16,1.44-.12.06-.21.12-.23.18-.17.63-.98,1.62-1.73,2.44-.42-.13-.86-.19-1.3-.17-2.65.27-5.43,3.57-5.43,3.57,0,0-13.38-.39-14.17,10.6l.3,1.61-.22.11c.33,2.32.66,4.63,1,6.95l.25,1.72c.26,1.67.51,3.28.76,4.68l.06.37c.12.68.25,1.36.39,2.04l.12.53.03.11c.05.18.1.34.14.44.04.09.12.18.23.26.14.08.29.15.44.2.21.06.42.11.64.15.59.08,1.19.13,1.79.16,1.26.02,2.52,0,3.77-.07,2.1-.12,4.19-.28,6.29-.48.81,1.25,3.75,16.07,3.75,16.07h25.7s2.98-15.04,3.77-16.1c.01-.02.03-.04.06-.05.12,0,.3,0,.57.01l1.43.08c.57.04,1.22.07,1.91.11,1.73.09,3.71.16,5.31.08.32-.02.62-.04.91-.07.48-.05.96-.14,1.42-.27.23-.06.44-.18.61-.34.04-.04.07-.09.09-.15.05-.13.1-.27.13-.4l.05-.18.09-.33.15-.64c.12-.49.24-1.05.38-1.7l.07-.29c.74-3.53,1.44-7.06,2.1-10.6l.68-3.57-.08-.03.07-.41c-.42-5.84-4.39-8.47-8.03-9.64-3.2-1.04-6.15-.95-6.15-.95,0,0-2.78-3.31-5.43-3.58-.28-.02-.56,0-.83.06-.1.02-.2.04-.3.07-.13.03-.26.07-.39.12h0l-.33.1-.35-.16c-2.35-1.14-2.03-2.47-1.91-2.78.38-.43.75-.88,1.09-1.36,2.52-2.96,3.11-5.89,3.24-7.42.02-.29.03-.59.03-.89,0-.11,0-.17,0-.17h-.02c0-.1,0-.21,0-.32.09-.76.14-1.52.14-2.29,0-9.35-6.2-16.93-13.85-16.93h0Z" fill="#f8c47b" stroke="#fff" stroke-linejoin="round" stroke-width="6"/>
    <path d="M30.44,43.06s2.78-2.61,3.1-3.84c.33-1.22,18.86-.41,18.86-.41,0,0-.82,1.55,1.88,2.86s4.74,1.8,4.74,1.8l-18.37,11.6-10.53-11.84.33-.16Z" fill="#f8c47b"/>
    <path d="M30.52,41.49c-2.65.27-5.43,3.58-5.43,3.58,0,0-13.38-.4-14.17,10.59,0,0,3.05,16.56,3.71,18.15.66,1.59,11.52.4,12.19.53.66.13,3.84,16.16,3.84,16.16h25.7s3.18-16.03,3.84-16.16c.66-.13,11.52,1.06,12.19-.53s3.71-18.15,3.71-18.15c-.8-10.99-14.17-10.6-14.17-10.6,0,0-2.78-3.31-5.43-3.58s-8.74,4.64-12.98,4.64-10.33-4.9-12.98-4.64h0Z" fill="#113233" fill-rule="evenodd"/>
    <ellipse cx="43" cy="26.44" rx="13.85" ry="16.94" fill="#f9cb8a"/>
    <path d="M44.57,18.9c.4-.71,2.98-.43,4.91-.37s2.5.7,2.76,1.04c.25.34.78,2.33.77,3.22-.02,1.07-.87,1.93-1.93,1.97-1.16.05-6.15.28-6.27-.7-.26-1.42.17-2.03-.71-2.03-.85.04-1.68,0-2.2,0-.88,0-.45.61-.71,2.03-.12.98-5.11.75-6.26.7-1.07-.03-1.92-.9-1.93-1.97,0-.89.51-2.89.77-3.23.25-.34.82-.98,2.76-1.04,1.93-.06,4.52-.34,4.92.37.66.41,2.76.54,3.14,0h0Z" fill="#121212" fill-rule="evenodd"/>
    <ellipse cx="34.57" cy="19.98" rx=".79" ry=".42" transform="translate(-.58 38.93) rotate(-58.36)" fill="#737373"/>
    <path d="M30.52,41.49c-2.65.27-5.43,3.58-5.43,3.58,0,0-13.38-.4-14.17,10.59,0,0,3.05,16.56,3.71,18.15.66,1.59,11.52.4,12.19.53.66.13,3.84,16.16,3.84,16.16h25.7s3.18-16.03,3.84-16.16c.66-.13,11.52,1.06,12.19-.53s3.71-18.15,3.71-18.15c-.8-10.99-14.17-10.6-14.17-10.6,0,0-2.78-3.31-5.43-3.58s-8.74,4.64-12.98,4.64-10.33-4.9-12.98-4.64h0Z" fill="#113233" fill-rule="evenodd"/>
    <path d="M42.83,48.5l-2.98,30.64,3.66,4.42,4.03-4.31-2.93-30.79-1.78.04Z" fill="#b16329" stroke="#b16329" stroke-linejoin="round" stroke-width=".81"/>
    <path d="M60.05,74.36c.68-.13,11.71,1.08,12.38-.53s3.65-17.72,3.65-17.72c0,0-5.86-1.91-8.84-2.63-1.72-.42-2.38-.72-2.38-.72-4.64,7.72-12.95,12.09-20.75,16.31,4.04,3.72,15.93,5.3,15.93,5.3h0Z" fill="#f9cb8a"/>
    <path d="M75.41,59.67c-1.48,4.91-4.21,10.15-4.63,11.16-.67,1.61-10.64.87-11.32,1,0,0-8.53-1.12-13.6-3.71l-1.74.94c4.04,3.72,15.93,5.3,15.93,5.3.68-.13,11.71,1.08,12.38-.53.47-1.14,2.06-9.33,2.98-14.15h0Z" fill="#e8bd80"/>
    <path d="M13.75,74.21c.65,1.55,10.84.49,20.48-.52,9.64-1.02,24.91-12.93,28.54-17.5,3.63-4.57.07-2.55-5.04-3.36-.54-.08-1.08-.11-1.62-.11-5.78.01-16.41,3.26-18.48,2.53-2.23-.79-17.05-2.9-26.62,2.13,0,0,2.07,15.22,2.75,16.83h0Z" fill="#f9cb8a" fill-rule="evenodd"/>
    <path d="M64.04,54.33l-.05.07c-3.63,4.57-19.7,15.62-29.33,16.64-9.64,1.02-17.84,2.14-18.49.59-.48-1.16-3.78-8.28-4.94-12.68.49,3.53,1.96,13.91,2.53,15.25.65,1.55,10.84.5,20.48-.52,9.64-1.02,24.91-12.92,28.54-17.5.64-.81,1.05-1.4,1.27-1.85h0Z" fill="#e8bd80" fill-rule="evenodd"/>
    <path d="M56.72,29.04h-.02c.01-.21.02-.41.02-.62v-1.53c-.51,1.51-2.05,4.92-5.72,4.92-4.7,0-3.81-1.66-8-1.66s-3.3,1.66-8,1.66c-3.66,0-5.21-3.41-5.72-4.92v1.53c0,.21,0,.41.02.62h-.02v.17c0,.3,0,.6.02.89.19,2.35,1.5,8.1,9.41,12.1l.06.03s.08.04.14.07l.04.02c.07.04.16.09.26.14,2.47,1.22,5.38,1.18,7.82-.12l.04-.02.04-.02c.06-.03.11-.06.14-.08l.06-.03c.15-.08.29-.16.43-.22,7.52-3.99,8.78-9.57,8.97-11.88.02-.29.03-.59.03-.89,0-.06,0-.12,0-.17" fill="#935b2a"/>
    <ellipse cx="43.69" cy="47.58" rx="1.92" ry="1.44" fill="#9b5724"/>
    <path d="M31.79,41.65l8.38,7.36,3.56-2.86-.08-.03c-.05,0-.1,0-.15,0-3.14,0-7.3-2.69-10.33-3.98l-1.01-.38c-.13-.04-.25-.08-.38-.12h0Z" fill="#174344"/>
    <path d="M55.35,41.61c-.13.03-.27.08-.4.12l-1.26.48c-3.01,1.3-7.09,3.92-10.19,3.92h-.07s3.54,2.84,3.54,2.84l8.38-7.35Z" fill="#174344"/>
  </g>
</svg>
