<?xml version="1.0" encoding="UTF-8"?><svg xmlns="http://www.w3.org/2000/svg" width="100" height="100" viewBox="0 0 100 100"><g id="Aufstellung"><rect id="Hintergrund" x="-7" y="-7" width="114" height="114" rx="6" ry="6" fill="#979ebc"/></g><g id="Icon"><path d="M49.42,3.01c-8.88,0-16.07,8.79-16.07,19.65h0c0,.9.06,1.8.17,2.69,0,.11,0,.23.02.34h-.03v.2c-.01.35,0,.7.02,1.04.14,1.78.84,5.22,3.84,8.69.42.59.87,1.14,1.34,1.67-.14.06-.24.14-.26.21-.2.73-1.13,1.88-2,2.83-.49-.16-1-.22-1.5-.2-3.07.31-6.3,4.15-6.3,4.15,0,0-15.53-.46-16.45,12.3l.35,1.87-.25.12c.38,2.69.76,5.38,1.16,8.07l.29,2c.3,1.94.59,3.8.88,5.43l.07.43c.14.79.29,1.58.45,2.37l.14.62.03.12c.06.21.11.39.16.51.05.11.14.21.26.3.16.09.33.17.51.23.24.07.49.13.74.17.69.09,1.38.16,2.08.18,1.46.02,2.92,0,4.38-.08,2.44-.14,4.87-.32,7.29-.56.94,1.46,4.35,18.65,4.35,18.65h29.82s3.46-17.46,4.37-18.69c.02-.02.04-.04.06-.05.14,0,.35,0,.67.02l1.66.09c.67.05,1.42.09,2.22.13,2,.11,4.3.19,6.16.09.37-.02.72-.04,1.06-.08.56-.05,1.11-.16,1.65-.31.26-.07.51-.21.7-.39.04-.05.08-.11.11-.17.06-.15.11-.31.15-.47l.06-.21.1-.38.18-.74c.14-.57.28-1.22.45-1.97l.08-.34c.86-4.09,1.67-8.2,2.44-12.31l.79-4.15-.09-.03.09-.48c-.49-6.78-5.09-9.83-9.32-11.19-3.72-1.21-7.13-1.11-7.13-1.11,0,0-3.22-3.84-6.3-4.15-.32-.02-.65,0-.96.06-.12.02-.23.05-.35.08-.15.04-.3.09-.45.14h-.01l-.38.12-.4-.19c-2.73-1.32-2.35-2.86-2.21-3.23.45-.5.87-1.03,1.27-1.58,2.93-3.44,3.61-6.84,3.76-8.61.02-.34.03-.68.03-1.03,0-.13-.01-.2-.01-.2h-.03c0-.12,0-.24.01-.37.1-.88.16-1.77.17-2.66,0-10.85-7.2-19.65-16.07-19.65h0Z" fill="#f8c47b" stroke="#fff" stroke-linejoin="round" stroke-width="6.01"/><path d="M34.84,41.95s3.22-3.03,3.6-4.45c.38-1.42,21.89-.47,21.89-.47,0,0-.95,1.8,2.18,3.32s5.5,2.08,5.5,2.08l-21.32,13.46-12.22-13.74.38-.19Z" fill="#f8c47b"/><path d="M34.94,40.12c-3.07.31-6.3,4.15-6.3,4.15,0,0-15.52-.46-16.45,12.3,0,0,3.54,19.22,4.3,21.06.77,1.85,13.37.46,14.14.62.77.15,4.46,18.75,4.46,18.75h29.82s3.69-18.6,4.46-18.75c.77-.15,13.37,1.23,14.14-.62s4.3-21.06,4.3-21.06c-.92-12.76-16.45-12.3-16.45-12.3,0,0-3.23-3.84-6.3-4.15s-10.15,5.38-15.06,5.38-11.99-5.69-15.06-5.38h0Z" fill="#113233" fill-rule="evenodd"/><ellipse cx="49.42" cy="22.65" rx="16.07" ry="19.66" fill="#f9cb8a"/><path d="M51.24,13.91c.46-.82,3.46-.49,5.7-.43s2.91.81,3.2,1.21c.29.39.9,2.71.89,3.74-.02,1.24-1.01,2.24-2.24,2.28-1.34.06-7.14.32-7.27-.82-.3-1.65.2-2.36-.82-2.36-.98.05-1.95,0-2.55,0-1.02,0-.53.71-.82,2.36-.13,1.14-5.93.87-7.27.81-1.24-.04-2.23-1.04-2.24-2.28-.01-1.03.6-3.35.89-3.74.29-.39.96-1.14,3.2-1.2,2.24-.07,5.24-.4,5.7.43.77.48,3.2.62,3.64,0h0Z" fill="#121212" fill-rule="evenodd"/><ellipse cx="39.63" cy="15.16" rx=".91" ry=".49" transform="translate(5.94 40.95) rotate(-58.36)" fill="#737373"/><path d="M34.94,40.12c-3.07.31-6.3,4.15-6.3,4.15,0,0-15.52-.46-16.45,12.3,0,0,3.54,19.22,4.3,21.06.77,1.85,13.37.46,14.14.62.77.15,4.46,18.75,4.46,18.75h29.82s3.69-18.6,4.46-18.75c.77-.15,13.37,1.23,14.14-.62s4.3-21.06,4.3-21.06c-.92-12.76-16.45-12.3-16.45-12.3,0,0-3.23-3.84-6.3-4.15s-10.15,5.38-15.06,5.38-11.99-5.69-15.06-5.38h0Z" fill="#113233" fill-rule="evenodd"/><path d="M49.23,48.26l-3.46,35.56,4.25,5.13,4.68-5-3.4-35.73-2.07.05Z" fill="#b16329" stroke="#b16329" stroke-linejoin="round" stroke-width=".81"/><path d="M69.21,78.27c.79-.15,13.59,1.25,14.37-.62s4.24-20.57,4.24-20.57c0,0-6.8-2.21-10.26-3.05-1.99-.49-2.76-.84-2.76-.84-5.38,8.96-15.03,14.04-24.08,18.93,4.69,4.32,18.48,6.15,18.48,6.15h0Z" fill="#f9cb8a"/><path d="M87.03,61.22c-1.72,5.7-4.89,11.78-5.37,12.95-.78,1.87-12.35,1.01-13.14,1.16,0,0-9.89-1.3-15.78-4.3l-2.02,1.09c4.69,4.32,18.48,6.15,18.48,6.15.79-.15,13.59,1.25,14.37-.62.55-1.32,2.39-10.83,3.46-16.42h0Z" fill="#e8bd80"/><path d="M15.47,78.1c.75,1.8,12.58.57,23.76-.61,11.18-1.18,28.91-15,33.12-20.31,4.21-5.31.08-2.96-5.85-3.9-.62-.09-1.25-.13-1.88-.13-6.71.02-19.04,3.78-21.45,2.93-2.58-.91-19.78-3.37-30.89,2.47,0,0,2.41,17.66,3.19,19.53h0Z" fill="#f9cb8a" fill-rule="evenodd"/><path d="M73.84,55.03l-.06.08c-4.21,5.31-22.86,18.13-34.04,19.31-11.18,1.18-20.71,2.48-21.46.68-.56-1.35-4.39-9.6-5.73-14.71.57,4.09,2.28,16.14,2.93,17.7.75,1.8,12.58.57,23.76-.61s28.91-15,33.12-20.31c.75-.94,1.22-1.63,1.48-2.15h0Z" fill="#e8bd80" fill-rule="evenodd"/><path d="M65.34,25.68h-.03c.02-.24.03-.48.03-.72v-1.78c-.59,1.75-2.38,5.71-6.64,5.71-5.46,0-4.42-1.92-9.28-1.92s-3.83,1.92-9.29,1.92c-4.25,0-6.05-3.96-6.64-5.71v1.78c0,.24,0,.48.03.72h-.03v.2c0,.35,0,.7.02,1.04.22,2.73,1.74,9.4,10.92,14.05l.07.04s.09.05.16.09l.05.03c.08.05.18.1.3.17,2.87,1.42,6.25,1.37,9.07-.14l.05-.03.05-.03c.07-.04.12-.07.16-.09l.07-.03c.18-.1.34-.19.5-.26,8.73-4.63,10.19-11.11,10.41-13.79.02-.34.03-.68.03-1.04,0-.07,0-.13-.01-.2" fill="#935b2a"/><ellipse cx="50.22" cy="47.19" rx="2.23" ry="1.67" fill="#9b5724"/><path d="M36.41,40.31l9.73,8.54,4.14-3.32-.1-.04c-.06,0-.12,0-.18,0-3.65,0-8.48-3.12-11.98-4.62l-1.17-.44c-.15-.05-.29-.09-.44-.13h0Z" fill="#174344"/><path d="M63.75,40.26c-.15.04-.31.09-.46.14l-1.46.56c-3.49,1.51-8.23,4.55-11.82,4.55h-.08s4.11,3.29,4.11,3.29l9.72-8.53Z" fill="#174344"/></g></svg>
