<?xml version="1.0" encoding="UTF-8"?>
<svg xmlns="http://www.w3.org/2000/svg" width="87" height="100" viewBox="0 0 87 100">
  <g id="Hintergrund">
    <rect id="Hintergrund-2" data-name="Hintergrund" width="87" height="100" fill="#555556"/>
  </g>
  <g id="doctor">
    <path d="M43.66,9.5c-6.56,0-12.88,2.48-17.68,6.96-.3.29-.42.72-.31,1.12l1.12,3.99c-3.4,2.72-5.84,6.71-7.25,12.29-3.13,12.43-1.57,23.07,4.2,26.32,3.3,1.92,7.37,1.94,10.69.06,1,.84,2.12,1.54,3.31,2.07-.24.65-.68,1.65-1.39,2.5l-.82-2.43-2.19,1.76c-.34.18-.75.77-1.16,1.53-.12.05-.23.1-.36.14-.99.36-2,.68-3.01.97-1.78.5-3.31.84-3.57.92-4.5,1.37-7.21,2.59-8.44,7.18-.5,1.88-1.87,6.67-3.34,11.79-.01.04-.02.09-.03.13h-.02s-1.06,3.69-1.06,3.69h62.27l-1.05-3.62-.02-.07c-1.48-5.13-2.9-10.06-3.39-11.94-1.23-4.59-3.94-5.8-8.44-7.18-.26-.08-1.79-.42-3.57-.92-1.01-.29-2.02-.61-3.01-.97-.08-.03-.15-.06-.22-.09-.48-.78-.94-1.4-1.29-1.58l-2.19-1.76-.82,2.44c-.73-.86-1.17-1.89-1.41-2.54,1.17-.53,2.26-1.21,3.24-2.04,3.32,1.88,7.39,1.85,10.69-.06,5.77-3.24,7.33-13.89,4.2-26.32-1.41-5.58-3.85-9.58-7.25-12.3l1.21-4.29c.12-.41,0-.85-.32-1.13-4.76-4.28-10.93-6.65-17.33-6.64ZM59.41,37.19l.09,1.24v.1c-.02-.45-.06-.89-.12-1.34,0,0,.03,0,.03,0Z" fill="#916f6f" stroke="#fff" stroke-linecap="round" stroke-linejoin="round" stroke-width="6"/>
    <path d="M74.63,90.5H12.37l1.06-3.68h.01c0-.06.02-.1.03-.14,1.48-5.13,2.84-9.91,3.34-11.79,1.23-4.59,3.94-5.8,8.44-7.18.26-.08,1.79-.42,3.57-.92.57-.16,1.13-.33,1.69-.51.44-.14.89-.29,1.32-.45.35-.13.69-.27,1.03-.42.33-.15.65-.31.96-.49l9.66,23.37,9.66-23.37c.31.18.63.34.96.49.33.14.67.28,1.03.42.43.16.87.31,1.32.45.56.18,1.12.35,1.69.51,1.78.5,3.31.84,3.57.92,4.5,1.38,7.21,2.59,8.44,7.18.5,1.87,1.92,6.81,3.4,11.94l.02.07,1.05,3.62Z" fill="#ebebeb"/>
    <path d="M52.15,71.2l-8.66,1.03-8.66-1.03s-1.49-4.19.45-5.42c1.94-1.22,2.68-4.14,2.68-4.14l5.52.53,5.52-.53s.74,2.92,2.68,4.14c1.94,1.22.45,5.42.45,5.42Z" fill="#eab794"/>
    <path d="M59.53,39.6c0,19.95-10.12,23.94-16.08,23.94s-16.08-3.99-16.08-23.94c0-10.04,7.2-16.18,16.08-16.18s16.08,6.14,16.08,16.18Z" fill="#f4c3a2"/>
    <path d="M43.49,56.85c-1.18-.02-2.32-.4-3.26-1.11-.18-.12-.23-.37-.1-.56,0,0,0,0,0-.01.14-.18.4-.22.59-.09,2.28,1.6,4.26.88,5.89-.03.2-.11.45-.05.57.15.11.19.05.44-.14.55,0,0,0,0-.01,0-1,.56-2.2,1.09-3.55,1.09h0Z" fill="#373434"/>
    <path d="M63.16,60.18c-3.3,1.92-7.37,1.94-10.69.07,7.78-6.87,7.04-21.81,7.04-21.81l-.09-1.24c-14.34,2.05-25.12-3.88-25.12-3.88-2.2,3.85-5.2,5.53-6.91,6.21,0,3.56.53,14.98,7.05,20.73-3.32,1.88-7.39,1.85-10.69-.07-5.77-3.24-7.33-13.89-4.2-26.31,3.12-12.38,11.31-16.99,23.83-17.02h.15c12.52.04,20.71,4.65,23.83,17.02,3.13,12.43,1.57,23.07-4.2,26.32h0Z" fill="#393b42" fill-rule="evenodd"/>
    <path d="M35.47,67.48s3.59,3.35,8.26,3.35,8.94-3.82,8.94-3.82l-9.19,21.27-6.9-10.67-1.12-10.12Z" fill="#86cfef"/>
    <path d="M55.03,76.68l-11.53,12.68-11.54-12.68,3.38-2.95-5.35-2.74c.4-1.23,2.23-6.25,3.37-6.86l2.19-1.76,4.65,13.86,3.18,10.51.12.38,3.3-10.9,4.65-13.86,2.19,1.76c1.14.61,3.46,5.63,3.85,6.86l-5.63,2.2,3.18,3.49Z" fill="#d5d5d5"/>
    <path d="M43.66,9.5c-6.56,0-12.88,2.48-17.68,6.96-.3.29-.42.72-.31,1.12l3.8,13.51c.17.6.78.94,1.38.78.12-.03.23-.09.33-.16,2.62-1.82,7.09-3.18,12.47-3.18s9.2,1.12,12.19,2.91c.53.32,1.22.15,1.54-.38.05-.09.09-.18.12-.27l3.8-13.51c.12-.41,0-.85-.32-1.13-4.76-4.28-10.93-6.65-17.33-6.64h0Z" fill="#ebebeb"/>
    <path d="M49.37,16.37v3.83h-3.81v3.85h-3.8v-3.85h-3.82v-3.83h3.82v-3.85h3.8v3.85h3.81Z" fill="#86cfef"/>
    <path d="M52.08,45.44c.05.85-.6,1.58-1.45,1.63-.85-.05-1.5-.78-1.45-1.63,0-.36.11-.72.32-1.01.19-.28.47-.48.79-.57.11-.03.22-.05.34-.05.09,0,.17,0,.26.03.34.07.65.27.85.55.23.3.35.67.35,1.05ZM37.43,45.51c.05.85-.6,1.58-1.45,1.63-.85-.05-1.5-.78-1.45-1.63,0-.38.12-.74.34-1.05.2-.28.5-.48.84-.56.09-.02.18-.03.27-.03.05,0,.1,0,.15,0,.36.04.68.23.91.5.26.32.4.71.39,1.12Z" fill="#373434"/>
    <path d="M33.92,41.1l4.22.37c.29.02.5.28.47.56,0,0,0,0,0,0-.02.29-.28.5-.56.47,0,0,0,0,0,0l-4.22-.37c-.29-.03-.5-.28-.47-.56.02-.29.28-.5.56-.47,0,0,0,0,0,0ZM52.68,41.11l-4.19.36c-.28.03-.49.28-.47.56.02.28.27.5.56.48,0,0,0,0,0,0l4.19-.36c.28-.03.49-.28.47-.56-.02-.28-.27-.5-.55-.47,0,0,0,0,0,0h0Z" fill="#373434" fill-rule="evenodd"/>
    <path d="M63.6,76.54v2.37l-3.62.6-3.29-.56v-2.41h6.91Z" fill="#d5d5d5"/>
  </g>
</svg>
