<?xml version="1.0" encoding="UTF-8"?>
<svg xmlns="http://www.w3.org/2000/svg" width="87" height="100" viewBox="0 0 87 100">
  <g id="Hintergrund">
    <rect id="Hintergrund-2" data-name="Hintergrund" width="87" height="100" fill="#555556"/>
  </g>
  <g id="Dorfbewohner">
    <path d="M43,9.5c-7.65,0-13.85,7.58-13.85,16.93h0c0,.78.05,1.55.15,2.32v.29s-.01,0-.01,0v.17c0,.3,0,.6.02.89.12,1.53.72,4.5,3.31,7.49.36.51.75.98,1.16,1.43-.13.06-.21.12-.23.19-.17.63-.98,1.62-1.73,2.43-.42-.13-.86-.19-1.29-.17-2.65.26-5.43,3.58-5.43,3.58,0,0-13.38-.4-14.17,10.59l.3,1.61-.21.1c.32,2.32.66,4.64,1,6.95.09.6.16,1.11.26,1.72.25,1.67.5,3.28.75,4.68l.07.37c.12.68.25,1.36.39,2.04.04.2.08.38.12.53l.03.1c.05.19.09.34.13.44.04.1.12.18.23.26.14.08.29.15.44.21.21.06.42.11.63.15.24.04.51.07.81.1.7.06,1.4.08,2.11.07.8,0,1.69-.03,2.64-.08,2.1-.12,4.19-.28,6.28-.48.81,1.25,3.75,16.07,3.75,16.07h25.7s2.98-15.04,3.77-16.1c.01-.02.03-.03.06-.04.12,0,.3,0,.58,0,.37.02.86.05,1.43.08.57.03,1.22.07,1.91.11,1.73.09,3.71.16,5.31.08.32-.02.63-.04.91-.07.38-.04.75-.1,1.12-.18.1-.02.2-.05.3-.09.23-.06.43-.18.6-.34.04-.04.07-.09.09-.14.05-.13.1-.27.13-.41l.05-.18.09-.33.15-.64c.12-.49.24-1.06.39-1.7l.07-.29c.45-2.17.89-4.34,1.32-6.52l.78-4.09.68-3.57-.08-.02.08-.41c-.42-5.84-4.4-8.47-8.03-9.64-3.2-1.04-6.15-.95-6.15-.95,0,0-2.78-3.31-5.43-3.58-.28-.02-.56,0-.83.05l-.3.07c-.13.03-.26.08-.39.12h0c-.11.03-.22.07-.33.1-.12-.06-.23-.1-.35-.16-2.35-1.14-2.03-2.47-1.91-2.79.38-.43.75-.89,1.09-1.37,2.52-2.96,3.11-5.89,3.24-7.41.02-.29.03-.59.03-.89v-.18h-.03v-.32c.1-.76.15-1.52.16-2.29,0-9.35-6.2-16.94-13.85-16.94h0s0,0,0,0Z" fill="#f8c47b" stroke="#fff" stroke-linejoin="round" stroke-width="6"/>
    <path d="M43,9.5c-7.65,0-13.85,7.58-13.85,16.94,0,.83.05,1.66.15,2.48,0,.04,0,.09,0,.13h-.02v.17c0,.3,0,.6.02.89.12,1.51.7,4.42,3.19,7.37.39.55.81,1.08,1.26,1.57-.12.06-.2.12-.22.19-.17.63-.98,1.62-1.73,2.43-.42-.13-.86-.19-1.29-.16h0c-2.65.26-5.43,3.57-5.43,3.57,0,0-13.38-.39-14.17,10.59l.3,1.61-.21.11s2.08,15.22,2.75,16.83c.48,1.15,6.25.86,13.15.22.81,1.25,3.76,16.07,3.76,16.07h25.7s3.12-15.73,3.82-16.15c1.35-.04,11.61,1.03,12.26-.52.67-1.62,3.65-17.73,3.65-17.73l-.08-.03.08-.41c-.79-10.99-14.17-10.59-14.17-10.59,0,0-2.78-3.31-5.43-3.57-.5-.05-1.14.09-1.86.34-.12-.05-.23-.11-.35-.16-2.32-1.12-2.04-2.43-1.92-2.77.41-.45.79-.93,1.15-1.44,2.48-2.94,3.07-5.85,3.19-7.36.02-.3.03-.59.03-.89,0-.06,0-.12,0-.18h-.02s0-.08,0-.12c.1-.82.15-1.66.15-2.49,0-9.35-6.2-16.93-13.85-16.94Z" fill="#555556"/>
    <path d="M40.32,61.98v-1.34c0-1.02.21-1.88.63-2.57.41-.71,1.15-1.4,2.21-2.06.85-.53,1.45-1.01,1.81-1.43.37-.43.56-.92.56-1.47,0-.44-.2-.78-.59-1.03-.4-.26-.91-.39-1.55-.39-1.57,0-3.41.56-5.51,1.67l-2.17-4.25c2.59-1.48,5.3-2.21,8.12-2.21,2.32,0,4.14.51,5.46,1.53,1.32,1.02,1.99,2.41,1.99,4.17,0,1.26-.3,2.35-.89,3.28-.59.92-1.52,1.78-2.81,2.61-1.09.71-1.78,1.23-2.06,1.56-.27.32-.4.71-.4,1.15v.8h-4.79ZM39.65,67.45c0-.96.28-1.7.83-2.22.56-.52,1.39-.78,2.47-.78s1.83.27,2.39.8c.56.52.84,1.25.84,2.2s-.29,1.68-.88,2.2c-.57.52-1.36.78-2.35.78s-1.84-.26-2.42-.77c-.58-.52-.88-1.26-.88-2.21Z" fill="#fff"/>
  </g>
</svg>
