<?xml version="1.0" encoding="UTF-8"?>
<svg xmlns="http://www.w3.org/2000/svg" width="87.25" height="99.25" viewBox="0 0 87.25 99.25">
  <g id="Hintergrund">
    <rect id="Hintergrund-2" data-name="Hintergrund" width="87.25" height="99.75" fill="#555556"/>
  </g>
  <g id="dorfbewohner">
    <path d="M43.17,12c-7.11,0-12.87,7.04-12.87,15.73h0c0,.72.05,1.44.14,2.15v.27s-.01,0-.01,0v.16c0,.28,0,.56.02.83.11,1.42.67,4.18,3.07,6.96.34.47.69.91,1.07,1.33-.12.05-.2.11-.21.18-.16.58-.91,1.5-1.6,2.26-.39-.12-.79-.18-1.2-.15-2.46.25-5.05,3.32-5.05,3.32,0,0-12.43-.37-13.16,9.84l.28,1.49-.2.1c.3,2.15.61,4.31.93,6.46.08.56.15,1.03.24,1.6.23,1.56.47,3.04.7,4.35l.06.34c.11.63.23,1.26.36,1.89.04.18.08.35.11.49l.02.1c.05.17.09.31.12.41.04.09.11.17.21.24.13.08.27.14.41.19.19.06.39.11.59.14.23.04.48.07.76.09.65.06,1.3.08,1.96.07.74,0,1.57-.03,2.46-.08,1.95-.11,3.89-.26,5.84-.45.76,1.16,3.49,14.93,3.49,14.93h23.87s2.77-13.97,3.5-14.96c.01-.02.03-.03.05-.04.11,0,.28,0,.54,0,.34.02.8.04,1.33.08.53.03,1.13.07,1.78.1,1.6.08,3.44.15,4.93.07.3-.02.58-.03.85-.06.35-.03.7-.09,1.04-.17.09-.02.19-.05.28-.08.21-.06.4-.16.56-.31.04-.04.07-.08.09-.13.05-.13.09-.25.12-.38l.05-.17.08-.3.14-.59c.11-.45.23-.98.36-1.58l.06-.27c.42-2.02.83-4.03,1.23-6.05l.73-3.8.63-3.32-.07-.02.07-.38c-.39-5.42-4.08-7.87-7.46-8.96-2.98-.97-5.71-.89-5.71-.89,0,0-2.58-3.08-5.04-3.32-.26-.02-.52,0-.77.05l-.28.06c-.12.03-.24.07-.36.11h0c-.1.03-.2.06-.3.1-.11-.05-.21-.09-.32-.15-2.19-1.06-1.88-2.3-1.77-2.59.36-.4.7-.82,1.01-1.27,2.34-2.75,2.89-5.48,3.01-6.89.02-.27.02-.54.03-.83v-.16h-.03v-.29c.1-.7.14-1.42.15-2.13,0-8.69-5.76-15.73-12.87-15.73h0s0,0,0,0Z" fill="#f8c47b" stroke="#fff" stroke-linejoin="round" stroke-width="6"/>
    <path d="M43.16,12c-7.11,0-12.87,7.04-12.87,15.73,0,.77.05,1.54.14,2.3,0,.04,0,.08,0,.12h-.02v.16c0,.28,0,.56.02.83.11,1.4.65,4.11,2.97,6.84.36.52.76,1,1.17,1.46-.11.05-.19.11-.2.17-.15.58-.91,1.5-1.6,2.26-.39-.12-.79-.17-1.2-.15h0c-2.46.24-5.04,3.32-5.04,3.32,0,0-12.43-.37-13.17,9.84l.28,1.49-.2.1s1.93,14.14,2.55,15.64c.44,1.07,5.81.8,12.21.2.76,1.16,3.49,14.93,3.49,14.93h23.87s2.9-14.61,3.55-15c1.26-.03,10.79.96,11.39-.48.63-1.5,3.39-16.47,3.39-16.47l-.07-.02.07-.38c-.74-10.21-13.16-9.84-13.16-9.84,0,0-2.59-3.07-5.05-3.32-.47-.05-1.06.08-1.72.32-.11-.05-.22-.1-.32-.15-2.15-1.04-1.89-2.25-1.78-2.57.38-.42.73-.87,1.07-1.34,2.31-2.74,2.85-5.43,2.97-6.83.02-.28.02-.55.03-.83,0-.05,0-.11,0-.16h-.02s0-.07,0-.11c.09-.77.14-1.54.14-2.31,0-8.69-5.76-15.73-12.87-15.73Z" fill="#555556"/>
    <path d="M40.68,60.75v-1.25c0-.95.19-1.74.58-2.39.39-.66,1.07-1.3,2.06-1.92.79-.49,1.35-.94,1.69-1.33.35-.4.52-.85.52-1.36,0-.41-.18-.73-.55-.96-.37-.24-.85-.36-1.44-.36-1.46,0-3.17.52-5.12,1.55l-2.02-3.95c2.41-1.37,4.93-2.06,7.55-2.06,2.16,0,3.85.47,5.08,1.42,1.23.95,1.85,2.24,1.85,3.87,0,1.17-.28,2.19-.83,3.05-.54.85-1.42,1.66-2.61,2.42-1.01.66-1.65,1.14-1.92,1.45-.25.3-.38.66-.38,1.07v.74h-4.45ZM40.05,65.83c0-.89.26-1.58.77-2.06.52-.48,1.29-.73,2.3-.73s1.7.25,2.22.74c.52.48.78,1.17.78,2.05s-.27,1.56-.81,2.05c-.53.48-1.26.73-2.19.73s-1.71-.24-2.25-.71c-.54-.48-.81-1.17-.81-2.06Z" fill="#fff"/>
  </g>
</svg>
