<?xml version="1.0" encoding="UTF-8"?>
<svg xmlns="http://www.w3.org/2000/svg" width="112" height="112" viewBox="0 0 112 112">
  <g id="Aufstellung">
    <rect id="Hintergrund" x="0" y="0" width="112" height="112" rx="0" ry="0" fill="#555556"/></g>
  <g id="Dorfbewohner"><path d="M55.43,9c-8.88,0-16.08,8.79-16.08,19.65h0c0,.9.06,1.8.17,2.69v.34s-.02,0-.02,0v.2c-.01.35,0,.7.02,1.04.14,1.78.84,5.23,3.84,8.7.42.59.87,1.14,1.34,1.66-.15.07-.25.14-.26.22-.2.73-1.13,1.87-2,2.82-.48-.15-.99-.22-1.5-.19-3.08.31-6.3,4.15-6.3,4.15,0,0-15.52-.46-16.44,12.29l.35,1.87-.25.12c.38,2.69.76,5.38,1.16,8.07.1.7.19,1.29.3,2,.29,1.94.59,3.8.87,5.43l.08.43c.14.79.29,1.58.45,2.37.05.23.1.44.14.62l.03.12c.06.22.11.39.15.51.05.11.14.21.27.3.16.1.33.18.51.24.24.07.49.13.73.17.28.05.6.09.94.11.81.07,1.63.1,2.45.08.93,0,1.96-.04,3.07-.1,2.43-.14,4.86-.32,7.29-.56.94,1.46,4.35,18.65,4.35,18.65h29.82s3.46-17.45,4.38-18.69c.02-.02.04-.04.06-.05.14,0,.35,0,.67.01.43.02.99.05,1.66.09.66.04,1.41.09,2.22.13,2,.11,4.3.19,6.16.09.37-.02.73-.04,1.06-.08.44-.04.87-.11,1.3-.21.12-.03.23-.06.35-.1.26-.07.5-.2.7-.39.05-.05.08-.1.11-.17.06-.16.11-.32.15-.48l.06-.21.1-.38.18-.74c.14-.57.28-1.22.45-1.98l.08-.34c.53-2.52,1.04-5.04,1.53-7.56l.91-4.74.79-4.15-.09-.03.09-.48c-.49-6.78-5.1-9.83-9.32-11.19-3.72-1.21-7.13-1.11-7.13-1.11,0,0-3.23-3.84-6.3-4.15-.32-.03-.65,0-.97.06l-.34.08c-.15.04-.3.09-.45.14h-.01c-.13.04-.25.08-.38.12-.14-.06-.26-.12-.4-.19-2.73-1.32-2.35-2.87-2.21-3.24.45-.5.87-1.03,1.27-1.59,2.93-3.44,3.61-6.84,3.76-8.6.02-.34.03-.68.03-1.03v-.2h-.04l.02-.37c.1-.88.16-1.77.17-2.66,0-10.85-7.2-19.65-16.07-19.65t0,0h0Z" fill="#f8c47b" stroke="#fff" stroke-linejoin="round" stroke-width="6"/><path d="M55.42,9c-8.88,0-16.08,8.8-16.08,19.65,0,.96.06,1.92.18,2.88,0,.05,0,.1,0,.15h-.03v.2c-.01.35,0,.7.02,1.03.14,1.75.82,5.13,3.7,8.55.45.64.94,1.25,1.46,1.82-.14.06-.23.14-.25.22-.19.73-1.13,1.87-2,2.82-.48-.15-.99-.22-1.5-.19h0c-3.08.3-6.3,4.15-6.3,4.15,0,0-15.53-.46-16.45,12.29l.35,1.86-.25.13s2.41,17.66,3.19,19.54c.56,1.34,7.26,1,15.26.25.94,1.45,4.36,18.64,4.36,18.64h29.82s3.62-18.26,4.43-18.74c1.57-.04,13.47,1.19,14.23-.6.78-1.88,4.24-20.57,4.24-20.57l-.09-.03.09-.48c-.92-12.75-16.44-12.29-16.44-12.29,0,0-3.23-3.84-6.3-4.15-.59-.06-1.32.1-2.15.4-.14-.06-.27-.12-.4-.19-2.69-1.3-2.37-2.82-2.22-3.21.47-.52.91-1.08,1.33-1.67,2.88-3.42,3.56-6.78,3.7-8.54.02-.34.03-.69.03-1.03,0-.07,0-.14-.01-.2h-.03s0-.09,0-.14c.12-.96.18-1.92.18-2.89,0-10.85-7.2-19.65-16.07-19.65Z" fill="#555556"/><path d="M52.31,69.9v-1.56c0-1.18.24-2.18.73-2.99.48-.82,1.34-1.62,2.57-2.4.98-.61,1.68-1.17,2.11-1.66.43-.5.65-1.06.65-1.7,0-.51-.23-.91-.69-1.2-.46-.3-1.06-.45-1.8-.45-1.82,0-3.96.65-6.4,1.94l-2.52-4.93c3.01-1.71,6.15-2.57,9.43-2.57,2.7,0,4.81.59,6.34,1.78,1.54,1.18,2.31,2.8,2.31,4.84,0,1.46-.35,2.73-1.04,3.81-.68,1.06-1.77,2.07-3.27,3.02-1.27.82-2.06,1.43-2.39,1.81-.31.38-.47.82-.47,1.34v.93h-5.56ZM51.53,76.25c0-1.11.32-1.97.96-2.57.66-.6,1.61-.91,2.87-.91s2.13.31,2.77.93c.65.6.98,1.46.98,2.55s-.34,1.95-1.02,2.55c-.66.6-1.57.91-2.73.91s-2.14-.3-2.81-.89c-.68-.6-1.02-1.46-1.02-2.57Z" fill="#fff"/></g></svg>
