<?xml version="1.0" encoding="UTF-8"?>
<svg xmlns="http://www.w3.org/2000/svg" width="87" height="100" viewBox="0 0 87 100">
  <g id="Hintergrund">
    <rect id="Hintergrund-2" data-name="Hintergrund" width="87" height="100" fill="#555556"/>
  </g>
  <g id="vigilante">
    <path d="M31.85,24.28c-4.92-.21-9.76,1.28-13.7,4.22-.13.1-.27.2-.4.3-.86-.74-1.86-1.32-2.93-1.69-4.66-1.59-9.73.89-11.33,5.55-1.25,3.63-.02,7.66,3.03,9.98.13.09.26.18.39.27-3.32,8.67-.68,18.49,6.53,24.33,8.19,6.6,19.96,6.29,27.79-.74l30.07,9.03.39.11c.86.26,1.8-.03,2.36-.73l2.65-3.29.02-.02.89-1.08,5.89-7.14c.77-.96.61-2.36-.34-3.12,0,0,0,0,0,0l-33.03-26.17c-.22-.17-.47-.3-.74-.37-.18-.05-.36-.07-.55-.07-1.25,0-2.45-.44-3.42-1.22-.98-.79-1.65-1.88-1.92-3.11-.11-.5-.34-.97-.69-1.36-.17-.2-.37-.36-.59-.5-3.13-1.93-6.7-3.02-10.37-3.18ZM11.82,29.74c.68-.01,1.35.09,1.99.31.57.2,1.11.49,1.59.85l-.06.05-.24.23-.23.23c-2.14,2.05-4.01,4.35-5.57,6.86l.2-.15c-.46.61-.89,1.25-1.28,1.91-.22-.18-.43-.38-.62-.6h0c-1.41-1.57-1.85-3.78-1.17-5.77.79-2.31,2.94-3.88,5.39-3.93Z" fill="#95a4ab" fill-rule="evenodd" stroke="#fff" stroke-linecap="round" stroke-linejoin="round" stroke-width="6"/>
    <path d="M83.5,63.38l-5.89,7.14-.91,1.1c-.36.45.52-.81-.03-.74-.31.05-.63.02-.94-.07l-30.46-9.14c-7.83,7.02-19.6,7.34-27.79.74-7.67-6.18-10.15-16.8-5.99-25.74.73-1.58,1.65-3.06,2.75-4.42.22-.27.45-.55.68-.81.29-.33.59-.64.9-.95.52-.52,1.06-1.01,1.63-1.47.02-.02.04-.04.07-.05.2-.16.41-.32.61-.48,7.05-5.25,16.59-5.66,24.07-1.04.22.13.42.3.59.5.34.39.58.86.68,1.36.27,1.22.94,2.32,1.92,3.11.97.79,2.17,1.22,3.42,1.22.19,0,.37.02.55.07.27.07.52.2.74.37l33.03,26.17c.96.76,1.12,2.16.36,3.12,0,0,0,0,0,0h0Z" fill="#95a4ab" fill-rule="evenodd"/>
    <path d="M16.68,31.38c-.67,1.36-1.4,2.82-1.03,3.16-1.09.16-2.79,1.19-4.15,2.12-1.23.84-2.19,1.61-2.19,1.61,1.56-2.51,3.44-4.82,5.57-6.87.3-.3.62-.61.95-.92.53-.5,1.08-.99,1.63-1.47.02-.02.04-.04.07-.06h0c.14.36-.33,1.35-.85,2.41Z" fill="#95a4ab" fill-rule="evenodd"/>
    <path d="M17.9,30.45c-.36.37-.77.68-1.22.94-.53.33-1.2.36-1.75.06-.02,0-.04-.02-.05-.03.3-.3.62-.61.95-.92.52-.52,1.06-1.01,1.63-1.47.02-.02.04-.04.07-.06h0c.2-.16.41-.32.61-.47.3.34.68,1.05-.24,1.95Z" fill="#505151" fill-rule="evenodd" isolation="isolate" opacity=".07"/>
    <path d="M18.08,36.08c-.13.09-.26.18-.41.27-.05.37-.13.74-.25,1.09-1.04,3.04-4.34,4.66-7.38,3.62,0,0,0,0,0,0-.11-.04-.21-.08-.31-.12-.81-.33-1.54-.84-2.13-1.49h0c-1.41-1.57-1.85-3.78-1.17-5.77,1.04-3.04,4.34-4.66,7.38-3.62.62.21,1.21.53,1.72.94.18.15.42.18.64.1.48-.18.91-.47,1.27-.83.17-.17.33-.36.48-.55.2-.26.15-.64-.1-.85-.88-.78-1.91-1.37-3.02-1.75-4.66-1.6-9.73.89-11.33,5.55-1.25,3.63-.02,7.66,3.03,9.98.76.58,1.61,1.03,2.51,1.34,4.66,1.6,9.73-.88,11.32-5.54,0,0,0,0,0,0,.5-1.44.62-2.98.34-4.48-.8.79-1.67,1.5-2.62,2.12Z" fill="#87969d" fill-rule="evenodd"/>
    <path d="M49.38,33.71l-4.17,5.11-4.02,1.15s-2.8-1.2-2.72-1.79c.08-.58.29-5.39.29-5.39l4.04-4.84c.34.39.58.86.68,1.36.27,1.22.94,2.32,1.92,3.11.97.79,2.17,1.22,3.42,1.22.19,0,.37.02.55.07h0ZM83.5,63.38l-5.89,7.14c-.28.19-.61.32-.95.36l-.94-.07,3.37-5.73,4.05-4.84c.96.76,1.12,2.16.36,3.12,0,0,0,0,0,0Z" fill="#505151" fill-rule="evenodd" isolation="isolate" opacity=".19"/>
    <path d="M79.46,68.22l-5.4,6.7c-.56.7-1.5.99-2.36.73l-.39-.11-30.08-9.03c-7.83,7.02-19.6,7.34-27.79.74-9.22-7.43-10.68-20.94-3.24-30.16,0,0,0,0,0,0,6.78-8.42,18.77-10.47,27.97-4.8.66.42,1.12,1.1,1.27,1.86.26,1.23.94,2.32,1.92,3.11.97.78,2.17,1.21,3.42,1.22.47,0,.92.16,1.29.44l33.03,26.17c.96.76,1.12,2.15.36,3.11,0,0,0,.01-.01.02Z" fill="#b7cbd6" fill-rule="evenodd"/>
    <path d="M45.68,33.84l-2.31,3.18c-.13.19-.37.27-.59.22-.07-.02-.14-.05-.2-.09l-1.17-.85c-.25-.18-.31-.54-.13-.79,0,0,0,0,0,0l2.31-3.18c.04-.06.1-.11.16-.15.19-.12.44-.11.63.02l1.17.85c.25.18.31.54.12.79,0,0,0,0,0,0Z" fill="#444c4f" fill-rule="evenodd"/>
    <path d="M45.26,33.91l-2.31,3.18c-.04.06-.1.11-.16.14-.07-.02-.14-.05-.2-.09l-1.17-.85c-.25-.18-.31-.54-.13-.79,0,0,0,0,0,0l2.31-3.18c.04-.06.1-.11.16-.15.07.02.14.05.2.09l1.17.85c.25.18.31.53.13.79,0,0,0,0,0,0Z" fill="#4f5456" fill-rule="evenodd"/>
    <path d="M38.67,60.03c-5.24,6.5-14.76,7.52-21.26,2.28-6.5-5.24-7.53-14.75-2.29-21.25,0,0,0,0,0,0,5.24-6.5,14.76-7.53,21.26-2.29h0c6.5,5.24,7.53,14.76,2.29,21.26,0,0,0,0,0,0h0Z" fill="#9cafbc" fill-rule="evenodd"/>
    <path d="M33.9,56.54c-.05,4.39-2.92,1.44-6.61,1.13-.17,0-.34-.02-.52-.03-3.92-.04-7.15,3.3-7.09-1.28.06-4.59,4.67-8.25,7.22-8.21.09,0,.18,0,.27.02,2.58.28,6.79,3.95,6.74,8.37ZM24.35,46.68l-.09.03c-1.33.34-2.79-.88-3.26-2.72-.47-1.84.23-3.61,1.56-3.95h0c1.33-.33,2.78.88,3.25,2.72.46,1.8-.19,3.53-1.47,3.93ZM32.91,44.13c-.51,1.83-2,3.02-3.33,2.64-.11-.04-.22-.08-.32-.13-1.1-.55-1.61-2.19-1.14-3.86.51-1.83,2-3.02,3.32-2.64.26.08.5.21.71.38.83.71,1.16,2.14.75,3.61h0ZM37.12,49.69c-.86,1.45-2.4,2.12-3.45,1.49-.22-.13-.4-.31-.54-.52-.53-.8-.48-2.08.21-3.23.86-1.45,2.4-2.12,3.44-1.49.29.17.52.42.66.72.4,1,.28,2.13-.32,3.03ZM20.62,50.49c-.15.22-.34.4-.56.53-1.07.59-2.59-.11-3.42-1.59-.82-1.46-.63-3.14.43-3.74h0c1.07-.59,2.58.12,3.4,1.59.65,1.14.67,2.43.14,3.21Z" fill="#fdcc64"/>
    <path d="M79.46,68.22l-5.4,6.7c-.56.7-1.5.99-2.36.73l-.39-.11,7.8-10.45c.96.76,1.12,2.15.36,3.11,0,0,0,.01-.01.02Z" fill="#505151" fill-rule="evenodd" isolation="isolate" opacity=".19"/>
  </g>
</svg>
