<?xml version="1.0" encoding="UTF-8"?>
<svg xmlns="http://www.w3.org/2000/svg" width="112" height="112" viewBox="0 0 112 112">
  <g id="Aufstellung">
    <rect id="Hintergrund" x="0" y="0" width="112" height="112" rx="6" ry="6" fill="#555556"/>
  </g>
  <g id="vigilante">
    <g>
      <path d="M42.48,26.14c-5.71-.24-11.32,1.49-15.91,4.9-.16.11-.31.23-.46.35-1-.86-2.15-1.53-3.4-1.96-5.41-1.85-11.3,1.03-13.15,6.44-1.45,4.22-.03,8.89,3.52,11.59.15.11.3.21.45.31-3.85,10.06-.79,21.46,7.58,28.24,9.51,7.66,23.17,7.3,32.26-.86l34.91,10.48.45.13c1,.3,2.09-.03,2.74-.85l3.08-3.82.02-.03,1.04-1.25,6.83-8.29c.89-1.11.71-2.73-.4-3.63,0,0,0,0,0,0l-38.35-30.38c-.25-.2-.55-.35-.86-.43-.21-.06-.42-.08-.64-.08-1.45,0-2.85-.51-3.97-1.42-1.13-.91-1.92-2.18-2.23-3.61-.12-.59-.4-1.13-.8-1.58-.2-.23-.43-.42-.68-.58-3.63-2.24-7.78-3.51-12.04-3.69ZM19.22,32.48c.79-.02,1.57.11,2.32.36.66.23,1.29.57,1.85.99l-.06.06-.27.27-.27.27c-2.48,2.38-4.65,5.05-6.47,7.97l.23-.18c-.53.71-1.03,1.45-1.49,2.22-.26-.21-.5-.44-.72-.69h0c-1.63-1.82-2.15-4.38-1.36-6.7.92-2.68,3.42-4.51,6.25-4.56Z" fill="#95a4ab" fill-rule="evenodd" stroke="#fff" stroke-linecap="round" stroke-linejoin="round" stroke-width="6"/>
      <path d="M102.44,71.53l-6.83,8.29-1.06,1.28c-.42.52.6-.95-.04-.86-.36.05-.73.03-1.09-.08l-35.36-10.61c-9.09,8.15-22.75,8.52-32.26.86-8.91-7.18-11.78-19.51-6.96-29.88.85-1.83,1.92-3.56,3.19-5.13.26-.32.52-.63.79-.93.34-.38.69-.75,1.05-1.1.6-.6,1.23-1.17,1.89-1.7.02-.02.05-.04.08-.06.23-.19.47-.37.71-.55,8.19-6.09,19.26-6.57,27.94-1.21.26.16.49.35.68.58.4.45.67.99.79,1.58.31,1.42,1.09,2.69,2.23,3.6,1.12.91,2.52,1.41,3.97,1.42.22,0,.43.03.64.08.31.08.61.23.86.43l38.35,30.38c1.12.89,1.3,2.51.42,3.62,0,0,0,0,0,.01h0Z" fill="#95a4ab" fill-rule="evenodd"/>
      <path d="M24.86,34.39c-.77,1.58-1.63,3.28-1.19,3.67-1.27.19-3.24,1.38-4.82,2.46-1.43.97-2.55,1.87-2.55,1.87,1.81-2.92,3.99-5.59,6.47-7.97.35-.35.72-.71,1.11-1.07.62-.58,1.25-1.15,1.89-1.7.03-.02.05-.05.08-.07h0c.16.41-.39,1.57-.99,2.8Z" fill="#95a4ab" fill-rule="evenodd"/>
      <path d="M26.28,33.3c-.42.43-.89.79-1.42,1.09-.62.38-1.39.41-2.03.07-.02,0-.04-.02-.06-.03.35-.35.72-.71,1.11-1.07.6-.6,1.23-1.17,1.89-1.7.03-.02.05-.05.08-.07h0c.23-.18.47-.37.71-.55.35.39.78,1.22-.28,2.26Z" fill="#505151" fill-rule="evenodd" isolation="isolate" opacity=".07"/>
      <path d="M26.49,39.84c-.15.1-.31.21-.47.31-.06.43-.15.86-.3,1.27-1.21,3.52-5.04,5.4-8.57,4.2,0,0,0,0,0,0-.12-.04-.24-.09-.36-.14-.94-.38-1.79-.98-2.47-1.74h0c-1.63-1.83-2.15-4.39-1.36-6.7,1.21-3.52,5.04-5.4,8.57-4.2.72.25,1.4.62,2,1.09.21.17.49.21.74.12.55-.21,1.06-.54,1.48-.96.2-.2.38-.41.56-.64.23-.31.18-.74-.11-.99-1.02-.9-2.21-1.59-3.5-2.03-5.41-1.85-11.3,1.03-13.15,6.44-1.45,4.22-.03,8.89,3.52,11.59.88.67,1.87,1.2,2.92,1.56,5.41,1.85,11.29-1.02,13.14-6.43,0,0,0,0,0,0,.58-1.67.72-3.46.4-5.2-.92.92-1.94,1.75-3.04,2.46Z" fill="#87969d" fill-rule="evenodd"/>
      <path d="M62.82,37.09l-4.84,5.94-4.67,1.33s-3.25-1.39-3.15-2.08c.09-.68.34-6.26.34-6.26l4.69-5.62c.4.45.67.99.79,1.58.31,1.42,1.09,2.69,2.23,3.6,1.12.91,2.52,1.41,3.97,1.42.22,0,.43.03.64.08h0ZM102.44,71.53l-6.83,8.29c-.33.22-.7.37-1.1.42l-1.09-.08,3.91-6.65,4.7-5.62c1.12.89,1.3,2.51.42,3.62,0,0,0,0,0,.01Z" fill="#505151" fill-rule="evenodd" isolation="isolate" opacity=".19"/>
      <path d="M97.74,77.14l-6.27,7.78c-.66.82-1.74,1.15-2.74.85l-.45-.13-34.91-10.48c-9.09,8.15-22.75,8.52-32.26.86-10.71-8.63-12.39-24.3-3.76-35.01,0,0,0,0,0,0,7.87-9.77,21.79-12.15,32.47-5.57.76.49,1.3,1.27,1.48,2.16.31,1.42,1.09,2.7,2.23,3.61,1.12.91,2.52,1.41,3.97,1.41.54,0,1.07.18,1.5.51l38.35,30.38c1.11.88,1.3,2.5.42,3.61,0,0,0,.01-.01.02Z" fill="#b7cbd6" fill-rule="evenodd"/>
      <path d="M58.53,37.24l-2.68,3.69c-.15.22-.43.32-.68.25-.08-.02-.16-.06-.24-.11l-1.35-.99c-.29-.21-.36-.62-.15-.92,0,0,0,0,0,0l2.68-3.69c.05-.07.11-.13.19-.17.23-.14.51-.13.73.03l1.36.99c.29.21.36.62.14.92,0,0,0,0,0,0Z" fill="#444c4f" fill-rule="evenodd"/>
      <path d="M58.04,37.33l-2.68,3.69c-.05.07-.11.13-.19.17-.08-.02-.16-.06-.24-.11l-1.35-.99c-.29-.21-.36-.62-.15-.92,0,0,0,0,0,0l2.68-3.69c.05-.07.11-.13.19-.17.08.02.16.06.24.11l1.36.99c.29.21.36.62.15.91,0,0,0,0,0,0Z" fill="#4f5456" fill-rule="evenodd"/>
      <path d="M50.39,67.65c-6.09,7.54-17.13,8.73-24.68,2.65-7.55-6.08-8.74-17.12-2.66-24.67,0,0,0,0,0,0,6.08-7.55,17.13-8.74,24.68-2.65h0c7.55,6.08,8.74,17.13,2.65,24.68,0,0,0,0,0,0h0Z" fill="#9cafbc" fill-rule="evenodd"/>
      <path d="M44.86,63.59c-.06,5.1-3.39,1.67-7.67,1.31-.19-.01-.39-.02-.6-.03-4.55-.05-8.3,3.83-8.24-1.48.07-5.33,5.42-9.57,8.38-9.53.1,0,.21,0,.31.02,3,.32,7.88,4.58,7.82,9.71ZM33.77,52.14l-.11.03c-1.54.39-3.24-1.03-3.79-3.16-.54-2.13.27-4.19,1.81-4.59h.01c1.54-.38,3.23,1.03,3.77,3.16.53,2.1-.22,4.1-1.7,4.56ZM43.7,49.18c-.6,2.12-2.33,3.5-3.87,3.07-.13-.04-.25-.09-.37-.15-1.28-.63-1.87-2.54-1.32-4.48.6-2.12,2.33-3.5,3.86-3.07.3.09.58.24.83.44.97.83,1.35,2.49.88,4.19h0ZM48.6,55.64c-1,1.68-2.79,2.46-4.01,1.73-.25-.15-.47-.36-.62-.6-.61-.93-.55-2.42.24-3.74,1-1.68,2.79-2.46,4-1.73.34.19.6.48.76.83.46,1.16.32,2.47-.37,3.51ZM29.44,56.56c-.17.25-.39.46-.65.61-1.24.68-3.01-.13-3.97-1.84-.96-1.7-.74-3.64.5-4.34h.01c1.24-.68,3,.14,3.95,1.84.75,1.33.77,2.82.16,3.72Z" fill="#fdcc64"/>
      <path d="M97.74,77.14l-6.27,7.78c-.66.82-1.74,1.15-2.74.85l-.45-.13,9.06-12.12c1.11.88,1.3,2.5.42,3.61,0,0,0,.01-.01.02Z" fill="#505151" fill-rule="evenodd" isolation="isolate" opacity=".19"/>
    </g>
  </g>
</svg>