<?xml version="1.0" encoding="UTF-8"?>

<svg id="Button" xmlns="http://www.w3.org/2000/svg" width="430" height="48" viewBox="0 0 430 48">
  <rect id="Hintergrund" x="156" width="156" height="48" rx="6" ry="6" fill="#fff" opacity=".87"/>
  <path d="M202.84,25.87h-2.29v5.1h-2.87v-13.93h5.18c1.65,0,2.92.37,3.81,1.1.89.73,1.34,1.77,1.34,3.11,0,.95-.21,1.74-.62,2.38-.41.64-1.04,1.14-1.87,1.52l3.01,5.69v.13h-3.08l-2.61-5.1ZM200.55,23.54h2.32c.72,0,1.28-.18,1.67-.55.4-.37.59-.87.59-1.52s-.19-1.17-.56-1.55c-.37-.38-.95-.56-1.72-.56h-2.31v4.18Z"/>
  <path d="M222.06,24.32c0,1.37-.24,2.57-.73,3.61-.48,1.03-1.18,1.83-2.08,2.39-.9.56-1.94.84-3.11.84s-2.19-.28-3.09-.83c-.91-.55-1.61-1.35-2.11-2.38-.5-1.03-.75-2.22-.76-3.56v-.69c0-1.37.25-2.58.74-3.62.49-1.04,1.19-1.84,2.1-2.4.9-.56,1.93-.84,3.1-.84s2.19.28,3.1.84c.9.56,1.6,1.36,2.1,2.4.49,1.04.74,2.25.74,3.61v.62ZM219.15,23.68c0-1.46-.26-2.57-.79-3.33-.52-.76-1.27-1.14-2.24-1.14s-1.71.37-2.23,1.12c-.52.75-.79,1.85-.79,3.3v.68c0,1.42.26,2.53.79,3.31.52.78,1.28,1.18,2.26,1.18s1.7-.38,2.22-1.13.78-1.86.79-3.31v-.68Z"/>
  <path d="M227.67,28.66h6.1v2.31h-8.97v-13.93h2.87v11.63Z"/>
  <path d="M238.82,28.66h6.1v2.31h-8.97v-13.93h2.87v11.63Z"/>
  <path d="M255.48,24.93h-5.51v3.73h6.47v2.31h-9.34v-13.93h9.32v2.33h-6.45v3.32h5.51v2.25Z"/>
  <path d="M270.32,30.97h-2.87l-5.59-9.17v9.17h-2.87v-13.93h2.87l5.6,9.19v-9.19h2.86v13.93Z"/>
</svg>
